%TF.GenerationSoftware,KiCad,Pcbnew,8.0.6*%
%TF.CreationDate,2024-11-03T15:43:53-08:00*%
%TF.ProjectId,Ganglion_01,47616e67-6c69-46f6-9e5f-30312e6b6963,01*%
%TF.SameCoordinates,PX4a1f960PY74ffa90*%
%TF.FileFunction,Soldermask,Bot*%
%TF.FilePolarity,Negative*%
%FSLAX46Y46*%
G04 Gerber Fmt 4.6, Leading zero omitted, Abs format (unit mm)*
G04 Created by KiCad (PCBNEW 8.0.6) date 2024-11-03 15:43:53*
%MOMM*%
%LPD*%
G01*
G04 APERTURE LIST*
G04 Aperture macros list*
%AMRoundRect*
0 Rectangle with rounded corners*
0 $1 Rounding radius*
0 $2 $3 $4 $5 $6 $7 $8 $9 X,Y pos of 4 corners*
0 Add a 4 corners polygon primitive as box body*
4,1,4,$2,$3,$4,$5,$6,$7,$8,$9,$2,$3,0*
0 Add four circle primitives for the rounded corners*
1,1,$1+$1,$2,$3*
1,1,$1+$1,$4,$5*
1,1,$1+$1,$6,$7*
1,1,$1+$1,$8,$9*
0 Add four rect primitives between the rounded corners*
20,1,$1+$1,$2,$3,$4,$5,0*
20,1,$1+$1,$4,$5,$6,$7,0*
20,1,$1+$1,$6,$7,$8,$9,0*
20,1,$1+$1,$8,$9,$2,$3,0*%
%AMHorizOval*
0 Thick line with rounded ends*
0 $1 width*
0 $2 $3 position (X,Y) of the first rounded end (center of the circle)*
0 $4 $5 position (X,Y) of the second rounded end (center of the circle)*
0 Add line between two ends*
20,1,$1,$2,$3,$4,$5,0*
0 Add two circle primitives to create the rounded ends*
1,1,$1,$2,$3*
1,1,$1,$4,$5*%
%AMFreePoly0*
4,1,21,0.561777,0.415194,0.631366,0.359698,0.669986,0.279504,0.669986,0.190496,0.631366,0.110302,0.616421,0.093579,0.146421,-0.376421,0.071056,-0.423777,0.005000,-0.435000,-0.005000,-0.435000,-0.091777,-0.415194,-0.146421,-0.376421,-0.616421,0.093579,-0.663777,0.168944,-0.673742,0.257393,-0.644345,0.341406,-0.581406,0.404345,-0.497393,0.433742,-0.475000,0.435000,0.475000,0.435000,
0.561777,0.415194,0.561777,0.415194,$1*%
G04 Aperture macros list end*
%ADD10RoundRect,0.200000X-0.400000X-0.375000X0.400000X-0.375000X0.400000X0.375000X-0.400000X0.375000X0*%
%ADD11RoundRect,0.200000X-0.375000X0.400000X-0.375000X-0.400000X0.375000X-0.400000X0.375000X0.400000X0*%
%ADD12RoundRect,0.200000X0.375000X-0.400000X0.375000X0.400000X-0.375000X0.400000X-0.375000X-0.400000X0*%
%ADD13RoundRect,0.200000X0.400000X0.375000X-0.400000X0.375000X-0.400000X-0.375000X0.400000X-0.375000X0*%
%ADD14RoundRect,0.200000X-1.016000X0.863600X-1.016000X-0.863600X1.016000X-0.863600X1.016000X0.863600X0*%
%ADD15O,2.432000X2.127200*%
%ADD16RoundRect,0.200000X-0.107763X1.329078X-1.329078X0.107763X0.107763X-1.329078X1.329078X-0.107763X0*%
%ADD17HorizOval,2.127200X-0.107763X0.107763X0.107763X-0.107763X0*%
%ADD18RoundRect,0.200000X-1.329078X-0.107763X-0.107763X-1.329078X1.329078X0.107763X0.107763X1.329078X0*%
%ADD19HorizOval,2.127200X-0.107763X-0.107763X0.107763X0.107763X0*%
%ADD20RoundRect,0.200000X0.450000X-0.250000X0.450000X0.250000X-0.450000X0.250000X-0.450000X-0.250000X0*%
%ADD21RoundRect,0.200000X-0.450000X0.250000X-0.450000X-0.250000X0.450000X-0.250000X0.450000X0.250000X0*%
%ADD22RoundRect,0.200000X0.250000X0.450000X-0.250000X0.450000X-0.250000X-0.450000X0.250000X-0.450000X0*%
%ADD23RoundRect,0.200000X-0.250000X-0.450000X0.250000X-0.450000X0.250000X0.450000X-0.250000X0.450000X0*%
%ADD24RoundRect,0.200000X-0.225000X0.725000X-0.225000X-0.725000X0.225000X-0.725000X0.225000X0.725000X0*%
%ADD25RoundRect,0.200000X-0.500000X-0.127000X0.500000X-0.127000X0.500000X0.127000X-0.500000X0.127000X0*%
%ADD26RoundRect,0.200000X-0.127000X-0.500000X0.127000X-0.500000X0.127000X0.500000X-0.127000X0.500000X0*%
%ADD27RoundRect,0.200000X-0.750000X-0.505000X0.750000X-0.505000X0.750000X0.505000X-0.750000X0.505000X0*%
%ADD28RoundRect,0.200000X-0.750000X-0.750000X0.750000X-0.750000X0.750000X0.750000X-0.750000X0.750000X0*%
%ADD29FreePoly0,0.000000*%
%ADD30RoundRect,0.200000X-0.505000X-0.245000X0.505000X-0.245000X0.505000X0.245000X-0.505000X0.245000X0*%
%ADD31RoundRect,0.200000X0.530000X0.325000X-0.530000X0.325000X-0.530000X-0.325000X0.530000X-0.325000X0*%
%ADD32RoundRect,0.200000X-0.199390X-0.374650X0.199390X-0.374650X0.199390X0.374650X-0.199390X0.374650X0*%
%ADD33RoundRect,0.200000X0.330200X-0.203200X0.330200X0.203200X-0.330200X0.203200X-0.330200X-0.203200X0*%
%ADD34C,1.300000*%
%ADD35RoundRect,0.200000X0.750000X0.350000X-0.750000X0.350000X-0.750000X-0.350000X0.750000X-0.350000X0*%
%ADD36RoundRect,0.200000X0.813173X0.318198X0.318198X0.813173X-0.813173X-0.318198X-0.318198X-0.813173X0*%
%ADD37RoundRect,0.200000X0.989949X0.141421X0.141421X0.989949X-0.989949X-0.141421X-0.141421X-0.989949X0*%
%ADD38RoundRect,0.200000X1.202082X0.353553X0.353553X1.202082X-1.202082X-0.353553X-0.353553X-1.202082X0*%
%ADD39RoundRect,0.200000X1.060660X-0.070711X-0.070711X1.060660X-1.060660X0.070711X0.070711X-1.060660X0*%
%ADD40RoundRect,0.200000X1.237437X0.530330X0.530330X1.237437X-1.237437X-0.530330X-0.530330X-1.237437X0*%
%ADD41RoundRect,0.200000X-0.150000X-0.350000X0.150000X-0.350000X0.150000X0.350000X-0.150000X0.350000X0*%
%ADD42RoundRect,0.200000X-0.200000X-0.125000X0.200000X-0.125000X0.200000X0.125000X-0.200000X0.125000X0*%
%ADD43RoundRect,0.200000X-0.125000X-0.200000X0.125000X-0.200000X0.125000X0.200000X-0.125000X0.200000X0*%
%ADD44RoundRect,0.200000X-0.203200X-0.330200X0.203200X-0.330200X0.203200X0.330200X-0.203200X0.330200X0*%
%ADD45RoundRect,0.200000X0.863600X-0.863600X0.863600X0.863600X-0.863600X0.863600X-0.863600X-0.863600X0*%
%ADD46O,2.127200X2.127200*%
%ADD47RoundRect,0.200000X1.750000X-0.500000X1.750000X0.500000X-1.750000X0.500000X-1.750000X-0.500000X0*%
%ADD48RoundRect,0.200000X1.700000X-0.750000X1.700000X0.750000X-1.700000X0.750000X-1.700000X-0.750000X0*%
G04 APERTURE END LIST*
D10*
%TO.C,C9*%
X51066000Y40386000D03*
X52566000Y40386000D03*
%TD*%
D11*
%TO.C,C1*%
X51054000Y48946500D03*
X51054000Y47446500D03*
%TD*%
D12*
%TO.C,C2*%
X51054000Y44525500D03*
X51054000Y46025500D03*
%TD*%
D11*
%TO.C,C3*%
X41097200Y48883000D03*
X41097200Y47383000D03*
%TD*%
D12*
%TO.C,C4*%
X41122600Y44462000D03*
X41122600Y45962000D03*
%TD*%
D11*
%TO.C,C5*%
X31470600Y48908400D03*
X31470600Y47408400D03*
%TD*%
D12*
%TO.C,C6*%
X31521400Y44462000D03*
X31521400Y45962000D03*
%TD*%
D11*
%TO.C,C7*%
X21767800Y48908400D03*
X21767800Y47408400D03*
%TD*%
D12*
%TO.C,C8*%
X21742400Y44474700D03*
X21742400Y45974700D03*
%TD*%
D13*
%TO.C,C10*%
X45962000Y45974000D03*
X44462000Y45974000D03*
%TD*%
D10*
%TO.C,C11*%
X34429000Y45974000D03*
X35929000Y45974000D03*
%TD*%
%TO.C,C12*%
X24777000Y45847000D03*
X26277000Y45847000D03*
%TD*%
%TO.C,C13*%
X15023400Y45923200D03*
X16523400Y45923200D03*
%TD*%
D11*
%TO.C,C16*%
X33997900Y27407300D03*
X33997900Y25907300D03*
%TD*%
%TO.C,C17*%
X35547300Y27407300D03*
X35547300Y25907300D03*
%TD*%
%TO.C,C18*%
X28321000Y3899600D03*
X28321000Y2399600D03*
%TD*%
%TO.C,C19*%
X40233600Y13069000D03*
X40233600Y11569000D03*
%TD*%
%TO.C,C20*%
X29819600Y3899600D03*
X29819600Y2399600D03*
%TD*%
D10*
%TO.C,C23*%
X23100600Y3505200D03*
X24600600Y3505200D03*
%TD*%
D12*
%TO.C,C30*%
X47955200Y24421400D03*
X47955200Y25921400D03*
%TD*%
%TO.C,C31*%
X46418500Y24446800D03*
X46418500Y25946800D03*
%TD*%
%TO.C,C32*%
X38227000Y25869200D03*
X38227000Y27369200D03*
%TD*%
%TO.C,C33*%
X39725600Y25869200D03*
X39725600Y27369200D03*
%TD*%
%TO.C,C34*%
X41211500Y25869200D03*
X41211500Y27369200D03*
%TD*%
D13*
%TO.C,C40*%
X5652200Y32207200D03*
X4152200Y32207200D03*
%TD*%
%TO.C,C41*%
X45428600Y19291300D03*
X43928600Y19291300D03*
%TD*%
%TO.C,C42*%
X45428600Y20789900D03*
X43928600Y20789900D03*
%TD*%
D14*
%TO.C,P2*%
X52984400Y23063200D03*
D15*
X52984400Y20523200D03*
X52984400Y17983200D03*
X52984400Y15443200D03*
%TD*%
D16*
%TO.C,P3*%
X50596800Y12649200D03*
D17*
X48800749Y10853149D03*
X47004698Y9057098D03*
X45208646Y7261046D03*
%TD*%
D18*
%TO.C,P4*%
X7391400Y36906200D03*
D19*
X9187451Y35110149D03*
X10983502Y33314098D03*
X12779554Y31518046D03*
X14575605Y29721995D03*
X16371656Y27925944D03*
X18167707Y26129893D03*
X19963759Y24333841D03*
%TD*%
D18*
%TO.C,P5*%
X9271000Y38735000D03*
D19*
X11067051Y36938949D03*
X12863102Y35142898D03*
X14659154Y33346846D03*
X16455205Y31550795D03*
X18251256Y29754744D03*
X20047307Y27958693D03*
X21843359Y26162641D03*
%TD*%
D20*
%TO.C,R2*%
X38023800Y57390600D03*
X38023800Y58890600D03*
%TD*%
%TO.C,R3*%
X36398200Y57390600D03*
X36398200Y58890600D03*
%TD*%
%TO.C,R4*%
X33223200Y57390600D03*
X33223200Y58890600D03*
%TD*%
%TO.C,R5*%
X34772600Y57390600D03*
X34772600Y58890600D03*
%TD*%
%TO.C,R6*%
X30099000Y57390600D03*
X30099000Y58890600D03*
%TD*%
%TO.C,R7*%
X31673800Y57390600D03*
X31673800Y58890600D03*
%TD*%
%TO.C,R8*%
X26974800Y57390600D03*
X26974800Y58890600D03*
%TD*%
%TO.C,R9*%
X28524200Y57390600D03*
X28524200Y58890600D03*
%TD*%
D21*
%TO.C,R11*%
X25425400Y58890600D03*
X25425400Y57390600D03*
%TD*%
D22*
%TO.C,R15*%
X47613000Y42672000D03*
X46113000Y42672000D03*
%TD*%
D23*
%TO.C,R16*%
X47637000Y41021000D03*
X49137000Y41021000D03*
%TD*%
D22*
%TO.C,R17*%
X37326000Y42672000D03*
X35826000Y42672000D03*
%TD*%
D23*
%TO.C,R18*%
X37350000Y41021000D03*
X38850000Y41021000D03*
%TD*%
D22*
%TO.C,R19*%
X27928000Y42672000D03*
X26428000Y42672000D03*
%TD*%
%TO.C,R20*%
X29325000Y41021000D03*
X27825000Y41021000D03*
%TD*%
%TO.C,R21*%
X18149000Y42545000D03*
X16649000Y42545000D03*
%TD*%
D20*
%TO.C,R22*%
X19494500Y40461500D03*
X19494500Y41961500D03*
%TD*%
D23*
%TO.C,R23*%
X44543132Y44553113D03*
X46043132Y44553113D03*
%TD*%
%TO.C,R24*%
X34492500Y44386500D03*
X35992500Y44386500D03*
%TD*%
%TO.C,R25*%
X24980200Y44323000D03*
X26480200Y44323000D03*
%TD*%
%TO.C,R26*%
X15213900Y44272200D03*
X16713900Y44272200D03*
%TD*%
D22*
%TO.C,R38*%
X50584800Y20523200D03*
X49084800Y20523200D03*
%TD*%
D21*
%TO.C,R44*%
X7162800Y32157100D03*
X7162800Y30657100D03*
%TD*%
D22*
%TO.C,R45*%
X5614100Y30632400D03*
X4114100Y30632400D03*
%TD*%
D24*
%TO.C,U2*%
X47493132Y48912115D03*
X48143132Y48912115D03*
X48793132Y48912115D03*
X49443132Y48912115D03*
X49443132Y44512115D03*
X48793132Y44512115D03*
X48143132Y44512115D03*
X47493132Y44512115D03*
%TD*%
%TO.C,U3*%
X37506000Y48936000D03*
X38156000Y48936000D03*
X38806000Y48936000D03*
X39456000Y48936000D03*
X39456000Y44536000D03*
X38806000Y44536000D03*
X38156000Y44536000D03*
X37506000Y44536000D03*
%TD*%
%TO.C,U4*%
X27879400Y48936000D03*
X28529400Y48936000D03*
X29179400Y48936000D03*
X29829400Y48936000D03*
X29829400Y44536000D03*
X29179400Y44536000D03*
X28529400Y44536000D03*
X27879400Y44536000D03*
%TD*%
%TO.C,U5*%
X18163900Y48885200D03*
X18813900Y48885200D03*
X19463900Y48885200D03*
X20113900Y48885200D03*
X20113900Y44485200D03*
X19463900Y44485200D03*
X18813900Y44485200D03*
X18163900Y44485200D03*
%TD*%
D25*
%TO.C,U8*%
X31493000Y1399000D03*
X31493000Y1899000D03*
X31493000Y2399000D03*
X31493000Y2899000D03*
X31493000Y3399000D03*
X31493000Y3899000D03*
X31493000Y4399000D03*
X31493000Y4899000D03*
X31493000Y5399000D03*
X31493000Y5899000D03*
X31493000Y6399000D03*
X31493000Y6899000D03*
X31493000Y7399000D03*
X31493000Y7899000D03*
X31493000Y8399000D03*
X31493000Y8899000D03*
X31493000Y9399000D03*
X31493000Y9899000D03*
X31493000Y10399000D03*
D26*
X32548000Y10689000D03*
X33048000Y10689000D03*
X33548000Y10689000D03*
X34048000Y10689000D03*
X34548000Y10689000D03*
X35048000Y10689000D03*
X35548000Y10689000D03*
X36048000Y10689000D03*
X36548000Y10689000D03*
X37048000Y10689000D03*
D25*
X38103000Y10399000D03*
X38103000Y9899000D03*
X38103000Y9399000D03*
X38103000Y8899000D03*
X38103000Y8399000D03*
X38103000Y7899000D03*
X38103000Y7399000D03*
X38103000Y6899000D03*
X38103000Y6399000D03*
X38103000Y5899000D03*
X38103000Y5399000D03*
X38103000Y4899000D03*
D27*
X33798000Y6604000D03*
D28*
X33798000Y8509000D03*
X35798000Y8509000D03*
X35798000Y6389000D03*
D29*
X33518000Y5879000D03*
D30*
X34038000Y5889000D03*
%TD*%
D31*
%TO.C,U11*%
X44902300Y25994400D03*
X44902300Y25044400D03*
X44902300Y24094400D03*
X42702300Y24094400D03*
X42702300Y25994400D03*
%TD*%
D32*
%TO.C,U12*%
X8188960Y28153360D03*
X8839200Y28153360D03*
X9489440Y28153360D03*
X9489440Y26253440D03*
X8839200Y26253440D03*
X8188960Y26253440D03*
%TD*%
D33*
%TO.C,U16*%
X39509700Y16535400D03*
X39509700Y17856200D03*
X39509700Y17195800D03*
X41541700Y17856200D03*
X41541700Y16535400D03*
%TD*%
D34*
%TO.C,SW5*%
X59154000Y28863600D03*
D35*
X57404000Y28113600D03*
X57404000Y29613600D03*
X57404000Y32613600D03*
D34*
X59154000Y31863600D03*
%TD*%
D36*
%TO.C,U13*%
X23765626Y14208930D03*
X22987809Y14986747D03*
X22209992Y15764565D03*
X21432174Y16542382D03*
X20654357Y17320199D03*
X19876539Y18098017D03*
X17543087Y20431469D03*
X18320904Y19653652D03*
X19098722Y18875834D03*
D34*
X9517425Y13607889D03*
X15174279Y7951035D03*
D37*
X24154535Y12971493D03*
D38*
X17437021Y6253978D03*
X6476866Y17214133D03*
D39*
X13901487Y23365962D03*
%TD*%
D20*
%TO.C,R46*%
X35828922Y18756835D03*
X35828922Y20256835D03*
%TD*%
D13*
%TO.C,D1*%
X58255600Y25552400D03*
X56755600Y25552400D03*
%TD*%
D40*
%TO.C,C35*%
X23819060Y19132340D03*
X21697740Y21253660D03*
%TD*%
D10*
%TO.C,C36*%
X33618418Y16725536D03*
X35118418Y16725536D03*
%TD*%
D41*
%TO.C,U23*%
X33098420Y18115737D03*
X33598420Y18115737D03*
X34098420Y18115737D03*
X34598420Y18115737D03*
X34598420Y20865737D03*
X34098420Y20865737D03*
X33598420Y20865737D03*
X33098420Y20865737D03*
%TD*%
D42*
%TO.C,U17*%
X44915300Y17959200D03*
D43*
X43740300Y18134200D03*
X44240300Y18134200D03*
X43740300Y16284200D03*
X44240300Y16284200D03*
D42*
X44915300Y16459200D03*
X44915300Y16959200D03*
X44915300Y17459200D03*
X43065300Y17959200D03*
X43065300Y17459200D03*
X43065300Y16959200D03*
X43065300Y16459200D03*
%TD*%
D44*
%TO.C,U15*%
X4165600Y29032200D03*
X5486400Y29032200D03*
X4826000Y29032200D03*
X5486400Y27000200D03*
X4165600Y27000200D03*
%TD*%
D10*
%TO.C,C37*%
X32397000Y40259000D03*
X33897000Y40259000D03*
%TD*%
%TO.C,C39*%
X42130552Y40282658D03*
X43630552Y40282658D03*
%TD*%
%TO.C,C44*%
X22745000Y40132000D03*
X24245000Y40132000D03*
%TD*%
%TO.C,R1*%
X51066000Y41910000D03*
X52566000Y41910000D03*
%TD*%
D11*
%TO.C,R10*%
X35400000Y38725000D03*
X35400000Y37225000D03*
%TD*%
D10*
%TO.C,R12*%
X47891000Y39243000D03*
X49391000Y39243000D03*
%TD*%
D11*
%TO.C,R13*%
X30607000Y40120000D03*
X30607000Y38620000D03*
%TD*%
%TO.C,R14*%
X45212000Y39358000D03*
X45212000Y37858000D03*
%TD*%
%TO.C,R29*%
X25908000Y39167500D03*
X25908000Y37667500D03*
%TD*%
%TO.C,R30*%
X40340551Y40270658D03*
X40340551Y38770658D03*
%TD*%
%TO.C,R31*%
X21145500Y39993000D03*
X21145500Y38493000D03*
%TD*%
D33*
%TO.C,U1*%
X50673000Y37693600D03*
X50673000Y39014400D03*
X50673000Y38354000D03*
X52705000Y39014400D03*
X52705000Y37693600D03*
%TD*%
%TO.C,U24*%
X32004000Y37185600D03*
X32004000Y38506400D03*
X32004000Y37846000D03*
X34036000Y38506400D03*
X34036000Y37185600D03*
%TD*%
D10*
%TO.C,R34*%
X47891000Y37719000D03*
X49391000Y37719000D03*
%TD*%
%TO.C,R35*%
X30492000Y35814000D03*
X31992000Y35814000D03*
%TD*%
%TO.C,R36*%
X38925000Y36700000D03*
X40425000Y36700000D03*
%TD*%
D13*
%TO.C,R48*%
X24675000Y35675000D03*
X23175000Y35675000D03*
%TD*%
D33*
%TO.C,U26*%
X41864552Y37209259D03*
X41864552Y38530059D03*
X41864552Y37869659D03*
X43896552Y38530059D03*
X43896552Y37209259D03*
%TD*%
%TO.C,U27*%
X22479000Y37058600D03*
X22479000Y38379400D03*
X22479000Y37719000D03*
X24511000Y38379400D03*
X24511000Y37058600D03*
%TD*%
D45*
%TO.C,P1*%
X21590000Y52832000D03*
D46*
X21590000Y55372000D03*
X24130000Y52832000D03*
X24130000Y55372000D03*
X26670000Y52832000D03*
X26670000Y55372000D03*
X29210000Y52832000D03*
X29210000Y55372000D03*
X31750000Y52832000D03*
X31750000Y55372000D03*
X34290000Y52832000D03*
X34290000Y55372000D03*
X36830000Y52832000D03*
X36830000Y55372000D03*
X39370000Y52832000D03*
X39370000Y55372000D03*
%TD*%
D47*
%TO.C,B1*%
X54000400Y31623000D03*
X54000400Y29718000D03*
D48*
X48920400Y33515300D03*
X48920400Y27800300D03*
%TD*%
M02*
