%TF.GenerationSoftware,KiCad,Pcbnew,8.0.6*%
%TF.CreationDate,2024-11-03T15:43:53-08:00*%
%TF.ProjectId,Ganglion_01,47616e67-6c69-46f6-9e5f-30312e6b6963,01*%
%TF.SameCoordinates,PX4a1f960PY74ffa90*%
%TF.FileFunction,Copper,L3,Inr*%
%TF.FilePolarity,Positive*%
%FSLAX46Y46*%
G04 Gerber Fmt 4.6, Leading zero omitted, Abs format (unit mm)*
G04 Created by KiCad (PCBNEW 8.0.6) date 2024-11-03 15:43:53*
%MOMM*%
%LPD*%
G01*
G04 APERTURE LIST*
G04 Aperture macros list*
%AMHorizOval*
0 Thick line with rounded ends*
0 $1 width*
0 $2 $3 position (X,Y) of the first rounded end (center of the circle)*
0 $4 $5 position (X,Y) of the second rounded end (center of the circle)*
0 Add line between two ends*
20,1,$1,$2,$3,$4,$5,0*
0 Add two circle primitives to create the rounded ends*
1,1,$1,$2,$3*
1,1,$1,$4,$5*%
%AMRotRect*
0 Rectangle, with rotation*
0 The origin of the aperture is its center*
0 $1 length*
0 $2 width*
0 $3 Rotation angle, in degrees counterclockwise*
0 Add horizontal line*
21,1,$1,$2,0,0,$3*%
G04 Aperture macros list end*
%TA.AperFunction,ComponentPad*%
%ADD10R,2.032000X1.727200*%
%TD*%
%TA.AperFunction,ComponentPad*%
%ADD11O,2.032000X1.727200*%
%TD*%
%TA.AperFunction,ComponentPad*%
%ADD12RotRect,1.727200X2.032000X225.000000*%
%TD*%
%TA.AperFunction,ComponentPad*%
%ADD13HorizOval,1.727200X-0.107763X0.107763X0.107763X-0.107763X0*%
%TD*%
%TA.AperFunction,ComponentPad*%
%ADD14RotRect,1.727200X2.032000X315.000000*%
%TD*%
%TA.AperFunction,ComponentPad*%
%ADD15HorizOval,1.727200X-0.107763X-0.107763X0.107763X0.107763X0*%
%TD*%
%TA.AperFunction,ComponentPad*%
%ADD16R,1.727200X1.727200*%
%TD*%
%TA.AperFunction,ComponentPad*%
%ADD17O,1.727200X1.727200*%
%TD*%
%TA.AperFunction,ViaPad*%
%ADD18C,0.600000*%
%TD*%
%TA.AperFunction,Conductor*%
%ADD19C,0.177800*%
%TD*%
%TA.AperFunction,Conductor*%
%ADD20C,0.250000*%
%TD*%
G04 APERTURE END LIST*
D10*
%TO.N,/D_14*%
%TO.C,P2*%
X52984400Y23063200D03*
D11*
%TO.N,/SIM_RST*%
X52984400Y20523200D03*
%TO.N,/D_4|A_5*%
X52984400Y17983200D03*
%TO.N,/D_23*%
X52984400Y15443200D03*
%TD*%
D12*
%TO.N,/D_24*%
%TO.C,P3*%
X50596800Y12649200D03*
D13*
%TO.N,/D_21*%
X48800749Y10853149D03*
%TO.N,VDD*%
X47004698Y9057098D03*
%TO.N,GNDA*%
X45208646Y7261046D03*
%TD*%
D14*
%TO.N,VDD*%
%TO.C,P4*%
X7391400Y36906200D03*
D15*
%TO.N,GNDA*%
X9187451Y35110149D03*
%TO.N,MISO*%
X10983502Y33314098D03*
%TO.N,SCK*%
X12779554Y31518046D03*
%TO.N,/RST*%
X14575605Y29721995D03*
%TO.N,/CLK*%
X16371656Y27925944D03*
%TO.N,MOSI*%
X18167707Y26129893D03*
%TO.N,/D_12*%
X19963759Y24333841D03*
%TD*%
D14*
%TO.N,Net-(P5-Pad1)*%
%TO.C,P5*%
X9271000Y38735000D03*
D15*
%TO.N,/SIM_TX*%
X11067051Y36938949D03*
%TO.N,/D_2|A_3*%
X12863102Y35142898D03*
%TO.N,/SIM_RX*%
X14659154Y33346846D03*
%TO.N,/D_3|A_4*%
X16455205Y31550795D03*
%TO.N,/D_5|A_6*%
X18251256Y29754744D03*
%TO.N,/D_9*%
X20047307Y27958693D03*
%TO.N,/D_11*%
X21843359Y26162641D03*
%TD*%
D16*
%TO.N,GNDA*%
%TO.C,P1*%
X21590000Y52832000D03*
D17*
X21590000Y55372000D03*
%TO.N,D_G*%
X24130000Y52832000D03*
X24130000Y55372000D03*
%TO.N,REF*%
X26670000Y52832000D03*
X26670000Y55372000D03*
%TO.N,4_IN+*%
X29210000Y52832000D03*
%TO.N,4_IN-*%
X29210000Y55372000D03*
%TO.N,3_IN+*%
X31750000Y52832000D03*
%TO.N,3_IN-*%
X31750000Y55372000D03*
%TO.N,2_IN+*%
X34290000Y52832000D03*
%TO.N,2_IN-*%
X34290000Y55372000D03*
%TO.N,1_IN+*%
X36830000Y52832000D03*
%TO.N,1_IN-*%
X36830000Y55372000D03*
%TO.N,VAA*%
X39370000Y52832000D03*
X39370000Y55372000D03*
%TD*%
D18*
%TO.N,VAA*%
X52324000Y44450000D03*
X43891200Y36118800D03*
X34036000Y35915600D03*
X25908000Y36169600D03*
X16200000Y50250000D03*
X42400000Y44500000D03*
X32800000Y44500000D03*
X23000000Y44500000D03*
X32702500Y27444700D03*
X36880800Y27368500D03*
X41198800Y30111700D03*
X42392600Y27343100D03*
%TO.N,GNDA*%
X16370300Y7327900D03*
X13398500Y9740900D03*
X46253400Y27863800D03*
X53314600Y33705800D03*
X46482000Y31800800D03*
X51689000Y38354000D03*
X34721800Y19583400D03*
X25806400Y3505200D03*
X30175200Y36880800D03*
X21539200Y37439600D03*
X42900000Y37875000D03*
X46355000Y23241000D03*
X52400000Y47400000D03*
X42400000Y47400000D03*
X33200000Y47425000D03*
X22900000Y47400000D03*
X18732500Y4203700D03*
X37719000Y18808700D03*
X43992800Y21907500D03*
X31496000Y11176000D03*
X25057100Y12319000D03*
X8839200Y27228800D03*
X4140200Y33274000D03*
X14897100Y22377400D03*
X7442200Y16281400D03*
X23482300Y20866100D03*
X32727900Y25882600D03*
X36893500Y25857200D03*
X38188900Y11353800D03*
X34798000Y7467600D03*
%TO.N,Net-(C10-Pad2)*%
X41554400Y32994600D03*
X44825000Y41525000D03*
%TO.N,Net-(C11-Pad1)*%
X37693600Y31648400D03*
X34450000Y42600000D03*
%TO.N,Net-(C12-Pad1)*%
X35064700Y33007300D03*
X25000000Y42700000D03*
%TO.N,Net-(C13-Pad1)*%
X33299400Y31635700D03*
X15400000Y42700000D03*
%TO.N,VDD*%
X19748500Y9144000D03*
X14249400Y13690600D03*
X12242800Y16891000D03*
X10299700Y25704800D03*
X46482000Y29210000D03*
X50673000Y26416000D03*
X31877000Y17653000D03*
X41554400Y15798800D03*
X12306300Y24091900D03*
X49072800Y21615400D03*
X22021800Y19519900D03*
X42456100Y19278600D03*
X22085300Y5588000D03*
X16852900Y10909300D03*
%TO.N,/V_IN*%
X56819800Y33807400D03*
X54711600Y25577800D03*
%TO.N,1_IN+*%
X24866600Y11125200D03*
X16065500Y57099200D03*
%TO.N,2_IN+*%
X16078200Y56057800D03*
X25527000Y10452100D03*
%TO.N,3_IN+*%
X16040100Y54902100D03*
X26212800Y9753600D03*
%TO.N,4_IN+*%
X26847800Y9118600D03*
%TO.N,REF*%
X27787600Y9067800D03*
%TO.N,/SIM_RST*%
X30073600Y4978400D03*
%TO.N,MISO*%
X38328600Y20739100D03*
X21310600Y13360400D03*
%TO.N,SCK*%
X38341300Y14973300D03*
X37693600Y19913600D03*
X19939000Y14960600D03*
%TO.N,MOSI*%
X18237200Y17602200D03*
X37693600Y17716500D03*
%TO.N,/D_5|A_6*%
X29616400Y14579600D03*
%TO.N,/D_3|A_4*%
X29616400Y15494000D03*
%TO.N,/SIM_RX*%
X29616400Y16459200D03*
%TO.N,/D_2|A_3*%
X29616400Y17424400D03*
%TO.N,/SIM_TX*%
X29616400Y18288000D03*
%TO.N,/1_-IN*%
X48800000Y50700000D03*
X42725000Y42225000D03*
%TO.N,/2_-IN*%
X38800000Y47175000D03*
X36925000Y38775000D03*
%TO.N,/3_-IN*%
X28375000Y47275000D03*
%TO.N,/4_-IN*%
X24925000Y41500000D03*
X20400000Y47000000D03*
%TO.N,/MCP_RST*%
X40373300Y9080500D03*
X40043100Y19913600D03*
%TO.N,Net-(R39-Pad1)*%
X8191500Y21336000D03*
%TO.N,Net-(R42-Pad1)*%
X5511800Y25946100D03*
%TO.N,uA_SENS*%
X39471600Y10109200D03*
X23634700Y17106900D03*
X17818100Y22326600D03*
%TO.N,/MCP_SS*%
X37058600Y20751800D03*
%TO.N,Z_TEST_4*%
X42418000Y6146800D03*
%TO.N,Z_TEST_3*%
X41630600Y5791200D03*
%TO.N,Z_TEST_2*%
X40919400Y5283200D03*
%TO.N,Z_TEST_1*%
X39509700Y4749800D03*
%TO.N,Z_TEST_REF*%
X43243500Y6311900D03*
%TO.N,/V_ENABLE*%
X55105300Y27419300D03*
X44958000Y23177500D03*
%TO.N,/D_12*%
X29616400Y11684000D03*
%TO.N,/D_9*%
X29616400Y13614400D03*
%TO.N,/D_11*%
X29616400Y12649200D03*
%TO.N,MCP_DRDY*%
X31496000Y20701000D03*
%TO.N,DRDY*%
X32080200Y12362118D03*
X30861000Y18288000D03*
%TO.N,I_BIAS*%
X44650000Y55500000D03*
%TO.N,V_REF*%
X50165000Y41021000D03*
X46736000Y37719000D03*
X21000000Y41300000D03*
X25550000Y34825000D03*
X39350000Y33175000D03*
X29300000Y34800000D03*
X29300000Y42400000D03*
X38800000Y42500000D03*
X38800000Y34800000D03*
X49200000Y42200000D03*
%TO.N,/SENSORS/IMP_SIG*%
X18923000Y5842000D03*
X10668000Y14198600D03*
X20777200Y4013200D03*
X15748000Y9093200D03*
X13182600Y11658600D03*
%TD*%
D19*
%TO.N,/SIM_RST*%
X30073600Y4978400D02*
X30467300Y5372100D01*
X30467300Y5372100D02*
X39878000Y5384800D01*
X47752000Y7518400D02*
X44856400Y4622800D01*
X47752000Y7518400D02*
X54660800Y14427200D01*
X54660800Y14427200D02*
X54660800Y19989800D01*
X54660800Y19989800D02*
X54127400Y20523200D01*
X52984400Y20523200D02*
X54127400Y20523200D01*
X40627300Y4635500D02*
X39878000Y5384800D01*
X39878000Y5384800D02*
X39865300Y5397500D01*
X44856400Y4622800D02*
X40627300Y4635500D01*
D20*
%TO.N,/1_-IN*%
X48800000Y48300000D02*
X48800000Y50700000D01*
X42725000Y42225000D02*
X48800000Y48300000D01*
%TO.N,/2_-IN*%
X36925000Y45300000D02*
X38800000Y47175000D01*
X36925000Y38775000D02*
X36925000Y45300000D01*
%TO.N,/4_-IN*%
X20400000Y47000000D02*
X20400000Y46025000D01*
X20400000Y46025000D02*
X24925000Y41500000D01*
D19*
%TO.N,uA_SENS*%
X23647400Y17119600D02*
X23634700Y17106900D01*
D20*
%TO.N,V_REF*%
X21000000Y39375000D02*
X21000000Y41300000D01*
X25550000Y34825000D02*
X21000000Y39375000D01*
X29300000Y42400000D02*
X29300000Y34800000D01*
X38800000Y42500000D02*
X38800000Y34800000D01*
%TD*%
%TA.AperFunction,Conductor*%
%TO.N,GNDA*%
G36*
X43190058Y61067698D02*
G01*
X43211032Y61050795D01*
X60999995Y43261832D01*
X61034021Y43199520D01*
X61036900Y43172737D01*
X61036900Y35546477D01*
X61016898Y35478356D01*
X60963242Y35431863D01*
X60910782Y35420477D01*
X47498000Y35433000D01*
X47497997Y35432999D01*
X43687999Y31623001D01*
X43662599Y24688801D01*
X43662600Y24688801D01*
X43662600Y24688800D01*
X44043600Y24714200D01*
X44046960Y25577801D01*
X54152315Y25577801D01*
X54152315Y25577800D01*
X54171371Y25433048D01*
X54227244Y25298159D01*
X54227249Y25298151D01*
X54316125Y25182326D01*
X54431950Y25093450D01*
X54431957Y25093445D01*
X54566846Y25037572D01*
X54711600Y25018515D01*
X54856354Y25037572D01*
X54991243Y25093445D01*
X55107074Y25182326D01*
X55195955Y25298157D01*
X55251828Y25433046D01*
X55270885Y25577800D01*
X55251828Y25722554D01*
X55195955Y25857442D01*
X55107074Y25973274D01*
X55107072Y25973276D01*
X55107071Y25973277D01*
X54991249Y26062151D01*
X54991241Y26062156D01*
X54856352Y26118029D01*
X54711600Y26137085D01*
X54566847Y26118029D01*
X54523984Y26100274D01*
X54431958Y26062155D01*
X54431957Y26062154D01*
X54431956Y26062154D01*
X54316126Y25973274D01*
X54227246Y25857444D01*
X54227245Y25857442D01*
X54220516Y25841197D01*
X54171371Y25722553D01*
X54152315Y25577801D01*
X44046960Y25577801D01*
X44050222Y26416001D01*
X50113715Y26416001D01*
X50113715Y26416000D01*
X50132771Y26271248D01*
X50188644Y26136359D01*
X50188649Y26136351D01*
X50277525Y26020526D01*
X50393350Y25931650D01*
X50393357Y25931645D01*
X50528246Y25875772D01*
X50673000Y25856715D01*
X50817754Y25875772D01*
X50952643Y25931645D01*
X51068474Y26020526D01*
X51157355Y26136357D01*
X51213228Y26271246D01*
X51232285Y26416000D01*
X51213228Y26560754D01*
X51157355Y26695642D01*
X51068474Y26811474D01*
X51068472Y26811476D01*
X51068471Y26811477D01*
X50952649Y26900351D01*
X50952641Y26900356D01*
X50817752Y26956229D01*
X50673000Y26975285D01*
X50528247Y26956229D01*
X50460802Y26928292D01*
X50393358Y26900355D01*
X50393357Y26900354D01*
X50393356Y26900354D01*
X50277526Y26811474D01*
X50188646Y26695644D01*
X50188645Y26695642D01*
X50178673Y26671567D01*
X50132771Y26560753D01*
X50113715Y26416001D01*
X44050222Y26416001D01*
X44054126Y27419301D01*
X54546015Y27419301D01*
X54546015Y27419300D01*
X54565071Y27274548D01*
X54620944Y27139659D01*
X54620949Y27139651D01*
X54709825Y27023826D01*
X54825650Y26934950D01*
X54825657Y26934945D01*
X54960546Y26879072D01*
X55105300Y26860015D01*
X55250054Y26879072D01*
X55384943Y26934945D01*
X55500774Y27023826D01*
X55589655Y27139657D01*
X55645528Y27274546D01*
X55664585Y27419300D01*
X55645528Y27564054D01*
X55589655Y27698942D01*
X55500774Y27814774D01*
X55500772Y27814776D01*
X55500771Y27814777D01*
X55384949Y27903651D01*
X55384941Y27903656D01*
X55250052Y27959529D01*
X55105300Y27978585D01*
X54960547Y27959529D01*
X54910811Y27938927D01*
X54825658Y27903655D01*
X54825657Y27903654D01*
X54825656Y27903654D01*
X54709826Y27814774D01*
X54620946Y27698944D01*
X54620945Y27698942D01*
X54599904Y27648144D01*
X54565071Y27564053D01*
X54546015Y27419301D01*
X44054126Y27419301D01*
X44061093Y29210001D01*
X45922715Y29210001D01*
X45922715Y29210000D01*
X45941771Y29065248D01*
X45997644Y28930359D01*
X45997649Y28930351D01*
X46086525Y28814526D01*
X46202350Y28725650D01*
X46202357Y28725645D01*
X46337246Y28669772D01*
X46482000Y28650715D01*
X46626754Y28669772D01*
X46761643Y28725645D01*
X46877474Y28814526D01*
X46966355Y28930357D01*
X46967282Y28932596D01*
X58453500Y28932596D01*
X58453500Y28794605D01*
X58460107Y28761392D01*
X58480420Y28659272D01*
X58533225Y28531789D01*
X58579103Y28463128D01*
X58609885Y28417059D01*
X58609890Y28417053D01*
X58707452Y28319491D01*
X58707458Y28319486D01*
X58822189Y28242825D01*
X58949672Y28190020D01*
X59085007Y28163100D01*
X59085008Y28163100D01*
X59222992Y28163100D01*
X59222993Y28163100D01*
X59358328Y28190020D01*
X59485811Y28242825D01*
X59600542Y28319486D01*
X59698114Y28417058D01*
X59774775Y28531789D01*
X59827580Y28659272D01*
X59854500Y28794607D01*
X59854500Y28932593D01*
X59827580Y29067928D01*
X59774775Y29195411D01*
X59698114Y29310142D01*
X59698109Y29310148D01*
X59600547Y29407710D01*
X59600541Y29407715D01*
X59562239Y29433307D01*
X59485811Y29484375D01*
X59384742Y29526239D01*
X59358331Y29537179D01*
X59358328Y29537180D01*
X59222995Y29564100D01*
X59222993Y29564100D01*
X59085007Y29564100D01*
X59085004Y29564100D01*
X58949671Y29537180D01*
X58949668Y29537179D01*
X58822189Y29484375D01*
X58707458Y29407715D01*
X58707452Y29407710D01*
X58609890Y29310148D01*
X58609885Y29310142D01*
X58533225Y29195411D01*
X58480421Y29067932D01*
X58480420Y29067929D01*
X58453500Y28932596D01*
X46967282Y28932596D01*
X47022228Y29065246D01*
X47041285Y29210000D01*
X47040303Y29217456D01*
X47022228Y29354753D01*
X47009636Y29385153D01*
X46966355Y29489642D01*
X46877474Y29605474D01*
X46877472Y29605476D01*
X46877471Y29605477D01*
X46761649Y29694351D01*
X46761641Y29694356D01*
X46626752Y29750229D01*
X46482000Y29769285D01*
X46337247Y29750229D01*
X46300422Y29734975D01*
X46202358Y29694355D01*
X46202357Y29694354D01*
X46202356Y29694354D01*
X46086526Y29605474D01*
X45997646Y29489644D01*
X45997645Y29489642D01*
X45974310Y29433307D01*
X45941771Y29354753D01*
X45922715Y29210001D01*
X44061093Y29210001D01*
X44068798Y31190099D01*
X44089065Y31258141D01*
X44105697Y31278698D01*
X44759595Y31932596D01*
X58453500Y31932596D01*
X58453500Y31794605D01*
X58480420Y31659272D01*
X58480421Y31659269D01*
X58484923Y31648400D01*
X58533225Y31531789D01*
X58584447Y31455129D01*
X58609885Y31417059D01*
X58609890Y31417053D01*
X58707452Y31319491D01*
X58707458Y31319486D01*
X58822189Y31242825D01*
X58949672Y31190020D01*
X59085007Y31163100D01*
X59085008Y31163100D01*
X59222992Y31163100D01*
X59222993Y31163100D01*
X59358328Y31190020D01*
X59485811Y31242825D01*
X59600542Y31319486D01*
X59698114Y31417058D01*
X59774775Y31531789D01*
X59827580Y31659272D01*
X59854500Y31794607D01*
X59854500Y31932593D01*
X59827580Y32067928D01*
X59774775Y32195411D01*
X59698114Y32310142D01*
X59698109Y32310148D01*
X59600547Y32407710D01*
X59600541Y32407715D01*
X59540227Y32448015D01*
X59485811Y32484375D01*
X59405421Y32517674D01*
X59358331Y32537179D01*
X59358328Y32537180D01*
X59222995Y32564100D01*
X59222993Y32564100D01*
X59085007Y32564100D01*
X59085004Y32564100D01*
X58949671Y32537180D01*
X58949668Y32537179D01*
X58822189Y32484375D01*
X58707458Y32407715D01*
X58707452Y32407710D01*
X58609890Y32310148D01*
X58609885Y32310142D01*
X58533225Y32195411D01*
X58480421Y32067932D01*
X58480420Y32067929D01*
X58453500Y31932596D01*
X44759595Y31932596D01*
X46634400Y33807401D01*
X56260515Y33807401D01*
X56260515Y33807400D01*
X56279571Y33662648D01*
X56335444Y33527759D01*
X56335449Y33527751D01*
X56424325Y33411926D01*
X56534902Y33327077D01*
X56540157Y33323045D01*
X56675046Y33267172D01*
X56819800Y33248115D01*
X56964554Y33267172D01*
X57099443Y33323045D01*
X57215274Y33411926D01*
X57304155Y33527757D01*
X57360028Y33662646D01*
X57379085Y33807400D01*
X57376755Y33825095D01*
X57360028Y33952153D01*
X57360028Y33952154D01*
X57304155Y34087042D01*
X57215274Y34202874D01*
X57215272Y34202876D01*
X57215271Y34202877D01*
X57099449Y34291751D01*
X57099441Y34291756D01*
X56964552Y34347629D01*
X56819800Y34366685D01*
X56675047Y34347629D01*
X56607602Y34319692D01*
X56540158Y34291755D01*
X56540157Y34291754D01*
X56540156Y34291754D01*
X56424326Y34202874D01*
X56335446Y34087044D01*
X56335445Y34087042D01*
X56318665Y34046532D01*
X56279571Y33952153D01*
X56260515Y33807401D01*
X46634400Y33807401D01*
X47715295Y34888296D01*
X47777605Y34922320D01*
X47803903Y34925198D01*
X60910421Y34975080D01*
X60978617Y34955337D01*
X61025314Y34901859D01*
X61036900Y34849081D01*
X61036900Y17939664D01*
X61016898Y17871543D01*
X60999995Y17850569D01*
X47627327Y4477902D01*
X47565015Y4443876D01*
X47541128Y4441030D01*
X45505027Y4394222D01*
X45503071Y4394193D01*
X45417923Y4393558D01*
X45349655Y4413051D01*
X45302763Y4466358D01*
X45292135Y4536555D01*
X45321146Y4601354D01*
X45327874Y4608635D01*
X48026788Y7307547D01*
X54935588Y14216347D01*
X54980798Y14294652D01*
X55004200Y14381991D01*
X55004200Y14472410D01*
X55004200Y20035009D01*
X55003630Y20037135D01*
X54980798Y20122348D01*
X54939866Y20193244D01*
X54935590Y20200650D01*
X54935582Y20200660D01*
X54816235Y20320007D01*
X55545580Y20320007D01*
X55545580Y20319994D01*
X55565239Y20007510D01*
X55565242Y20007486D01*
X55605706Y19795369D01*
X55623915Y19699912D01*
X55720677Y19402111D01*
X55853999Y19118786D01*
X55854001Y19118783D01*
X55854004Y19118777D01*
X56021775Y18854411D01*
X56221371Y18613141D01*
X56221374Y18613139D01*
X56221375Y18613137D01*
X56407932Y18437948D01*
X56449634Y18398787D01*
X56695914Y18219854D01*
X56702959Y18214736D01*
X56977353Y18063886D01*
X57148456Y17996142D01*
X57268485Y17948619D01*
X57268488Y17948619D01*
X57268491Y17948617D01*
X57571780Y17870745D01*
X57571783Y17870745D01*
X57571786Y17870744D01*
X57769905Y17845716D01*
X57882437Y17831500D01*
X57882441Y17831500D01*
X58195559Y17831500D01*
X58195563Y17831500D01*
X58474074Y17866684D01*
X58506213Y17870744D01*
X58506214Y17870745D01*
X58506220Y17870745D01*
X58809509Y17948617D01*
X59100647Y18063886D01*
X59375041Y18214736D01*
X59628366Y18398787D01*
X59856625Y18613137D01*
X60056219Y18854404D01*
X60056221Y18854409D01*
X60056224Y18854411D01*
X60223995Y19118777D01*
X60224001Y19118786D01*
X60357323Y19402111D01*
X60454085Y19699912D01*
X60512759Y20007492D01*
X60519985Y20122353D01*
X60532420Y20319994D01*
X60532420Y20320007D01*
X60512760Y20632491D01*
X60512759Y20632508D01*
X60454085Y20940088D01*
X60357323Y21237889D01*
X60224001Y21521214D01*
X60212587Y21539200D01*
X60056224Y21785590D01*
X59856628Y22026860D01*
X59835233Y22046951D01*
X59628366Y22241213D01*
X59510841Y22326600D01*
X59375043Y22425263D01*
X59276263Y22479568D01*
X59100647Y22576114D01*
X59016849Y22609292D01*
X58809514Y22691382D01*
X58809496Y22691387D01*
X58506226Y22769254D01*
X58506213Y22769257D01*
X58195577Y22808499D01*
X58195566Y22808500D01*
X58195563Y22808500D01*
X57882437Y22808500D01*
X57882434Y22808500D01*
X57882422Y22808499D01*
X57571786Y22769257D01*
X57571773Y22769254D01*
X57268503Y22691387D01*
X57268485Y22691382D01*
X56977353Y22576114D01*
X56702956Y22425263D01*
X56449635Y22241214D01*
X56449634Y22241214D01*
X56221371Y22026860D01*
X56021775Y21785590D01*
X55854004Y21521224D01*
X55853997Y21521210D01*
X55720680Y21237896D01*
X55720678Y21237892D01*
X55623916Y20940092D01*
X55623914Y20940084D01*
X55565242Y20632515D01*
X55565239Y20632491D01*
X55545580Y20320007D01*
X54816235Y20320007D01*
X54338259Y20797983D01*
X54338249Y20797991D01*
X54259945Y20843200D01*
X54254121Y20845612D01*
X54198841Y20890162D01*
X54182509Y20923085D01*
X54176986Y20940084D01*
X54172984Y20952401D01*
X54093085Y21109212D01*
X54016572Y21214523D01*
X53989637Y21251596D01*
X53865195Y21376038D01*
X53722815Y21479483D01*
X53722814Y21479484D01*
X53722812Y21479485D01*
X53566001Y21559384D01*
X53565998Y21559385D01*
X53565996Y21559386D01*
X53398626Y21613767D01*
X53398624Y21613768D01*
X53398622Y21613768D01*
X53224796Y21641300D01*
X52744004Y21641300D01*
X52570178Y21613768D01*
X52570176Y21613768D01*
X52570173Y21613767D01*
X52402803Y21559386D01*
X52402797Y21559383D01*
X52245984Y21479483D01*
X52103604Y21376038D01*
X51979162Y21251596D01*
X51875717Y21109216D01*
X51795817Y20952403D01*
X51795814Y20952397D01*
X51741433Y20785027D01*
X51741432Y20785024D01*
X51741432Y20785022D01*
X51713900Y20611196D01*
X51713900Y20435204D01*
X51740471Y20267445D01*
X51741433Y20261374D01*
X51791778Y20106425D01*
X51795816Y20093999D01*
X51874690Y19939200D01*
X51875717Y19937185D01*
X51979162Y19794805D01*
X52103604Y19670363D01*
X52103607Y19670361D01*
X52245988Y19566915D01*
X52402799Y19487016D01*
X52570178Y19432632D01*
X52744004Y19405100D01*
X52744007Y19405100D01*
X53224793Y19405100D01*
X53224796Y19405100D01*
X53398622Y19432632D01*
X53566001Y19487016D01*
X53722812Y19566915D01*
X53865193Y19670361D01*
X53989639Y19794807D01*
X54063048Y19895847D01*
X54119270Y19939200D01*
X54190006Y19945275D01*
X54252798Y19912144D01*
X54254079Y19910880D01*
X54280495Y19884464D01*
X54314521Y19822152D01*
X54317400Y19795369D01*
X54317400Y18648258D01*
X54297398Y18580137D01*
X54243742Y18533644D01*
X54173468Y18523540D01*
X54108888Y18553034D01*
X54089464Y18574197D01*
X53989637Y18711596D01*
X53865195Y18836038D01*
X53722815Y18939483D01*
X53722814Y18939484D01*
X53722812Y18939485D01*
X53566001Y19019384D01*
X53565998Y19019385D01*
X53565996Y19019386D01*
X53398626Y19073767D01*
X53398624Y19073768D01*
X53398622Y19073768D01*
X53224796Y19101300D01*
X52744004Y19101300D01*
X52570178Y19073768D01*
X52570176Y19073768D01*
X52570173Y19073767D01*
X52402803Y19019386D01*
X52402797Y19019383D01*
X52245984Y18939483D01*
X52103604Y18836038D01*
X51979162Y18711596D01*
X51875717Y18569216D01*
X51795817Y18412403D01*
X51795814Y18412397D01*
X51741433Y18245027D01*
X51741432Y18245024D01*
X51741432Y18245022D01*
X51713900Y18071196D01*
X51713900Y17895204D01*
X51740270Y17728715D01*
X51741433Y17721374D01*
X51790049Y17571746D01*
X51795816Y17553999D01*
X51861850Y17424400D01*
X51875717Y17397185D01*
X51979162Y17254805D01*
X52103604Y17130363D01*
X52103607Y17130361D01*
X52245988Y17026915D01*
X52402799Y16947016D01*
X52570178Y16892632D01*
X52744004Y16865100D01*
X52744007Y16865100D01*
X53224793Y16865100D01*
X53224796Y16865100D01*
X53398622Y16892632D01*
X53566001Y16947016D01*
X53722812Y17026915D01*
X53865193Y17130361D01*
X53989639Y17254807D01*
X54089464Y17392204D01*
X54145686Y17435558D01*
X54216423Y17441633D01*
X54279214Y17408501D01*
X54314126Y17346681D01*
X54317400Y17318143D01*
X54317400Y16108258D01*
X54297398Y16040137D01*
X54243742Y15993644D01*
X54173468Y15983540D01*
X54108888Y16013034D01*
X54089464Y16034197D01*
X53989637Y16171596D01*
X53865195Y16296038D01*
X53722815Y16399483D01*
X53722814Y16399484D01*
X53722812Y16399485D01*
X53566001Y16479384D01*
X53565998Y16479385D01*
X53565996Y16479386D01*
X53398626Y16533767D01*
X53398624Y16533768D01*
X53398622Y16533768D01*
X53224796Y16561300D01*
X52744004Y16561300D01*
X52570178Y16533768D01*
X52570176Y16533768D01*
X52570173Y16533767D01*
X52402803Y16479386D01*
X52402797Y16479383D01*
X52245984Y16399483D01*
X52103604Y16296038D01*
X51979162Y16171596D01*
X51875717Y16029216D01*
X51795817Y15872403D01*
X51795814Y15872397D01*
X51741433Y15705027D01*
X51741432Y15705024D01*
X51741432Y15705022D01*
X51713900Y15531196D01*
X51713900Y15355204D01*
X51741432Y15181378D01*
X51741433Y15181374D01*
X51788407Y15036800D01*
X51795816Y15013999D01*
X51875715Y14857188D01*
X51875717Y14857185D01*
X51979162Y14714805D01*
X52103604Y14590363D01*
X52103607Y14590361D01*
X52245988Y14486915D01*
X52402799Y14407016D01*
X52570178Y14352632D01*
X52744004Y14325100D01*
X52744007Y14325100D01*
X53224793Y14325100D01*
X53224796Y14325100D01*
X53398622Y14352632D01*
X53566001Y14407016D01*
X53722812Y14486915D01*
X53865193Y14590361D01*
X53989639Y14714807D01*
X54089464Y14852204D01*
X54145686Y14895558D01*
X54216423Y14901633D01*
X54279214Y14868501D01*
X54314126Y14806681D01*
X54317400Y14778143D01*
X54317400Y14621631D01*
X54297398Y14553510D01*
X54280495Y14532536D01*
X52363530Y12615572D01*
X52301218Y12581546D01*
X52230402Y12586611D01*
X52173567Y12629158D01*
X52169670Y12634665D01*
X52154304Y12657662D01*
X52123562Y12703671D01*
X50651271Y14175960D01*
X50650752Y14176307D01*
X50588337Y14218013D01*
X50489038Y14237763D01*
X50489036Y14237763D01*
X50389735Y14218013D01*
X50339021Y14184126D01*
X50326805Y14175963D01*
X50326802Y14175961D01*
X50326800Y14175960D01*
X49070041Y12919199D01*
X49070037Y12919194D01*
X49027987Y12856264D01*
X49008237Y12756964D01*
X49008237Y12756963D01*
X49027987Y12657662D01*
X49049013Y12626196D01*
X49070038Y12594729D01*
X50542329Y11122440D01*
X50605262Y11080388D01*
X50611337Y11076329D01*
X50656864Y11021851D01*
X50665710Y10951408D01*
X50635068Y10887364D01*
X50630428Y10882470D01*
X50229544Y10481586D01*
X50167232Y10447560D01*
X50096417Y10452625D01*
X50039581Y10495172D01*
X50014770Y10561692D01*
X50015999Y10590385D01*
X50026612Y10657389D01*
X50026612Y10833382D01*
X49999081Y11007208D01*
X49944696Y11174588D01*
X49920163Y11222735D01*
X49864797Y11331396D01*
X49830242Y11378957D01*
X49761351Y11473779D01*
X49421380Y11813751D01*
X49421379Y11813752D01*
X49421378Y11813753D01*
X49360227Y11858181D01*
X49278998Y11917196D01*
X49278992Y11917199D01*
X49278986Y11917203D01*
X49122193Y11997094D01*
X49122185Y11997097D01*
X48954814Y12051480D01*
X48954810Y12051481D01*
X48954809Y12051481D01*
X48780983Y12079012D01*
X48604989Y12079012D01*
X48447554Y12054077D01*
X48431157Y12051480D01*
X48263786Y11997097D01*
X48263778Y11997094D01*
X48106985Y11917203D01*
X48106974Y11917196D01*
X47964595Y11813753D01*
X47964580Y11813741D01*
X47840157Y11689318D01*
X47840149Y11689308D01*
X47840147Y11689306D01*
X47736702Y11546924D01*
X47736695Y11546913D01*
X47656804Y11390120D01*
X47656801Y11390112D01*
X47602418Y11222741D01*
X47602417Y11222736D01*
X47602417Y11222735D01*
X47574886Y11048909D01*
X47574886Y10872915D01*
X47597565Y10729726D01*
X47602418Y10699084D01*
X47656801Y10531713D01*
X47656804Y10531705D01*
X47736695Y10374912D01*
X47736699Y10374906D01*
X47736702Y10374900D01*
X47754782Y10350015D01*
X47840145Y10232520D01*
X48180120Y9892546D01*
X48181234Y9891737D01*
X48322500Y9789102D01*
X48479310Y9709202D01*
X48646684Y9654819D01*
X48646685Y9654819D01*
X48646690Y9654817D01*
X48820516Y9627286D01*
X48820519Y9627286D01*
X48996506Y9627286D01*
X48996509Y9627286D01*
X49063508Y9637898D01*
X49133917Y9628799D01*
X49188231Y9583077D01*
X49209204Y9515249D01*
X49190177Y9446849D01*
X49172312Y9424354D01*
X48433493Y8685535D01*
X48371181Y8651509D01*
X48300366Y8656574D01*
X48243530Y8699121D01*
X48218719Y8765641D01*
X48219948Y8794334D01*
X48230561Y8861338D01*
X48230561Y9037331D01*
X48203030Y9211157D01*
X48148645Y9378537D01*
X48125662Y9423642D01*
X48068746Y9535345D01*
X48065746Y9539474D01*
X47965300Y9677728D01*
X47625329Y10017700D01*
X47625328Y10017701D01*
X47625327Y10017702D01*
X47564176Y10062130D01*
X47482947Y10121145D01*
X47482941Y10121148D01*
X47482935Y10121152D01*
X47326142Y10201043D01*
X47326134Y10201046D01*
X47158763Y10255429D01*
X47158759Y10255430D01*
X47158758Y10255430D01*
X46984932Y10282961D01*
X46808938Y10282961D01*
X46635112Y10255430D01*
X46635106Y10255429D01*
X46467735Y10201046D01*
X46467727Y10201043D01*
X46310934Y10121152D01*
X46310923Y10121145D01*
X46189935Y10033243D01*
X46168544Y10017702D01*
X46168529Y10017690D01*
X46044106Y9893267D01*
X46044098Y9893257D01*
X46044096Y9893255D01*
X45968426Y9789102D01*
X45940651Y9750873D01*
X45940644Y9750862D01*
X45860753Y9594069D01*
X45860750Y9594061D01*
X45806367Y9426690D01*
X45806366Y9426685D01*
X45806366Y9426684D01*
X45778835Y9252858D01*
X45778835Y9076864D01*
X45801186Y8935746D01*
X45806367Y8903033D01*
X45860750Y8735662D01*
X45860753Y8735654D01*
X45940644Y8578861D01*
X45940648Y8578855D01*
X45940651Y8578849D01*
X45982524Y8521215D01*
X46044094Y8436469D01*
X46044095Y8436468D01*
X46044096Y8436467D01*
X46384068Y8096496D01*
X46526449Y7993051D01*
X46683259Y7913151D01*
X46850633Y7858768D01*
X46850634Y7858768D01*
X46850639Y7858766D01*
X47024465Y7831235D01*
X47024468Y7831235D01*
X47200455Y7831235D01*
X47200458Y7831235D01*
X47267457Y7841847D01*
X47337866Y7832748D01*
X47392180Y7787026D01*
X47413153Y7719198D01*
X47394126Y7650798D01*
X47376261Y7628303D01*
X46636840Y6888882D01*
X46574528Y6854856D01*
X46503713Y6859921D01*
X46446877Y6902468D01*
X46422066Y6968988D01*
X46423296Y6997689D01*
X46434010Y7065330D01*
X46434010Y7241237D01*
X46406488Y7414994D01*
X46352131Y7582288D01*
X46352128Y7582294D01*
X46272263Y7739037D01*
X46168866Y7881351D01*
X45828949Y8221269D01*
X45686635Y8324665D01*
X45529893Y8404529D01*
X45529887Y8404532D01*
X45362593Y8458889D01*
X45188837Y8486410D01*
X45012929Y8486410D01*
X44839172Y8458889D01*
X44671878Y8404532D01*
X44671872Y8404529D01*
X44515136Y8324668D01*
X44508821Y8320081D01*
X45077166Y7751737D01*
X45012565Y7734427D01*
X44896726Y7667548D01*
X44802144Y7572966D01*
X44735265Y7457127D01*
X44717955Y7392528D01*
X44149611Y7960872D01*
X44145024Y7954556D01*
X44065163Y7797820D01*
X44065160Y7797814D01*
X44010803Y7630520D01*
X43983282Y7456763D01*
X43983282Y7280856D01*
X44010803Y7107099D01*
X44065160Y6939805D01*
X44065163Y6939799D01*
X44145025Y6783061D01*
X44145026Y6783060D01*
X44240304Y6651917D01*
X44240305Y6651917D01*
X44717955Y7129567D01*
X44735265Y7064965D01*
X44802144Y6949126D01*
X44896726Y6854544D01*
X45012565Y6787665D01*
X45077163Y6770357D01*
X44599516Y6292709D01*
X44599516Y6292707D01*
X44730655Y6197429D01*
X44887398Y6117564D01*
X44887404Y6117561D01*
X45054698Y6063204D01*
X45228455Y6035682D01*
X45404369Y6035682D01*
X45472002Y6046395D01*
X45542413Y6037297D01*
X45596727Y5991576D01*
X45617701Y5923748D01*
X45598675Y5855348D01*
X45580809Y5832852D01*
X44751647Y5003690D01*
X44689335Y4969664D01*
X44662174Y4966786D01*
X41579939Y4976041D01*
X41511878Y4996247D01*
X41465547Y5050042D01*
X41455654Y5120346D01*
X41458610Y5134650D01*
X41459625Y5138440D01*
X41459628Y5138446D01*
X41459628Y5138453D01*
X41461045Y5143738D01*
X41497996Y5204361D01*
X41561856Y5235383D01*
X41599192Y5236050D01*
X41630600Y5231915D01*
X41775354Y5250972D01*
X41910243Y5306845D01*
X42026074Y5395726D01*
X42114955Y5511557D01*
X42123907Y5533170D01*
X42168453Y5588449D01*
X42235816Y5610871D01*
X42265045Y5607553D01*
X42265058Y5607650D01*
X42270519Y5606932D01*
X42272924Y5606658D01*
X42273243Y5606573D01*
X42273246Y5606572D01*
X42418000Y5587515D01*
X42562754Y5606572D01*
X42697643Y5662445D01*
X42813474Y5751326D01*
X42835266Y5779727D01*
X42892604Y5821594D01*
X42963475Y5825816D01*
X42983438Y5819434D01*
X43098746Y5771672D01*
X43243500Y5752615D01*
X43388254Y5771672D01*
X43523143Y5827545D01*
X43638974Y5916426D01*
X43727855Y6032257D01*
X43783728Y6167146D01*
X43802785Y6311900D01*
X43783728Y6456654D01*
X43727855Y6591542D01*
X43638974Y6707374D01*
X43638972Y6707376D01*
X43638971Y6707377D01*
X43523149Y6796251D01*
X43523141Y6796256D01*
X43388252Y6852129D01*
X43243500Y6871185D01*
X43098747Y6852129D01*
X43031302Y6824192D01*
X42963858Y6796255D01*
X42963857Y6796254D01*
X42963856Y6796254D01*
X42848025Y6707374D01*
X42826233Y6678973D01*
X42768895Y6637106D01*
X42698024Y6632885D01*
X42678057Y6639268D01*
X42593828Y6674157D01*
X42562752Y6687029D01*
X42418000Y6706085D01*
X42273247Y6687029D01*
X42205802Y6659092D01*
X42138358Y6631155D01*
X42138357Y6631154D01*
X42138356Y6631154D01*
X42022526Y6542274D01*
X41933646Y6426444D01*
X41933641Y6426434D01*
X41924691Y6404828D01*
X41880142Y6349548D01*
X41812778Y6327129D01*
X41783554Y6330448D01*
X41783542Y6330350D01*
X41778055Y6331073D01*
X41775672Y6331343D01*
X41775355Y6331428D01*
X41630600Y6350485D01*
X41485847Y6331429D01*
X41418402Y6303492D01*
X41350958Y6275555D01*
X41350957Y6275554D01*
X41350956Y6275554D01*
X41235126Y6186674D01*
X41146246Y6070844D01*
X41146245Y6070842D01*
X41130260Y6032251D01*
X41090370Y5935950D01*
X41088953Y5930659D01*
X41052000Y5870037D01*
X40988139Y5839017D01*
X40950801Y5838351D01*
X40919400Y5842485D01*
X40774647Y5823429D01*
X40707202Y5795492D01*
X40639758Y5767555D01*
X40639757Y5767554D01*
X40639756Y5767554D01*
X40523926Y5678674D01*
X40435046Y5562844D01*
X40435042Y5562837D01*
X40434143Y5560665D01*
X40432895Y5559118D01*
X40430918Y5555692D01*
X40430383Y5556001D01*
X40389590Y5505388D01*
X40322225Y5482973D01*
X40253435Y5500537D01*
X40228643Y5519798D01*
X40158585Y5589856D01*
X40157862Y5590679D01*
X40140942Y5607553D01*
X40120860Y5627581D01*
X40120873Y5627595D01*
X40120738Y5627703D01*
X40088853Y5659588D01*
X40076153Y5672288D01*
X40076150Y5672290D01*
X40076149Y5672291D01*
X39997848Y5717498D01*
X39997842Y5717501D01*
X39910512Y5740899D01*
X39910510Y5740899D01*
X39820090Y5740899D01*
X39788099Y5732328D01*
X39755664Y5728036D01*
X30466088Y5715499D01*
X30422071Y5715499D01*
X30421833Y5715467D01*
X30421635Y5715441D01*
X30421628Y5715439D01*
X30377792Y5703630D01*
X30353966Y5697246D01*
X30334730Y5692092D01*
X30334335Y5691928D01*
X30295623Y5669508D01*
X30295541Y5669461D01*
X30283400Y5662450D01*
X30256434Y5646881D01*
X30256170Y5646678D01*
X30256091Y5646618D01*
X30237227Y5627703D01*
X30224706Y5615148D01*
X30200237Y5590679D01*
X30182611Y5573053D01*
X30120299Y5539029D01*
X30077071Y5537229D01*
X30073600Y5537685D01*
X30073599Y5537685D01*
X29928847Y5518629D01*
X29861402Y5490692D01*
X29793958Y5462755D01*
X29793957Y5462754D01*
X29793956Y5462754D01*
X29678126Y5373874D01*
X29589246Y5258044D01*
X29589245Y5258042D01*
X29578423Y5231915D01*
X29533371Y5123153D01*
X29514315Y4978401D01*
X29514315Y4978400D01*
X29533371Y4833648D01*
X29589244Y4698759D01*
X29589249Y4698751D01*
X29678125Y4582926D01*
X29793950Y4494050D01*
X29793957Y4494045D01*
X29928846Y4438172D01*
X30073600Y4419115D01*
X30218354Y4438172D01*
X30353243Y4494045D01*
X30469074Y4582926D01*
X30557955Y4698757D01*
X30613828Y4833646D01*
X30625134Y4919529D01*
X30653856Y4984454D01*
X30713121Y5023546D01*
X30749885Y5029081D01*
X38844778Y5040006D01*
X38912923Y5020096D01*
X38959488Y4966503D01*
X38969867Y4897560D01*
X38950415Y4749801D01*
X38950415Y4749800D01*
X38969471Y4605048D01*
X38995165Y4543018D01*
X39002754Y4472428D01*
X38970974Y4408941D01*
X38909916Y4372714D01*
X38878756Y4368800D01*
X31826200Y4368800D01*
X31826200Y150700D01*
X31806198Y82579D01*
X31752542Y36086D01*
X31700200Y24700D01*
X17888863Y24700D01*
X17820742Y44702D01*
X17799768Y61605D01*
X13848172Y4013201D01*
X20217915Y4013201D01*
X20217915Y4013200D01*
X20236971Y3868448D01*
X20292844Y3733559D01*
X20292849Y3733551D01*
X20381725Y3617726D01*
X20497550Y3528850D01*
X20497557Y3528845D01*
X20632446Y3472972D01*
X20777200Y3453915D01*
X20921954Y3472972D01*
X21056843Y3528845D01*
X21172674Y3617726D01*
X21261555Y3733557D01*
X21317428Y3868446D01*
X21336485Y4013200D01*
X21317428Y4157954D01*
X21261555Y4292842D01*
X21172674Y4408674D01*
X21172672Y4408676D01*
X21172671Y4408677D01*
X21056849Y4497551D01*
X21056841Y4497556D01*
X20921952Y4553429D01*
X20777200Y4572485D01*
X20632447Y4553429D01*
X20591711Y4536555D01*
X20497558Y4497555D01*
X20497557Y4497554D01*
X20497556Y4497554D01*
X20381726Y4408674D01*
X20292846Y4292844D01*
X20292845Y4292842D01*
X20287222Y4279266D01*
X20236971Y4157953D01*
X20217915Y4013201D01*
X13848172Y4013201D01*
X12019372Y5842001D01*
X18363715Y5842001D01*
X18363715Y5842000D01*
X18382771Y5697248D01*
X18438644Y5562359D01*
X18438649Y5562351D01*
X18527525Y5446526D01*
X18622207Y5373874D01*
X18643357Y5357645D01*
X18778246Y5301772D01*
X18923000Y5282715D01*
X19067754Y5301772D01*
X19202643Y5357645D01*
X19318474Y5446526D01*
X19407355Y5562357D01*
X19417977Y5588001D01*
X21526015Y5588001D01*
X21526015Y5588000D01*
X21545071Y5443248D01*
X21600944Y5308359D01*
X21600949Y5308351D01*
X21689825Y5192526D01*
X21805650Y5103650D01*
X21805657Y5103645D01*
X21940546Y5047772D01*
X22085300Y5028715D01*
X22230054Y5047772D01*
X22364943Y5103645D01*
X22480774Y5192526D01*
X22569655Y5308357D01*
X22625528Y5443246D01*
X22644585Y5588000D01*
X22625528Y5732754D01*
X22569655Y5867642D01*
X22480774Y5983474D01*
X22480772Y5983476D01*
X22480771Y5983477D01*
X22364949Y6072351D01*
X22364941Y6072356D01*
X22230052Y6128229D01*
X22085300Y6147285D01*
X21940547Y6128229D01*
X21873102Y6100292D01*
X21805658Y6072355D01*
X21805657Y6072354D01*
X21805656Y6072354D01*
X21689826Y5983474D01*
X21600946Y5867644D01*
X21600945Y5867642D01*
X21573008Y5800198D01*
X21545071Y5732753D01*
X21526015Y5588001D01*
X19417977Y5588001D01*
X19463228Y5697246D01*
X19482285Y5842000D01*
X19463228Y5986754D01*
X19407355Y6121642D01*
X19318474Y6237474D01*
X19318472Y6237476D01*
X19318471Y6237477D01*
X19202649Y6326351D01*
X19202641Y6326356D01*
X19067752Y6382229D01*
X18923000Y6401285D01*
X18778247Y6382229D01*
X18710802Y6354292D01*
X18643358Y6326355D01*
X18643357Y6326354D01*
X18643356Y6326354D01*
X18527526Y6237474D01*
X18438646Y6121644D01*
X18438645Y6121642D01*
X18418229Y6072354D01*
X18382771Y5986753D01*
X18363715Y5842001D01*
X12019372Y5842001D01*
X9841342Y8020031D01*
X14473779Y8020031D01*
X14473779Y7882040D01*
X14500699Y7746707D01*
X14500700Y7746704D01*
X14520205Y7699614D01*
X14553504Y7619224D01*
X14578180Y7582294D01*
X14630164Y7504494D01*
X14630169Y7504488D01*
X14727731Y7406926D01*
X14727737Y7406921D01*
X14842468Y7330260D01*
X14969951Y7277455D01*
X15105286Y7250535D01*
X15105287Y7250535D01*
X15243271Y7250535D01*
X15243272Y7250535D01*
X15378607Y7277455D01*
X15506090Y7330260D01*
X15620821Y7406921D01*
X15718393Y7504493D01*
X15795054Y7619224D01*
X15847859Y7746707D01*
X15874779Y7882042D01*
X15874779Y8020028D01*
X15847859Y8155363D01*
X15795054Y8282846D01*
X15749625Y8350835D01*
X15728411Y8418586D01*
X15747194Y8487053D01*
X15800011Y8534496D01*
X15837942Y8545757D01*
X15892754Y8552972D01*
X16027643Y8608845D01*
X16143474Y8697726D01*
X16232355Y8813557D01*
X16288228Y8948446D01*
X16307285Y9093200D01*
X16300597Y9144001D01*
X19189215Y9144001D01*
X19189215Y9144000D01*
X19208271Y8999248D01*
X19264144Y8864359D01*
X19264149Y8864351D01*
X19353025Y8748526D01*
X19468850Y8659650D01*
X19468857Y8659645D01*
X19603746Y8603772D01*
X19748500Y8584715D01*
X19893254Y8603772D01*
X20028143Y8659645D01*
X20143974Y8748526D01*
X20232855Y8864357D01*
X20288728Y8999246D01*
X20307785Y9144000D01*
X20288728Y9288754D01*
X20232855Y9423642D01*
X20143974Y9539474D01*
X20143972Y9539476D01*
X20143971Y9539477D01*
X20028149Y9628351D01*
X20028141Y9628356D01*
X19893252Y9684229D01*
X19748500Y9703285D01*
X19603747Y9684229D01*
X19536302Y9656292D01*
X19468858Y9628355D01*
X19468857Y9628354D01*
X19468856Y9628354D01*
X19353026Y9539474D01*
X19264146Y9423644D01*
X19264145Y9423642D01*
X19253624Y9398242D01*
X19208271Y9288753D01*
X19189215Y9144001D01*
X16300597Y9144001D01*
X16288228Y9237954D01*
X16232355Y9372842D01*
X16143474Y9488674D01*
X16143472Y9488676D01*
X16143471Y9488677D01*
X16027649Y9577551D01*
X16027641Y9577556D01*
X15892752Y9633429D01*
X15748000Y9652485D01*
X15603247Y9633429D01*
X15535802Y9605492D01*
X15468358Y9577555D01*
X15468357Y9577554D01*
X15468356Y9577554D01*
X15352526Y9488674D01*
X15263646Y9372844D01*
X15263645Y9372842D01*
X15253124Y9347442D01*
X15207771Y9237953D01*
X15188715Y9093201D01*
X15188715Y9093200D01*
X15207771Y8948448D01*
X15217112Y8925897D01*
X15258594Y8825751D01*
X15266183Y8755164D01*
X15234404Y8691677D01*
X15173346Y8655449D01*
X15142185Y8651535D01*
X15105283Y8651535D01*
X14969950Y8624615D01*
X14969947Y8624614D01*
X14842468Y8571810D01*
X14727737Y8495150D01*
X14727731Y8495145D01*
X14630169Y8397583D01*
X14630164Y8397577D01*
X14553504Y8282846D01*
X14500700Y8155367D01*
X14500699Y8155364D01*
X14473779Y8020031D01*
X9841342Y8020031D01*
X6952072Y10909301D01*
X16293615Y10909301D01*
X16293615Y10909300D01*
X16312671Y10764548D01*
X16368544Y10629659D01*
X16368549Y10629651D01*
X16457425Y10513826D01*
X16548630Y10443842D01*
X16573257Y10424945D01*
X16708146Y10369072D01*
X16852900Y10350015D01*
X16997654Y10369072D01*
X17132543Y10424945D01*
X17248374Y10513826D01*
X17337255Y10629657D01*
X17393128Y10764546D01*
X17412185Y10909300D01*
X17393128Y11054054D01*
X17363658Y11125201D01*
X24307315Y11125201D01*
X24307315Y11125200D01*
X24326371Y10980448D01*
X24382244Y10845559D01*
X24382249Y10845551D01*
X24471125Y10729726D01*
X24586950Y10640850D01*
X24586957Y10640845D01*
X24721846Y10584972D01*
X24858394Y10566996D01*
X24923320Y10538274D01*
X24962412Y10479009D01*
X24966869Y10458521D01*
X24986771Y10307348D01*
X25042644Y10172459D01*
X25042649Y10172451D01*
X25131525Y10056626D01*
X25247350Y9967750D01*
X25247357Y9967745D01*
X25382246Y9911872D01*
X25527000Y9892815D01*
X25528168Y9892815D01*
X25529117Y9892537D01*
X25535188Y9891737D01*
X25535063Y9890791D01*
X25596289Y9872813D01*
X25642782Y9819157D01*
X25651366Y9761858D01*
X25653515Y9761858D01*
X25653515Y9753600D01*
X25672571Y9608848D01*
X25728444Y9473959D01*
X25728449Y9473951D01*
X25817325Y9358126D01*
X25933150Y9269250D01*
X25933157Y9269245D01*
X26068046Y9213372D01*
X26183850Y9198127D01*
X26248777Y9169405D01*
X26287869Y9110140D01*
X26292326Y9089651D01*
X26307571Y8973848D01*
X26363444Y8838959D01*
X26363449Y8838951D01*
X26452325Y8723126D01*
X26545624Y8651535D01*
X26568157Y8634245D01*
X26703046Y8578372D01*
X26847800Y8559315D01*
X26992554Y8578372D01*
X27127443Y8634245D01*
X27212468Y8699488D01*
X27278684Y8725087D01*
X27348233Y8710823D01*
X27389130Y8676230D01*
X27392126Y8672326D01*
X27506301Y8584715D01*
X27507957Y8583445D01*
X27642846Y8527572D01*
X27787600Y8508515D01*
X27932354Y8527572D01*
X28067243Y8583445D01*
X28183074Y8672326D01*
X28271955Y8788157D01*
X28327828Y8923046D01*
X28346885Y9067800D01*
X28345213Y9080501D01*
X39814015Y9080501D01*
X39814015Y9080500D01*
X39833071Y8935748D01*
X39888944Y8800859D01*
X39888949Y8800851D01*
X39977825Y8685026D01*
X40077106Y8608845D01*
X40093657Y8596145D01*
X40228546Y8540272D01*
X40373300Y8521215D01*
X40518054Y8540272D01*
X40652943Y8596145D01*
X40768774Y8685026D01*
X40857655Y8800857D01*
X40913528Y8935746D01*
X40932585Y9080500D01*
X40913528Y9225254D01*
X40857655Y9360142D01*
X40768774Y9475974D01*
X40768772Y9475976D01*
X40768771Y9475977D01*
X40652949Y9564851D01*
X40652941Y9564856D01*
X40518052Y9620729D01*
X40373300Y9639785D01*
X40228547Y9620729D01*
X40164186Y9594069D01*
X40093658Y9564855D01*
X40093657Y9564854D01*
X40093656Y9564854D01*
X39977826Y9475974D01*
X39888946Y9360144D01*
X39888945Y9360142D01*
X39861008Y9292698D01*
X39833071Y9225253D01*
X39814015Y9080501D01*
X28345213Y9080501D01*
X28327828Y9212554D01*
X28271955Y9347442D01*
X28183074Y9463274D01*
X28183072Y9463276D01*
X28183071Y9463277D01*
X28067249Y9552151D01*
X28067241Y9552156D01*
X27932352Y9608029D01*
X27787600Y9627085D01*
X27642847Y9608029D01*
X27575402Y9580092D01*
X27507958Y9552155D01*
X27507957Y9552154D01*
X27507952Y9552151D01*
X27422933Y9486914D01*
X27356713Y9461314D01*
X27287164Y9475579D01*
X27246268Y9510172D01*
X27243272Y9514076D01*
X27127449Y9602951D01*
X27127441Y9602956D01*
X26992552Y9658829D01*
X26876749Y9674074D01*
X26811822Y9702796D01*
X26772730Y9762062D01*
X26768274Y9782545D01*
X26753028Y9898354D01*
X26697155Y10033242D01*
X26638870Y10109201D01*
X38912315Y10109201D01*
X38912315Y10109200D01*
X38931371Y9964448D01*
X38987244Y9829559D01*
X38987249Y9829551D01*
X39076125Y9713726D01*
X39191950Y9624850D01*
X39191957Y9624845D01*
X39326846Y9568972D01*
X39471600Y9549915D01*
X39616354Y9568972D01*
X39751243Y9624845D01*
X39867074Y9713726D01*
X39955955Y9829557D01*
X40011828Y9964446D01*
X40030885Y10109200D01*
X40029312Y10121145D01*
X40018794Y10201043D01*
X40011828Y10253954D01*
X39955955Y10388842D01*
X39867074Y10504674D01*
X39867072Y10504676D01*
X39867071Y10504677D01*
X39751249Y10593551D01*
X39751241Y10593556D01*
X39616352Y10649429D01*
X39471600Y10668485D01*
X39326847Y10649429D01*
X39259402Y10621492D01*
X39191958Y10593555D01*
X39191957Y10593554D01*
X39191956Y10593554D01*
X39076126Y10504674D01*
X38987246Y10388844D01*
X38987245Y10388842D01*
X38959308Y10321398D01*
X38931371Y10253953D01*
X38912315Y10109201D01*
X26638870Y10109201D01*
X26608274Y10149074D01*
X26608272Y10149076D01*
X26608271Y10149077D01*
X26492449Y10237951D01*
X26492441Y10237956D01*
X26357552Y10293829D01*
X26212800Y10312885D01*
X26211632Y10312885D01*
X26210682Y10313164D01*
X26204612Y10313963D01*
X26204736Y10314910D01*
X26143511Y10332887D01*
X26097018Y10386543D01*
X26088434Y10443842D01*
X26086285Y10443842D01*
X26086285Y10452101D01*
X26067228Y10596853D01*
X26067228Y10596854D01*
X26011355Y10731742D01*
X25922474Y10847574D01*
X25922472Y10847576D01*
X25922471Y10847577D01*
X25806649Y10936451D01*
X25806641Y10936456D01*
X25671752Y10992329D01*
X25535206Y11010305D01*
X25470278Y11039028D01*
X25431187Y11098293D01*
X25426730Y11118781D01*
X25419428Y11174245D01*
X25406828Y11269954D01*
X25350955Y11404842D01*
X25262074Y11520674D01*
X25262072Y11520676D01*
X25262071Y11520677D01*
X25146249Y11609551D01*
X25146241Y11609556D01*
X25011352Y11665429D01*
X24866600Y11684485D01*
X24721847Y11665429D01*
X24654402Y11637492D01*
X24586958Y11609555D01*
X24586957Y11609554D01*
X24586956Y11609554D01*
X24471126Y11520674D01*
X24382246Y11404844D01*
X24382245Y11404842D01*
X24354308Y11337398D01*
X24326371Y11269953D01*
X24307315Y11125201D01*
X17363658Y11125201D01*
X17337255Y11188942D01*
X17248374Y11304774D01*
X17248372Y11304776D01*
X17248371Y11304777D01*
X17132549Y11393651D01*
X17132541Y11393656D01*
X16997652Y11449529D01*
X16852900Y11468585D01*
X16708147Y11449529D01*
X16640702Y11421592D01*
X16573258Y11393655D01*
X16573257Y11393654D01*
X16573256Y11393654D01*
X16457426Y11304774D01*
X16368546Y11188944D01*
X16368545Y11188942D01*
X16349835Y11143772D01*
X16312671Y11054053D01*
X16293615Y10909301D01*
X6952072Y10909301D01*
X6202772Y11658601D01*
X12623315Y11658601D01*
X12623315Y11658600D01*
X12642371Y11513848D01*
X12698244Y11378959D01*
X12698249Y11378951D01*
X12787125Y11263126D01*
X12902502Y11174594D01*
X12902957Y11174245D01*
X13037846Y11118372D01*
X13182600Y11099315D01*
X13327354Y11118372D01*
X13462243Y11174245D01*
X13578074Y11263126D01*
X13666955Y11378957D01*
X13722828Y11513846D01*
X13741885Y11658600D01*
X13722828Y11803354D01*
X13666955Y11938242D01*
X13578074Y12054074D01*
X13578072Y12054076D01*
X13578071Y12054077D01*
X13462249Y12142951D01*
X13462241Y12142956D01*
X13327352Y12198829D01*
X13182600Y12217885D01*
X13037847Y12198829D01*
X12970402Y12170892D01*
X12902958Y12142955D01*
X12902957Y12142954D01*
X12902956Y12142954D01*
X12787126Y12054074D01*
X12698246Y11938244D01*
X12698245Y11938242D01*
X12673196Y11877768D01*
X12642371Y11803353D01*
X12623315Y11658601D01*
X6202772Y11658601D01*
X4184488Y13676885D01*
X8816925Y13676885D01*
X8816925Y13538894D01*
X8823637Y13505153D01*
X8843845Y13403561D01*
X8896650Y13276078D01*
X8939216Y13212374D01*
X8973310Y13161348D01*
X8973315Y13161342D01*
X9070877Y13063780D01*
X9070883Y13063775D01*
X9185614Y12987114D01*
X9313097Y12934309D01*
X9448432Y12907389D01*
X9448433Y12907389D01*
X9586417Y12907389D01*
X9586418Y12907389D01*
X9721753Y12934309D01*
X9849236Y12987114D01*
X9963967Y13063775D01*
X10061539Y13161347D01*
X10138200Y13276078D01*
X10191005Y13403561D01*
X10217925Y13538896D01*
X10217925Y13596269D01*
X10237927Y13664390D01*
X10291583Y13710883D01*
X10361857Y13720987D01*
X10392132Y13712682D01*
X10523246Y13658372D01*
X10668000Y13639315D01*
X10812754Y13658372D01*
X10890561Y13690601D01*
X13690115Y13690601D01*
X13690115Y13690600D01*
X13709171Y13545848D01*
X13765044Y13410959D01*
X13765049Y13410951D01*
X13853925Y13295126D01*
X13969750Y13206250D01*
X13969757Y13206245D01*
X14104646Y13150372D01*
X14249400Y13131315D01*
X14394154Y13150372D01*
X14529043Y13206245D01*
X14644874Y13295126D01*
X14694962Y13360401D01*
X20751315Y13360401D01*
X20751315Y13360400D01*
X20770371Y13215648D01*
X20826244Y13080759D01*
X20826249Y13080751D01*
X20915125Y12964926D01*
X20996681Y12902346D01*
X21030957Y12876045D01*
X21165846Y12820172D01*
X21310600Y12801115D01*
X21455354Y12820172D01*
X21590243Y12876045D01*
X21706074Y12964926D01*
X21794955Y13080757D01*
X21850828Y13215646D01*
X21869885Y13360400D01*
X21850828Y13505154D01*
X21794955Y13640042D01*
X21706074Y13755874D01*
X21706072Y13755876D01*
X21706071Y13755877D01*
X21590249Y13844751D01*
X21590241Y13844756D01*
X21455352Y13900629D01*
X21310600Y13919685D01*
X21165847Y13900629D01*
X21098402Y13872692D01*
X21030958Y13844755D01*
X21030957Y13844754D01*
X21030956Y13844754D01*
X20915126Y13755874D01*
X20826246Y13640044D01*
X20826245Y13640042D01*
X20798308Y13572598D01*
X20770371Y13505153D01*
X20751315Y13360401D01*
X14694962Y13360401D01*
X14733755Y13410957D01*
X14789628Y13545846D01*
X14808685Y13690600D01*
X14805778Y13712678D01*
X14789628Y13835353D01*
X14789628Y13835354D01*
X14733755Y13970242D01*
X14644874Y14086074D01*
X14644872Y14086076D01*
X14644871Y14086077D01*
X14529049Y14174951D01*
X14529041Y14174956D01*
X14394152Y14230829D01*
X14249400Y14249885D01*
X14104647Y14230829D01*
X14037202Y14202892D01*
X13969758Y14174955D01*
X13969757Y14174954D01*
X13969756Y14174954D01*
X13853926Y14086074D01*
X13765046Y13970244D01*
X13765045Y13970242D01*
X13743803Y13918959D01*
X13709171Y13835353D01*
X13690115Y13690601D01*
X10890561Y13690601D01*
X10947643Y13714245D01*
X11063474Y13803126D01*
X11152355Y13918957D01*
X11208228Y14053846D01*
X11227285Y14198600D01*
X11218179Y14267764D01*
X11208228Y14343353D01*
X11208228Y14343354D01*
X11152355Y14478242D01*
X11063474Y14594074D01*
X11063472Y14594076D01*
X11063471Y14594077D01*
X10947649Y14682951D01*
X10947641Y14682956D01*
X10812752Y14738829D01*
X10668000Y14757885D01*
X10523247Y14738829D01*
X10455802Y14710892D01*
X10388358Y14682955D01*
X10388357Y14682954D01*
X10388356Y14682954D01*
X10272526Y14594074D01*
X10183646Y14478244D01*
X10183645Y14478242D01*
X10165670Y14434846D01*
X10127771Y14343353D01*
X10117820Y14267764D01*
X10089097Y14202837D01*
X10029832Y14163746D01*
X9958840Y14162901D01*
X9922896Y14179446D01*
X9849236Y14228664D01*
X9721756Y14281468D01*
X9721753Y14281469D01*
X9586420Y14308389D01*
X9586418Y14308389D01*
X9448432Y14308389D01*
X9448429Y14308389D01*
X9313096Y14281469D01*
X9313093Y14281468D01*
X9185614Y14228664D01*
X9070883Y14152004D01*
X9070877Y14151999D01*
X8973315Y14054437D01*
X8973310Y14054431D01*
X8896650Y13939700D01*
X8843846Y13812221D01*
X8843845Y13812218D01*
X8816925Y13676885D01*
X4184488Y13676885D01*
X2900772Y14960601D01*
X19379715Y14960601D01*
X19379715Y14960600D01*
X19398771Y14815848D01*
X19454644Y14680959D01*
X19454649Y14680951D01*
X19543525Y14565126D01*
X19656753Y14478243D01*
X19659357Y14476245D01*
X19794246Y14420372D01*
X19939000Y14401315D01*
X20083754Y14420372D01*
X20218643Y14476245D01*
X20334474Y14565126D01*
X20423355Y14680957D01*
X20479228Y14815846D01*
X20498285Y14960600D01*
X20496379Y14975074D01*
X20479228Y15105353D01*
X20475852Y15113504D01*
X20423355Y15240242D01*
X20334474Y15356074D01*
X20334472Y15356076D01*
X20334471Y15356077D01*
X20218649Y15444951D01*
X20218641Y15444956D01*
X20083752Y15500829D01*
X19939000Y15519885D01*
X19794247Y15500829D01*
X19726802Y15472892D01*
X19659358Y15444955D01*
X19659357Y15444954D01*
X19659356Y15444954D01*
X19543526Y15356074D01*
X19454646Y15240244D01*
X19454645Y15240242D01*
X19430261Y15181374D01*
X19398771Y15105353D01*
X19379715Y14960601D01*
X2900772Y14960601D01*
X970372Y16891001D01*
X11683515Y16891001D01*
X11683515Y16891000D01*
X11702571Y16746248D01*
X11758444Y16611359D01*
X11758449Y16611351D01*
X11847325Y16495526D01*
X11963150Y16406650D01*
X11963157Y16406645D01*
X12098046Y16350772D01*
X12242800Y16331715D01*
X12387554Y16350772D01*
X12522443Y16406645D01*
X12638274Y16495526D01*
X12727155Y16611357D01*
X12783028Y16746246D01*
X12802085Y16891000D01*
X12783028Y17035754D01*
X12727155Y17170642D01*
X12638274Y17286474D01*
X12638272Y17286476D01*
X12638271Y17286477D01*
X12522449Y17375351D01*
X12522441Y17375356D01*
X12387552Y17431229D01*
X12242800Y17450285D01*
X12098047Y17431229D01*
X12030602Y17403292D01*
X11963158Y17375355D01*
X11963157Y17375354D01*
X11963156Y17375354D01*
X11847326Y17286474D01*
X11758446Y17170644D01*
X11758445Y17170642D01*
X11741761Y17130363D01*
X11702571Y17035753D01*
X11683515Y16891001D01*
X970372Y16891001D01*
X259172Y17602201D01*
X17677915Y17602201D01*
X17677915Y17602200D01*
X17696971Y17457448D01*
X17752844Y17322559D01*
X17752849Y17322551D01*
X17841725Y17206726D01*
X17957550Y17117850D01*
X17957557Y17117845D01*
X18092446Y17061972D01*
X18237200Y17042915D01*
X18381954Y17061972D01*
X18490422Y17106901D01*
X23075415Y17106901D01*
X23075415Y17106900D01*
X23094471Y16962148D01*
X23150344Y16827259D01*
X23150349Y16827251D01*
X23239225Y16711426D01*
X23355050Y16622550D01*
X23355057Y16622545D01*
X23489946Y16566672D01*
X23634700Y16547615D01*
X23779454Y16566672D01*
X23914343Y16622545D01*
X24030174Y16711426D01*
X24119055Y16827257D01*
X24174928Y16962146D01*
X24193985Y17106900D01*
X24192543Y17117850D01*
X24174928Y17251653D01*
X24173624Y17254802D01*
X24119055Y17386542D01*
X24030174Y17502374D01*
X24030172Y17502376D01*
X24030171Y17502377D01*
X23914349Y17591251D01*
X23914341Y17591256D01*
X23779452Y17647129D01*
X23634700Y17666185D01*
X23489947Y17647129D01*
X23422502Y17619192D01*
X23355058Y17591255D01*
X23355057Y17591254D01*
X23355056Y17591254D01*
X23239226Y17502374D01*
X23150346Y17386544D01*
X23150345Y17386542D01*
X23133834Y17346681D01*
X23094471Y17251653D01*
X23075415Y17106901D01*
X18490422Y17106901D01*
X18516843Y17117845D01*
X18632674Y17206726D01*
X18721555Y17322557D01*
X18777428Y17457446D01*
X18796485Y17602200D01*
X18777428Y17746954D01*
X18721555Y17881842D01*
X18632674Y17997674D01*
X18632672Y17997676D01*
X18632671Y17997677D01*
X18516849Y18086551D01*
X18516841Y18086556D01*
X18381952Y18142429D01*
X18237200Y18161485D01*
X18092447Y18142429D01*
X18027755Y18115632D01*
X17957558Y18086555D01*
X17957557Y18086554D01*
X17957556Y18086554D01*
X17841726Y17997674D01*
X17752846Y17881844D01*
X17752845Y17881842D01*
X17727177Y17819874D01*
X17696971Y17746953D01*
X17677915Y17602201D01*
X259172Y17602201D01*
X10805Y17850568D01*
X-23221Y17912880D01*
X-26100Y17939663D01*
X-26100Y20320007D01*
X681580Y20320007D01*
X681580Y20319994D01*
X701239Y20007510D01*
X701242Y20007486D01*
X741706Y19795369D01*
X759915Y19699912D01*
X856677Y19402111D01*
X989999Y19118786D01*
X990001Y19118783D01*
X990004Y19118777D01*
X1157775Y18854411D01*
X1357371Y18613141D01*
X1357374Y18613139D01*
X1357375Y18613137D01*
X1543932Y18437948D01*
X1585634Y18398787D01*
X1831914Y18219854D01*
X1838959Y18214736D01*
X2113353Y18063886D01*
X2284456Y17996142D01*
X2404485Y17948619D01*
X2404488Y17948619D01*
X2404491Y17948617D01*
X2707780Y17870745D01*
X2707783Y17870745D01*
X2707786Y17870744D01*
X2905905Y17845716D01*
X3018437Y17831500D01*
X3018441Y17831500D01*
X3331559Y17831500D01*
X3331563Y17831500D01*
X3610074Y17866684D01*
X3642213Y17870744D01*
X3642214Y17870745D01*
X3642220Y17870745D01*
X3945509Y17948617D01*
X4236647Y18063886D01*
X4511041Y18214736D01*
X4611882Y18288001D01*
X29057115Y18288001D01*
X29057115Y18288000D01*
X29076171Y18143248D01*
X29132044Y18008359D01*
X29132049Y18008351D01*
X29189942Y17932904D01*
X29215543Y17866684D01*
X29201278Y17797135D01*
X29189943Y17779496D01*
X29132046Y17704044D01*
X29132045Y17704042D01*
X29108471Y17647129D01*
X29076171Y17569153D01*
X29057115Y17424401D01*
X29057115Y17424400D01*
X29076171Y17279648D01*
X29132044Y17144759D01*
X29132049Y17144751D01*
X29225953Y17022374D01*
X29224301Y17021107D01*
X29252982Y16968583D01*
X29247917Y16897768D01*
X29224934Y16862009D01*
X29225954Y16861226D01*
X29132046Y16738844D01*
X29132045Y16738842D01*
X29120689Y16711426D01*
X29076171Y16603953D01*
X29057115Y16459201D01*
X29057115Y16459200D01*
X29076171Y16314448D01*
X29132044Y16179559D01*
X29132049Y16179551D01*
X29225953Y16057174D01*
X29224301Y16055907D01*
X29252982Y16003383D01*
X29247917Y15932568D01*
X29224934Y15896809D01*
X29225954Y15896026D01*
X29220927Y15889475D01*
X29220926Y15889474D01*
X29181789Y15838471D01*
X29132046Y15773644D01*
X29132045Y15773642D01*
X29104108Y15706198D01*
X29076171Y15638753D01*
X29057115Y15494001D01*
X29057115Y15494000D01*
X29076171Y15349248D01*
X29132044Y15214359D01*
X29132049Y15214351D01*
X29209432Y15113504D01*
X29235033Y15047284D01*
X29220768Y14977735D01*
X29209433Y14960096D01*
X29132046Y14859244D01*
X29132045Y14859242D01*
X29114070Y14815846D01*
X29076171Y14724353D01*
X29057115Y14579601D01*
X29057115Y14579600D01*
X29076171Y14434848D01*
X29132044Y14299959D01*
X29132049Y14299951D01*
X29225953Y14177574D01*
X29224301Y14176307D01*
X29252982Y14123783D01*
X29247917Y14052968D01*
X29224934Y14017209D01*
X29225954Y14016426D01*
X29132046Y13894044D01*
X29132045Y13894042D01*
X29111629Y13844754D01*
X29076171Y13759153D01*
X29057115Y13614401D01*
X29057115Y13614400D01*
X29076171Y13469648D01*
X29132044Y13334759D01*
X29132049Y13334751D01*
X29225953Y13212374D01*
X29224301Y13211107D01*
X29252982Y13158583D01*
X29247917Y13087768D01*
X29224934Y13052009D01*
X29225954Y13051226D01*
X29132046Y12928844D01*
X29132045Y12928842D01*
X29121070Y12902346D01*
X29076171Y12793953D01*
X29057115Y12649201D01*
X29057115Y12649200D01*
X29076171Y12504448D01*
X29132044Y12369559D01*
X29132049Y12369551D01*
X29225953Y12247174D01*
X29224301Y12245907D01*
X29252982Y12193383D01*
X29247917Y12122568D01*
X29224934Y12086809D01*
X29225954Y12086026D01*
X29220927Y12079475D01*
X29220926Y12079474D01*
X29181789Y12028471D01*
X29132046Y11963644D01*
X29132045Y11963642D01*
X29121524Y11938242D01*
X29076171Y11828753D01*
X29057115Y11684001D01*
X29057115Y11684000D01*
X29076171Y11539248D01*
X29132044Y11404359D01*
X29132049Y11404351D01*
X29220925Y11288526D01*
X29336750Y11199650D01*
X29336757Y11199645D01*
X29471646Y11143772D01*
X29616400Y11124715D01*
X29761154Y11143772D01*
X29896043Y11199645D01*
X30011874Y11288526D01*
X30100755Y11404357D01*
X30156628Y11539246D01*
X30175685Y11684000D01*
X30174986Y11689306D01*
X30166156Y11756377D01*
X30156628Y11828754D01*
X30100755Y11963642D01*
X30011874Y12079474D01*
X30011872Y12079475D01*
X30006846Y12086026D01*
X30008498Y12087295D01*
X29979818Y12139817D01*
X29984883Y12210632D01*
X30007865Y12246393D01*
X30006847Y12247174D01*
X30062204Y12319318D01*
X30095047Y12362119D01*
X31520915Y12362119D01*
X31520915Y12362118D01*
X31539971Y12217366D01*
X31595844Y12082477D01*
X31595849Y12082469D01*
X31684725Y11966644D01*
X31749158Y11917203D01*
X31800557Y11877763D01*
X31935446Y11821890D01*
X32080200Y11802833D01*
X32224954Y11821890D01*
X32359843Y11877763D01*
X32475674Y11966644D01*
X32564555Y12082475D01*
X32620428Y12217364D01*
X32639485Y12362118D01*
X32638506Y12369551D01*
X32620428Y12506871D01*
X32620428Y12506872D01*
X32564555Y12641760D01*
X32475674Y12757592D01*
X32475672Y12757594D01*
X32475671Y12757595D01*
X32359849Y12846469D01*
X32359841Y12846474D01*
X32224952Y12902347D01*
X32080200Y12921403D01*
X31935447Y12902347D01*
X31871962Y12876050D01*
X31800558Y12846473D01*
X31800557Y12846472D01*
X31800556Y12846472D01*
X31684726Y12757592D01*
X31595846Y12641762D01*
X31595845Y12641760D01*
X31576364Y12594729D01*
X31539971Y12506871D01*
X31520915Y12362119D01*
X30095047Y12362119D01*
X30100755Y12369557D01*
X30156628Y12504446D01*
X30175685Y12649200D01*
X30156628Y12793954D01*
X30100755Y12928842D01*
X30011874Y13044674D01*
X30011872Y13044675D01*
X30006846Y13051226D01*
X30008498Y13052495D01*
X29979818Y13105017D01*
X29984883Y13175832D01*
X30007865Y13211593D01*
X30006847Y13212374D01*
X30100750Y13334751D01*
X30100755Y13334757D01*
X30156628Y13469646D01*
X30175685Y13614400D01*
X30156628Y13759154D01*
X30100755Y13894042D01*
X30011874Y14009874D01*
X30011872Y14009875D01*
X30006846Y14016426D01*
X30008498Y14017695D01*
X29979818Y14070217D01*
X29984883Y14141032D01*
X30007865Y14176793D01*
X30006847Y14177574D01*
X30086568Y14281468D01*
X30100755Y14299957D01*
X30156628Y14434846D01*
X30175685Y14579600D01*
X30173779Y14594074D01*
X30160669Y14693659D01*
X30156628Y14724354D01*
X30100755Y14859242D01*
X30093650Y14868501D01*
X30023367Y14960096D01*
X30018262Y14973301D01*
X37782015Y14973301D01*
X37782015Y14973300D01*
X37801071Y14828548D01*
X37856944Y14693659D01*
X37856949Y14693651D01*
X37945825Y14577826D01*
X38061650Y14488950D01*
X38061657Y14488945D01*
X38196546Y14433072D01*
X38341300Y14414015D01*
X38486054Y14433072D01*
X38620943Y14488945D01*
X38736774Y14577826D01*
X38825655Y14693657D01*
X38881528Y14828546D01*
X38900585Y14973300D01*
X38900351Y14975074D01*
X38881528Y15118053D01*
X38881528Y15118054D01*
X38825655Y15252942D01*
X38736774Y15368774D01*
X38736772Y15368776D01*
X38736771Y15368777D01*
X38620949Y15457651D01*
X38620941Y15457656D01*
X38486052Y15513529D01*
X38341300Y15532585D01*
X38196547Y15513529D01*
X38129102Y15485592D01*
X38061658Y15457655D01*
X38061657Y15457654D01*
X38061656Y15457654D01*
X37945826Y15368774D01*
X37856946Y15252944D01*
X37856945Y15252942D01*
X37840962Y15214355D01*
X37801071Y15118053D01*
X37782015Y14973301D01*
X30018262Y14973301D01*
X29997766Y15026316D01*
X30012031Y15095865D01*
X30023362Y15113498D01*
X30100755Y15214357D01*
X30156628Y15349246D01*
X30175685Y15494000D01*
X30156628Y15638754D01*
X30100755Y15773642D01*
X30081450Y15798801D01*
X40995115Y15798801D01*
X40995115Y15798800D01*
X41014171Y15654048D01*
X41070044Y15519159D01*
X41070049Y15519151D01*
X41158925Y15403326D01*
X41274750Y15314450D01*
X41274757Y15314445D01*
X41409646Y15258572D01*
X41554400Y15239515D01*
X41699154Y15258572D01*
X41834043Y15314445D01*
X41949874Y15403326D01*
X42038755Y15519157D01*
X42094628Y15654046D01*
X42113685Y15798800D01*
X42094628Y15943554D01*
X42038755Y16078442D01*
X41949874Y16194274D01*
X41949872Y16194276D01*
X41949871Y16194277D01*
X41834049Y16283151D01*
X41834041Y16283156D01*
X41699152Y16339029D01*
X41554400Y16358085D01*
X41409647Y16339029D01*
X41350305Y16314448D01*
X41274758Y16283155D01*
X41274757Y16283154D01*
X41274756Y16283154D01*
X41158926Y16194274D01*
X41070046Y16078444D01*
X41070045Y16078442D01*
X41051718Y16034197D01*
X41014171Y15943553D01*
X40995115Y15798801D01*
X30081450Y15798801D01*
X30011874Y15889474D01*
X30011872Y15889475D01*
X30006846Y15896026D01*
X30008498Y15897295D01*
X29979818Y15949817D01*
X29984883Y16020632D01*
X30007865Y16056393D01*
X30006847Y16057174D01*
X30100750Y16179551D01*
X30100755Y16179557D01*
X30156628Y16314446D01*
X30175685Y16459200D01*
X30173027Y16479386D01*
X30156628Y16603953D01*
X30153564Y16611351D01*
X30100755Y16738842D01*
X30011874Y16854674D01*
X30011872Y16854675D01*
X30006846Y16861226D01*
X30008498Y16862495D01*
X29979818Y16915017D01*
X29984883Y16985832D01*
X30007865Y17021593D01*
X30006847Y17022374D01*
X30076212Y17112772D01*
X30100755Y17144757D01*
X30156628Y17279646D01*
X30175685Y17424400D01*
X30171334Y17457446D01*
X30158623Y17553999D01*
X30156628Y17569154D01*
X30100755Y17704042D01*
X30067827Y17746954D01*
X30042857Y17779496D01*
X30017256Y17845716D01*
X30031520Y17915265D01*
X30042851Y17932896D01*
X30100755Y18008357D01*
X30122292Y18060353D01*
X30166839Y18115632D01*
X30234203Y18138053D01*
X30302994Y18120495D01*
X30351372Y18068533D01*
X30355101Y18060367D01*
X30360027Y18048477D01*
X30376644Y18008359D01*
X30376649Y18008351D01*
X30465525Y17892526D01*
X30560207Y17819874D01*
X30581357Y17803645D01*
X30716246Y17747772D01*
X30861000Y17728715D01*
X31005754Y17747772D01*
X31140643Y17803645D01*
X31140646Y17803648D01*
X31147277Y17806394D01*
X31217867Y17813984D01*
X31281354Y17782205D01*
X31317582Y17721148D01*
X31320419Y17673544D01*
X31317715Y17653000D01*
X31336771Y17508248D01*
X31392644Y17373359D01*
X31392649Y17373351D01*
X31481525Y17257526D01*
X31594753Y17170643D01*
X31597357Y17168645D01*
X31732246Y17112772D01*
X31877000Y17093715D01*
X32021754Y17112772D01*
X32156643Y17168645D01*
X32272474Y17257526D01*
X32361355Y17373357D01*
X32417228Y17508246D01*
X32436285Y17653000D01*
X32427925Y17716501D01*
X37134315Y17716501D01*
X37134315Y17716500D01*
X37153371Y17571748D01*
X37209244Y17436859D01*
X37209249Y17436851D01*
X37298125Y17321026D01*
X37413950Y17232150D01*
X37413957Y17232145D01*
X37548846Y17176272D01*
X37693600Y17157215D01*
X37838354Y17176272D01*
X37973243Y17232145D01*
X38089074Y17321026D01*
X38177955Y17436857D01*
X38233828Y17571746D01*
X38252885Y17716500D01*
X38233828Y17861254D01*
X38177955Y17996142D01*
X38089074Y18111974D01*
X38089072Y18111976D01*
X38089071Y18111977D01*
X37973249Y18200851D01*
X37973241Y18200856D01*
X37838352Y18256729D01*
X37693600Y18275785D01*
X37548847Y18256729D01*
X37520585Y18245022D01*
X37413958Y18200855D01*
X37413957Y18200854D01*
X37413956Y18200854D01*
X37298126Y18111974D01*
X37209246Y17996144D01*
X37209245Y17996142D01*
X37189560Y17948619D01*
X37153371Y17861253D01*
X37134315Y17716501D01*
X32427925Y17716501D01*
X32427283Y17721374D01*
X32417228Y17797753D01*
X32417228Y17797754D01*
X32361355Y17932642D01*
X32272474Y18048474D01*
X32272472Y18048476D01*
X32272471Y18048477D01*
X32156649Y18137351D01*
X32156641Y18137356D01*
X32021752Y18193229D01*
X31877000Y18212285D01*
X31732246Y18193229D01*
X31732245Y18193228D01*
X31590720Y18134606D01*
X31520130Y18127017D01*
X31456643Y18158796D01*
X31420416Y18219854D01*
X31417581Y18267463D01*
X31420285Y18288000D01*
X31401228Y18432754D01*
X31345355Y18567642D01*
X31256474Y18683474D01*
X31256472Y18683476D01*
X31256471Y18683477D01*
X31140649Y18772351D01*
X31140641Y18772356D01*
X31005752Y18828229D01*
X30861000Y18847285D01*
X30716247Y18828229D01*
X30648802Y18800292D01*
X30581358Y18772355D01*
X30581357Y18772354D01*
X30581356Y18772354D01*
X30465526Y18683474D01*
X30376646Y18567644D01*
X30376642Y18567637D01*
X30355108Y18515649D01*
X30310560Y18460368D01*
X30243196Y18437948D01*
X30174405Y18455507D01*
X30126027Y18507469D01*
X30122292Y18515649D01*
X30100757Y18567637D01*
X30100755Y18567642D01*
X30011874Y18683474D01*
X30011872Y18683476D01*
X30011871Y18683477D01*
X29896049Y18772351D01*
X29896041Y18772356D01*
X29761152Y18828229D01*
X29616400Y18847285D01*
X29471647Y18828229D01*
X29404202Y18800292D01*
X29336758Y18772355D01*
X29336757Y18772354D01*
X29336756Y18772354D01*
X29220926Y18683474D01*
X29132046Y18567644D01*
X29132045Y18567642D01*
X29113777Y18523540D01*
X29076171Y18432753D01*
X29057115Y18288001D01*
X4611882Y18288001D01*
X4764366Y18398787D01*
X4992625Y18613137D01*
X5192219Y18854404D01*
X5192221Y18854409D01*
X5192224Y18854411D01*
X5359995Y19118777D01*
X5360001Y19118786D01*
X5493323Y19402111D01*
X5531596Y19519901D01*
X21462515Y19519901D01*
X21462515Y19519900D01*
X21481571Y19375148D01*
X21537444Y19240259D01*
X21537449Y19240251D01*
X21626325Y19124426D01*
X21742150Y19035550D01*
X21742157Y19035545D01*
X21877046Y18979672D01*
X22021800Y18960615D01*
X22166554Y18979672D01*
X22301443Y19035545D01*
X22417274Y19124426D01*
X22506155Y19240257D01*
X22522038Y19278601D01*
X41896815Y19278601D01*
X41896815Y19278600D01*
X41915871Y19133848D01*
X41971744Y18998959D01*
X41971749Y18998951D01*
X42060625Y18883126D01*
X42176450Y18794250D01*
X42176457Y18794245D01*
X42311346Y18738372D01*
X42456100Y18719315D01*
X42600854Y18738372D01*
X42735743Y18794245D01*
X42851574Y18883126D01*
X42940455Y18998957D01*
X42996328Y19133846D01*
X43015385Y19278600D01*
X42996328Y19423354D01*
X42940455Y19558242D01*
X42851574Y19674074D01*
X42851572Y19674076D01*
X42851571Y19674077D01*
X42735749Y19762951D01*
X42735741Y19762956D01*
X42600852Y19818829D01*
X42456100Y19837885D01*
X42311347Y19818829D01*
X42243902Y19790892D01*
X42176458Y19762955D01*
X42176457Y19762954D01*
X42176456Y19762954D01*
X42060626Y19674074D01*
X41971746Y19558244D01*
X41971745Y19558242D01*
X41955863Y19519900D01*
X41915871Y19423353D01*
X41896815Y19278601D01*
X22522038Y19278601D01*
X22562028Y19375146D01*
X22581085Y19519900D01*
X22562028Y19664654D01*
X22506155Y19799542D01*
X22417274Y19915374D01*
X22417272Y19915376D01*
X22417271Y19915377D01*
X22301449Y20004251D01*
X22301441Y20004256D01*
X22166552Y20060129D01*
X22021800Y20079185D01*
X21877047Y20060129D01*
X21821529Y20037132D01*
X21742158Y20004255D01*
X21742157Y20004254D01*
X21742156Y20004254D01*
X21626326Y19915374D01*
X21537446Y19799544D01*
X21537445Y19799542D01*
X21509508Y19732098D01*
X21481571Y19664653D01*
X21462515Y19519901D01*
X5531596Y19519901D01*
X5590085Y19699912D01*
X5648759Y20007492D01*
X5655985Y20122353D01*
X5668420Y20319994D01*
X5668420Y20320007D01*
X5648760Y20632491D01*
X5648759Y20632508D01*
X5635693Y20701001D01*
X30936715Y20701001D01*
X30936715Y20701000D01*
X30955771Y20556248D01*
X31011644Y20421359D01*
X31011649Y20421351D01*
X31100525Y20305526D01*
X31216350Y20216650D01*
X31216357Y20216645D01*
X31351246Y20160772D01*
X31496000Y20141715D01*
X31640754Y20160772D01*
X31775643Y20216645D01*
X31891474Y20305526D01*
X31980355Y20421357D01*
X32036228Y20556246D01*
X32055285Y20701000D01*
X32048597Y20751801D01*
X36499315Y20751801D01*
X36499315Y20751800D01*
X36518371Y20607048D01*
X36574244Y20472159D01*
X36574249Y20472151D01*
X36663125Y20356326D01*
X36724705Y20309074D01*
X36778957Y20267445D01*
X36913846Y20211572D01*
X37044198Y20194412D01*
X37109123Y20165690D01*
X37148215Y20106425D01*
X37152672Y20053045D01*
X37134315Y19913602D01*
X37134315Y19913600D01*
X37153371Y19768848D01*
X37209244Y19633959D01*
X37209249Y19633951D01*
X37298125Y19518126D01*
X37409540Y19432634D01*
X37413957Y19429245D01*
X37548846Y19373372D01*
X37693600Y19354315D01*
X37838354Y19373372D01*
X37973243Y19429245D01*
X38089074Y19518126D01*
X38177955Y19633957D01*
X38233828Y19768846D01*
X38252885Y19913600D01*
X38252885Y19913601D01*
X39483815Y19913601D01*
X39483815Y19913600D01*
X39502871Y19768848D01*
X39558744Y19633959D01*
X39558749Y19633951D01*
X39647625Y19518126D01*
X39759040Y19432634D01*
X39763457Y19429245D01*
X39898346Y19373372D01*
X40043100Y19354315D01*
X40187854Y19373372D01*
X40322743Y19429245D01*
X40438574Y19518126D01*
X40527455Y19633957D01*
X40583328Y19768846D01*
X40602385Y19913600D01*
X40602151Y19915374D01*
X40586122Y20037132D01*
X40583328Y20058354D01*
X40527455Y20193242D01*
X40438574Y20309074D01*
X40438572Y20309076D01*
X40438571Y20309077D01*
X40322749Y20397951D01*
X40322741Y20397956D01*
X40187852Y20453829D01*
X40043100Y20472885D01*
X39898347Y20453829D01*
X39853384Y20435204D01*
X39763458Y20397955D01*
X39763457Y20397954D01*
X39763456Y20397954D01*
X39647626Y20309074D01*
X39558746Y20193244D01*
X39558745Y20193242D01*
X39537402Y20141715D01*
X39502871Y20058353D01*
X39483815Y19913601D01*
X38252885Y19913601D01*
X38236170Y20040562D01*
X38247109Y20110708D01*
X38294237Y20163807D01*
X38344643Y20181928D01*
X38473354Y20198872D01*
X38608243Y20254745D01*
X38724074Y20343626D01*
X38812955Y20459457D01*
X38868828Y20594346D01*
X38887885Y20739100D01*
X38868828Y20883854D01*
X38812955Y21018742D01*
X38724074Y21134574D01*
X38724072Y21134576D01*
X38724071Y21134577D01*
X38608249Y21223451D01*
X38608241Y21223456D01*
X38473352Y21279329D01*
X38328600Y21298385D01*
X38183847Y21279329D01*
X38116896Y21251596D01*
X38048958Y21223455D01*
X38048957Y21223454D01*
X38048956Y21223454D01*
X37933126Y21134574D01*
X37844246Y21018744D01*
X37844243Y21018739D01*
X37812638Y20942438D01*
X37768089Y20887158D01*
X37700726Y20864738D01*
X37631935Y20882297D01*
X37583557Y20934260D01*
X37579827Y20942425D01*
X37542955Y21031442D01*
X37454074Y21147274D01*
X37454072Y21147276D01*
X37454071Y21147277D01*
X37338249Y21236151D01*
X37338241Y21236156D01*
X37203352Y21292029D01*
X37058600Y21311085D01*
X36913847Y21292029D01*
X36846402Y21264092D01*
X36778958Y21236155D01*
X36778957Y21236154D01*
X36778956Y21236154D01*
X36663126Y21147274D01*
X36574246Y21031444D01*
X36574245Y21031442D01*
X36553204Y20980644D01*
X36518371Y20896553D01*
X36499315Y20751801D01*
X32048597Y20751801D01*
X32036228Y20845754D01*
X31980355Y20980642D01*
X31891474Y21096474D01*
X31891472Y21096476D01*
X31891471Y21096477D01*
X31775649Y21185351D01*
X31775641Y21185356D01*
X31640752Y21241229D01*
X31496000Y21260285D01*
X31351247Y21241229D01*
X31299819Y21219926D01*
X31216358Y21185355D01*
X31216357Y21185354D01*
X31216356Y21185354D01*
X31100526Y21096474D01*
X31011646Y20980644D01*
X31011645Y20980642D01*
X30994847Y20940088D01*
X30955771Y20845753D01*
X30936715Y20701001D01*
X5635693Y20701001D01*
X5590085Y20940088D01*
X5493323Y21237889D01*
X5447155Y21336001D01*
X7632215Y21336001D01*
X7632215Y21336000D01*
X7651271Y21191248D01*
X7707144Y21056359D01*
X7707149Y21056351D01*
X7796025Y20940526D01*
X7911850Y20851650D01*
X7911857Y20851645D01*
X8046746Y20795772D01*
X8191500Y20776715D01*
X8336254Y20795772D01*
X8471143Y20851645D01*
X8586974Y20940526D01*
X8675855Y21056357D01*
X8731728Y21191246D01*
X8750785Y21336000D01*
X8731728Y21480754D01*
X8675855Y21615642D01*
X8586974Y21731474D01*
X8586972Y21731476D01*
X8586971Y21731477D01*
X8471149Y21820351D01*
X8471141Y21820356D01*
X8336252Y21876229D01*
X8191500Y21895285D01*
X8046747Y21876229D01*
X7979302Y21848292D01*
X7911858Y21820355D01*
X7911857Y21820354D01*
X7911856Y21820354D01*
X7796026Y21731474D01*
X7707146Y21615644D01*
X7707145Y21615642D01*
X7683843Y21559386D01*
X7651271Y21480753D01*
X7632215Y21336001D01*
X5447155Y21336001D01*
X5360001Y21521214D01*
X5348587Y21539200D01*
X5192224Y21785590D01*
X4992628Y22026860D01*
X4971233Y22046951D01*
X4764366Y22241213D01*
X4646841Y22326600D01*
X4646840Y22326601D01*
X17258815Y22326601D01*
X17258815Y22326600D01*
X17277871Y22181848D01*
X17333744Y22046959D01*
X17333749Y22046951D01*
X17422625Y21931126D01*
X17538450Y21842250D01*
X17538457Y21842245D01*
X17673346Y21786372D01*
X17818100Y21767315D01*
X17962854Y21786372D01*
X18097743Y21842245D01*
X18213574Y21931126D01*
X18302455Y22046957D01*
X18358328Y22181846D01*
X18377385Y22326600D01*
X18358328Y22471354D01*
X18302455Y22606242D01*
X18213574Y22722074D01*
X18213572Y22722076D01*
X18213571Y22722077D01*
X18097749Y22810951D01*
X18097741Y22810956D01*
X17962852Y22866829D01*
X17818100Y22885885D01*
X17673347Y22866829D01*
X17605902Y22838892D01*
X17538458Y22810955D01*
X17538457Y22810954D01*
X17538456Y22810954D01*
X17422626Y22722074D01*
X17333746Y22606244D01*
X17333745Y22606242D01*
X17305808Y22538798D01*
X17277871Y22471353D01*
X17258815Y22326601D01*
X4646840Y22326601D01*
X4511043Y22425263D01*
X4412263Y22479568D01*
X4236647Y22576114D01*
X4152849Y22609292D01*
X3945514Y22691382D01*
X3945496Y22691387D01*
X3642226Y22769254D01*
X3642213Y22769257D01*
X3331577Y22808499D01*
X3331566Y22808500D01*
X3331563Y22808500D01*
X3018437Y22808500D01*
X3018434Y22808500D01*
X3018422Y22808499D01*
X2707786Y22769257D01*
X2707773Y22769254D01*
X2404503Y22691387D01*
X2404485Y22691382D01*
X2113353Y22576114D01*
X1838956Y22425263D01*
X1585635Y22241214D01*
X1585634Y22241214D01*
X1357371Y22026860D01*
X1157775Y21785590D01*
X990004Y21521224D01*
X989997Y21521210D01*
X856680Y21237896D01*
X856678Y21237892D01*
X759916Y20940092D01*
X759914Y20940084D01*
X701242Y20632515D01*
X701239Y20632491D01*
X681580Y20320007D01*
X-26100Y20320007D01*
X-26100Y24091901D01*
X11747015Y24091901D01*
X11747015Y24091900D01*
X11766071Y23947148D01*
X11821944Y23812259D01*
X11821949Y23812251D01*
X11910825Y23696426D01*
X12026650Y23607550D01*
X12026657Y23607545D01*
X12161546Y23551672D01*
X12306300Y23532615D01*
X12451054Y23551672D01*
X12585943Y23607545D01*
X12701774Y23696426D01*
X12790655Y23812257D01*
X12846528Y23947146D01*
X12865585Y24091900D01*
X12846528Y24236654D01*
X12814459Y24314075D01*
X18737896Y24314075D01*
X18737896Y24138081D01*
X18757802Y24012397D01*
X18765428Y23964250D01*
X18819811Y23796879D01*
X18819814Y23796871D01*
X18899705Y23640078D01*
X18899709Y23640072D01*
X18899712Y23640066D01*
X19003157Y23497684D01*
X19003163Y23497678D01*
X19003167Y23497673D01*
X19127590Y23373250D01*
X19127595Y23373246D01*
X19127602Y23373239D01*
X19269984Y23269794D01*
X19269991Y23269790D01*
X19269995Y23269788D01*
X19426788Y23189897D01*
X19426794Y23189894D01*
X19594173Y23135509D01*
X19767999Y23107978D01*
X19768002Y23107978D01*
X19943990Y23107978D01*
X19943993Y23107978D01*
X20117819Y23135509D01*
X20285198Y23189894D01*
X20442008Y23269794D01*
X20584390Y23373239D01*
X20924361Y23713211D01*
X21027806Y23855592D01*
X21107706Y24012402D01*
X21162091Y24179782D01*
X21189622Y24353608D01*
X21189622Y24529601D01*
X21162091Y24703427D01*
X21107706Y24870806D01*
X21107704Y24870809D01*
X21107615Y24871025D01*
X21107605Y24871117D01*
X21106176Y24875515D01*
X21107099Y24875816D01*
X21100019Y24941614D01*
X21131792Y25005104D01*
X21192847Y25041337D01*
X21263798Y25038810D01*
X21281212Y25031525D01*
X21306394Y25018694D01*
X21306396Y25018694D01*
X21306397Y25018693D01*
X21362187Y25000566D01*
X21473773Y24964309D01*
X21647599Y24936778D01*
X21647602Y24936778D01*
X21823590Y24936778D01*
X21823593Y24936778D01*
X21997419Y24964309D01*
X22164798Y25018694D01*
X22321608Y25098594D01*
X22463990Y25202039D01*
X22803961Y25542011D01*
X22907406Y25684392D01*
X22987306Y25841202D01*
X23041691Y26008582D01*
X23069222Y26182408D01*
X23069222Y26358401D01*
X23041691Y26532227D01*
X22987306Y26699606D01*
X22945325Y26781997D01*
X22907412Y26856405D01*
X22907410Y26856409D01*
X22907406Y26856416D01*
X22803961Y26998798D01*
X22803954Y26998805D01*
X22803950Y26998810D01*
X22679527Y27123233D01*
X22679522Y27123237D01*
X22679516Y27123243D01*
X22537134Y27226688D01*
X22537128Y27226691D01*
X22537122Y27226695D01*
X22380329Y27306586D01*
X22380321Y27306589D01*
X22212950Y27360972D01*
X22212946Y27360973D01*
X22212945Y27360973D01*
X22039119Y27388504D01*
X21863126Y27388504D01*
X21689300Y27360973D01*
X21689294Y27360972D01*
X21521921Y27306589D01*
X21521914Y27306586D01*
X21365112Y27226690D01*
X21222730Y27123245D01*
X20882755Y26783271D01*
X20779312Y26640890D01*
X20779305Y26640879D01*
X20699414Y26484086D01*
X20699411Y26484078D01*
X20645028Y26316707D01*
X20645027Y26316702D01*
X20645027Y26316701D01*
X20617496Y26142875D01*
X20617496Y25966881D01*
X20637402Y25841197D01*
X20645028Y25793050D01*
X20699412Y25625674D01*
X20699507Y25625446D01*
X20699517Y25625353D01*
X20700942Y25620967D01*
X20700020Y25620668D01*
X20707096Y25554856D01*
X20675316Y25491369D01*
X20614257Y25455143D01*
X20543306Y25457677D01*
X20525895Y25464963D01*
X20500730Y25477786D01*
X20500721Y25477789D01*
X20333350Y25532172D01*
X20333346Y25532173D01*
X20333345Y25532173D01*
X20159519Y25559704D01*
X19983526Y25559704D01*
X19809700Y25532173D01*
X19809694Y25532172D01*
X19642321Y25477789D01*
X19642314Y25477786D01*
X19485512Y25397890D01*
X19343130Y25294445D01*
X19003155Y24954471D01*
X18899712Y24812090D01*
X18899705Y24812079D01*
X18819814Y24655286D01*
X18819811Y24655278D01*
X18765428Y24487907D01*
X18765427Y24487902D01*
X18765427Y24487901D01*
X18737896Y24314075D01*
X12814459Y24314075D01*
X12790655Y24371542D01*
X12701774Y24487374D01*
X12701772Y24487376D01*
X12701771Y24487377D01*
X12585949Y24576251D01*
X12585941Y24576256D01*
X12451052Y24632129D01*
X12306300Y24651185D01*
X12161547Y24632129D01*
X12094102Y24604192D01*
X12026658Y24576255D01*
X12026657Y24576254D01*
X12026656Y24576254D01*
X11910826Y24487374D01*
X11821946Y24371544D01*
X11821945Y24371542D01*
X11798141Y24314075D01*
X11766071Y24236653D01*
X11747015Y24091901D01*
X-26100Y24091901D01*
X-26100Y25946101D01*
X4952515Y25946101D01*
X4952515Y25946100D01*
X4971571Y25801348D01*
X5027444Y25666459D01*
X5027449Y25666451D01*
X5116325Y25550626D01*
X5227963Y25464963D01*
X5232157Y25461745D01*
X5367046Y25405872D01*
X5511800Y25386815D01*
X5656554Y25405872D01*
X5791443Y25461745D01*
X5907274Y25550626D01*
X5996155Y25666457D01*
X6012038Y25704801D01*
X9740415Y25704801D01*
X9740415Y25704800D01*
X9759471Y25560048D01*
X9815344Y25425159D01*
X9815349Y25425151D01*
X9904225Y25309326D01*
X9924557Y25293725D01*
X10020057Y25220445D01*
X10154946Y25164572D01*
X10299700Y25145515D01*
X10444454Y25164572D01*
X10579343Y25220445D01*
X10695174Y25309326D01*
X10784055Y25425157D01*
X10839928Y25560046D01*
X10858985Y25704800D01*
X10839928Y25849554D01*
X10784055Y25984442D01*
X10695174Y26100274D01*
X10695172Y26100276D01*
X10695171Y26100277D01*
X10682334Y26110127D01*
X16941844Y26110127D01*
X16941844Y25934133D01*
X16964189Y25793050D01*
X16969376Y25760302D01*
X17023759Y25592931D01*
X17023762Y25592923D01*
X17103653Y25436130D01*
X17103657Y25436124D01*
X17103660Y25436118D01*
X17207105Y25293736D01*
X17207111Y25293730D01*
X17207115Y25293725D01*
X17331538Y25169302D01*
X17331543Y25169298D01*
X17331550Y25169291D01*
X17473932Y25065846D01*
X17473939Y25065842D01*
X17473943Y25065840D01*
X17593143Y25005104D01*
X17630742Y24985946D01*
X17798121Y24931561D01*
X17971947Y24904030D01*
X17971950Y24904030D01*
X18147938Y24904030D01*
X18147941Y24904030D01*
X18321767Y24931561D01*
X18489146Y24985946D01*
X18645956Y25065846D01*
X18788338Y25169291D01*
X19128309Y25509263D01*
X19231754Y25651644D01*
X19311654Y25808454D01*
X19366039Y25975834D01*
X19393570Y26149660D01*
X19393570Y26325653D01*
X19366039Y26499479D01*
X19311654Y26666858D01*
X19311652Y26666861D01*
X19311563Y26667077D01*
X19311553Y26667169D01*
X19310124Y26671567D01*
X19311047Y26671868D01*
X19303967Y26737666D01*
X19335740Y26801156D01*
X19396795Y26837389D01*
X19467746Y26834862D01*
X19485160Y26827577D01*
X19510342Y26814746D01*
X19510344Y26814746D01*
X19510345Y26814745D01*
X19566135Y26796618D01*
X19677721Y26760361D01*
X19851547Y26732830D01*
X19851550Y26732830D01*
X20027538Y26732830D01*
X20027541Y26732830D01*
X20201367Y26760361D01*
X20368746Y26814746D01*
X20525556Y26894646D01*
X20667938Y26998091D01*
X21007909Y27338063D01*
X21111354Y27480444D01*
X21191254Y27637254D01*
X21245639Y27804634D01*
X21273170Y27978460D01*
X21273170Y28154453D01*
X21245639Y28328279D01*
X21191254Y28495658D01*
X21191251Y28495664D01*
X21111360Y28652457D01*
X21111358Y28652461D01*
X21111354Y28652468D01*
X21007909Y28794850D01*
X21007902Y28794857D01*
X21007898Y28794862D01*
X20883475Y28919285D01*
X20883470Y28919289D01*
X20883464Y28919295D01*
X20741082Y29022740D01*
X20741076Y29022743D01*
X20741070Y29022747D01*
X20584277Y29102638D01*
X20584269Y29102641D01*
X20416898Y29157024D01*
X20416894Y29157025D01*
X20416893Y29157025D01*
X20243067Y29184556D01*
X20067074Y29184556D01*
X19893248Y29157025D01*
X19893242Y29157024D01*
X19725869Y29102641D01*
X19725862Y29102638D01*
X19569060Y29022742D01*
X19426678Y28919297D01*
X19086703Y28579323D01*
X18983260Y28436942D01*
X18983253Y28436931D01*
X18903362Y28280138D01*
X18903359Y28280130D01*
X18848976Y28112759D01*
X18848975Y28112754D01*
X18848975Y28112753D01*
X18821444Y27938927D01*
X18821444Y27762933D01*
X18843648Y27622743D01*
X18848976Y27589102D01*
X18903360Y27421726D01*
X18903455Y27421498D01*
X18903465Y27421405D01*
X18904890Y27417019D01*
X18903968Y27416720D01*
X18911044Y27350908D01*
X18879264Y27287421D01*
X18818205Y27251195D01*
X18747254Y27253729D01*
X18729843Y27261015D01*
X18704678Y27273838D01*
X18704669Y27273841D01*
X18537298Y27328224D01*
X18537294Y27328225D01*
X18537293Y27328225D01*
X18363467Y27355756D01*
X18187474Y27355756D01*
X18013648Y27328225D01*
X18013642Y27328224D01*
X17846269Y27273841D01*
X17846262Y27273838D01*
X17689460Y27193942D01*
X17547078Y27090497D01*
X17207103Y26750523D01*
X17103660Y26608142D01*
X17103653Y26608131D01*
X17023762Y26451338D01*
X17023759Y26451330D01*
X16969376Y26283959D01*
X16969375Y26283954D01*
X16969375Y26283953D01*
X16941844Y26110127D01*
X10682334Y26110127D01*
X10579349Y26189151D01*
X10579341Y26189156D01*
X10444452Y26245029D01*
X10299700Y26264085D01*
X10154947Y26245029D01*
X10108388Y26225743D01*
X10020058Y26189155D01*
X10020057Y26189154D01*
X10020056Y26189154D01*
X9904226Y26100274D01*
X9815346Y25984444D01*
X9815345Y25984442D01*
X9799463Y25946100D01*
X9759471Y25849553D01*
X9740415Y25704801D01*
X6012038Y25704801D01*
X6052028Y25801346D01*
X6071085Y25946100D01*
X6067170Y25975834D01*
X6052028Y26090853D01*
X6048126Y26100274D01*
X5996155Y26225742D01*
X5907274Y26341574D01*
X5907272Y26341576D01*
X5907271Y26341577D01*
X5791449Y26430451D01*
X5791441Y26430456D01*
X5656552Y26486329D01*
X5511800Y26505385D01*
X5367047Y26486329D01*
X5299602Y26458392D01*
X5232158Y26430455D01*
X5232157Y26430454D01*
X5232156Y26430454D01*
X5116326Y26341574D01*
X5027446Y26225744D01*
X5027445Y26225742D01*
X5009497Y26182412D01*
X4971571Y26090853D01*
X4952515Y25946101D01*
X-26100Y25946101D01*
X-26100Y27906178D01*
X15145793Y27906178D01*
X15145793Y27730184D01*
X15168137Y27589107D01*
X15173325Y27556353D01*
X15227708Y27388982D01*
X15227711Y27388974D01*
X15307602Y27232181D01*
X15307606Y27232175D01*
X15307609Y27232169D01*
X15411054Y27089787D01*
X15411060Y27089781D01*
X15411064Y27089776D01*
X15535487Y26965353D01*
X15535492Y26965349D01*
X15535499Y26965342D01*
X15677881Y26861897D01*
X15677888Y26861893D01*
X15677892Y26861891D01*
X15793722Y26802872D01*
X15834691Y26781997D01*
X16002070Y26727612D01*
X16175896Y26700081D01*
X16175899Y26700081D01*
X16351887Y26700081D01*
X16351890Y26700081D01*
X16525716Y26727612D01*
X16693095Y26781997D01*
X16849905Y26861897D01*
X16992287Y26965342D01*
X17332258Y27305314D01*
X17435703Y27447695D01*
X17515603Y27604505D01*
X17569988Y27771885D01*
X17597519Y27945711D01*
X17597519Y28121704D01*
X17569988Y28295530D01*
X17515603Y28462909D01*
X17515601Y28462912D01*
X17515512Y28463128D01*
X17515502Y28463220D01*
X17514073Y28467618D01*
X17514996Y28467919D01*
X17507916Y28533717D01*
X17539689Y28597207D01*
X17600744Y28633440D01*
X17671695Y28630913D01*
X17689109Y28623628D01*
X17714291Y28610797D01*
X17714293Y28610797D01*
X17714294Y28610796D01*
X17770084Y28592669D01*
X17881670Y28556412D01*
X18055496Y28528881D01*
X18055499Y28528881D01*
X18231487Y28528881D01*
X18231490Y28528881D01*
X18405316Y28556412D01*
X18572695Y28610797D01*
X18729505Y28690697D01*
X18871887Y28794142D01*
X19211858Y29134114D01*
X19315303Y29276495D01*
X19395203Y29433305D01*
X19449588Y29600685D01*
X19477119Y29774511D01*
X19477119Y29950504D01*
X19449588Y30124330D01*
X19395203Y30291709D01*
X19395200Y30291715D01*
X19315309Y30448508D01*
X19315307Y30448512D01*
X19315303Y30448519D01*
X19211858Y30590901D01*
X19211851Y30590908D01*
X19211847Y30590913D01*
X19087424Y30715336D01*
X19087419Y30715340D01*
X19087413Y30715346D01*
X18945031Y30818791D01*
X18945025Y30818794D01*
X18945019Y30818798D01*
X18788226Y30898689D01*
X18788218Y30898692D01*
X18620847Y30953075D01*
X18620843Y30953076D01*
X18620842Y30953076D01*
X18447016Y30980607D01*
X18271023Y30980607D01*
X18097197Y30953076D01*
X18097191Y30953075D01*
X17929818Y30898692D01*
X17929811Y30898689D01*
X17773009Y30818793D01*
X17630627Y30715348D01*
X17290652Y30375374D01*
X17187209Y30232993D01*
X17187202Y30232982D01*
X17107311Y30076189D01*
X17107308Y30076181D01*
X17052925Y29908810D01*
X17052924Y29908805D01*
X17052924Y29908804D01*
X17025393Y29734978D01*
X17025393Y29558984D01*
X17049352Y29407714D01*
X17052925Y29385153D01*
X17107309Y29217777D01*
X17107404Y29217549D01*
X17107414Y29217456D01*
X17108839Y29213070D01*
X17107917Y29212771D01*
X17114993Y29146959D01*
X17083213Y29083472D01*
X17022154Y29047246D01*
X16951203Y29049780D01*
X16933792Y29057066D01*
X16908627Y29069889D01*
X16908618Y29069892D01*
X16741247Y29124275D01*
X16741243Y29124276D01*
X16741242Y29124276D01*
X16567416Y29151807D01*
X16391423Y29151807D01*
X16217597Y29124276D01*
X16217591Y29124275D01*
X16050218Y29069892D01*
X16050211Y29069889D01*
X15893409Y28989993D01*
X15751027Y28886548D01*
X15411052Y28546574D01*
X15307609Y28404193D01*
X15307602Y28404182D01*
X15227711Y28247389D01*
X15227708Y28247381D01*
X15173325Y28080010D01*
X15173324Y28080005D01*
X15173324Y28080004D01*
X15145793Y27906178D01*
X-26100Y27906178D01*
X-26100Y29702229D01*
X13349742Y29702229D01*
X13349742Y29526235D01*
X13369648Y29400551D01*
X13377274Y29352404D01*
X13431657Y29185033D01*
X13431660Y29185025D01*
X13511551Y29028232D01*
X13511555Y29028226D01*
X13511558Y29028220D01*
X13615003Y28885838D01*
X13615009Y28885832D01*
X13615013Y28885827D01*
X13739436Y28761404D01*
X13739441Y28761400D01*
X13739448Y28761393D01*
X13881830Y28657948D01*
X13881837Y28657944D01*
X13881841Y28657942D01*
X13974369Y28610796D01*
X14038640Y28578048D01*
X14206019Y28523663D01*
X14379845Y28496132D01*
X14379848Y28496132D01*
X14555836Y28496132D01*
X14555839Y28496132D01*
X14729665Y28523663D01*
X14897044Y28578048D01*
X15053854Y28657948D01*
X15196236Y28761393D01*
X15536207Y29101365D01*
X15639652Y29243746D01*
X15719552Y29400556D01*
X15773937Y29567936D01*
X15801468Y29741762D01*
X15801468Y29917755D01*
X15773937Y30091581D01*
X15719552Y30258960D01*
X15719550Y30258963D01*
X15719461Y30259179D01*
X15719451Y30259271D01*
X15718022Y30263669D01*
X15718945Y30263970D01*
X15711865Y30329768D01*
X15743638Y30393258D01*
X15804693Y30429491D01*
X15875644Y30426964D01*
X15893058Y30419679D01*
X15918240Y30406848D01*
X15918242Y30406848D01*
X15918243Y30406847D01*
X15965956Y30391344D01*
X16085619Y30352463D01*
X16259445Y30324932D01*
X16259448Y30324932D01*
X16435436Y30324932D01*
X16435439Y30324932D01*
X16609265Y30352463D01*
X16776644Y30406848D01*
X16933454Y30486748D01*
X17075836Y30590193D01*
X17415807Y30930165D01*
X17519252Y31072546D01*
X17599152Y31229356D01*
X17653537Y31396736D01*
X17681068Y31570562D01*
X17681068Y31746555D01*
X17653537Y31920381D01*
X17599152Y32087760D01*
X17557171Y32170151D01*
X17519258Y32244559D01*
X17519256Y32244563D01*
X17519252Y32244570D01*
X17415807Y32386952D01*
X17415800Y32386959D01*
X17415796Y32386964D01*
X17291373Y32511387D01*
X17291368Y32511391D01*
X17291362Y32511397D01*
X17148980Y32614842D01*
X17148974Y32614845D01*
X17148968Y32614849D01*
X16992175Y32694740D01*
X16992167Y32694743D01*
X16824796Y32749126D01*
X16824792Y32749127D01*
X16824791Y32749127D01*
X16650965Y32776658D01*
X16474972Y32776658D01*
X16301146Y32749127D01*
X16301140Y32749126D01*
X16133767Y32694743D01*
X16133760Y32694740D01*
X15976958Y32614844D01*
X15834576Y32511399D01*
X15494601Y32171425D01*
X15391158Y32029044D01*
X15391151Y32029033D01*
X15311260Y31872240D01*
X15311257Y31872232D01*
X15256874Y31704861D01*
X15256873Y31704856D01*
X15256873Y31704855D01*
X15229342Y31531029D01*
X15229342Y31355035D01*
X15256873Y31181209D01*
X15256874Y31181204D01*
X15311258Y31013828D01*
X15311353Y31013600D01*
X15311363Y31013507D01*
X15312788Y31009121D01*
X15311866Y31008822D01*
X15318942Y30943010D01*
X15287162Y30879523D01*
X15226103Y30843297D01*
X15155152Y30845831D01*
X15137741Y30853117D01*
X15112576Y30865940D01*
X15112567Y30865943D01*
X14945196Y30920326D01*
X14945192Y30920327D01*
X14945191Y30920327D01*
X14771365Y30947858D01*
X14595372Y30947858D01*
X14421546Y30920327D01*
X14421540Y30920326D01*
X14254167Y30865943D01*
X14254160Y30865940D01*
X14097358Y30786044D01*
X13954976Y30682599D01*
X13615001Y30342625D01*
X13511558Y30200244D01*
X13511551Y30200233D01*
X13431660Y30043440D01*
X13431657Y30043432D01*
X13377274Y29876061D01*
X13377273Y29876056D01*
X13377273Y29876055D01*
X13349742Y29702229D01*
X-26100Y29702229D01*
X-26100Y31498280D01*
X11553691Y31498280D01*
X11553691Y31322286D01*
X11580764Y31151350D01*
X11581223Y31148455D01*
X11635606Y30981084D01*
X11635609Y30981076D01*
X11715500Y30824283D01*
X11715504Y30824277D01*
X11715507Y30824271D01*
X11818952Y30681889D01*
X11818958Y30681883D01*
X11818962Y30681878D01*
X11943385Y30557455D01*
X11943390Y30557451D01*
X11943397Y30557444D01*
X12085779Y30453999D01*
X12085786Y30453995D01*
X12085790Y30453993D01*
X12178318Y30406847D01*
X12242589Y30374099D01*
X12409968Y30319714D01*
X12583794Y30292183D01*
X12583797Y30292183D01*
X12759785Y30292183D01*
X12759788Y30292183D01*
X12933614Y30319714D01*
X13100993Y30374099D01*
X13257803Y30453999D01*
X13400185Y30557444D01*
X13740156Y30897416D01*
X13843601Y31039797D01*
X13923501Y31196607D01*
X13977886Y31363987D01*
X14005417Y31537813D01*
X14005417Y31713806D01*
X13977886Y31887632D01*
X13923501Y32055011D01*
X13923499Y32055014D01*
X13923410Y32055230D01*
X13923400Y32055322D01*
X13921971Y32059720D01*
X13922894Y32060021D01*
X13915814Y32125819D01*
X13947587Y32189309D01*
X14008642Y32225542D01*
X14079593Y32223015D01*
X14097007Y32215730D01*
X14122189Y32202899D01*
X14122191Y32202899D01*
X14122192Y32202898D01*
X14166107Y32188629D01*
X14289568Y32148514D01*
X14463394Y32120983D01*
X14463397Y32120983D01*
X14639385Y32120983D01*
X14639388Y32120983D01*
X14813214Y32148514D01*
X14980593Y32202899D01*
X15137403Y32282799D01*
X15279785Y32386244D01*
X15619756Y32726216D01*
X15723201Y32868597D01*
X15803101Y33025407D01*
X15857486Y33192787D01*
X15885017Y33366613D01*
X15885017Y33542606D01*
X15857486Y33716432D01*
X15803101Y33883811D01*
X15772143Y33944568D01*
X15723207Y34040610D01*
X15723205Y34040614D01*
X15723201Y34040621D01*
X15619756Y34183003D01*
X15619749Y34183010D01*
X15619745Y34183015D01*
X15495322Y34307438D01*
X15495317Y34307442D01*
X15495311Y34307448D01*
X15352929Y34410893D01*
X15352923Y34410896D01*
X15352917Y34410900D01*
X15196124Y34490791D01*
X15196116Y34490794D01*
X15028745Y34545177D01*
X15028741Y34545178D01*
X15028740Y34545178D01*
X14854914Y34572709D01*
X14678921Y34572709D01*
X14505095Y34545178D01*
X14505089Y34545177D01*
X14337716Y34490794D01*
X14337709Y34490791D01*
X14180907Y34410895D01*
X14038525Y34307450D01*
X13698550Y33967476D01*
X13595107Y33825095D01*
X13595100Y33825084D01*
X13515209Y33668291D01*
X13515206Y33668283D01*
X13460823Y33500912D01*
X13460822Y33500907D01*
X13460822Y33500906D01*
X13433291Y33327080D01*
X13433291Y33151086D01*
X13458076Y32994600D01*
X13460823Y32977255D01*
X13515207Y32809879D01*
X13515302Y32809651D01*
X13515312Y32809558D01*
X13516737Y32805172D01*
X13515815Y32804873D01*
X13522891Y32739061D01*
X13491111Y32675574D01*
X13430052Y32639348D01*
X13359101Y32641882D01*
X13341690Y32649168D01*
X13316525Y32661991D01*
X13316516Y32661994D01*
X13149145Y32716377D01*
X13149141Y32716378D01*
X13149140Y32716378D01*
X12975314Y32743909D01*
X12799321Y32743909D01*
X12625495Y32716378D01*
X12625489Y32716377D01*
X12458116Y32661994D01*
X12458109Y32661991D01*
X12301307Y32582095D01*
X12158925Y32478650D01*
X11818950Y32138676D01*
X11715507Y31996295D01*
X11715500Y31996284D01*
X11635609Y31839491D01*
X11635606Y31839483D01*
X11581223Y31672112D01*
X11581222Y31672107D01*
X11581222Y31672106D01*
X11553691Y31498280D01*
X-26100Y31498280D01*
X-26100Y33294332D01*
X9757639Y33294332D01*
X9757639Y33118338D01*
X9779984Y32977255D01*
X9785171Y32944507D01*
X9839554Y32777136D01*
X9839557Y32777128D01*
X9919448Y32620335D01*
X9919452Y32620329D01*
X9919455Y32620323D01*
X10022900Y32477941D01*
X10022906Y32477935D01*
X10022910Y32477930D01*
X10147333Y32353507D01*
X10147338Y32353503D01*
X10147345Y32353496D01*
X10289727Y32250051D01*
X10289734Y32250047D01*
X10289738Y32250045D01*
X10382266Y32202899D01*
X10446537Y32170151D01*
X10613916Y32115766D01*
X10787742Y32088235D01*
X10787745Y32088235D01*
X10963733Y32088235D01*
X10963736Y32088235D01*
X11137562Y32115766D01*
X11304941Y32170151D01*
X11461751Y32250051D01*
X11604133Y32353496D01*
X11944104Y32693468D01*
X12047549Y32835849D01*
X12127449Y32992659D01*
X12181834Y33160039D01*
X12209365Y33333865D01*
X12209365Y33509858D01*
X12181834Y33683684D01*
X12127449Y33851063D01*
X12127447Y33851066D01*
X12127358Y33851282D01*
X12127348Y33851374D01*
X12125919Y33855772D01*
X12126842Y33856073D01*
X12119762Y33921871D01*
X12151535Y33985361D01*
X12212590Y34021594D01*
X12283541Y34019067D01*
X12300955Y34011782D01*
X12326137Y33998951D01*
X12326139Y33998951D01*
X12326140Y33998950D01*
X12381930Y33980823D01*
X12493516Y33944566D01*
X12667342Y33917035D01*
X12667345Y33917035D01*
X12843333Y33917035D01*
X12843336Y33917035D01*
X13017162Y33944566D01*
X13184541Y33998951D01*
X13341351Y34078851D01*
X13483733Y34182296D01*
X13823704Y34522268D01*
X13927149Y34664649D01*
X14007049Y34821459D01*
X14061434Y34988839D01*
X14088965Y35162665D01*
X14088965Y35338658D01*
X14061434Y35512484D01*
X14007049Y35679863D01*
X13964419Y35763528D01*
X13927155Y35836662D01*
X13927153Y35836666D01*
X13927149Y35836673D01*
X13823704Y35979055D01*
X13823697Y35979062D01*
X13823693Y35979067D01*
X13699270Y36103490D01*
X13699265Y36103494D01*
X13699259Y36103500D01*
X13556877Y36206945D01*
X13556871Y36206948D01*
X13556865Y36206952D01*
X13400072Y36286843D01*
X13400064Y36286846D01*
X13232693Y36341229D01*
X13232689Y36341230D01*
X13232688Y36341230D01*
X13058862Y36368761D01*
X12882869Y36368761D01*
X12709043Y36341230D01*
X12709037Y36341229D01*
X12541664Y36286846D01*
X12541657Y36286843D01*
X12384855Y36206947D01*
X12242473Y36103502D01*
X11902498Y35763528D01*
X11799055Y35621147D01*
X11799048Y35621136D01*
X11719157Y35464343D01*
X11719154Y35464335D01*
X11664771Y35296964D01*
X11664770Y35296959D01*
X11664770Y35296958D01*
X11637239Y35123132D01*
X11637239Y34947138D01*
X11657145Y34821454D01*
X11664771Y34773307D01*
X11719155Y34605931D01*
X11719250Y34605703D01*
X11719260Y34605610D01*
X11720685Y34601224D01*
X11719763Y34600925D01*
X11726839Y34535113D01*
X11695059Y34471626D01*
X11634000Y34435400D01*
X11563049Y34437934D01*
X11545638Y34445220D01*
X11520473Y34458043D01*
X11520464Y34458046D01*
X11353093Y34512429D01*
X11353089Y34512430D01*
X11353088Y34512430D01*
X11179262Y34539961D01*
X11003269Y34539961D01*
X10829443Y34512430D01*
X10829437Y34512429D01*
X10662064Y34458046D01*
X10662057Y34458043D01*
X10505255Y34378147D01*
X10362873Y34274702D01*
X10022898Y33934728D01*
X9919455Y33792347D01*
X9919448Y33792336D01*
X9839557Y33635543D01*
X9839554Y33635535D01*
X9785171Y33468164D01*
X9785170Y33468159D01*
X9785170Y33468158D01*
X9757639Y33294332D01*
X-26100Y33294332D01*
X-26100Y35090340D01*
X7962087Y35090340D01*
X7962087Y34914433D01*
X7989608Y34740676D01*
X8043965Y34573382D01*
X8043968Y34573376D01*
X8123829Y34416639D01*
X8123833Y34416634D01*
X8128416Y34410325D01*
X8696760Y34978669D01*
X8714070Y34914068D01*
X8780949Y34798229D01*
X8875531Y34703647D01*
X8991370Y34636768D01*
X9055968Y34619460D01*
X8487626Y34051117D01*
X8487626Y34051115D01*
X8493933Y34046532D01*
X8650677Y33966667D01*
X8650683Y33966664D01*
X8817977Y33912307D01*
X8991734Y33884785D01*
X9167642Y33884785D01*
X9341398Y33912307D01*
X9508692Y33966664D01*
X9508698Y33966667D01*
X9665440Y34046531D01*
X9807754Y34149927D01*
X10147671Y34489845D01*
X10251068Y34632159D01*
X10330933Y34788902D01*
X10330936Y34788908D01*
X10385293Y34956202D01*
X10412815Y35129959D01*
X10412815Y35305866D01*
X10385293Y35479623D01*
X10330937Y35646913D01*
X10330619Y35647682D01*
X10330584Y35647999D01*
X10329405Y35651630D01*
X10330167Y35651878D01*
X10323023Y35718272D01*
X10354796Y35781762D01*
X10415850Y35817995D01*
X10486802Y35815468D01*
X10504221Y35808182D01*
X10530086Y35795002D01*
X10697465Y35740617D01*
X10871291Y35713086D01*
X10871294Y35713086D01*
X11047282Y35713086D01*
X11047285Y35713086D01*
X11221111Y35740617D01*
X11388490Y35795002D01*
X11545300Y35874902D01*
X11687682Y35978347D01*
X12027653Y36318319D01*
X12131098Y36460700D01*
X12210998Y36617510D01*
X12265383Y36784890D01*
X12292914Y36958716D01*
X12292914Y37134709D01*
X12265383Y37308535D01*
X12210998Y37475914D01*
X12168368Y37559579D01*
X12131104Y37632713D01*
X12131102Y37632717D01*
X12131098Y37632724D01*
X12027653Y37775106D01*
X12027646Y37775113D01*
X12027642Y37775118D01*
X11903219Y37899541D01*
X11903214Y37899545D01*
X11903208Y37899551D01*
X11760826Y38002996D01*
X11760820Y38002999D01*
X11760814Y38003003D01*
X11604021Y38082894D01*
X11604013Y38082897D01*
X11436642Y38137280D01*
X11436638Y38137281D01*
X11436637Y38137281D01*
X11262811Y38164812D01*
X11086818Y38164812D01*
X10912992Y38137281D01*
X10912986Y38137280D01*
X10745613Y38082897D01*
X10745606Y38082894D01*
X10588804Y38002998D01*
X10446422Y37899553D01*
X10106447Y37559579D01*
X10003004Y37417198D01*
X10002997Y37417187D01*
X9923106Y37260394D01*
X9923103Y37260386D01*
X9868720Y37093015D01*
X9868719Y37093010D01*
X9868719Y37093009D01*
X9841188Y36919183D01*
X9841188Y36743189D01*
X9861094Y36617505D01*
X9868720Y36569358D01*
X9923104Y36401983D01*
X9923494Y36401042D01*
X9923535Y36400656D01*
X9924634Y36397275D01*
X9923923Y36397045D01*
X9931082Y36330453D01*
X9899301Y36266966D01*
X9838242Y36230740D01*
X9767291Y36233276D01*
X9749882Y36240560D01*
X9724231Y36253630D01*
X9724219Y36253635D01*
X9556924Y36307992D01*
X9383168Y36335513D01*
X9207260Y36335513D01*
X9033503Y36307992D01*
X8866209Y36253635D01*
X8866203Y36253632D01*
X8709460Y36173767D01*
X8567146Y36070370D01*
X8227228Y35730453D01*
X8123832Y35588139D01*
X8043968Y35431397D01*
X8043965Y35431391D01*
X7989608Y35264097D01*
X7962087Y35090340D01*
X-26100Y35090340D01*
X-26100Y36798438D01*
X5802837Y36798438D01*
X5802837Y36798437D01*
X5822587Y36699136D01*
X5843613Y36667670D01*
X5864638Y36636203D01*
X7121403Y35379440D01*
X7142672Y35365228D01*
X7184336Y35337388D01*
X7283636Y35317637D01*
X7283637Y35317637D01*
X7283638Y35317637D01*
X7382938Y35337388D01*
X7384839Y35338658D01*
X7445871Y35379438D01*
X8918160Y36851729D01*
X8960212Y36914662D01*
X8979963Y37013963D01*
X8979963Y37026372D01*
X8983686Y37026372D01*
X8988093Y37075617D01*
X9031648Y37131684D01*
X9098601Y37155303D01*
X9129923Y37153064D01*
X9163237Y37146437D01*
X9163238Y37146437D01*
X9262538Y37166188D01*
X9325471Y37208238D01*
X10797760Y38680529D01*
X10839812Y38743462D01*
X10859563Y38842763D01*
X10844250Y38919754D01*
X10839812Y38942065D01*
X10825763Y38963090D01*
X10797762Y39004997D01*
X9540997Y40261760D01*
X9478064Y40303812D01*
X9478063Y40303813D01*
X9378764Y40323563D01*
X9378762Y40323563D01*
X9279461Y40303813D01*
X9226969Y40268739D01*
X9216531Y40261763D01*
X9216528Y40261761D01*
X9216526Y40261760D01*
X7744241Y38789473D01*
X7744237Y38789468D01*
X7702187Y38726538D01*
X7682437Y38627238D01*
X7682437Y38614828D01*
X7678716Y38614828D01*
X7674294Y38565555D01*
X7630726Y38509499D01*
X7563767Y38485896D01*
X7532477Y38488137D01*
X7517369Y38491142D01*
X7499163Y38494763D01*
X7499162Y38494763D01*
X7399861Y38475013D01*
X7336928Y38432961D01*
X7336926Y38432960D01*
X5864641Y36960673D01*
X5864637Y36960668D01*
X5822587Y36897738D01*
X5802837Y36798438D01*
X-26100Y36798438D01*
X-26100Y40640007D01*
X681580Y40640007D01*
X681580Y40639994D01*
X701239Y40327510D01*
X701240Y40327497D01*
X701241Y40327492D01*
X759915Y40019912D01*
X856677Y39722111D01*
X989999Y39438786D01*
X990001Y39438783D01*
X990004Y39438777D01*
X1157775Y39174411D01*
X1357371Y38933141D01*
X1357374Y38933139D01*
X1357375Y38933137D01*
X1453612Y38842764D01*
X1585634Y38718787D01*
X1728721Y38614828D01*
X1838959Y38534736D01*
X2113353Y38383886D01*
X2318912Y38302500D01*
X2404485Y38268619D01*
X2404488Y38268619D01*
X2404491Y38268617D01*
X2707780Y38190745D01*
X2707783Y38190745D01*
X2707786Y38190744D01*
X2913061Y38164812D01*
X3018437Y38151500D01*
X3018441Y38151500D01*
X3331559Y38151500D01*
X3331563Y38151500D01*
X3538667Y38177664D01*
X3642213Y38190744D01*
X3642214Y38190745D01*
X3642220Y38190745D01*
X3945509Y38268617D01*
X4236647Y38383886D01*
X4511041Y38534736D01*
X4764366Y38718787D01*
X4992625Y38933137D01*
X5192219Y39174404D01*
X5192221Y39174409D01*
X5192224Y39174411D01*
X5351228Y39424962D01*
X5360001Y39438786D01*
X5493323Y39722111D01*
X5590085Y40019912D01*
X5648759Y40327492D01*
X5653866Y40408673D01*
X5668420Y40639994D01*
X5668420Y40640007D01*
X5648760Y40952491D01*
X5648759Y40952508D01*
X5590085Y41260088D01*
X5493323Y41557889D01*
X5360001Y41841214D01*
X5325565Y41895477D01*
X5192224Y42105590D01*
X4992628Y42346860D01*
X4968248Y42369754D01*
X4764366Y42561213D01*
X4717206Y42595477D01*
X4511043Y42745263D01*
X4378817Y42817955D01*
X4236647Y42896114D01*
X4125225Y42940229D01*
X3945514Y43011382D01*
X3945496Y43011387D01*
X3642226Y43089254D01*
X3642213Y43089257D01*
X3331577Y43128499D01*
X3331566Y43128500D01*
X3331563Y43128500D01*
X3018437Y43128500D01*
X3018434Y43128500D01*
X3018422Y43128499D01*
X2707786Y43089257D01*
X2707773Y43089254D01*
X2404503Y43011387D01*
X2404485Y43011382D01*
X2113353Y42896114D01*
X1838956Y42745263D01*
X1585635Y42561214D01*
X1585634Y42561214D01*
X1357371Y42346860D01*
X1157775Y42105590D01*
X990004Y41841224D01*
X989997Y41841210D01*
X856680Y41557896D01*
X856678Y41557892D01*
X759916Y41260092D01*
X759914Y41260084D01*
X701242Y40952515D01*
X701239Y40952491D01*
X681580Y40640007D01*
X-26100Y40640007D01*
X-26100Y43172738D01*
X-6098Y43240859D01*
X10800Y43261828D01*
X5006156Y48257184D01*
X5068464Y48291207D01*
X5139279Y48286142D01*
X5184366Y48257157D01*
X19193256Y34240715D01*
X28553109Y24875816D01*
X28563519Y24865401D01*
X28597528Y24803080D01*
X28600400Y24776330D01*
X28600400Y21539200D01*
X28981400Y21539200D01*
X28981400Y21615401D01*
X48513515Y21615401D01*
X48513515Y21615400D01*
X48532571Y21470648D01*
X48588444Y21335759D01*
X48588449Y21335751D01*
X48677325Y21219926D01*
X48793150Y21131050D01*
X48793157Y21131045D01*
X48928046Y21075172D01*
X49072800Y21056115D01*
X49217554Y21075172D01*
X49352443Y21131045D01*
X49468274Y21219926D01*
X49557155Y21335757D01*
X49613028Y21470646D01*
X49632085Y21615400D01*
X49613028Y21760154D01*
X49557155Y21895042D01*
X49468274Y22010874D01*
X49468272Y22010876D01*
X49468271Y22010877D01*
X49352449Y22099751D01*
X49352441Y22099756D01*
X49217552Y22155629D01*
X49072800Y22174685D01*
X48928047Y22155629D01*
X48860602Y22127692D01*
X48793158Y22099755D01*
X48793157Y22099754D01*
X48793156Y22099754D01*
X48677326Y22010874D01*
X48588446Y21895044D01*
X48588445Y21895042D01*
X48580652Y21876228D01*
X48532571Y21760153D01*
X48513515Y21615401D01*
X28981400Y21615401D01*
X28981400Y23177501D01*
X44398715Y23177501D01*
X44398715Y23177500D01*
X44417771Y23032748D01*
X44473644Y22897859D01*
X44473649Y22897851D01*
X44562525Y22782026D01*
X44640652Y22722077D01*
X44678357Y22693145D01*
X44813246Y22637272D01*
X44958000Y22618215D01*
X45102754Y22637272D01*
X45237643Y22693145D01*
X45353474Y22782026D01*
X45442355Y22897857D01*
X45498228Y23032746D01*
X45517285Y23177500D01*
X45498228Y23322254D01*
X45442355Y23457142D01*
X45353474Y23572974D01*
X45353472Y23572976D01*
X45353471Y23572977D01*
X45237649Y23661851D01*
X45237641Y23661856D01*
X45102752Y23717729D01*
X44958000Y23736785D01*
X44813247Y23717729D01*
X44761819Y23696426D01*
X44678358Y23661855D01*
X44678357Y23661854D01*
X44678356Y23661854D01*
X44562526Y23572974D01*
X44473646Y23457144D01*
X44473645Y23457142D01*
X44445708Y23389698D01*
X44417771Y23322253D01*
X44398715Y23177501D01*
X28981400Y23177501D01*
X28981400Y23951870D01*
X51713900Y23951870D01*
X51713900Y22174537D01*
X51713901Y22174527D01*
X51728665Y22100300D01*
X51784916Y22016116D01*
X51869097Y21959867D01*
X51869099Y21959866D01*
X51943333Y21945100D01*
X54025466Y21945101D01*
X54025469Y21945102D01*
X54025473Y21945102D01*
X54074726Y21954899D01*
X54099701Y21959866D01*
X54183884Y22016116D01*
X54240134Y22100299D01*
X54254900Y22174533D01*
X54254899Y23951866D01*
X54254898Y23951870D01*
X54254898Y23951874D01*
X54240134Y24026101D01*
X54183883Y24110285D01*
X54099702Y24166534D01*
X54025467Y24181300D01*
X51943336Y24181300D01*
X51943326Y24181299D01*
X51869099Y24166535D01*
X51784915Y24110284D01*
X51728666Y24026103D01*
X51713900Y23951870D01*
X28981400Y23951870D01*
X28981400Y25107901D01*
X26645856Y27444701D01*
X32143215Y27444701D01*
X32143215Y27444700D01*
X32162271Y27299948D01*
X32218144Y27165059D01*
X32218149Y27165051D01*
X32307025Y27049226D01*
X32416346Y26965341D01*
X32422857Y26960345D01*
X32557746Y26904472D01*
X32702500Y26885415D01*
X32847254Y26904472D01*
X32982143Y26960345D01*
X33097974Y27049226D01*
X33186855Y27165057D01*
X33242728Y27299946D01*
X33251753Y27368501D01*
X36321515Y27368501D01*
X36321515Y27368500D01*
X36340571Y27223748D01*
X36396444Y27088859D01*
X36396449Y27088851D01*
X36485325Y26973026D01*
X36601150Y26884150D01*
X36601157Y26884145D01*
X36736046Y26828272D01*
X36880800Y26809215D01*
X37025554Y26828272D01*
X37160443Y26884145D01*
X37276274Y26973026D01*
X37365155Y27088857D01*
X37421028Y27223746D01*
X37436741Y27343101D01*
X41833315Y27343101D01*
X41833315Y27343100D01*
X41852371Y27198348D01*
X41908244Y27063459D01*
X41908249Y27063451D01*
X41997125Y26947626D01*
X42112950Y26858750D01*
X42112957Y26858745D01*
X42247846Y26802872D01*
X42392600Y26783815D01*
X42537354Y26802872D01*
X42672243Y26858745D01*
X42788074Y26947626D01*
X42876955Y27063457D01*
X42932828Y27198346D01*
X42951885Y27343100D01*
X42932828Y27487854D01*
X42876955Y27622742D01*
X42788074Y27738574D01*
X42788072Y27738576D01*
X42788071Y27738577D01*
X42672249Y27827451D01*
X42672241Y27827456D01*
X42537352Y27883329D01*
X42392600Y27902385D01*
X42247847Y27883329D01*
X42180402Y27855392D01*
X42112958Y27827455D01*
X42112957Y27827454D01*
X42112956Y27827454D01*
X41997126Y27738574D01*
X41908246Y27622744D01*
X41908245Y27622742D01*
X41880308Y27555298D01*
X41852371Y27487853D01*
X41833315Y27343101D01*
X37436741Y27343101D01*
X37440085Y27368500D01*
X37437451Y27388504D01*
X37429659Y27447695D01*
X37421028Y27513254D01*
X37365155Y27648142D01*
X37276274Y27763974D01*
X37276272Y27763976D01*
X37276271Y27763977D01*
X37160449Y27852851D01*
X37160441Y27852856D01*
X37025552Y27908729D01*
X36880800Y27927785D01*
X36736047Y27908729D01*
X36668602Y27880792D01*
X36601158Y27852855D01*
X36601157Y27852854D01*
X36601156Y27852854D01*
X36485326Y27763974D01*
X36396446Y27648144D01*
X36396445Y27648142D01*
X36385924Y27622742D01*
X36340571Y27513253D01*
X36321515Y27368501D01*
X33251753Y27368501D01*
X33261785Y27444700D01*
X33242728Y27589454D01*
X33186855Y27724342D01*
X33097974Y27840174D01*
X33097972Y27840176D01*
X33097971Y27840177D01*
X32982149Y27929051D01*
X32982141Y27929056D01*
X32847252Y27984929D01*
X32702500Y28003985D01*
X32557747Y27984929D01*
X32490302Y27956992D01*
X32422858Y27929055D01*
X32422857Y27929054D01*
X32422856Y27929054D01*
X32307026Y27840174D01*
X32218146Y27724344D01*
X32218145Y27724342D01*
X32207624Y27698942D01*
X32162271Y27589453D01*
X32143215Y27444701D01*
X26645856Y27444701D01*
X23980288Y30111701D01*
X40639515Y30111701D01*
X40639515Y30111700D01*
X40658571Y29966948D01*
X40714444Y29832059D01*
X40714449Y29832051D01*
X40803325Y29716226D01*
X40919150Y29627350D01*
X40919157Y29627345D01*
X41054046Y29571472D01*
X41198800Y29552415D01*
X41343554Y29571472D01*
X41478443Y29627345D01*
X41594274Y29716226D01*
X41683155Y29832057D01*
X41739028Y29966946D01*
X41758085Y30111700D01*
X41756421Y30124336D01*
X41739028Y30256453D01*
X41736039Y30263669D01*
X41683155Y30391342D01*
X41594274Y30507174D01*
X41594272Y30507176D01*
X41594271Y30507177D01*
X41478449Y30596051D01*
X41478441Y30596056D01*
X41343552Y30651929D01*
X41198800Y30670985D01*
X41054047Y30651929D01*
X40986602Y30623992D01*
X40919158Y30596055D01*
X40919157Y30596054D01*
X40919156Y30596054D01*
X40803326Y30507174D01*
X40714446Y30391344D01*
X40714445Y30391342D01*
X40698341Y30352463D01*
X40658571Y30256453D01*
X40639515Y30111701D01*
X23980288Y30111701D01*
X22457107Y31635701D01*
X32740115Y31635701D01*
X32740115Y31635700D01*
X32759171Y31490948D01*
X32815044Y31356059D01*
X32815049Y31356051D01*
X32903925Y31240226D01*
X33019750Y31151350D01*
X33019757Y31151345D01*
X33154646Y31095472D01*
X33299400Y31076415D01*
X33444154Y31095472D01*
X33579043Y31151345D01*
X33694874Y31240226D01*
X33783755Y31356057D01*
X33839628Y31490946D01*
X33858685Y31635700D01*
X33857013Y31648404D01*
X37134315Y31648404D01*
X37134315Y31648400D01*
X37153371Y31503648D01*
X37209244Y31368759D01*
X37209249Y31368751D01*
X37298125Y31252926D01*
X37391595Y31181204D01*
X37413957Y31164045D01*
X37548846Y31108172D01*
X37693600Y31089115D01*
X37838354Y31108172D01*
X37973243Y31164045D01*
X38089074Y31252926D01*
X38177955Y31368757D01*
X38233828Y31503646D01*
X38252885Y31648400D01*
X38252885Y31648404D01*
X38233828Y31793153D01*
X38233225Y31794609D01*
X38177955Y31928042D01*
X38089074Y32043874D01*
X38089072Y32043876D01*
X38089071Y32043877D01*
X37973249Y32132751D01*
X37973241Y32132756D01*
X37838352Y32188629D01*
X37693600Y32207685D01*
X37548847Y32188629D01*
X37504246Y32170154D01*
X37413958Y32132755D01*
X37413957Y32132754D01*
X37413956Y32132754D01*
X37298126Y32043874D01*
X37209246Y31928044D01*
X37209245Y31928042D01*
X37186131Y31872240D01*
X37153371Y31793153D01*
X37134315Y31648404D01*
X33857013Y31648404D01*
X33839628Y31780454D01*
X33783755Y31915342D01*
X33694874Y32031174D01*
X33694872Y32031176D01*
X33694871Y32031177D01*
X33579049Y32120051D01*
X33579041Y32120056D01*
X33444152Y32175929D01*
X33299400Y32194985D01*
X33154647Y32175929D01*
X33088468Y32148516D01*
X33019758Y32120055D01*
X33019757Y32120054D01*
X33019756Y32120054D01*
X32903926Y32031174D01*
X32815046Y31915344D01*
X32815045Y31915342D01*
X32797189Y31872234D01*
X32759171Y31780453D01*
X32740115Y31635701D01*
X22457107Y31635701D01*
X21086244Y33007301D01*
X34505415Y33007301D01*
X34505415Y33007300D01*
X34524471Y32862548D01*
X34580344Y32727659D01*
X34580349Y32727651D01*
X34669225Y32611826D01*
X34785050Y32522950D01*
X34785057Y32522945D01*
X34919946Y32467072D01*
X35064700Y32448015D01*
X35209454Y32467072D01*
X35344343Y32522945D01*
X35460174Y32611826D01*
X35549055Y32727657D01*
X35604928Y32862546D01*
X35623985Y33007300D01*
X35604928Y33152054D01*
X35595423Y33175001D01*
X38790715Y33175001D01*
X38790715Y33175000D01*
X38809771Y33030248D01*
X38865644Y32895359D01*
X38865649Y32895351D01*
X38954525Y32779526D01*
X39065020Y32694740D01*
X39070357Y32690645D01*
X39205246Y32634772D01*
X39350000Y32615715D01*
X39494754Y32634772D01*
X39629643Y32690645D01*
X39745474Y32779526D01*
X39834355Y32895357D01*
X39875463Y32994601D01*
X40995115Y32994601D01*
X40995115Y32994600D01*
X41014171Y32849848D01*
X41070044Y32714959D01*
X41070049Y32714951D01*
X41158925Y32599126D01*
X41274178Y32510689D01*
X41274757Y32510245D01*
X41409646Y32454372D01*
X41554400Y32435315D01*
X41699154Y32454372D01*
X41834043Y32510245D01*
X41949874Y32599126D01*
X42038755Y32714957D01*
X42094628Y32849846D01*
X42113685Y32994600D01*
X42094628Y33139354D01*
X42038755Y33274242D01*
X41949874Y33390074D01*
X41949872Y33390076D01*
X41949871Y33390077D01*
X41834049Y33478951D01*
X41834041Y33478956D01*
X41699152Y33534829D01*
X41554400Y33553885D01*
X41409647Y33534829D01*
X41349364Y33509858D01*
X41274758Y33478955D01*
X41274757Y33478954D01*
X41274756Y33478954D01*
X41158926Y33390074D01*
X41070046Y33274244D01*
X41070045Y33274242D01*
X41059223Y33248115D01*
X41014171Y33139353D01*
X40995115Y32994601D01*
X39875463Y32994601D01*
X39890228Y33030246D01*
X39909285Y33175000D01*
X39890228Y33319754D01*
X39834355Y33454642D01*
X39745474Y33570474D01*
X39745472Y33570476D01*
X39745471Y33570477D01*
X39629649Y33659351D01*
X39629641Y33659356D01*
X39494752Y33715229D01*
X39350000Y33734285D01*
X39205247Y33715229D01*
X39137802Y33687292D01*
X39070358Y33659355D01*
X39070357Y33659354D01*
X39070356Y33659354D01*
X38954526Y33570474D01*
X38865646Y33454644D01*
X38865645Y33454642D01*
X38847951Y33411926D01*
X38809771Y33319753D01*
X38790715Y33175001D01*
X35595423Y33175001D01*
X35549055Y33286942D01*
X35460174Y33402774D01*
X35460172Y33402776D01*
X35460171Y33402777D01*
X35344349Y33491651D01*
X35344341Y33491656D01*
X35209452Y33547529D01*
X35064700Y33566585D01*
X34919947Y33547529D01*
X34852502Y33519592D01*
X34785058Y33491655D01*
X34785057Y33491654D01*
X34785056Y33491654D01*
X34669226Y33402774D01*
X34580346Y33286944D01*
X34580345Y33286942D01*
X34572156Y33267172D01*
X34524471Y33152053D01*
X34505415Y33007301D01*
X21086244Y33007301D01*
X18785426Y35309356D01*
X12798001Y41300001D01*
X20440715Y41300001D01*
X20440715Y41300000D01*
X20459771Y41155248D01*
X20515644Y41020359D01*
X20515649Y41020351D01*
X20594462Y40917641D01*
X20620063Y40851421D01*
X20620500Y40840937D01*
X20620500Y39432697D01*
X20620499Y39432679D01*
X20620499Y39424962D01*
X20620499Y39325038D01*
X20638099Y39259355D01*
X20644876Y39234064D01*
X20646362Y39228518D01*
X20696321Y39141985D01*
X20696329Y39141975D01*
X20774156Y39064148D01*
X20774170Y39064136D01*
X24957045Y34881261D01*
X24991071Y34818949D01*
X24992872Y34808613D01*
X25009771Y34680248D01*
X25065644Y34545359D01*
X25065649Y34545351D01*
X25154525Y34429526D01*
X25270350Y34340650D01*
X25270357Y34340645D01*
X25405246Y34284772D01*
X25550000Y34265715D01*
X25694754Y34284772D01*
X25829643Y34340645D01*
X25945474Y34429526D01*
X26034355Y34545357D01*
X26090228Y34680246D01*
X26109285Y34825000D01*
X26090228Y34969754D01*
X26034355Y35104642D01*
X25945474Y35220474D01*
X25945472Y35220476D01*
X25945471Y35220477D01*
X25829649Y35309351D01*
X25829641Y35309356D01*
X25694752Y35365229D01*
X25566387Y35382128D01*
X25501460Y35410851D01*
X25493739Y35417955D01*
X24742093Y36169601D01*
X25348715Y36169601D01*
X25348715Y36169600D01*
X25367771Y36024848D01*
X25423644Y35889959D01*
X25423649Y35889951D01*
X25512525Y35774126D01*
X25592074Y35713086D01*
X25628357Y35685245D01*
X25763246Y35629372D01*
X25908000Y35610315D01*
X26052754Y35629372D01*
X26187643Y35685245D01*
X26303474Y35774126D01*
X26392355Y35889957D01*
X26448228Y36024846D01*
X26467285Y36169600D01*
X26466736Y36173767D01*
X26451849Y36286846D01*
X26448228Y36314354D01*
X26392355Y36449242D01*
X26303474Y36565074D01*
X26303472Y36565076D01*
X26303471Y36565077D01*
X26187649Y36653951D01*
X26187641Y36653956D01*
X26052752Y36709829D01*
X25908000Y36728885D01*
X25763247Y36709829D01*
X25737433Y36699136D01*
X25628358Y36653955D01*
X25628357Y36653954D01*
X25628356Y36653954D01*
X25512526Y36565074D01*
X25423646Y36449244D01*
X25423645Y36449242D01*
X25403229Y36399954D01*
X25367771Y36314353D01*
X25348715Y36169601D01*
X24742093Y36169601D01*
X21416405Y39495289D01*
X21382379Y39557601D01*
X21379500Y39584384D01*
X21379500Y40840937D01*
X21399502Y40909058D01*
X21405538Y40917641D01*
X21484350Y41020351D01*
X21484355Y41020357D01*
X21540228Y41155246D01*
X21559285Y41300000D01*
X21559200Y41300642D01*
X21540228Y41444753D01*
X21540228Y41444754D01*
X21484355Y41579642D01*
X21395474Y41695474D01*
X21395472Y41695476D01*
X21395471Y41695477D01*
X21279649Y41784351D01*
X21279641Y41784356D01*
X21144752Y41840229D01*
X21000000Y41859285D01*
X20855247Y41840229D01*
X20787802Y41812292D01*
X20720358Y41784355D01*
X20720357Y41784354D01*
X20720356Y41784354D01*
X20604526Y41695474D01*
X20515646Y41579644D01*
X20515645Y41579642D01*
X20496956Y41534523D01*
X20459771Y41444753D01*
X20440715Y41300001D01*
X12798001Y41300001D01*
X11398753Y42700001D01*
X14840715Y42700001D01*
X14840715Y42700000D01*
X14859771Y42555248D01*
X14915644Y42420359D01*
X14915649Y42420351D01*
X15004525Y42304526D01*
X15114216Y42220357D01*
X15120357Y42215645D01*
X15255246Y42159772D01*
X15400000Y42140715D01*
X15544754Y42159772D01*
X15679643Y42215645D01*
X15795474Y42304526D01*
X15884355Y42420357D01*
X15940228Y42555246D01*
X15959285Y42700000D01*
X15958053Y42709355D01*
X15940228Y42844753D01*
X15940228Y42844754D01*
X15884355Y42979642D01*
X15795474Y43095474D01*
X15795472Y43095476D01*
X15795471Y43095477D01*
X15679649Y43184351D01*
X15679641Y43184356D01*
X15544752Y43240229D01*
X15400000Y43259285D01*
X15255247Y43240229D01*
X15218306Y43224927D01*
X15120358Y43184355D01*
X15120357Y43184354D01*
X15120356Y43184354D01*
X15004526Y43095474D01*
X14915646Y42979644D01*
X14915645Y42979642D01*
X14899319Y42940228D01*
X14859771Y42844753D01*
X14840715Y42700001D01*
X11398753Y42700001D01*
X7101064Y47000001D01*
X19840715Y47000001D01*
X19840715Y47000000D01*
X19859771Y46855248D01*
X19915644Y46720359D01*
X19915649Y46720351D01*
X19994462Y46617641D01*
X20020063Y46551421D01*
X20020500Y46540937D01*
X20020500Y46082697D01*
X20020499Y46082679D01*
X20020499Y45975035D01*
X20040896Y45898916D01*
X20040897Y45898914D01*
X20046361Y45878520D01*
X20096321Y45791985D01*
X20096329Y45791975D01*
X20174156Y45714148D01*
X20174170Y45714136D01*
X24332045Y41556261D01*
X24366071Y41493949D01*
X24367872Y41483613D01*
X24384771Y41355248D01*
X24440644Y41220359D01*
X24440649Y41220351D01*
X24529525Y41104526D01*
X24639216Y41020357D01*
X24645357Y41015645D01*
X24780246Y40959772D01*
X24925000Y40940715D01*
X25069754Y40959772D01*
X25204643Y41015645D01*
X25320474Y41104526D01*
X25409355Y41220357D01*
X25465228Y41355246D01*
X25484285Y41500000D01*
X25465228Y41644754D01*
X25409355Y41779642D01*
X25320474Y41895474D01*
X25320472Y41895476D01*
X25320471Y41895477D01*
X25208322Y41981532D01*
X25166455Y42038870D01*
X25162233Y42109741D01*
X25196997Y42171643D01*
X25236804Y42197901D01*
X25279643Y42215645D01*
X25395474Y42304526D01*
X25468735Y42400001D01*
X28740715Y42400001D01*
X28740715Y42400000D01*
X28759771Y42255248D01*
X28815644Y42120359D01*
X28815649Y42120351D01*
X28894462Y42017641D01*
X28920063Y41951421D01*
X28920500Y41940937D01*
X28920500Y35259064D01*
X28900498Y35190943D01*
X28894463Y35182361D01*
X28815649Y35079648D01*
X28815646Y35079645D01*
X28815645Y35079642D01*
X28800579Y35043269D01*
X28759771Y34944753D01*
X28740715Y34800001D01*
X28740715Y34800000D01*
X28759771Y34655248D01*
X28815644Y34520359D01*
X28815649Y34520351D01*
X28904525Y34404526D01*
X29020350Y34315650D01*
X29020357Y34315645D01*
X29155246Y34259772D01*
X29300000Y34240715D01*
X29444754Y34259772D01*
X29579643Y34315645D01*
X29695474Y34404526D01*
X29784355Y34520357D01*
X29840228Y34655246D01*
X29859285Y34800000D01*
X29840228Y34944754D01*
X29784355Y35079642D01*
X29750984Y35123132D01*
X29705537Y35182361D01*
X29679937Y35248581D01*
X29679500Y35259064D01*
X29679500Y35915601D01*
X33476715Y35915601D01*
X33476715Y35915600D01*
X33495771Y35770848D01*
X33551644Y35635959D01*
X33551649Y35635951D01*
X33640525Y35520126D01*
X33756350Y35431250D01*
X33756357Y35431245D01*
X33891246Y35375372D01*
X34036000Y35356315D01*
X34180754Y35375372D01*
X34315643Y35431245D01*
X34431474Y35520126D01*
X34520355Y35635957D01*
X34576228Y35770846D01*
X34595285Y35915600D01*
X34586931Y35979052D01*
X34576228Y36060353D01*
X34558360Y36103490D01*
X34520355Y36195242D01*
X34431474Y36311074D01*
X34431472Y36311076D01*
X34431471Y36311077D01*
X34315649Y36399951D01*
X34315641Y36399956D01*
X34180752Y36455829D01*
X34036000Y36474885D01*
X33891247Y36455829D01*
X33823802Y36427892D01*
X33756358Y36399955D01*
X33756357Y36399954D01*
X33756356Y36399954D01*
X33640526Y36311074D01*
X33551646Y36195244D01*
X33551645Y36195242D01*
X33542750Y36173767D01*
X33495771Y36060353D01*
X33476715Y35915601D01*
X29679500Y35915601D01*
X29679500Y38775001D01*
X36365715Y38775001D01*
X36365715Y38775000D01*
X36384771Y38630248D01*
X36440644Y38495359D01*
X36440649Y38495351D01*
X36529525Y38379526D01*
X36629907Y38302500D01*
X36645357Y38290645D01*
X36780246Y38234772D01*
X36925000Y38215715D01*
X37069754Y38234772D01*
X37204643Y38290645D01*
X37320474Y38379526D01*
X37409355Y38495357D01*
X37465228Y38630246D01*
X37484285Y38775000D01*
X37465228Y38919754D01*
X37409355Y39054642D01*
X37387666Y39082908D01*
X37330537Y39157361D01*
X37304937Y39223581D01*
X37304500Y39234064D01*
X37304500Y42500001D01*
X38240715Y42500001D01*
X38240715Y42500000D01*
X38259771Y42355248D01*
X38315644Y42220359D01*
X38315649Y42220351D01*
X38394462Y42117641D01*
X38420063Y42051421D01*
X38420500Y42040937D01*
X38420500Y35259064D01*
X38400498Y35190943D01*
X38394463Y35182361D01*
X38315649Y35079648D01*
X38315646Y35079645D01*
X38315645Y35079642D01*
X38300579Y35043269D01*
X38259771Y34944753D01*
X38240715Y34800001D01*
X38240715Y34800000D01*
X38259771Y34655248D01*
X38315644Y34520359D01*
X38315649Y34520351D01*
X38404525Y34404526D01*
X38520350Y34315650D01*
X38520357Y34315645D01*
X38655246Y34259772D01*
X38800000Y34240715D01*
X38944754Y34259772D01*
X39079643Y34315645D01*
X39195474Y34404526D01*
X39284355Y34520357D01*
X39340228Y34655246D01*
X39359285Y34800000D01*
X39340228Y34944754D01*
X39284355Y35079642D01*
X39250984Y35123132D01*
X39205537Y35182361D01*
X39179937Y35248581D01*
X39179500Y35259064D01*
X39179500Y36118801D01*
X43331915Y36118801D01*
X43331915Y36118800D01*
X43350971Y35974048D01*
X43406844Y35839159D01*
X43406849Y35839151D01*
X43495725Y35723326D01*
X43609594Y35635951D01*
X43611557Y35634445D01*
X43746446Y35578572D01*
X43891200Y35559515D01*
X44035954Y35578572D01*
X44170843Y35634445D01*
X44286674Y35723326D01*
X44375555Y35839157D01*
X44431428Y35974046D01*
X44450485Y36118800D01*
X44431428Y36263554D01*
X44375555Y36398442D01*
X44286674Y36514274D01*
X44286672Y36514276D01*
X44286671Y36514277D01*
X44170849Y36603151D01*
X44170841Y36603156D01*
X44035952Y36659029D01*
X43891200Y36678085D01*
X43746447Y36659029D01*
X43691342Y36636203D01*
X43611558Y36603155D01*
X43611557Y36603154D01*
X43611556Y36603154D01*
X43495726Y36514274D01*
X43406846Y36398444D01*
X43406845Y36398442D01*
X43394551Y36368761D01*
X43350971Y36263553D01*
X43331915Y36118801D01*
X39179500Y36118801D01*
X39179500Y37719001D01*
X46176715Y37719001D01*
X46176715Y37719000D01*
X46195771Y37574248D01*
X46251644Y37439359D01*
X46251649Y37439351D01*
X46340525Y37323526D01*
X46456350Y37234650D01*
X46456357Y37234645D01*
X46591246Y37178772D01*
X46736000Y37159715D01*
X46880754Y37178772D01*
X47015643Y37234645D01*
X47131474Y37323526D01*
X47220355Y37439357D01*
X47276228Y37574246D01*
X47295285Y37719000D01*
X47276228Y37863754D01*
X47220355Y37998642D01*
X47131474Y38114474D01*
X47131472Y38114476D01*
X47131471Y38114477D01*
X47015649Y38203351D01*
X47015641Y38203356D01*
X46880752Y38259229D01*
X46736000Y38278285D01*
X46591247Y38259229D01*
X46523802Y38231292D01*
X46456358Y38203355D01*
X46456357Y38203354D01*
X46456356Y38203354D01*
X46340526Y38114474D01*
X46251646Y37998644D01*
X46251645Y37998642D01*
X46223708Y37931198D01*
X46195771Y37863753D01*
X46176715Y37719001D01*
X39179500Y37719001D01*
X39179500Y41525001D01*
X44265715Y41525001D01*
X44265715Y41525000D01*
X44284771Y41380248D01*
X44340644Y41245359D01*
X44340649Y41245351D01*
X44429525Y41129526D01*
X44462106Y41104526D01*
X44545357Y41040645D01*
X44680246Y40984772D01*
X44825000Y40965715D01*
X44969754Y40984772D01*
X45057218Y41021001D01*
X49605715Y41021001D01*
X49605715Y41021000D01*
X49624771Y40876248D01*
X49680644Y40741359D01*
X49680649Y40741351D01*
X49769525Y40625526D01*
X49885350Y40536650D01*
X49885357Y40536645D01*
X50020246Y40480772D01*
X50165000Y40461715D01*
X50309754Y40480772D01*
X50444643Y40536645D01*
X50560474Y40625526D01*
X50571586Y40640007D01*
X55545580Y40640007D01*
X55545580Y40639994D01*
X55565239Y40327510D01*
X55565240Y40327497D01*
X55565241Y40327492D01*
X55623915Y40019912D01*
X55720677Y39722111D01*
X55853999Y39438786D01*
X55854001Y39438783D01*
X55854004Y39438777D01*
X56021775Y39174411D01*
X56221371Y38933141D01*
X56221374Y38933139D01*
X56221375Y38933137D01*
X56317612Y38842764D01*
X56449634Y38718787D01*
X56592721Y38614828D01*
X56702959Y38534736D01*
X56977353Y38383886D01*
X57182912Y38302500D01*
X57268485Y38268619D01*
X57268488Y38268619D01*
X57268491Y38268617D01*
X57571780Y38190745D01*
X57571783Y38190745D01*
X57571786Y38190744D01*
X57777061Y38164812D01*
X57882437Y38151500D01*
X57882441Y38151500D01*
X58195559Y38151500D01*
X58195563Y38151500D01*
X58402667Y38177664D01*
X58506213Y38190744D01*
X58506214Y38190745D01*
X58506220Y38190745D01*
X58809509Y38268617D01*
X59100647Y38383886D01*
X59375041Y38534736D01*
X59628366Y38718787D01*
X59856625Y38933137D01*
X60056219Y39174404D01*
X60056221Y39174409D01*
X60056224Y39174411D01*
X60215228Y39424962D01*
X60224001Y39438786D01*
X60357323Y39722111D01*
X60454085Y40019912D01*
X60512759Y40327492D01*
X60517866Y40408673D01*
X60532420Y40639994D01*
X60532420Y40640007D01*
X60512760Y40952491D01*
X60512759Y40952508D01*
X60454085Y41260088D01*
X60357323Y41557889D01*
X60224001Y41841214D01*
X60189565Y41895477D01*
X60056224Y42105590D01*
X59856628Y42346860D01*
X59832248Y42369754D01*
X59628366Y42561213D01*
X59581206Y42595477D01*
X59375043Y42745263D01*
X59242817Y42817955D01*
X59100647Y42896114D01*
X58989225Y42940229D01*
X58809514Y43011382D01*
X58809496Y43011387D01*
X58506226Y43089254D01*
X58506213Y43089257D01*
X58195577Y43128499D01*
X58195566Y43128500D01*
X58195563Y43128500D01*
X57882437Y43128500D01*
X57882434Y43128500D01*
X57882422Y43128499D01*
X57571786Y43089257D01*
X57571773Y43089254D01*
X57268503Y43011387D01*
X57268485Y43011382D01*
X56977353Y42896114D01*
X56702956Y42745263D01*
X56449635Y42561214D01*
X56449634Y42561214D01*
X56221371Y42346860D01*
X56021775Y42105590D01*
X55854004Y41841224D01*
X55853997Y41841210D01*
X55720680Y41557896D01*
X55720678Y41557892D01*
X55623916Y41260092D01*
X55623914Y41260084D01*
X55565242Y40952515D01*
X55565239Y40952491D01*
X55545580Y40640007D01*
X50571586Y40640007D01*
X50649355Y40741357D01*
X50705228Y40876246D01*
X50724285Y41021000D01*
X50705228Y41165754D01*
X50649355Y41300642D01*
X50560474Y41416474D01*
X50560472Y41416476D01*
X50560471Y41416477D01*
X50444649Y41505351D01*
X50444641Y41505356D01*
X50309752Y41561229D01*
X50165000Y41580285D01*
X50020247Y41561229D01*
X49955775Y41534523D01*
X49885358Y41505355D01*
X49885357Y41505354D01*
X49885356Y41505354D01*
X49769526Y41416474D01*
X49680646Y41300644D01*
X49680645Y41300642D01*
X49657593Y41244990D01*
X49624771Y41165753D01*
X49605715Y41021001D01*
X45057218Y41021001D01*
X45104643Y41040645D01*
X45220474Y41129526D01*
X45309355Y41245357D01*
X45365228Y41380246D01*
X45384285Y41525000D01*
X45380169Y41556261D01*
X45365228Y41669753D01*
X45354574Y41695474D01*
X45309355Y41804642D01*
X45220474Y41920474D01*
X45220472Y41920476D01*
X45220471Y41920477D01*
X45104649Y42009351D01*
X45104641Y42009356D01*
X44969752Y42065229D01*
X44825000Y42084285D01*
X44680247Y42065229D01*
X44646913Y42051421D01*
X44545358Y42009355D01*
X44545357Y42009354D01*
X44545356Y42009354D01*
X44429526Y41920474D01*
X44340646Y41804644D01*
X44340645Y41804642D01*
X44330290Y41779643D01*
X44284771Y41669753D01*
X44265715Y41525001D01*
X39179500Y41525001D01*
X39179500Y42040937D01*
X39199502Y42109058D01*
X39205538Y42117641D01*
X39284350Y42220351D01*
X39284355Y42220357D01*
X39286279Y42225001D01*
X42165715Y42225001D01*
X42165715Y42225000D01*
X42184771Y42080248D01*
X42240644Y41945359D01*
X42240649Y41945351D01*
X42329525Y41829526D01*
X42445350Y41740650D01*
X42445357Y41740645D01*
X42580246Y41684772D01*
X42725000Y41665715D01*
X42869754Y41684772D01*
X43004643Y41740645D01*
X43120474Y41829526D01*
X43209355Y41945357D01*
X43265228Y42080246D01*
X43280993Y42200001D01*
X48640715Y42200001D01*
X48640715Y42200000D01*
X48659771Y42055248D01*
X48715644Y41920359D01*
X48715649Y41920351D01*
X48804525Y41804526D01*
X48920350Y41715650D01*
X48920357Y41715645D01*
X49055246Y41659772D01*
X49200000Y41640715D01*
X49344754Y41659772D01*
X49479643Y41715645D01*
X49595474Y41804526D01*
X49684355Y41920357D01*
X49740228Y42055246D01*
X49759285Y42200000D01*
X49740228Y42344754D01*
X49684355Y42479642D01*
X49595474Y42595474D01*
X49595472Y42595476D01*
X49595471Y42595477D01*
X49479649Y42684351D01*
X49479641Y42684356D01*
X49344752Y42740229D01*
X49200000Y42759285D01*
X49055247Y42740229D01*
X49012384Y42722474D01*
X48920358Y42684355D01*
X48920357Y42684354D01*
X48920356Y42684354D01*
X48804526Y42595474D01*
X48715646Y42479644D01*
X48715645Y42479642D01*
X48709256Y42464217D01*
X48659771Y42344753D01*
X48640715Y42200001D01*
X43280993Y42200001D01*
X43282127Y42208616D01*
X43310849Y42273540D01*
X43317942Y42281250D01*
X45486693Y44450001D01*
X51764715Y44450001D01*
X51764715Y44450000D01*
X51783771Y44305248D01*
X51839644Y44170359D01*
X51839649Y44170351D01*
X51928525Y44054526D01*
X52044350Y43965650D01*
X52044357Y43965645D01*
X52179246Y43909772D01*
X52324000Y43890715D01*
X52468754Y43909772D01*
X52603643Y43965645D01*
X52719474Y44054526D01*
X52808355Y44170357D01*
X52864228Y44305246D01*
X52883285Y44450000D01*
X52864228Y44594754D01*
X52808355Y44729642D01*
X52719474Y44845474D01*
X52719472Y44845476D01*
X52719471Y44845477D01*
X52603649Y44934351D01*
X52603641Y44934356D01*
X52468752Y44990229D01*
X52324000Y45009285D01*
X52179247Y44990229D01*
X52111802Y44962292D01*
X52044358Y44934355D01*
X52044357Y44934354D01*
X52044356Y44934354D01*
X51928526Y44845474D01*
X51839646Y44729644D01*
X51839645Y44729642D01*
X51817880Y44677097D01*
X51783771Y44594753D01*
X51764715Y44450001D01*
X45486693Y44450001D01*
X49022642Y47985950D01*
X49022652Y47985957D01*
X49103670Y48066975D01*
X49103676Y48066981D01*
X49153638Y48153518D01*
X49179500Y48250038D01*
X49179500Y50240937D01*
X49199502Y50309058D01*
X49205538Y50317641D01*
X49284350Y50420351D01*
X49284355Y50420357D01*
X49340228Y50555246D01*
X49359285Y50700000D01*
X49340228Y50844754D01*
X49284355Y50979642D01*
X49195474Y51095474D01*
X49195472Y51095476D01*
X49195471Y51095477D01*
X49079649Y51184351D01*
X49079641Y51184356D01*
X48944752Y51240229D01*
X48800000Y51259285D01*
X48655247Y51240229D01*
X48587802Y51212292D01*
X48520358Y51184355D01*
X48520357Y51184354D01*
X48520356Y51184354D01*
X48404526Y51095474D01*
X48315646Y50979644D01*
X48315645Y50979642D01*
X48287708Y50912198D01*
X48259771Y50844753D01*
X48240715Y50700001D01*
X48240715Y50700000D01*
X48259771Y50555248D01*
X48315644Y50420359D01*
X48315649Y50420351D01*
X48394462Y50317641D01*
X48420063Y50251421D01*
X48420500Y50240937D01*
X48420500Y48509385D01*
X48400498Y48441264D01*
X48383595Y48420290D01*
X42781259Y42817955D01*
X42718947Y42783929D01*
X42708611Y42782128D01*
X42580247Y42765229D01*
X42530818Y42744754D01*
X42445358Y42709355D01*
X42445357Y42709354D01*
X42445356Y42709354D01*
X42329526Y42620474D01*
X42240646Y42504644D01*
X42240645Y42504642D01*
X42230290Y42479643D01*
X42184771Y42369753D01*
X42165715Y42225001D01*
X39286279Y42225001D01*
X39340228Y42355246D01*
X39359285Y42500000D01*
X39340228Y42644754D01*
X39284355Y42779642D01*
X39195474Y42895474D01*
X39195472Y42895476D01*
X39195471Y42895477D01*
X39079649Y42984351D01*
X39079641Y42984356D01*
X38944752Y43040229D01*
X38800000Y43059285D01*
X38655247Y43040229D01*
X38587802Y43012292D01*
X38520358Y42984355D01*
X38520357Y42984354D01*
X38520356Y42984354D01*
X38404526Y42895474D01*
X38315646Y42779644D01*
X38315645Y42779642D01*
X38299319Y42740228D01*
X38259771Y42644753D01*
X38240715Y42500001D01*
X37304500Y42500001D01*
X37304500Y44500001D01*
X41840715Y44500001D01*
X41840715Y44500000D01*
X41859771Y44355248D01*
X41915644Y44220359D01*
X41915649Y44220351D01*
X42004525Y44104526D01*
X42120350Y44015650D01*
X42120357Y44015645D01*
X42255246Y43959772D01*
X42400000Y43940715D01*
X42544754Y43959772D01*
X42679643Y44015645D01*
X42795474Y44104526D01*
X42884355Y44220357D01*
X42940228Y44355246D01*
X42959285Y44500000D01*
X42940228Y44644754D01*
X42884355Y44779642D01*
X42795474Y44895474D01*
X42795472Y44895476D01*
X42795471Y44895477D01*
X42679649Y44984351D01*
X42679641Y44984356D01*
X42544752Y45040229D01*
X42400000Y45059285D01*
X42255247Y45040229D01*
X42187802Y45012292D01*
X42120358Y44984355D01*
X42120357Y44984354D01*
X42120356Y44984354D01*
X42004526Y44895474D01*
X41915646Y44779644D01*
X41915645Y44779642D01*
X41894935Y44729644D01*
X41859771Y44644753D01*
X41840715Y44500001D01*
X37304500Y44500001D01*
X37304500Y45090617D01*
X37324502Y45158738D01*
X37341400Y45179707D01*
X38743740Y46582048D01*
X38806050Y46616071D01*
X38816372Y46617871D01*
X38944754Y46634772D01*
X39079643Y46690645D01*
X39195474Y46779526D01*
X39284355Y46895357D01*
X39340228Y47030246D01*
X39359285Y47175000D01*
X39340228Y47319754D01*
X39284355Y47454642D01*
X39195474Y47570474D01*
X39195472Y47570476D01*
X39195471Y47570477D01*
X39079649Y47659351D01*
X39079641Y47659356D01*
X38944752Y47715229D01*
X38800000Y47734285D01*
X38655247Y47715229D01*
X38587802Y47687292D01*
X38520358Y47659355D01*
X38520357Y47659354D01*
X38520356Y47659354D01*
X38404526Y47570474D01*
X38315646Y47454644D01*
X38315645Y47454642D01*
X38291138Y47395477D01*
X38259771Y47319753D01*
X38242872Y47191389D01*
X38214149Y47126462D01*
X38207045Y47118741D01*
X37322689Y46234384D01*
X36691983Y45603678D01*
X36691981Y45603676D01*
X36656653Y45568348D01*
X36621325Y45533021D01*
X36621321Y45533016D01*
X36571362Y45446484D01*
X36571363Y45446484D01*
X36571362Y45446480D01*
X36545499Y45349964D01*
X36545499Y45239888D01*
X36545500Y45239875D01*
X36545500Y39234064D01*
X36525498Y39165943D01*
X36519463Y39157361D01*
X36440649Y39054648D01*
X36440646Y39054645D01*
X36440645Y39054642D01*
X36420082Y39004998D01*
X36384771Y38919753D01*
X36365715Y38775001D01*
X29679500Y38775001D01*
X29679500Y41940937D01*
X29699502Y42009058D01*
X29705538Y42017641D01*
X29784350Y42120351D01*
X29784355Y42120357D01*
X29840228Y42255246D01*
X29859285Y42400000D01*
X29840228Y42544754D01*
X29817344Y42600001D01*
X33890715Y42600001D01*
X33890715Y42600000D01*
X33909771Y42455248D01*
X33965644Y42320359D01*
X33965649Y42320351D01*
X34054525Y42204526D01*
X34170350Y42115650D01*
X34170357Y42115645D01*
X34305246Y42059772D01*
X34450000Y42040715D01*
X34594754Y42059772D01*
X34729643Y42115645D01*
X34845474Y42204526D01*
X34934355Y42320357D01*
X34990228Y42455246D01*
X35009285Y42600000D01*
X34990228Y42744754D01*
X34934355Y42879642D01*
X34845474Y42995474D01*
X34845472Y42995476D01*
X34845471Y42995477D01*
X34729649Y43084351D01*
X34729641Y43084356D01*
X34594752Y43140229D01*
X34450000Y43159285D01*
X34305247Y43140229D01*
X34237802Y43112292D01*
X34170358Y43084355D01*
X34170357Y43084354D01*
X34170356Y43084354D01*
X34054526Y42995474D01*
X33965646Y42879644D01*
X33965645Y42879642D01*
X33940093Y42817955D01*
X33909771Y42744753D01*
X33890715Y42600001D01*
X29817344Y42600001D01*
X29784355Y42679642D01*
X29695474Y42795474D01*
X29695472Y42795476D01*
X29695471Y42795477D01*
X29579649Y42884351D01*
X29579641Y42884356D01*
X29444752Y42940229D01*
X29300000Y42959285D01*
X29155247Y42940229D01*
X29087802Y42912292D01*
X29020358Y42884355D01*
X29020357Y42884354D01*
X29020356Y42884354D01*
X28904526Y42795474D01*
X28815646Y42679644D01*
X28815645Y42679642D01*
X28791137Y42620474D01*
X28759771Y42544753D01*
X28740715Y42400001D01*
X25468735Y42400001D01*
X25484355Y42420357D01*
X25540228Y42555246D01*
X25559285Y42700000D01*
X25558053Y42709355D01*
X25540228Y42844753D01*
X25540228Y42844754D01*
X25484355Y42979642D01*
X25395474Y43095474D01*
X25395472Y43095476D01*
X25395471Y43095477D01*
X25279649Y43184351D01*
X25279641Y43184356D01*
X25144752Y43240229D01*
X25000000Y43259285D01*
X24855247Y43240229D01*
X24818306Y43224927D01*
X24720358Y43184355D01*
X24720357Y43184354D01*
X24720356Y43184354D01*
X24604526Y43095474D01*
X24515646Y42979644D01*
X24515645Y42979642D01*
X24499319Y42940228D01*
X24459771Y42844753D01*
X24453237Y42795121D01*
X24424513Y42730194D01*
X24365247Y42691103D01*
X24294256Y42690260D01*
X24239220Y42722474D01*
X23177096Y43784598D01*
X23143070Y43846910D01*
X23148135Y43917725D01*
X23190682Y43974561D01*
X23217966Y43990098D01*
X23279643Y44015645D01*
X23395474Y44104526D01*
X23484355Y44220357D01*
X23540228Y44355246D01*
X23559285Y44500000D01*
X23559285Y44500001D01*
X32240715Y44500001D01*
X32240715Y44500000D01*
X32259771Y44355248D01*
X32315644Y44220359D01*
X32315649Y44220351D01*
X32404525Y44104526D01*
X32520350Y44015650D01*
X32520357Y44015645D01*
X32655246Y43959772D01*
X32800000Y43940715D01*
X32944754Y43959772D01*
X33079643Y44015645D01*
X33195474Y44104526D01*
X33284355Y44220357D01*
X33340228Y44355246D01*
X33359285Y44500000D01*
X33340228Y44644754D01*
X33284355Y44779642D01*
X33195474Y44895474D01*
X33195472Y44895476D01*
X33195471Y44895477D01*
X33079649Y44984351D01*
X33079641Y44984356D01*
X32944752Y45040229D01*
X32800000Y45059285D01*
X32655247Y45040229D01*
X32587802Y45012292D01*
X32520358Y44984355D01*
X32520357Y44984354D01*
X32520356Y44984354D01*
X32404526Y44895474D01*
X32315646Y44779644D01*
X32315645Y44779642D01*
X32294935Y44729644D01*
X32259771Y44644753D01*
X32240715Y44500001D01*
X23559285Y44500001D01*
X23540228Y44644754D01*
X23484355Y44779642D01*
X23395474Y44895474D01*
X23395472Y44895476D01*
X23395471Y44895477D01*
X23279649Y44984351D01*
X23279641Y44984356D01*
X23144752Y45040229D01*
X23000000Y45059285D01*
X22855247Y45040229D01*
X22787802Y45012292D01*
X22720358Y44984355D01*
X22720357Y44984354D01*
X22720356Y44984354D01*
X22604526Y44895474D01*
X22515646Y44779644D01*
X22515642Y44779637D01*
X22490100Y44717973D01*
X22445552Y44662692D01*
X22378188Y44640272D01*
X22309397Y44657831D01*
X22284597Y44677097D01*
X20816405Y46145289D01*
X20782379Y46207601D01*
X20779500Y46234384D01*
X20779500Y46540937D01*
X20799502Y46609058D01*
X20805538Y46617641D01*
X20884350Y46720351D01*
X20884355Y46720357D01*
X20940228Y46855246D01*
X20959285Y47000000D01*
X20940228Y47144754D01*
X20886277Y47275001D01*
X27815715Y47275001D01*
X27815715Y47275000D01*
X27834771Y47130248D01*
X27890644Y46995359D01*
X27890649Y46995351D01*
X27979525Y46879526D01*
X28095350Y46790650D01*
X28095357Y46790645D01*
X28230246Y46734772D01*
X28375000Y46715715D01*
X28519754Y46734772D01*
X28654643Y46790645D01*
X28770474Y46879526D01*
X28859355Y46995357D01*
X28915228Y47130246D01*
X28934285Y47275000D01*
X28915228Y47419754D01*
X28859355Y47554642D01*
X28770474Y47670474D01*
X28770472Y47670476D01*
X28770471Y47670477D01*
X28654649Y47759351D01*
X28654641Y47759356D01*
X28519752Y47815229D01*
X28375000Y47834285D01*
X28230247Y47815229D01*
X28162802Y47787292D01*
X28095358Y47759355D01*
X28095357Y47759354D01*
X28095356Y47759354D01*
X27979526Y47670474D01*
X27890646Y47554644D01*
X27890645Y47554642D01*
X27862708Y47487198D01*
X27834771Y47419753D01*
X27815715Y47275001D01*
X20886277Y47275001D01*
X20884355Y47279642D01*
X20795474Y47395474D01*
X20795472Y47395476D01*
X20795471Y47395477D01*
X20679649Y47484351D01*
X20679641Y47484356D01*
X20544752Y47540229D01*
X20400000Y47559285D01*
X20255247Y47540229D01*
X20187802Y47512292D01*
X20120358Y47484355D01*
X20120357Y47484354D01*
X20120356Y47484354D01*
X20004526Y47395474D01*
X19915646Y47279644D01*
X19915645Y47279642D01*
X19887708Y47212198D01*
X19859771Y47144753D01*
X19840715Y47000001D01*
X7101064Y47000001D01*
X5514513Y48587405D01*
X5480506Y48649723D01*
X5485590Y48720537D01*
X5514535Y48765563D01*
X6998973Y50250001D01*
X15640715Y50250001D01*
X15640715Y50250000D01*
X15659771Y50105248D01*
X15715644Y49970359D01*
X15715649Y49970351D01*
X15804525Y49854526D01*
X15920350Y49765650D01*
X15920357Y49765645D01*
X16055246Y49709772D01*
X16200000Y49690715D01*
X16344754Y49709772D01*
X16479643Y49765645D01*
X16595474Y49854526D01*
X16684355Y49970357D01*
X16740228Y50105246D01*
X16759285Y50250000D01*
X16740228Y50394754D01*
X16684355Y50529642D01*
X16595474Y50645474D01*
X16595472Y50645476D01*
X16595471Y50645477D01*
X16479649Y50734351D01*
X16479641Y50734356D01*
X16344752Y50790229D01*
X16200000Y50809285D01*
X16055247Y50790229D01*
X15987802Y50762292D01*
X15920358Y50734355D01*
X15920357Y50734354D01*
X15920356Y50734354D01*
X15804526Y50645474D01*
X15715646Y50529644D01*
X15715645Y50529642D01*
X15687708Y50462198D01*
X15659771Y50394753D01*
X15640715Y50250001D01*
X6998973Y50250001D01*
X10469595Y53720623D01*
X20472400Y53720623D01*
X20472400Y53086000D01*
X21150058Y53086000D01*
X21116619Y53028081D01*
X21082000Y52898880D01*
X21082000Y52765120D01*
X21116619Y52635919D01*
X21150058Y52578000D01*
X20472401Y52578000D01*
X20472401Y51943378D01*
X20487137Y51869295D01*
X20487137Y51869293D01*
X20543275Y51785276D01*
X20627293Y51729138D01*
X20627294Y51729137D01*
X20701380Y51714401D01*
X21336000Y51714401D01*
X21336000Y52392059D01*
X21393919Y52358619D01*
X21523120Y52324000D01*
X21656880Y52324000D01*
X21786081Y52358619D01*
X21844000Y52392059D01*
X21844000Y51714401D01*
X22478614Y51714401D01*
X22478622Y51714402D01*
X22552705Y51729138D01*
X22552707Y51729138D01*
X22636724Y51785276D01*
X22692862Y51869294D01*
X22692863Y51869295D01*
X22707599Y51943378D01*
X22707600Y51943385D01*
X22707600Y52578000D01*
X22029942Y52578000D01*
X22063381Y52635919D01*
X22098000Y52765120D01*
X22098000Y52832000D01*
X23007110Y52832000D01*
X23026229Y52625668D01*
X23082933Y52426373D01*
X23082939Y52426357D01*
X23175296Y52240880D01*
X23175300Y52240875D01*
X23300175Y52075513D01*
X23453308Y51935914D01*
X23453309Y51935913D01*
X23629473Y51826837D01*
X23629476Y51826836D01*
X23629485Y51826830D01*
X23822707Y51751976D01*
X24026393Y51713900D01*
X24026397Y51713900D01*
X24233603Y51713900D01*
X24233607Y51713900D01*
X24437293Y51751976D01*
X24630515Y51826830D01*
X24806692Y51935914D01*
X24959826Y52075514D01*
X25084700Y52240875D01*
X25084701Y52240879D01*
X25084703Y52240880D01*
X25177060Y52426357D01*
X25177059Y52426357D01*
X25177064Y52426365D01*
X25233771Y52625670D01*
X25252890Y52832000D01*
X25547110Y52832000D01*
X25566229Y52625668D01*
X25622933Y52426373D01*
X25622939Y52426357D01*
X25715296Y52240880D01*
X25715300Y52240875D01*
X25840175Y52075513D01*
X25993308Y51935914D01*
X25993309Y51935913D01*
X26169473Y51826837D01*
X26169476Y51826836D01*
X26169485Y51826830D01*
X26362707Y51751976D01*
X26566393Y51713900D01*
X26566397Y51713900D01*
X26773603Y51713900D01*
X26773607Y51713900D01*
X26977293Y51751976D01*
X27170515Y51826830D01*
X27346692Y51935914D01*
X27499826Y52075514D01*
X27624700Y52240875D01*
X27624701Y52240879D01*
X27624703Y52240880D01*
X27717060Y52426357D01*
X27717059Y52426357D01*
X27717064Y52426365D01*
X27773771Y52625670D01*
X27792890Y52832000D01*
X28087110Y52832000D01*
X28106229Y52625668D01*
X28162933Y52426373D01*
X28162939Y52426357D01*
X28255296Y52240880D01*
X28255300Y52240875D01*
X28380175Y52075513D01*
X28533308Y51935914D01*
X28533309Y51935913D01*
X28709473Y51826837D01*
X28709476Y51826836D01*
X28709485Y51826830D01*
X28902707Y51751976D01*
X29106393Y51713900D01*
X29106397Y51713900D01*
X29313603Y51713900D01*
X29313607Y51713900D01*
X29517293Y51751976D01*
X29710515Y51826830D01*
X29886692Y51935914D01*
X30039826Y52075514D01*
X30164700Y52240875D01*
X30164701Y52240879D01*
X30164703Y52240880D01*
X30257060Y52426357D01*
X30257059Y52426357D01*
X30257064Y52426365D01*
X30313771Y52625670D01*
X30332890Y52832000D01*
X30627110Y52832000D01*
X30646229Y52625668D01*
X30702933Y52426373D01*
X30702939Y52426357D01*
X30795296Y52240880D01*
X30795300Y52240875D01*
X30920175Y52075513D01*
X31073308Y51935914D01*
X31073309Y51935913D01*
X31249473Y51826837D01*
X31249476Y51826836D01*
X31249485Y51826830D01*
X31442707Y51751976D01*
X31646393Y51713900D01*
X31646397Y51713900D01*
X31853603Y51713900D01*
X31853607Y51713900D01*
X32057293Y51751976D01*
X32250515Y51826830D01*
X32426692Y51935914D01*
X32579826Y52075514D01*
X32704700Y52240875D01*
X32704701Y52240879D01*
X32704703Y52240880D01*
X32797060Y52426357D01*
X32797059Y52426357D01*
X32797064Y52426365D01*
X32853771Y52625670D01*
X32872890Y52832000D01*
X33167110Y52832000D01*
X33186229Y52625668D01*
X33242933Y52426373D01*
X33242939Y52426357D01*
X33335296Y52240880D01*
X33335300Y52240875D01*
X33460175Y52075513D01*
X33613308Y51935914D01*
X33613309Y51935913D01*
X33789473Y51826837D01*
X33789476Y51826836D01*
X33789485Y51826830D01*
X33982707Y51751976D01*
X34186393Y51713900D01*
X34186397Y51713900D01*
X34393603Y51713900D01*
X34393607Y51713900D01*
X34597293Y51751976D01*
X34790515Y51826830D01*
X34966692Y51935914D01*
X35119826Y52075514D01*
X35244700Y52240875D01*
X35244701Y52240879D01*
X35244703Y52240880D01*
X35337060Y52426357D01*
X35337059Y52426357D01*
X35337064Y52426365D01*
X35393771Y52625670D01*
X35412890Y52832000D01*
X35707110Y52832000D01*
X35726229Y52625668D01*
X35782933Y52426373D01*
X35782939Y52426357D01*
X35875296Y52240880D01*
X35875300Y52240875D01*
X36000175Y52075513D01*
X36153308Y51935914D01*
X36153309Y51935913D01*
X36329473Y51826837D01*
X36329476Y51826836D01*
X36329485Y51826830D01*
X36522707Y51751976D01*
X36726393Y51713900D01*
X36726397Y51713900D01*
X36933603Y51713900D01*
X36933607Y51713900D01*
X37137293Y51751976D01*
X37330515Y51826830D01*
X37506692Y51935914D01*
X37659826Y52075514D01*
X37784700Y52240875D01*
X37784701Y52240879D01*
X37784703Y52240880D01*
X37877060Y52426357D01*
X37877059Y52426357D01*
X37877064Y52426365D01*
X37933771Y52625670D01*
X37952890Y52832000D01*
X38247110Y52832000D01*
X38266229Y52625668D01*
X38322933Y52426373D01*
X38322939Y52426357D01*
X38415296Y52240880D01*
X38415300Y52240875D01*
X38540175Y52075513D01*
X38693308Y51935914D01*
X38693309Y51935913D01*
X38869473Y51826837D01*
X38869476Y51826836D01*
X38869485Y51826830D01*
X39062707Y51751976D01*
X39266393Y51713900D01*
X39266397Y51713900D01*
X39473603Y51713900D01*
X39473607Y51713900D01*
X39677293Y51751976D01*
X39870515Y51826830D01*
X40046692Y51935914D01*
X40199826Y52075514D01*
X40324700Y52240875D01*
X40324701Y52240879D01*
X40324703Y52240880D01*
X40417060Y52426357D01*
X40417059Y52426357D01*
X40417064Y52426365D01*
X40473771Y52625670D01*
X40492890Y52832000D01*
X40473771Y53038330D01*
X40417064Y53237635D01*
X40417060Y53237644D01*
X40324703Y53423121D01*
X40324699Y53423126D01*
X40199824Y53588488D01*
X40046691Y53728087D01*
X40046690Y53728088D01*
X39870526Y53837164D01*
X39870519Y53837168D01*
X39870515Y53837170D01*
X39752148Y53883026D01*
X39677294Y53912024D01*
X39473607Y53950100D01*
X39266393Y53950100D01*
X39266392Y53950100D01*
X39062705Y53912024D01*
X38912997Y53854027D01*
X38869485Y53837170D01*
X38869484Y53837170D01*
X38869483Y53837169D01*
X38869473Y53837164D01*
X38693309Y53728088D01*
X38693308Y53728087D01*
X38540175Y53588488D01*
X38415300Y53423126D01*
X38415296Y53423121D01*
X38322939Y53237644D01*
X38322933Y53237628D01*
X38266229Y53038333D01*
X38247110Y52832000D01*
X37952890Y52832000D01*
X37933771Y53038330D01*
X37877064Y53237635D01*
X37877060Y53237644D01*
X37784703Y53423121D01*
X37784699Y53423126D01*
X37659824Y53588488D01*
X37506691Y53728087D01*
X37506690Y53728088D01*
X37330526Y53837164D01*
X37330519Y53837168D01*
X37330515Y53837170D01*
X37212148Y53883026D01*
X37137294Y53912024D01*
X36933607Y53950100D01*
X36726393Y53950100D01*
X36726392Y53950100D01*
X36522705Y53912024D01*
X36372997Y53854027D01*
X36329485Y53837170D01*
X36329484Y53837170D01*
X36329483Y53837169D01*
X36329473Y53837164D01*
X36153309Y53728088D01*
X36153308Y53728087D01*
X36000175Y53588488D01*
X35875300Y53423126D01*
X35875296Y53423121D01*
X35782939Y53237644D01*
X35782933Y53237628D01*
X35726229Y53038333D01*
X35707110Y52832000D01*
X35412890Y52832000D01*
X35393771Y53038330D01*
X35337064Y53237635D01*
X35337060Y53237644D01*
X35244703Y53423121D01*
X35244699Y53423126D01*
X35119824Y53588488D01*
X34966691Y53728087D01*
X34966690Y53728088D01*
X34790526Y53837164D01*
X34790519Y53837168D01*
X34790515Y53837170D01*
X34672148Y53883026D01*
X34597294Y53912024D01*
X34393607Y53950100D01*
X34186393Y53950100D01*
X34186392Y53950100D01*
X33982705Y53912024D01*
X33832997Y53854027D01*
X33789485Y53837170D01*
X33789484Y53837170D01*
X33789483Y53837169D01*
X33789473Y53837164D01*
X33613309Y53728088D01*
X33613308Y53728087D01*
X33460175Y53588488D01*
X33335300Y53423126D01*
X33335296Y53423121D01*
X33242939Y53237644D01*
X33242933Y53237628D01*
X33186229Y53038333D01*
X33167110Y52832000D01*
X32872890Y52832000D01*
X32853771Y53038330D01*
X32797064Y53237635D01*
X32797060Y53237644D01*
X32704703Y53423121D01*
X32704699Y53423126D01*
X32579824Y53588488D01*
X32426691Y53728087D01*
X32426690Y53728088D01*
X32250526Y53837164D01*
X32250519Y53837168D01*
X32250515Y53837170D01*
X32132148Y53883026D01*
X32057294Y53912024D01*
X31853607Y53950100D01*
X31646393Y53950100D01*
X31646392Y53950100D01*
X31442705Y53912024D01*
X31292997Y53854027D01*
X31249485Y53837170D01*
X31249484Y53837170D01*
X31249483Y53837169D01*
X31249473Y53837164D01*
X31073309Y53728088D01*
X31073308Y53728087D01*
X30920175Y53588488D01*
X30795300Y53423126D01*
X30795296Y53423121D01*
X30702939Y53237644D01*
X30702933Y53237628D01*
X30646229Y53038333D01*
X30627110Y52832000D01*
X30332890Y52832000D01*
X30313771Y53038330D01*
X30257064Y53237635D01*
X30257060Y53237644D01*
X30164703Y53423121D01*
X30164699Y53423126D01*
X30039824Y53588488D01*
X29886691Y53728087D01*
X29886690Y53728088D01*
X29710526Y53837164D01*
X29710519Y53837168D01*
X29710515Y53837170D01*
X29592148Y53883026D01*
X29517294Y53912024D01*
X29313607Y53950100D01*
X29106393Y53950100D01*
X29106392Y53950100D01*
X28902705Y53912024D01*
X28752997Y53854027D01*
X28709485Y53837170D01*
X28709484Y53837170D01*
X28709483Y53837169D01*
X28709473Y53837164D01*
X28533309Y53728088D01*
X28533308Y53728087D01*
X28380175Y53588488D01*
X28255300Y53423126D01*
X28255296Y53423121D01*
X28162939Y53237644D01*
X28162933Y53237628D01*
X28106229Y53038333D01*
X28087110Y52832000D01*
X27792890Y52832000D01*
X27773771Y53038330D01*
X27717064Y53237635D01*
X27717060Y53237644D01*
X27624703Y53423121D01*
X27624699Y53423126D01*
X27499824Y53588488D01*
X27346691Y53728087D01*
X27346690Y53728088D01*
X27170526Y53837164D01*
X27170519Y53837168D01*
X27170515Y53837170D01*
X27052148Y53883026D01*
X26977294Y53912024D01*
X26773607Y53950100D01*
X26566393Y53950100D01*
X26566392Y53950100D01*
X26362705Y53912024D01*
X26212997Y53854027D01*
X26169485Y53837170D01*
X26169484Y53837170D01*
X26169483Y53837169D01*
X26169473Y53837164D01*
X25993309Y53728088D01*
X25993308Y53728087D01*
X25840175Y53588488D01*
X25715300Y53423126D01*
X25715296Y53423121D01*
X25622939Y53237644D01*
X25622933Y53237628D01*
X25566229Y53038333D01*
X25547110Y52832000D01*
X25252890Y52832000D01*
X25233771Y53038330D01*
X25177064Y53237635D01*
X25177060Y53237644D01*
X25084703Y53423121D01*
X25084699Y53423126D01*
X24959824Y53588488D01*
X24806691Y53728087D01*
X24806690Y53728088D01*
X24630526Y53837164D01*
X24630519Y53837168D01*
X24630515Y53837170D01*
X24512148Y53883026D01*
X24437294Y53912024D01*
X24233607Y53950100D01*
X24026393Y53950100D01*
X24026392Y53950100D01*
X23822705Y53912024D01*
X23672997Y53854027D01*
X23629485Y53837170D01*
X23629484Y53837170D01*
X23629483Y53837169D01*
X23629473Y53837164D01*
X23453309Y53728088D01*
X23453308Y53728087D01*
X23300175Y53588488D01*
X23175300Y53423126D01*
X23175296Y53423121D01*
X23082939Y53237644D01*
X23082933Y53237628D01*
X23026229Y53038333D01*
X23007110Y52832000D01*
X22098000Y52832000D01*
X22098000Y52898880D01*
X22063381Y53028081D01*
X22029942Y53086000D01*
X22707599Y53086000D01*
X22707599Y53720614D01*
X22707598Y53720623D01*
X22692862Y53794706D01*
X22692862Y53794708D01*
X22636724Y53878725D01*
X22552706Y53934863D01*
X22552705Y53934864D01*
X22478622Y53949600D01*
X21844000Y53949600D01*
X21844000Y53271942D01*
X21786081Y53305381D01*
X21656880Y53340000D01*
X21523120Y53340000D01*
X21393919Y53305381D01*
X21336000Y53271942D01*
X21336000Y53949600D01*
X20701386Y53949600D01*
X20701376Y53949599D01*
X20627294Y53934863D01*
X20627292Y53934863D01*
X20543275Y53878725D01*
X20487137Y53794707D01*
X20487136Y53794706D01*
X20472400Y53720623D01*
X10469595Y53720623D01*
X11651073Y54902101D01*
X15480815Y54902101D01*
X15480815Y54902100D01*
X15499871Y54757348D01*
X15555744Y54622459D01*
X15555749Y54622451D01*
X15644625Y54506626D01*
X15760450Y54417750D01*
X15760457Y54417745D01*
X15895346Y54361872D01*
X16040100Y54342815D01*
X16184854Y54361872D01*
X16319743Y54417745D01*
X16435574Y54506626D01*
X16524455Y54622457D01*
X16580328Y54757346D01*
X16599385Y54902100D01*
X16580328Y55046854D01*
X16524455Y55181742D01*
X16435574Y55297574D01*
X16435572Y55297576D01*
X16435571Y55297577D01*
X16346646Y55365812D01*
X16304779Y55423150D01*
X16300557Y55494021D01*
X16335321Y55555924D01*
X16351480Y55568170D01*
X16351291Y55568417D01*
X16426334Y55626000D01*
X20500312Y55626000D01*
X21150058Y55626000D01*
X21116619Y55568081D01*
X21082000Y55438880D01*
X21082000Y55305120D01*
X21116619Y55175919D01*
X21150058Y55118000D01*
X20500312Y55118000D01*
X20543402Y54966553D01*
X20543404Y54966548D01*
X20635727Y54781138D01*
X20760543Y54615853D01*
X20913608Y54476316D01*
X21089702Y54367283D01*
X21089713Y54367278D01*
X21282840Y54292460D01*
X21282838Y54292460D01*
X21336000Y54282523D01*
X21336000Y54932059D01*
X21393919Y54898619D01*
X21523120Y54864000D01*
X21656880Y54864000D01*
X21786081Y54898619D01*
X21844000Y54932059D01*
X21844000Y54282523D01*
X21897160Y54292460D01*
X22090286Y54367278D01*
X22090297Y54367283D01*
X22266391Y54476316D01*
X22419456Y54615853D01*
X22544272Y54781138D01*
X22636595Y54966548D01*
X22636597Y54966553D01*
X22679688Y55118000D01*
X22029942Y55118000D01*
X22063381Y55175919D01*
X22098000Y55305120D01*
X22098000Y55372000D01*
X23007110Y55372000D01*
X23026229Y55165668D01*
X23082933Y54966373D01*
X23082939Y54966357D01*
X23175296Y54780880D01*
X23175300Y54780875D01*
X23294935Y54622451D01*
X23300175Y54615513D01*
X23453308Y54475914D01*
X23453309Y54475913D01*
X23629473Y54366837D01*
X23629476Y54366836D01*
X23629485Y54366830D01*
X23822707Y54291976D01*
X24026393Y54253900D01*
X24026397Y54253900D01*
X24233603Y54253900D01*
X24233607Y54253900D01*
X24437293Y54291976D01*
X24630515Y54366830D01*
X24806692Y54475914D01*
X24959826Y54615514D01*
X25084700Y54780875D01*
X25084701Y54780879D01*
X25084703Y54780880D01*
X25177060Y54966357D01*
X25177059Y54966357D01*
X25177064Y54966365D01*
X25233771Y55165670D01*
X25252890Y55372000D01*
X25547110Y55372000D01*
X25566229Y55165668D01*
X25622933Y54966373D01*
X25622939Y54966357D01*
X25715296Y54780880D01*
X25715300Y54780875D01*
X25834935Y54622451D01*
X25840175Y54615513D01*
X25993308Y54475914D01*
X25993309Y54475913D01*
X26169473Y54366837D01*
X26169476Y54366836D01*
X26169485Y54366830D01*
X26362707Y54291976D01*
X26566393Y54253900D01*
X26566397Y54253900D01*
X26773603Y54253900D01*
X26773607Y54253900D01*
X26977293Y54291976D01*
X27170515Y54366830D01*
X27346692Y54475914D01*
X27499826Y54615514D01*
X27624700Y54780875D01*
X27624701Y54780879D01*
X27624703Y54780880D01*
X27717060Y54966357D01*
X27717059Y54966357D01*
X27717064Y54966365D01*
X27773771Y55165670D01*
X27792890Y55372000D01*
X28087110Y55372000D01*
X28106229Y55165668D01*
X28162933Y54966373D01*
X28162939Y54966357D01*
X28255296Y54780880D01*
X28255300Y54780875D01*
X28374935Y54622451D01*
X28380175Y54615513D01*
X28533308Y54475914D01*
X28533309Y54475913D01*
X28709473Y54366837D01*
X28709476Y54366836D01*
X28709485Y54366830D01*
X28902707Y54291976D01*
X29106393Y54253900D01*
X29106397Y54253900D01*
X29313603Y54253900D01*
X29313607Y54253900D01*
X29517293Y54291976D01*
X29710515Y54366830D01*
X29886692Y54475914D01*
X30039826Y54615514D01*
X30164700Y54780875D01*
X30164701Y54780879D01*
X30164703Y54780880D01*
X30257060Y54966357D01*
X30257059Y54966357D01*
X30257064Y54966365D01*
X30313771Y55165670D01*
X30332890Y55372000D01*
X30627110Y55372000D01*
X30646229Y55165668D01*
X30702933Y54966373D01*
X30702939Y54966357D01*
X30795296Y54780880D01*
X30795300Y54780875D01*
X30914935Y54622451D01*
X30920175Y54615513D01*
X31073308Y54475914D01*
X31073309Y54475913D01*
X31249473Y54366837D01*
X31249476Y54366836D01*
X31249485Y54366830D01*
X31442707Y54291976D01*
X31646393Y54253900D01*
X31646397Y54253900D01*
X31853603Y54253900D01*
X31853607Y54253900D01*
X32057293Y54291976D01*
X32250515Y54366830D01*
X32426692Y54475914D01*
X32579826Y54615514D01*
X32704700Y54780875D01*
X32704701Y54780879D01*
X32704703Y54780880D01*
X32797060Y54966357D01*
X32797059Y54966357D01*
X32797064Y54966365D01*
X32853771Y55165670D01*
X32872890Y55372000D01*
X33167110Y55372000D01*
X33186229Y55165668D01*
X33242933Y54966373D01*
X33242939Y54966357D01*
X33335296Y54780880D01*
X33335300Y54780875D01*
X33454935Y54622451D01*
X33460175Y54615513D01*
X33613308Y54475914D01*
X33613309Y54475913D01*
X33789473Y54366837D01*
X33789476Y54366836D01*
X33789485Y54366830D01*
X33982707Y54291976D01*
X34186393Y54253900D01*
X34186397Y54253900D01*
X34393603Y54253900D01*
X34393607Y54253900D01*
X34597293Y54291976D01*
X34790515Y54366830D01*
X34966692Y54475914D01*
X35119826Y54615514D01*
X35244700Y54780875D01*
X35244701Y54780879D01*
X35244703Y54780880D01*
X35337060Y54966357D01*
X35337059Y54966357D01*
X35337064Y54966365D01*
X35393771Y55165670D01*
X35412890Y55372000D01*
X35707110Y55372000D01*
X35726229Y55165668D01*
X35782933Y54966373D01*
X35782939Y54966357D01*
X35875296Y54780880D01*
X35875300Y54780875D01*
X35994935Y54622451D01*
X36000175Y54615513D01*
X36153308Y54475914D01*
X36153309Y54475913D01*
X36329473Y54366837D01*
X36329476Y54366836D01*
X36329485Y54366830D01*
X36522707Y54291976D01*
X36726393Y54253900D01*
X36726397Y54253900D01*
X36933603Y54253900D01*
X36933607Y54253900D01*
X37137293Y54291976D01*
X37330515Y54366830D01*
X37506692Y54475914D01*
X37659826Y54615514D01*
X37784700Y54780875D01*
X37784701Y54780879D01*
X37784703Y54780880D01*
X37877060Y54966357D01*
X37877059Y54966357D01*
X37877064Y54966365D01*
X37933771Y55165670D01*
X37952890Y55372000D01*
X38247110Y55372000D01*
X38266229Y55165668D01*
X38322933Y54966373D01*
X38322939Y54966357D01*
X38415296Y54780880D01*
X38415300Y54780875D01*
X38534935Y54622451D01*
X38540175Y54615513D01*
X38693308Y54475914D01*
X38693309Y54475913D01*
X38869473Y54366837D01*
X38869476Y54366836D01*
X38869485Y54366830D01*
X39062707Y54291976D01*
X39266393Y54253900D01*
X39266397Y54253900D01*
X39473603Y54253900D01*
X39473607Y54253900D01*
X39677293Y54291976D01*
X39870515Y54366830D01*
X40046692Y54475914D01*
X40199826Y54615514D01*
X40324700Y54780875D01*
X40324701Y54780879D01*
X40324703Y54780880D01*
X40417060Y54966357D01*
X40417059Y54966357D01*
X40417064Y54966365D01*
X40473771Y55165670D01*
X40492890Y55372000D01*
X40481029Y55500001D01*
X44090715Y55500001D01*
X44090715Y55500000D01*
X44109771Y55355248D01*
X44165644Y55220359D01*
X44165649Y55220351D01*
X44254525Y55104526D01*
X44329686Y55046853D01*
X44370357Y55015645D01*
X44505246Y54959772D01*
X44650000Y54940715D01*
X44794754Y54959772D01*
X44929643Y55015645D01*
X45045474Y55104526D01*
X45134355Y55220357D01*
X45190228Y55355246D01*
X45209285Y55500000D01*
X45190228Y55644754D01*
X45134355Y55779642D01*
X45045474Y55895474D01*
X45045472Y55895476D01*
X45045471Y55895477D01*
X44929649Y55984351D01*
X44929641Y55984356D01*
X44794752Y56040229D01*
X44650000Y56059285D01*
X44505247Y56040229D01*
X44437802Y56012292D01*
X44370358Y55984355D01*
X44370357Y55984354D01*
X44370356Y55984354D01*
X44254526Y55895474D01*
X44165646Y55779644D01*
X44165645Y55779642D01*
X44137708Y55712198D01*
X44109771Y55644753D01*
X44090715Y55500001D01*
X40481029Y55500001D01*
X40473771Y55578330D01*
X40417064Y55777635D01*
X40417060Y55777644D01*
X40324703Y55963121D01*
X40324699Y55963126D01*
X40308671Y55984351D01*
X40199826Y56128486D01*
X40046692Y56268086D01*
X40046691Y56268087D01*
X40046690Y56268088D01*
X39870526Y56377164D01*
X39870519Y56377168D01*
X39870515Y56377170D01*
X39752148Y56423026D01*
X39677294Y56452024D01*
X39473607Y56490100D01*
X39266393Y56490100D01*
X39266392Y56490100D01*
X39062705Y56452024D01*
X38912997Y56394027D01*
X38869485Y56377170D01*
X38869484Y56377170D01*
X38869483Y56377169D01*
X38869473Y56377164D01*
X38693309Y56268088D01*
X38693308Y56268087D01*
X38540175Y56128488D01*
X38415300Y55963126D01*
X38415296Y55963121D01*
X38322939Y55777644D01*
X38322933Y55777628D01*
X38266229Y55578333D01*
X38247110Y55372000D01*
X37952890Y55372000D01*
X37933771Y55578330D01*
X37877064Y55777635D01*
X37877060Y55777644D01*
X37784703Y55963121D01*
X37784699Y55963126D01*
X37768671Y55984351D01*
X37659826Y56128486D01*
X37506692Y56268086D01*
X37506691Y56268087D01*
X37506690Y56268088D01*
X37330526Y56377164D01*
X37330519Y56377168D01*
X37330515Y56377170D01*
X37212148Y56423026D01*
X37137294Y56452024D01*
X36933607Y56490100D01*
X36726393Y56490100D01*
X36726392Y56490100D01*
X36522705Y56452024D01*
X36372997Y56394027D01*
X36329485Y56377170D01*
X36329484Y56377170D01*
X36329483Y56377169D01*
X36329473Y56377164D01*
X36153309Y56268088D01*
X36153308Y56268087D01*
X36000175Y56128488D01*
X35875300Y55963126D01*
X35875296Y55963121D01*
X35782939Y55777644D01*
X35782933Y55777628D01*
X35726229Y55578333D01*
X35707110Y55372000D01*
X35412890Y55372000D01*
X35393771Y55578330D01*
X35337064Y55777635D01*
X35337060Y55777644D01*
X35244703Y55963121D01*
X35244699Y55963126D01*
X35228671Y55984351D01*
X35119826Y56128486D01*
X34966692Y56268086D01*
X34966691Y56268087D01*
X34966690Y56268088D01*
X34790526Y56377164D01*
X34790519Y56377168D01*
X34790515Y56377170D01*
X34672148Y56423026D01*
X34597294Y56452024D01*
X34393607Y56490100D01*
X34186393Y56490100D01*
X34186392Y56490100D01*
X33982705Y56452024D01*
X33832997Y56394027D01*
X33789485Y56377170D01*
X33789484Y56377170D01*
X33789483Y56377169D01*
X33789473Y56377164D01*
X33613309Y56268088D01*
X33613308Y56268087D01*
X33460175Y56128488D01*
X33335300Y55963126D01*
X33335296Y55963121D01*
X33242939Y55777644D01*
X33242933Y55777628D01*
X33186229Y55578333D01*
X33167110Y55372000D01*
X32872890Y55372000D01*
X32853771Y55578330D01*
X32797064Y55777635D01*
X32797060Y55777644D01*
X32704703Y55963121D01*
X32704699Y55963126D01*
X32688671Y55984351D01*
X32579826Y56128486D01*
X32426692Y56268086D01*
X32426691Y56268087D01*
X32426690Y56268088D01*
X32250526Y56377164D01*
X32250519Y56377168D01*
X32250515Y56377170D01*
X32132148Y56423026D01*
X32057294Y56452024D01*
X31853607Y56490100D01*
X31646393Y56490100D01*
X31646392Y56490100D01*
X31442705Y56452024D01*
X31292997Y56394027D01*
X31249485Y56377170D01*
X31249484Y56377170D01*
X31249483Y56377169D01*
X31249473Y56377164D01*
X31073309Y56268088D01*
X31073308Y56268087D01*
X30920175Y56128488D01*
X30795300Y55963126D01*
X30795296Y55963121D01*
X30702939Y55777644D01*
X30702933Y55777628D01*
X30646229Y55578333D01*
X30627110Y55372000D01*
X30332890Y55372000D01*
X30313771Y55578330D01*
X30257064Y55777635D01*
X30257060Y55777644D01*
X30164703Y55963121D01*
X30164699Y55963126D01*
X30148671Y55984351D01*
X30039826Y56128486D01*
X29886692Y56268086D01*
X29886691Y56268087D01*
X29886690Y56268088D01*
X29710526Y56377164D01*
X29710519Y56377168D01*
X29710515Y56377170D01*
X29592148Y56423026D01*
X29517294Y56452024D01*
X29313607Y56490100D01*
X29106393Y56490100D01*
X29106392Y56490100D01*
X28902705Y56452024D01*
X28752997Y56394027D01*
X28709485Y56377170D01*
X28709484Y56377170D01*
X28709483Y56377169D01*
X28709473Y56377164D01*
X28533309Y56268088D01*
X28533308Y56268087D01*
X28380175Y56128488D01*
X28255300Y55963126D01*
X28255296Y55963121D01*
X28162939Y55777644D01*
X28162933Y55777628D01*
X28106229Y55578333D01*
X28087110Y55372000D01*
X27792890Y55372000D01*
X27773771Y55578330D01*
X27717064Y55777635D01*
X27717060Y55777644D01*
X27624703Y55963121D01*
X27624699Y55963126D01*
X27608671Y55984351D01*
X27499826Y56128486D01*
X27346692Y56268086D01*
X27346691Y56268087D01*
X27346690Y56268088D01*
X27170526Y56377164D01*
X27170519Y56377168D01*
X27170515Y56377170D01*
X27052148Y56423026D01*
X26977294Y56452024D01*
X26773607Y56490100D01*
X26566393Y56490100D01*
X26566392Y56490100D01*
X26362705Y56452024D01*
X26212997Y56394027D01*
X26169485Y56377170D01*
X26169484Y56377170D01*
X26169483Y56377169D01*
X26169473Y56377164D01*
X25993309Y56268088D01*
X25993308Y56268087D01*
X25840175Y56128488D01*
X25715300Y55963126D01*
X25715296Y55963121D01*
X25622939Y55777644D01*
X25622933Y55777628D01*
X25566229Y55578333D01*
X25547110Y55372000D01*
X25252890Y55372000D01*
X25233771Y55578330D01*
X25177064Y55777635D01*
X25177060Y55777644D01*
X25084703Y55963121D01*
X25084699Y55963126D01*
X25068671Y55984351D01*
X24959826Y56128486D01*
X24806692Y56268086D01*
X24806691Y56268087D01*
X24806690Y56268088D01*
X24630526Y56377164D01*
X24630519Y56377168D01*
X24630515Y56377170D01*
X24512148Y56423026D01*
X24437294Y56452024D01*
X24233607Y56490100D01*
X24026393Y56490100D01*
X24026392Y56490100D01*
X23822705Y56452024D01*
X23672997Y56394027D01*
X23629485Y56377170D01*
X23629484Y56377170D01*
X23629483Y56377169D01*
X23629473Y56377164D01*
X23453309Y56268088D01*
X23453308Y56268087D01*
X23300175Y56128488D01*
X23175300Y55963126D01*
X23175296Y55963121D01*
X23082939Y55777644D01*
X23082933Y55777628D01*
X23026229Y55578333D01*
X23007110Y55372000D01*
X22098000Y55372000D01*
X22098000Y55438880D01*
X22063381Y55568081D01*
X22029942Y55626000D01*
X22679688Y55626000D01*
X22636597Y55777448D01*
X22636595Y55777453D01*
X22544272Y55962863D01*
X22419456Y56128148D01*
X22266391Y56267685D01*
X22090297Y56376718D01*
X22090286Y56376723D01*
X21897160Y56451541D01*
X21897154Y56451543D01*
X21844000Y56461480D01*
X21844000Y55811942D01*
X21786081Y55845381D01*
X21656880Y55880000D01*
X21523120Y55880000D01*
X21393919Y55845381D01*
X21336000Y55811942D01*
X21336000Y56461480D01*
X21335999Y56461480D01*
X21282845Y56451543D01*
X21282839Y56451541D01*
X21089713Y56376723D01*
X21089702Y56376718D01*
X20913608Y56267685D01*
X20760543Y56128148D01*
X20635727Y55962863D01*
X20543404Y55777453D01*
X20543402Y55777448D01*
X20500312Y55626000D01*
X16426334Y55626000D01*
X16473674Y55662326D01*
X16562011Y55777448D01*
X16562555Y55778157D01*
X16618428Y55913046D01*
X16637485Y56057800D01*
X16637289Y56059285D01*
X16618428Y56202553D01*
X16618428Y56202554D01*
X16562555Y56337442D01*
X16473674Y56453274D01*
X16473671Y56453276D01*
X16434399Y56483411D01*
X16392532Y56540749D01*
X16388311Y56611620D01*
X16423076Y56673523D01*
X16434401Y56683336D01*
X16460974Y56703726D01*
X16549855Y56819557D01*
X16605728Y56954446D01*
X16624785Y57099200D01*
X16605728Y57243954D01*
X16549855Y57378842D01*
X16460974Y57494674D01*
X16460972Y57494676D01*
X16460971Y57494677D01*
X16345149Y57583551D01*
X16345141Y57583556D01*
X16210252Y57639429D01*
X16065500Y57658485D01*
X15920747Y57639429D01*
X15853302Y57611492D01*
X15785858Y57583555D01*
X15785857Y57583554D01*
X15785856Y57583554D01*
X15670026Y57494674D01*
X15581146Y57378844D01*
X15581145Y57378842D01*
X15553208Y57311398D01*
X15525271Y57243953D01*
X15506215Y57099201D01*
X15506215Y57099200D01*
X15525271Y56954448D01*
X15581144Y56819559D01*
X15581149Y56819551D01*
X15670025Y56703726D01*
X15709299Y56673590D01*
X15751166Y56616252D01*
X15755388Y56545381D01*
X15720624Y56483478D01*
X15709301Y56473667D01*
X15682727Y56453276D01*
X15593846Y56337444D01*
X15593845Y56337442D01*
X15565908Y56269998D01*
X15537971Y56202553D01*
X15518915Y56057801D01*
X15518915Y56057800D01*
X15537971Y55913048D01*
X15593844Y55778159D01*
X15593849Y55778151D01*
X15682723Y55662329D01*
X15682724Y55662328D01*
X15682726Y55662326D01*
X15771656Y55594087D01*
X15813521Y55536752D01*
X15817743Y55465881D01*
X15782979Y55403978D01*
X15766820Y55391730D01*
X15767010Y55391482D01*
X15760459Y55386456D01*
X15760458Y55386455D01*
X15719786Y55355246D01*
X15644626Y55297574D01*
X15555746Y55181744D01*
X15555745Y55181742D01*
X15549088Y55165670D01*
X15499871Y55046853D01*
X15480815Y54902101D01*
X11651073Y54902101D01*
X17799768Y61050795D01*
X17862080Y61084821D01*
X17888863Y61087700D01*
X43121937Y61087700D01*
X43190058Y61067698D01*
G37*
%TD.AperFunction*%
%TD*%
M02*
