%TF.GenerationSoftware,KiCad,Pcbnew,8.0.6*%
%TF.CreationDate,2024-11-03T15:43:53-08:00*%
%TF.ProjectId,Ganglion_01,47616e67-6c69-46f6-9e5f-30312e6b6963,01*%
%TF.SameCoordinates,PX4a1f960PY74ffa90*%
%TF.FileFunction,Copper,L2,Inr*%
%TF.FilePolarity,Positive*%
%FSLAX46Y46*%
G04 Gerber Fmt 4.6, Leading zero omitted, Abs format (unit mm)*
G04 Created by KiCad (PCBNEW 8.0.6) date 2024-11-03 15:43:53*
%MOMM*%
%LPD*%
G01*
G04 APERTURE LIST*
G04 Aperture macros list*
%AMHorizOval*
0 Thick line with rounded ends*
0 $1 width*
0 $2 $3 position (X,Y) of the first rounded end (center of the circle)*
0 $4 $5 position (X,Y) of the second rounded end (center of the circle)*
0 Add line between two ends*
20,1,$1,$2,$3,$4,$5,0*
0 Add two circle primitives to create the rounded ends*
1,1,$1,$2,$3*
1,1,$1,$4,$5*%
%AMRotRect*
0 Rectangle, with rotation*
0 The origin of the aperture is its center*
0 $1 length*
0 $2 width*
0 $3 Rotation angle, in degrees counterclockwise*
0 Add horizontal line*
21,1,$1,$2,0,0,$3*%
G04 Aperture macros list end*
%TA.AperFunction,ComponentPad*%
%ADD10R,2.032000X1.727200*%
%TD*%
%TA.AperFunction,ComponentPad*%
%ADD11O,2.032000X1.727200*%
%TD*%
%TA.AperFunction,ComponentPad*%
%ADD12RotRect,1.727200X2.032000X225.000000*%
%TD*%
%TA.AperFunction,ComponentPad*%
%ADD13HorizOval,1.727200X-0.107763X0.107763X0.107763X-0.107763X0*%
%TD*%
%TA.AperFunction,ComponentPad*%
%ADD14RotRect,1.727200X2.032000X315.000000*%
%TD*%
%TA.AperFunction,ComponentPad*%
%ADD15HorizOval,1.727200X-0.107763X-0.107763X0.107763X0.107763X0*%
%TD*%
%TA.AperFunction,ComponentPad*%
%ADD16R,1.727200X1.727200*%
%TD*%
%TA.AperFunction,ComponentPad*%
%ADD17O,1.727200X1.727200*%
%TD*%
%TA.AperFunction,ViaPad*%
%ADD18C,0.600000*%
%TD*%
%TA.AperFunction,Conductor*%
%ADD19C,0.250000*%
%TD*%
%TA.AperFunction,Conductor*%
%ADD20C,0.203200*%
%TD*%
%TA.AperFunction,Conductor*%
%ADD21C,0.177800*%
%TD*%
G04 APERTURE END LIST*
D10*
%TO.N,/D_14*%
%TO.C,P2*%
X52984400Y23063200D03*
D11*
%TO.N,/SIM_RST*%
X52984400Y20523200D03*
%TO.N,/D_4|A_5*%
X52984400Y17983200D03*
%TO.N,/D_23*%
X52984400Y15443200D03*
%TD*%
D12*
%TO.N,/D_24*%
%TO.C,P3*%
X50596800Y12649200D03*
D13*
%TO.N,/D_21*%
X48800749Y10853149D03*
%TO.N,VDD*%
X47004698Y9057098D03*
%TO.N,GNDA*%
X45208646Y7261046D03*
%TD*%
D14*
%TO.N,VDD*%
%TO.C,P4*%
X7391400Y36906200D03*
D15*
%TO.N,GNDA*%
X9187451Y35110149D03*
%TO.N,MISO*%
X10983502Y33314098D03*
%TO.N,SCK*%
X12779554Y31518046D03*
%TO.N,/RST*%
X14575605Y29721995D03*
%TO.N,/CLK*%
X16371656Y27925944D03*
%TO.N,MOSI*%
X18167707Y26129893D03*
%TO.N,/D_12*%
X19963759Y24333841D03*
%TD*%
D14*
%TO.N,Net-(P5-Pad1)*%
%TO.C,P5*%
X9271000Y38735000D03*
D15*
%TO.N,/SIM_TX*%
X11067051Y36938949D03*
%TO.N,/D_2|A_3*%
X12863102Y35142898D03*
%TO.N,/SIM_RX*%
X14659154Y33346846D03*
%TO.N,/D_3|A_4*%
X16455205Y31550795D03*
%TO.N,/D_5|A_6*%
X18251256Y29754744D03*
%TO.N,/D_9*%
X20047307Y27958693D03*
%TO.N,/D_11*%
X21843359Y26162641D03*
%TD*%
D16*
%TO.N,GNDA*%
%TO.C,P1*%
X21590000Y52832000D03*
D17*
X21590000Y55372000D03*
%TO.N,D_G*%
X24130000Y52832000D03*
X24130000Y55372000D03*
%TO.N,REF*%
X26670000Y52832000D03*
X26670000Y55372000D03*
%TO.N,4_IN+*%
X29210000Y52832000D03*
%TO.N,4_IN-*%
X29210000Y55372000D03*
%TO.N,3_IN+*%
X31750000Y52832000D03*
%TO.N,3_IN-*%
X31750000Y55372000D03*
%TO.N,2_IN+*%
X34290000Y52832000D03*
%TO.N,2_IN-*%
X34290000Y55372000D03*
%TO.N,1_IN+*%
X36830000Y52832000D03*
%TO.N,1_IN-*%
X36830000Y55372000D03*
%TO.N,VAA*%
X39370000Y52832000D03*
X39370000Y55372000D03*
%TD*%
D18*
%TO.N,VAA*%
X52324000Y44450000D03*
X43891200Y36118800D03*
X34036000Y35915600D03*
X25908000Y36169600D03*
X16200000Y50250000D03*
X42400000Y44500000D03*
X32800000Y44500000D03*
X23000000Y44500000D03*
X32702500Y27444700D03*
X36880800Y27368500D03*
X41198800Y30111700D03*
X42392600Y27343100D03*
%TO.N,GNDA*%
X16370300Y7327900D03*
X13398500Y9740900D03*
X46253400Y27863800D03*
X53314600Y33705800D03*
X46482000Y31800800D03*
X51689000Y38354000D03*
X34721800Y19583400D03*
X25806400Y3505200D03*
X30175200Y36880800D03*
X21539200Y37439600D03*
X42900000Y37875000D03*
X46355000Y23241000D03*
X52400000Y47400000D03*
X42400000Y47400000D03*
X33200000Y47425000D03*
X22900000Y47400000D03*
X18732500Y4203700D03*
X37719000Y18808700D03*
X43992800Y21907500D03*
X31496000Y11176000D03*
X25057100Y12319000D03*
X8839200Y27228800D03*
X4140200Y33274000D03*
X14897100Y22377400D03*
X7442200Y16281400D03*
X23482300Y20866100D03*
X32727900Y25882600D03*
X36893500Y25857200D03*
X38188900Y11353800D03*
X34798000Y7467600D03*
%TO.N,Net-(C10-Pad2)*%
X41554400Y32994600D03*
X44825000Y41525000D03*
%TO.N,Net-(C11-Pad1)*%
X37693600Y31648400D03*
X34450000Y42600000D03*
%TO.N,Net-(C12-Pad1)*%
X35064700Y33007300D03*
X25000000Y42700000D03*
%TO.N,Net-(C13-Pad1)*%
X33299400Y31635700D03*
X15400000Y42700000D03*
%TO.N,VDD*%
X19748500Y9144000D03*
X14249400Y13690600D03*
X12242800Y16891000D03*
X10299700Y25704800D03*
X46482000Y29210000D03*
X50673000Y26416000D03*
X31877000Y17653000D03*
X41554400Y15798800D03*
X12306300Y24091900D03*
X49072800Y21615400D03*
X22021800Y19519900D03*
X42456100Y19278600D03*
X22085300Y5588000D03*
X16852900Y10909300D03*
%TO.N,/V_IN*%
X56819800Y33807400D03*
X54711600Y25577800D03*
%TO.N,1_IN+*%
X24866600Y11125200D03*
X16065500Y57099200D03*
%TO.N,2_IN+*%
X16078200Y56057800D03*
X25527000Y10452100D03*
%TO.N,3_IN+*%
X16040100Y54902100D03*
X26212800Y9753600D03*
%TO.N,4_IN+*%
X26847800Y9118600D03*
%TO.N,REF*%
X27787600Y9067800D03*
%TO.N,/SIM_RST*%
X30073600Y4978400D03*
%TO.N,MISO*%
X38328600Y20739100D03*
X21310600Y13360400D03*
%TO.N,SCK*%
X38341300Y14973300D03*
X37693600Y19913600D03*
X19939000Y14960600D03*
%TO.N,MOSI*%
X18237200Y17602200D03*
X37693600Y17716500D03*
%TO.N,/D_5|A_6*%
X29616400Y14579600D03*
%TO.N,/D_3|A_4*%
X29616400Y15494000D03*
%TO.N,/SIM_RX*%
X29616400Y16459200D03*
%TO.N,/D_2|A_3*%
X29616400Y17424400D03*
%TO.N,/SIM_TX*%
X29616400Y18288000D03*
%TO.N,/1_-IN*%
X48800000Y50700000D03*
X42725000Y42225000D03*
%TO.N,/2_-IN*%
X38800000Y47175000D03*
X36925000Y38775000D03*
%TO.N,/3_-IN*%
X28375000Y47275000D03*
%TO.N,/4_-IN*%
X24925000Y41500000D03*
X20400000Y47000000D03*
%TO.N,/MCP_RST*%
X40373300Y9080500D03*
X40043100Y19913600D03*
%TO.N,Net-(R39-Pad1)*%
X8191500Y21336000D03*
%TO.N,Net-(R42-Pad1)*%
X5511800Y25946100D03*
%TO.N,uA_SENS*%
X39471600Y10109200D03*
X23634700Y17106900D03*
X17818100Y22326600D03*
%TO.N,/MCP_SS*%
X37058600Y20751800D03*
%TO.N,Z_TEST_4*%
X42418000Y6146800D03*
%TO.N,Z_TEST_3*%
X41630600Y5791200D03*
%TO.N,Z_TEST_2*%
X40919400Y5283200D03*
%TO.N,Z_TEST_1*%
X39509700Y4749800D03*
%TO.N,Z_TEST_REF*%
X43243500Y6311900D03*
%TO.N,/V_ENABLE*%
X55105300Y27419300D03*
X44958000Y23177500D03*
%TO.N,/D_12*%
X29616400Y11684000D03*
%TO.N,/D_9*%
X29616400Y13614400D03*
%TO.N,/D_11*%
X29616400Y12649200D03*
%TO.N,MCP_DRDY*%
X31496000Y20701000D03*
%TO.N,DRDY*%
X32080200Y12362118D03*
X30861000Y18288000D03*
%TO.N,I_BIAS*%
X44650000Y55500000D03*
%TO.N,V_REF*%
X50165000Y41021000D03*
X46736000Y37719000D03*
X21000000Y41300000D03*
X25550000Y34825000D03*
X39350000Y33175000D03*
X29300000Y34800000D03*
X29300000Y42400000D03*
X38800000Y42500000D03*
X38800000Y34800000D03*
X49200000Y42200000D03*
%TO.N,/SENSORS/IMP_SIG*%
X18923000Y5842000D03*
X10668000Y14198600D03*
X20777200Y4013200D03*
X15748000Y9093200D03*
X13182600Y11658600D03*
%TD*%
D19*
%TO.N,Net-(C10-Pad2)*%
X41554400Y32994600D02*
X41554400Y35585400D01*
X41910000Y35941000D02*
X41910000Y35935000D01*
X41554400Y35585400D02*
X41910000Y35941000D01*
X41910000Y35935000D02*
X44825000Y38850000D01*
X44825000Y38850000D02*
X44825000Y41525000D01*
X41893200Y35918200D02*
X41910000Y35935000D01*
D20*
%TO.N,Net-(C11-Pad1)*%
X37693600Y39356400D02*
X37693600Y31648400D01*
X34450000Y42600000D02*
X37693600Y39356400D01*
D19*
%TO.N,Net-(C12-Pad1)*%
X25372800Y42700000D02*
X25000000Y42700000D01*
X35064700Y33007300D02*
X25372800Y42700000D01*
D20*
%TO.N,Net-(C13-Pad1)*%
X26464300Y31635700D02*
X33299400Y31635700D01*
X15400000Y42700000D02*
X26464300Y31635700D01*
%TO.N,1_IN+*%
X16065500Y57099200D02*
X17341300Y58375000D01*
X35550000Y54112000D02*
X36830000Y52832000D01*
X35550000Y56825000D02*
X35550000Y54112000D01*
X34000000Y58375000D02*
X35550000Y56825000D01*
X17341300Y58375000D02*
X34000000Y58375000D01*
%TO.N,2_IN+*%
X16078200Y56057800D02*
X17992198Y57971798D01*
X33025000Y54097000D02*
X34290000Y52832000D01*
X33025000Y56900000D02*
X33025000Y54097000D01*
X31953202Y57971798D02*
X33025000Y56900000D01*
X17992198Y57971798D02*
X31953202Y57971798D01*
%TO.N,3_IN+*%
X16040100Y54902100D02*
X18706596Y57568596D01*
X30475000Y54107000D02*
X31750000Y52832000D01*
X30475000Y56950000D02*
X30475000Y54107000D01*
X29856404Y57568596D02*
X30475000Y56950000D01*
X18706596Y57568596D02*
X29856404Y57568596D01*
D21*
%TO.N,MISO*%
X9499600Y31830196D02*
X10983502Y33314098D01*
X9499600Y29184600D02*
X9499600Y31830196D01*
X38328600Y20739100D02*
X39179500Y19888200D01*
X21310600Y12192000D02*
X21310600Y13360400D01*
X26670000Y6832600D02*
X21310600Y12192000D01*
X31810900Y6832600D02*
X26670000Y6832600D01*
X39179500Y14201200D02*
X31810900Y6832600D01*
X39179500Y19888200D02*
X39179500Y14201200D01*
X9499600Y29184600D02*
X9499600Y24333200D01*
X9499600Y24333200D02*
X10388600Y23444200D01*
X20472400Y13360400D02*
X21310600Y13360400D01*
X10388600Y23444200D02*
X20472400Y13360400D01*
%TO.N,SCK*%
X38355107Y14985824D02*
X38355107Y14985869D01*
X38342583Y14973300D02*
X38355107Y14985824D01*
X38341300Y14973300D02*
X38342583Y14973300D01*
X22174200Y14960600D02*
X19939000Y14960600D01*
X23444200Y13690600D02*
X22174200Y14960600D01*
X23444200Y10744200D02*
X23444200Y13690600D01*
X26924000Y7264400D02*
X23444200Y10744200D01*
X31292800Y7264400D02*
X26924000Y7264400D01*
X38353306Y14324906D02*
X31292800Y7264400D01*
X11633200Y23266400D02*
X19939000Y14960600D01*
X11633200Y30371692D02*
X11633200Y23266400D01*
X37706300Y19900900D02*
X38366700Y19240500D01*
X37680900Y19926300D02*
X37706300Y19900900D01*
X38366700Y19240500D02*
X38355107Y14985869D01*
X38355107Y14985869D02*
X38353306Y14324906D01*
X11633200Y30371692D02*
X12779554Y31518046D01*
%TO.N,MOSI*%
X37033200Y14058900D02*
X37439600Y14465300D01*
X37439600Y14465300D02*
X37439600Y17449800D01*
X37439600Y17449800D02*
X37693600Y17716500D01*
X37033200Y14058900D02*
X37026850Y14052550D01*
X37026850Y14052550D02*
X30683200Y7721600D01*
X30683200Y7721600D02*
X27152600Y7721600D01*
X27152600Y7721600D02*
X24003000Y10871200D01*
X24003000Y10871200D02*
X24003000Y14046200D01*
X24003000Y14046200D02*
X20447000Y17602200D01*
X20447000Y17602200D02*
X18237200Y17602200D01*
X15748000Y23710186D02*
X15748000Y20091400D01*
X15748000Y20091400D02*
X18237200Y17602200D01*
X18167707Y26129893D02*
X15748000Y23710186D01*
%TO.N,/D_5|A_6*%
X29616400Y14579600D02*
X29641800Y14579600D01*
X19128912Y30632400D02*
X18251256Y29754744D01*
X20243800Y30632400D02*
X19128912Y30632400D01*
X27000200Y23876000D02*
X20243800Y30632400D01*
X27000200Y17221200D02*
X27000200Y23876000D01*
X29641800Y14579600D02*
X27000200Y17221200D01*
%TO.N,/D_3|A_4*%
X29616400Y15494000D02*
X29638602Y15494000D01*
X17416410Y32512000D02*
X16455205Y31550795D01*
X18973800Y32512000D02*
X17416410Y32512000D01*
X27378002Y24107798D02*
X18973800Y32512000D01*
X27378002Y17754600D02*
X27378002Y24107798D01*
X29638602Y15494000D02*
X27378002Y17754600D01*
%TO.N,/SIM_RX*%
X29616400Y16459200D02*
X29616400Y16459200D01*
X15729308Y34417000D02*
X14659154Y33346846D01*
X17703800Y34417000D02*
X15729308Y34417000D01*
X27755804Y24364996D02*
X17703800Y34417000D01*
X27755804Y18319796D02*
X27755804Y24364996D01*
X29616400Y16459200D02*
X27755804Y18319796D01*
%TO.N,/D_2|A_3*%
X13864404Y36144200D02*
X12863102Y35142898D01*
X16586200Y36144200D02*
X13864404Y36144200D01*
X28133606Y24596794D02*
X16586200Y36144200D01*
X28133606Y18907194D02*
X28133606Y24596794D01*
X29616400Y17424400D02*
X29616400Y17424400D01*
X29616400Y17424400D02*
X28133606Y18907194D01*
%TO.N,/SIM_TX*%
X28511500Y24790400D02*
X15265400Y38049200D01*
X15265400Y38049200D02*
X12177302Y38049200D01*
X11067051Y36938949D02*
X12177302Y38049200D01*
X28511500Y19964400D02*
X28511500Y24790400D01*
X28511500Y19392900D02*
X28511500Y19964400D01*
X29616400Y18288000D02*
X28511500Y19392900D01*
%TO.N,/MCP_RST*%
X40043100Y19913600D02*
X40284400Y19659600D01*
X40284400Y19659600D02*
X40373300Y9080500D01*
%TO.N,uA_SENS*%
X23634700Y17106900D02*
X23037800Y17106900D01*
X23037800Y17106900D02*
X17818100Y22326600D01*
X17894300Y22326600D02*
X17818100Y22326600D01*
X17818100Y22275800D02*
X17818100Y22326600D01*
%TO.N,/V_ENABLE*%
X49212500Y27419300D02*
X44958000Y23177500D01*
X55105300Y27419300D02*
X49212500Y27419300D01*
%TO.N,/D_12*%
X19963759Y24333841D02*
X24838775Y24333841D01*
X25860398Y18440400D02*
X25857200Y18440400D01*
X25860398Y23312218D02*
X25860398Y18440400D01*
X24838775Y24333841D02*
X25860398Y23312218D01*
X29616400Y11684000D02*
X29616400Y11684000D01*
X25857200Y15443200D02*
X25857200Y18440400D01*
X25857200Y18440400D02*
X25857200Y18440400D01*
X29616400Y11684000D02*
X25857200Y15443200D01*
%TO.N,/D_9*%
X29616400Y13614400D02*
X29616400Y13614400D01*
X20943014Y28854400D02*
X20047307Y27958693D01*
X21386800Y28854400D02*
X20943014Y28854400D01*
X26619200Y23622000D02*
X21386800Y28854400D01*
X26619200Y16611600D02*
X26619200Y23622000D01*
X29616400Y13614400D02*
X26619200Y16611600D01*
%TO.N,/D_11*%
X26238200Y16027400D02*
X29616400Y12649200D01*
X29616400Y12649200D02*
X29616400Y12649200D01*
X21843359Y26162641D02*
X23544267Y26162641D01*
X26238200Y16027400D02*
X26238200Y21767800D01*
X26238200Y23468708D02*
X26238200Y21767800D01*
X23544267Y26162641D02*
X26238200Y23468708D01*
%TO.N,DRDY*%
X30861000Y18288000D02*
X30861000Y13563600D01*
X32080200Y12344400D02*
X32080200Y12362118D01*
X30861000Y13563600D02*
X32080200Y12344400D01*
D20*
%TO.N,V_REF*%
X50165000Y41021000D02*
X46863000Y37719000D01*
X46863000Y37719000D02*
X46736000Y37719000D01*
D19*
X38800000Y33725000D02*
X38800000Y34800000D01*
X39350000Y33175000D02*
X38800000Y33725000D01*
D21*
%TO.N,/SENSORS/IMP_SIG*%
X13182600Y11658600D02*
X13182600Y11684000D01*
X13182600Y11684000D02*
X10668000Y14198600D01*
X15748000Y9093200D02*
X13182600Y11658600D01*
X18923000Y5842000D02*
X18923000Y5918200D01*
X18923000Y5918200D02*
X15748000Y9093200D01*
X20751800Y4013200D02*
X18923000Y5842000D01*
X20777200Y4013200D02*
X20751800Y4013200D01*
%TD*%
%TA.AperFunction,Conductor*%
%TO.N,VDD*%
G36*
X5139279Y48286142D02*
G01*
X5184363Y48257160D01*
X14828625Y38607671D01*
X14862633Y38545350D01*
X14857549Y38474536D01*
X14814987Y38417711D01*
X14748460Y38392919D01*
X14739505Y38392600D01*
X12132088Y38392600D01*
X12068157Y38375471D01*
X12068158Y38375470D01*
X12044756Y38369199D01*
X12044754Y38369199D01*
X12044754Y38369198D01*
X12044643Y38369134D01*
X11966449Y38323989D01*
X11749130Y38106670D01*
X11686818Y38072645D01*
X11616002Y38077710D01*
X11607298Y38081536D01*
X11604024Y38082892D01*
X11604016Y38082896D01*
X11436637Y38137281D01*
X11262811Y38164812D01*
X11086818Y38164812D01*
X10912992Y38137281D01*
X10912986Y38137280D01*
X10745613Y38082897D01*
X10745606Y38082894D01*
X10588804Y38002998D01*
X10446422Y37899553D01*
X10106447Y37559579D01*
X10003004Y37417198D01*
X10002997Y37417187D01*
X9923106Y37260394D01*
X9923103Y37260386D01*
X9868720Y37093015D01*
X9868719Y37093010D01*
X9868719Y37093009D01*
X9841188Y36919183D01*
X9841188Y36743189D01*
X9864773Y36594280D01*
X9868720Y36569358D01*
X9923104Y36401982D01*
X9923199Y36401754D01*
X9923209Y36401661D01*
X9924634Y36397275D01*
X9923712Y36396976D01*
X9930788Y36331164D01*
X9899008Y36267677D01*
X9837949Y36231451D01*
X9766998Y36233985D01*
X9749587Y36241271D01*
X9724422Y36254094D01*
X9724413Y36254097D01*
X9557042Y36308480D01*
X9557038Y36308481D01*
X9557037Y36308481D01*
X9383211Y36336012D01*
X9207218Y36336012D01*
X9049764Y36311074D01*
X9033386Y36308480D01*
X8866013Y36254097D01*
X8866006Y36254094D01*
X8709204Y36174198D01*
X8566822Y36070753D01*
X8226847Y35730779D01*
X8123404Y35588398D01*
X8123397Y35588387D01*
X8043506Y35431594D01*
X8043503Y35431586D01*
X7989120Y35264215D01*
X7989119Y35264210D01*
X7989119Y35264209D01*
X7961588Y35090383D01*
X7961588Y34914389D01*
X7985977Y34760400D01*
X7989120Y34740558D01*
X8043503Y34573187D01*
X8043506Y34573179D01*
X8123397Y34416386D01*
X8123401Y34416380D01*
X8123404Y34416374D01*
X8226849Y34273992D01*
X8226855Y34273986D01*
X8226859Y34273981D01*
X8351282Y34149558D01*
X8351287Y34149554D01*
X8351294Y34149547D01*
X8493676Y34046102D01*
X8493683Y34046098D01*
X8493687Y34046096D01*
X8586215Y33998950D01*
X8650486Y33966202D01*
X8817865Y33911817D01*
X8991691Y33884286D01*
X8991694Y33884286D01*
X9167682Y33884286D01*
X9167685Y33884286D01*
X9341511Y33911817D01*
X9508890Y33966202D01*
X9665700Y34046102D01*
X9808082Y34149547D01*
X10148053Y34489519D01*
X10251498Y34631900D01*
X10331398Y34788710D01*
X10385783Y34956090D01*
X10413314Y35129916D01*
X10413314Y35305909D01*
X10385783Y35479735D01*
X10331398Y35647114D01*
X10331396Y35647117D01*
X10331307Y35647333D01*
X10331297Y35647425D01*
X10329868Y35651823D01*
X10330791Y35652124D01*
X10323711Y35717922D01*
X10355484Y35781412D01*
X10416539Y35817645D01*
X10487490Y35815118D01*
X10504904Y35807833D01*
X10530086Y35795002D01*
X10530088Y35795002D01*
X10530089Y35795001D01*
X10573801Y35780798D01*
X10697465Y35740617D01*
X10871291Y35713086D01*
X10871294Y35713086D01*
X11047282Y35713086D01*
X11047285Y35713086D01*
X11221111Y35740617D01*
X11388490Y35795002D01*
X11545300Y35874902D01*
X11687682Y35978347D01*
X12027653Y36318319D01*
X12131098Y36460700D01*
X12210998Y36617510D01*
X12265383Y36784890D01*
X12292914Y36958716D01*
X12292914Y37134709D01*
X12265383Y37308535D01*
X12210998Y37475914D01*
X12210993Y37475923D01*
X12209104Y37480486D01*
X12210419Y37481031D01*
X12198495Y37544500D01*
X12225191Y37610286D01*
X12234772Y37621030D01*
X12250614Y37636871D01*
X12282639Y37668896D01*
X12344952Y37702921D01*
X12371734Y37705800D01*
X15070837Y37705800D01*
X15138958Y37685798D01*
X15159972Y37668855D01*
X15913247Y36914858D01*
X16125249Y36702653D01*
X16159244Y36640324D01*
X16154146Y36569511D01*
X16111572Y36512696D01*
X16045039Y36487917D01*
X16036111Y36487600D01*
X13819192Y36487600D01*
X13750312Y36469145D01*
X13750312Y36469144D01*
X13746412Y36468099D01*
X13731856Y36464199D01*
X13653551Y36418989D01*
X13545181Y36310619D01*
X13482869Y36276594D01*
X13412053Y36281660D01*
X13403363Y36285480D01*
X13400075Y36286841D01*
X13400067Y36286845D01*
X13232688Y36341230D01*
X13058862Y36368761D01*
X12882869Y36368761D01*
X12709043Y36341230D01*
X12709037Y36341229D01*
X12541664Y36286846D01*
X12541657Y36286843D01*
X12384855Y36206947D01*
X12242473Y36103502D01*
X11902498Y35763528D01*
X11799055Y35621147D01*
X11799048Y35621136D01*
X11719157Y35464343D01*
X11719154Y35464335D01*
X11664771Y35296964D01*
X11664770Y35296959D01*
X11664770Y35296958D01*
X11637239Y35123132D01*
X11637239Y34947138D01*
X11657145Y34821454D01*
X11664771Y34773307D01*
X11719155Y34605931D01*
X11719250Y34605703D01*
X11719260Y34605610D01*
X11720685Y34601224D01*
X11719763Y34600925D01*
X11726839Y34535113D01*
X11695059Y34471626D01*
X11634000Y34435400D01*
X11563049Y34437934D01*
X11545638Y34445220D01*
X11520473Y34458043D01*
X11520464Y34458046D01*
X11353093Y34512429D01*
X11353089Y34512430D01*
X11353088Y34512430D01*
X11179262Y34539961D01*
X11003269Y34539961D01*
X10842936Y34514567D01*
X10829437Y34512429D01*
X10662064Y34458046D01*
X10662057Y34458043D01*
X10505255Y34378147D01*
X10362873Y34274702D01*
X10022898Y33934728D01*
X9919455Y33792347D01*
X9919448Y33792336D01*
X9839557Y33635543D01*
X9839554Y33635535D01*
X9785171Y33468164D01*
X9785170Y33468159D01*
X9785170Y33468158D01*
X9757639Y33294332D01*
X9757639Y33118338D01*
X9785170Y32944512D01*
X9839555Y32777133D01*
X9839559Y32777125D01*
X9841451Y32772557D01*
X9840134Y32772012D01*
X9852057Y32708549D01*
X9825361Y32642763D01*
X9815781Y32632020D01*
X9224814Y32041052D01*
X9224811Y32041049D01*
X9179601Y31962744D01*
X9179602Y31962743D01*
X9156200Y31875404D01*
X9156200Y27886254D01*
X9136198Y27818133D01*
X9082542Y27771640D01*
X9012268Y27761536D01*
X8991985Y27767100D01*
X8991930Y27766891D01*
X8983955Y27769028D01*
X8839200Y27788085D01*
X8694447Y27769029D01*
X8650732Y27750921D01*
X8559558Y27713155D01*
X8559557Y27713154D01*
X8559556Y27713154D01*
X8443726Y27624274D01*
X8354846Y27508444D01*
X8354845Y27508442D01*
X8329684Y27447698D01*
X8298971Y27373553D01*
X8279915Y27228801D01*
X8279915Y27228800D01*
X8298971Y27084048D01*
X8354844Y26949159D01*
X8354849Y26949151D01*
X8443725Y26833326D01*
X8551636Y26750523D01*
X8559557Y26744445D01*
X8694446Y26688572D01*
X8839200Y26669515D01*
X8983954Y26688572D01*
X8983959Y26688575D01*
X8991930Y26690709D01*
X8992420Y26688877D01*
X9052565Y26695346D01*
X9116053Y26663571D01*
X9152284Y26602515D01*
X9156200Y26571347D01*
X9156200Y24287990D01*
X9168966Y24240350D01*
X9168966Y24240344D01*
X9168967Y24240344D01*
X9179602Y24200653D01*
X9179602Y24200652D01*
X9224809Y24122351D01*
X9224811Y24122349D01*
X9224812Y24122347D01*
X10113812Y23233347D01*
X20261540Y13085618D01*
X20261545Y13085614D01*
X20261547Y13085612D01*
X20261548Y13085611D01*
X20261550Y13085610D01*
X20299369Y13063775D01*
X20339852Y13040402D01*
X20427191Y13017000D01*
X20517610Y13017000D01*
X20813032Y13017000D01*
X20881153Y12996998D01*
X20912995Y12967703D01*
X20915125Y12964926D01*
X20917903Y12962795D01*
X20919654Y12960397D01*
X20920965Y12959086D01*
X20920760Y12958882D01*
X20959771Y12905458D01*
X20967200Y12862832D01*
X20967200Y12146791D01*
X20977333Y12108974D01*
X20977334Y12108971D01*
X20990599Y12059460D01*
X20990602Y12059452D01*
X21035809Y11981151D01*
X21035817Y11981141D01*
X26459140Y6557818D01*
X26459144Y6557815D01*
X26459147Y6557812D01*
X26537452Y6512602D01*
X26560849Y6506334D01*
X26560853Y6506331D01*
X26560854Y6506332D01*
X26624791Y6489200D01*
X26624792Y6489200D01*
X31856108Y6489200D01*
X31856109Y6489200D01*
X31920046Y6506332D01*
X31943448Y6512602D01*
X32021753Y6557812D01*
X32931542Y7467601D01*
X34238715Y7467601D01*
X34238715Y7467600D01*
X34257771Y7322848D01*
X34313644Y7187959D01*
X34313649Y7187951D01*
X34402525Y7072126D01*
X34518350Y6983250D01*
X34518357Y6983245D01*
X34653246Y6927372D01*
X34798000Y6908315D01*
X34942754Y6927372D01*
X35077643Y6983245D01*
X35193474Y7072126D01*
X35282355Y7187957D01*
X35338228Y7322846D01*
X35355864Y7456806D01*
X43982783Y7456806D01*
X43982783Y7280812D01*
X43998252Y7183146D01*
X44010315Y7106981D01*
X44064698Y6939610D01*
X44064701Y6939602D01*
X44144592Y6782809D01*
X44144596Y6782803D01*
X44144599Y6782797D01*
X44154903Y6768615D01*
X44248042Y6640417D01*
X44248043Y6640416D01*
X44248044Y6640415D01*
X44588016Y6300444D01*
X44730397Y6196999D01*
X44887207Y6117099D01*
X45054581Y6062716D01*
X45054582Y6062716D01*
X45054587Y6062714D01*
X45228413Y6035183D01*
X45228416Y6035183D01*
X45404403Y6035183D01*
X45404406Y6035183D01*
X45578232Y6062714D01*
X45745611Y6117099D01*
X45902421Y6196999D01*
X46044803Y6300444D01*
X46169248Y6424889D01*
X46272693Y6567271D01*
X46352593Y6724081D01*
X46406978Y6891460D01*
X46434509Y7065286D01*
X46434509Y7241279D01*
X46406978Y7415105D01*
X46352593Y7582485D01*
X46328060Y7630632D01*
X46272694Y7739293D01*
X46267307Y7746707D01*
X46176795Y7871288D01*
X46169249Y7881675D01*
X45829275Y8221650D01*
X45745044Y8282846D01*
X45686895Y8325093D01*
X45686889Y8325096D01*
X45686883Y8325100D01*
X45530090Y8404991D01*
X45530082Y8404994D01*
X45362711Y8459377D01*
X45362707Y8459378D01*
X45362706Y8459378D01*
X45188880Y8486909D01*
X45012886Y8486909D01*
X44839060Y8459378D01*
X44839054Y8459377D01*
X44671683Y8404994D01*
X44671675Y8404991D01*
X44514882Y8325100D01*
X44514871Y8325093D01*
X44372492Y8221650D01*
X44372477Y8221638D01*
X44248054Y8097215D01*
X44248046Y8097205D01*
X44248044Y8097203D01*
X44183111Y8007829D01*
X44144599Y7954821D01*
X44144592Y7954810D01*
X44064701Y7798017D01*
X44064698Y7798009D01*
X44010315Y7630638D01*
X44010314Y7630633D01*
X44010314Y7630632D01*
X43982783Y7456806D01*
X35355864Y7456806D01*
X35357285Y7467600D01*
X35338228Y7612354D01*
X35282355Y7747242D01*
X35193474Y7863074D01*
X35193472Y7863076D01*
X35193471Y7863077D01*
X35077649Y7951951D01*
X35077641Y7951956D01*
X34942752Y8007829D01*
X34798000Y8026885D01*
X34653247Y8007829D01*
X34585802Y7979892D01*
X34518358Y7951955D01*
X34518357Y7951954D01*
X34518356Y7951954D01*
X34402526Y7863074D01*
X34313646Y7747244D01*
X34313645Y7747242D01*
X34285708Y7679798D01*
X34257771Y7612353D01*
X34238715Y7467601D01*
X32931542Y7467601D01*
X36817742Y11353801D01*
X37629615Y11353801D01*
X37629615Y11353800D01*
X37648671Y11209048D01*
X37704544Y11074159D01*
X37704549Y11074151D01*
X37793425Y10958326D01*
X37909250Y10869450D01*
X37909257Y10869445D01*
X38044146Y10813572D01*
X38188900Y10794515D01*
X38333654Y10813572D01*
X38468543Y10869445D01*
X38584374Y10958326D01*
X38673255Y11074157D01*
X38729128Y11209046D01*
X38748185Y11353800D01*
X38743404Y11390112D01*
X38729128Y11498553D01*
X38729128Y11498554D01*
X38673255Y11633442D01*
X38584374Y11749274D01*
X38584372Y11749276D01*
X38584371Y11749277D01*
X38468549Y11838151D01*
X38468541Y11838156D01*
X38333652Y11894029D01*
X38188900Y11913085D01*
X38044147Y11894029D01*
X38004891Y11877768D01*
X37909258Y11838155D01*
X37909257Y11838154D01*
X37909256Y11838154D01*
X37793426Y11749274D01*
X37704546Y11633444D01*
X37704545Y11633442D01*
X37688010Y11593524D01*
X37648671Y11498553D01*
X37629615Y11353801D01*
X36817742Y11353801D01*
X39454288Y13990347D01*
X39499498Y14068652D01*
X39508998Y14104109D01*
X39522900Y14155991D01*
X39522900Y19358329D01*
X39542902Y19426450D01*
X39596558Y19472943D01*
X39666832Y19483047D01*
X39725602Y19458293D01*
X39763457Y19429245D01*
X39866472Y19386575D01*
X39921753Y19342026D01*
X39944174Y19274663D01*
X39944250Y19271225D01*
X40016728Y10646400D01*
X39997299Y10578113D01*
X39944036Y10531171D01*
X39873849Y10520477D01*
X39814028Y10545378D01*
X39751244Y10593554D01*
X39751243Y10593555D01*
X39649323Y10635772D01*
X39616352Y10649429D01*
X39471600Y10668485D01*
X39326847Y10649429D01*
X39259402Y10621492D01*
X39191958Y10593555D01*
X39191957Y10593554D01*
X39191956Y10593554D01*
X39076126Y10504674D01*
X38987246Y10388844D01*
X38987245Y10388842D01*
X38959308Y10321398D01*
X38931371Y10253953D01*
X38912315Y10109201D01*
X38912315Y10109200D01*
X38931371Y9964448D01*
X38987244Y9829559D01*
X38987249Y9829551D01*
X39076125Y9713726D01*
X39191950Y9624850D01*
X39191957Y9624845D01*
X39326846Y9568972D01*
X39471600Y9549915D01*
X39616354Y9568972D01*
X39751243Y9624845D01*
X39822983Y9679894D01*
X39889199Y9705494D01*
X39958748Y9691230D01*
X40009545Y9641630D01*
X40025680Y9581001D01*
X40025723Y9575938D01*
X40006301Y9507650D01*
X39983179Y9482300D01*
X39983665Y9481814D01*
X39977831Y9475981D01*
X39888946Y9360144D01*
X39888945Y9360142D01*
X39861008Y9292698D01*
X39833071Y9225253D01*
X39814015Y9080501D01*
X39814015Y9080500D01*
X39833071Y8935748D01*
X39888944Y8800859D01*
X39888949Y8800851D01*
X39977825Y8685026D01*
X40077106Y8608845D01*
X40093657Y8596145D01*
X40228546Y8540272D01*
X40373300Y8521215D01*
X40518054Y8540272D01*
X40652943Y8596145D01*
X40768774Y8685026D01*
X40857655Y8800857D01*
X40913528Y8935746D01*
X40932585Y9080500D01*
X40913528Y9225254D01*
X40902112Y9252815D01*
X45779334Y9252815D01*
X45779334Y9076908D01*
X45806855Y8903151D01*
X45861212Y8735857D01*
X45861215Y8735851D01*
X45941079Y8579109D01*
X46044475Y8436795D01*
X46384393Y8096878D01*
X46526707Y7993481D01*
X46683450Y7913616D01*
X46683456Y7913613D01*
X46850750Y7859256D01*
X47024507Y7831734D01*
X47200415Y7831734D01*
X47374171Y7859256D01*
X47541466Y7913613D01*
X47541472Y7913616D01*
X47698214Y7993481D01*
X47704521Y7998064D01*
X47136177Y8566408D01*
X47200779Y8583717D01*
X47316618Y8650596D01*
X47411200Y8745178D01*
X47478079Y8861017D01*
X47495388Y8925618D01*
X48063731Y8357274D01*
X48063732Y8357275D01*
X48068315Y8363582D01*
X48148180Y8520324D01*
X48148183Y8520330D01*
X48202540Y8687625D01*
X48230062Y8861382D01*
X48230062Y9037289D01*
X48202540Y9211046D01*
X48148183Y9378340D01*
X48148180Y9378346D01*
X48068315Y9535089D01*
X47964918Y9677403D01*
X47625001Y10017321D01*
X47482687Y10120717D01*
X47325945Y10200581D01*
X47325939Y10200584D01*
X47158645Y10254941D01*
X46984889Y10282462D01*
X46808981Y10282462D01*
X46635224Y10254941D01*
X46467930Y10200584D01*
X46467924Y10200581D01*
X46311188Y10120720D01*
X46304873Y10116133D01*
X46873218Y9547789D01*
X46808617Y9530479D01*
X46692778Y9463600D01*
X46598196Y9369018D01*
X46531317Y9253179D01*
X46514007Y9188579D01*
X45945663Y9756924D01*
X45941076Y9750608D01*
X45861215Y9593872D01*
X45861212Y9593866D01*
X45806855Y9426572D01*
X45779334Y9252815D01*
X40902112Y9252815D01*
X40857655Y9360142D01*
X40768774Y9475974D01*
X40761802Y9481324D01*
X40719936Y9538662D01*
X40712512Y9580226D01*
X40712505Y9581001D01*
X40700170Y11048909D01*
X47574886Y11048909D01*
X47574886Y10872915D01*
X47602417Y10699089D01*
X47602418Y10699084D01*
X47656801Y10531713D01*
X47656804Y10531705D01*
X47736695Y10374912D01*
X47736699Y10374906D01*
X47736702Y10374900D01*
X47767226Y10332887D01*
X47840145Y10232520D01*
X47840146Y10232519D01*
X47840147Y10232518D01*
X48180119Y9892547D01*
X48322500Y9789102D01*
X48479310Y9709202D01*
X48646684Y9654819D01*
X48646685Y9654819D01*
X48646690Y9654817D01*
X48820516Y9627286D01*
X48820519Y9627286D01*
X48996506Y9627286D01*
X48996509Y9627286D01*
X49170335Y9654817D01*
X49337714Y9709202D01*
X49494524Y9789102D01*
X49636906Y9892547D01*
X49761351Y10016992D01*
X49864796Y10159374D01*
X49944696Y10316184D01*
X49999081Y10483563D01*
X50026612Y10657389D01*
X50026612Y10833382D01*
X49999081Y11007208D01*
X49944696Y11174588D01*
X49927138Y11209046D01*
X49864797Y11331396D01*
X49830242Y11378957D01*
X49774528Y11455642D01*
X49761352Y11473778D01*
X49421378Y11813753D01*
X49340428Y11872565D01*
X49278998Y11917196D01*
X49278992Y11917199D01*
X49278986Y11917203D01*
X49122193Y11997094D01*
X49122185Y11997097D01*
X48954814Y12051480D01*
X48954810Y12051481D01*
X48954809Y12051481D01*
X48780983Y12079012D01*
X48604989Y12079012D01*
X48447554Y12054077D01*
X48431157Y12051480D01*
X48263786Y11997097D01*
X48263778Y11997094D01*
X48106985Y11917203D01*
X48106974Y11917196D01*
X47972317Y11819363D01*
X47964595Y11813753D01*
X47964580Y11813741D01*
X47840157Y11689318D01*
X47840149Y11689308D01*
X47840147Y11689306D01*
X47770558Y11593524D01*
X47736702Y11546924D01*
X47736695Y11546913D01*
X47656804Y11390120D01*
X47656801Y11390112D01*
X47602418Y11222741D01*
X47602417Y11222736D01*
X47602417Y11222735D01*
X47574886Y11048909D01*
X40700170Y11048909D01*
X40685817Y12756964D01*
X49008237Y12756964D01*
X49008237Y12756963D01*
X49027987Y12657662D01*
X49038613Y12641760D01*
X49070038Y12594729D01*
X50542329Y11122440D01*
X50542332Y11122438D01*
X50605262Y11080388D01*
X50704562Y11060637D01*
X50704563Y11060637D01*
X50704564Y11060637D01*
X50803864Y11080388D01*
X50816510Y11088838D01*
X50866797Y11122438D01*
X52123560Y12379203D01*
X52165612Y12442136D01*
X52185363Y12541437D01*
X52182412Y12556277D01*
X52165612Y12640739D01*
X52151563Y12661764D01*
X52123562Y12703671D01*
X50651271Y14175960D01*
X50651267Y14175963D01*
X50588337Y14218013D01*
X50489038Y14237763D01*
X50489036Y14237763D01*
X50389735Y14218013D01*
X50339021Y14184126D01*
X50326805Y14175963D01*
X50326802Y14175961D01*
X50326800Y14175960D01*
X49070041Y12919199D01*
X49070037Y12919194D01*
X49027987Y12856264D01*
X49008237Y12756964D01*
X40685817Y12756964D01*
X40662504Y15531196D01*
X51713900Y15531196D01*
X51713900Y15355204D01*
X51736209Y15214357D01*
X51741433Y15181374D01*
X51792021Y15025677D01*
X51795816Y15013999D01*
X51875715Y14857188D01*
X51875717Y14857185D01*
X51979162Y14714805D01*
X52103604Y14590363D01*
X52118417Y14579601D01*
X52245988Y14486915D01*
X52402799Y14407016D01*
X52570178Y14352632D01*
X52744004Y14325100D01*
X52744007Y14325100D01*
X53224793Y14325100D01*
X53224796Y14325100D01*
X53398622Y14352632D01*
X53566001Y14407016D01*
X53722812Y14486915D01*
X53865193Y14590361D01*
X53989639Y14714807D01*
X54093085Y14857188D01*
X54172984Y15013999D01*
X54227368Y15181378D01*
X54254900Y15355204D01*
X54254900Y15531196D01*
X54227368Y15705022D01*
X54172984Y15872401D01*
X54093085Y16029212D01*
X53989639Y16171593D01*
X53989637Y16171596D01*
X53865195Y16296038D01*
X53722815Y16399483D01*
X53722814Y16399484D01*
X53722812Y16399485D01*
X53566001Y16479384D01*
X53565998Y16479385D01*
X53565996Y16479386D01*
X53398626Y16533767D01*
X53398624Y16533768D01*
X53398622Y16533768D01*
X53224796Y16561300D01*
X52744004Y16561300D01*
X52570178Y16533768D01*
X52570176Y16533768D01*
X52570173Y16533767D01*
X52402803Y16479386D01*
X52402797Y16479383D01*
X52245984Y16399483D01*
X52103604Y16296038D01*
X51979162Y16171596D01*
X51875717Y16029216D01*
X51795817Y15872403D01*
X51795814Y15872397D01*
X51741433Y15705027D01*
X51741432Y15705024D01*
X51741432Y15705022D01*
X51713900Y15531196D01*
X40662504Y15531196D01*
X40641159Y18071196D01*
X51713900Y18071196D01*
X51713900Y17895204D01*
X51726852Y17813433D01*
X51741433Y17721374D01*
X51789152Y17574507D01*
X51795816Y17553999D01*
X51861850Y17424400D01*
X51875717Y17397185D01*
X51979162Y17254805D01*
X52103604Y17130363D01*
X52103607Y17130361D01*
X52245988Y17026915D01*
X52402799Y16947016D01*
X52570178Y16892632D01*
X52744004Y16865100D01*
X52744007Y16865100D01*
X53224793Y16865100D01*
X53224796Y16865100D01*
X53398622Y16892632D01*
X53566001Y16947016D01*
X53722812Y17026915D01*
X53865193Y17130361D01*
X53989639Y17254807D01*
X54093085Y17397188D01*
X54172984Y17553999D01*
X54227368Y17721378D01*
X54254900Y17895204D01*
X54254900Y18071196D01*
X54227368Y18245022D01*
X54172984Y18412401D01*
X54093085Y18569212D01*
X54024255Y18663948D01*
X53989637Y18711596D01*
X53865195Y18836038D01*
X53722815Y18939483D01*
X53722814Y18939484D01*
X53722812Y18939485D01*
X53566001Y19019384D01*
X53565998Y19019385D01*
X53565996Y19019386D01*
X53398626Y19073767D01*
X53398624Y19073768D01*
X53398622Y19073768D01*
X53224796Y19101300D01*
X52744004Y19101300D01*
X52570178Y19073768D01*
X52570176Y19073768D01*
X52570173Y19073767D01*
X52402803Y19019386D01*
X52402797Y19019383D01*
X52245984Y18939483D01*
X52103604Y18836038D01*
X51979162Y18711596D01*
X51875717Y18569216D01*
X51795817Y18412403D01*
X51795814Y18412397D01*
X51741433Y18245027D01*
X51741432Y18245024D01*
X51741432Y18245022D01*
X51713900Y18071196D01*
X40641159Y18071196D01*
X40627854Y19654521D01*
X40627891Y19658808D01*
X40628187Y19670363D01*
X40628845Y19695993D01*
X40628844Y19695998D01*
X40628226Y19701847D01*
X40627408Y19707689D01*
X40627408Y19707693D01*
X40617457Y19743617D01*
X40616394Y19747730D01*
X40611312Y19768848D01*
X40607690Y19783902D01*
X40605572Y19789409D01*
X40604066Y19792961D01*
X40603887Y19794272D01*
X40600832Y19803657D01*
X40600814Y19803724D01*
X40602540Y19804188D01*
X40595144Y19858601D01*
X40596237Y19866899D01*
X40602385Y19913600D01*
X40602384Y19913604D01*
X40583328Y20058353D01*
X40583328Y20058354D01*
X40527455Y20193242D01*
X40438574Y20309074D01*
X40438572Y20309076D01*
X40438571Y20309077D01*
X40322749Y20397951D01*
X40322741Y20397956D01*
X40187852Y20453829D01*
X40043100Y20472885D01*
X39898347Y20453829D01*
X39853384Y20435204D01*
X39763458Y20397955D01*
X39763457Y20397954D01*
X39763456Y20397954D01*
X39647625Y20309074D01*
X39559961Y20194828D01*
X39502623Y20152961D01*
X39431752Y20148740D01*
X39370904Y20182437D01*
X39155385Y20397956D01*
X38942145Y20611196D01*
X51713900Y20611196D01*
X51713900Y20435204D01*
X51740471Y20267445D01*
X51741433Y20261374D01*
X51791778Y20106425D01*
X51795816Y20093999D01*
X51854475Y19978874D01*
X51875717Y19937185D01*
X51979162Y19794805D01*
X52103604Y19670363D01*
X52125410Y19654520D01*
X52245988Y19566915D01*
X52402799Y19487016D01*
X52570178Y19432632D01*
X52744004Y19405100D01*
X52744007Y19405100D01*
X53224793Y19405100D01*
X53224796Y19405100D01*
X53398622Y19432632D01*
X53566001Y19487016D01*
X53722812Y19566915D01*
X53865193Y19670361D01*
X53989639Y19794807D01*
X54093085Y19937188D01*
X54172984Y20093999D01*
X54227368Y20261378D01*
X54236654Y20320007D01*
X55545580Y20320007D01*
X55545580Y20319994D01*
X55565239Y20007510D01*
X55565242Y20007486D01*
X55618528Y19728153D01*
X55623915Y19699912D01*
X55720677Y19402111D01*
X55853999Y19118786D01*
X55854001Y19118783D01*
X55854004Y19118777D01*
X56021775Y18854411D01*
X56221371Y18613141D01*
X56221374Y18613139D01*
X56221375Y18613137D01*
X56407932Y18437948D01*
X56449634Y18398787D01*
X56662545Y18244098D01*
X56702959Y18214736D01*
X56977353Y18063886D01*
X57182912Y17982500D01*
X57268485Y17948619D01*
X57268488Y17948619D01*
X57268491Y17948617D01*
X57571780Y17870745D01*
X57571783Y17870745D01*
X57571786Y17870744D01*
X57769905Y17845716D01*
X57882437Y17831500D01*
X57882441Y17831500D01*
X58195559Y17831500D01*
X58195563Y17831500D01*
X58431091Y17861254D01*
X58506213Y17870744D01*
X58506214Y17870745D01*
X58506220Y17870745D01*
X58809509Y17948617D01*
X59100647Y18063886D01*
X59375041Y18214736D01*
X59628366Y18398787D01*
X59856625Y18613137D01*
X60056219Y18854404D01*
X60056221Y18854409D01*
X60056224Y18854411D01*
X60195432Y19073768D01*
X60224001Y19118786D01*
X60357323Y19402111D01*
X60454085Y19699912D01*
X60512759Y20007492D01*
X60520066Y20123629D01*
X60532420Y20319994D01*
X60532420Y20320007D01*
X60512760Y20632491D01*
X60512759Y20632508D01*
X60454085Y20940088D01*
X60357323Y21237889D01*
X60224001Y21521214D01*
X60219106Y21528928D01*
X60056224Y21785590D01*
X59856628Y22026860D01*
X59835233Y22046951D01*
X59628366Y22241213D01*
X59628365Y22241214D01*
X59375043Y22425263D01*
X59198799Y22522154D01*
X59100647Y22576114D01*
X59016849Y22609292D01*
X58809514Y22691382D01*
X58809496Y22691387D01*
X58506226Y22769254D01*
X58506213Y22769257D01*
X58195577Y22808499D01*
X58195566Y22808500D01*
X58195563Y22808500D01*
X57882437Y22808500D01*
X57882434Y22808500D01*
X57882422Y22808499D01*
X57571786Y22769257D01*
X57571773Y22769254D01*
X57268503Y22691387D01*
X57268485Y22691382D01*
X56977353Y22576114D01*
X56702956Y22425263D01*
X56449635Y22241214D01*
X56449634Y22241214D01*
X56221371Y22026860D01*
X56021775Y21785590D01*
X55854004Y21521224D01*
X55853997Y21521210D01*
X55720680Y21237896D01*
X55720678Y21237892D01*
X55623916Y20940092D01*
X55623914Y20940084D01*
X55565242Y20632515D01*
X55565239Y20632491D01*
X55545580Y20320007D01*
X54236654Y20320007D01*
X54254900Y20435204D01*
X54254900Y20611196D01*
X54227368Y20785022D01*
X54172984Y20952401D01*
X54093085Y21109212D01*
X54016572Y21214523D01*
X53989637Y21251596D01*
X53865195Y21376038D01*
X53722815Y21479483D01*
X53722814Y21479484D01*
X53722812Y21479485D01*
X53566001Y21559384D01*
X53565998Y21559385D01*
X53565996Y21559386D01*
X53398626Y21613767D01*
X53398624Y21613768D01*
X53398622Y21613768D01*
X53224796Y21641300D01*
X52744004Y21641300D01*
X52570178Y21613768D01*
X52570176Y21613768D01*
X52570173Y21613767D01*
X52402803Y21559386D01*
X52402797Y21559383D01*
X52245984Y21479483D01*
X52103604Y21376038D01*
X51979162Y21251596D01*
X51875717Y21109216D01*
X51795817Y20952403D01*
X51795814Y20952397D01*
X51741433Y20785027D01*
X51741432Y20785024D01*
X51741432Y20785022D01*
X51713900Y20611196D01*
X38942145Y20611196D01*
X38923252Y20630089D01*
X38889229Y20692399D01*
X38887428Y20735632D01*
X38887885Y20739100D01*
X38868828Y20883854D01*
X38812955Y21018742D01*
X38724074Y21134574D01*
X38724072Y21134576D01*
X38724071Y21134577D01*
X38608249Y21223451D01*
X38608241Y21223456D01*
X38473352Y21279329D01*
X38328600Y21298385D01*
X38183847Y21279329D01*
X38116896Y21251596D01*
X38048958Y21223455D01*
X38048957Y21223454D01*
X38048956Y21223454D01*
X37933126Y21134574D01*
X37844246Y21018744D01*
X37844243Y21018739D01*
X37812638Y20942438D01*
X37768089Y20887158D01*
X37700726Y20864738D01*
X37631935Y20882297D01*
X37583557Y20934260D01*
X37579827Y20942425D01*
X37542955Y21031442D01*
X37454074Y21147274D01*
X37454072Y21147276D01*
X37454071Y21147277D01*
X37338249Y21236151D01*
X37338241Y21236156D01*
X37203352Y21292029D01*
X37058600Y21311085D01*
X36913847Y21292029D01*
X36846402Y21264092D01*
X36778958Y21236155D01*
X36778957Y21236154D01*
X36778956Y21236154D01*
X36663126Y21147274D01*
X36574246Y21031444D01*
X36574245Y21031442D01*
X36565717Y21010854D01*
X36518371Y20896553D01*
X36499315Y20751801D01*
X36499315Y20751800D01*
X36518371Y20607048D01*
X36574244Y20472159D01*
X36574249Y20472151D01*
X36663125Y20356326D01*
X36724705Y20309074D01*
X36778957Y20267445D01*
X36913846Y20211572D01*
X37044198Y20194412D01*
X37109123Y20165690D01*
X37148215Y20106425D01*
X37152672Y20053045D01*
X37134315Y19913602D01*
X37134315Y19913600D01*
X37153371Y19768848D01*
X37209244Y19633959D01*
X37209249Y19633951D01*
X37298125Y19518126D01*
X37385127Y19451367D01*
X37426994Y19394029D01*
X37431216Y19323158D01*
X37396452Y19261255D01*
X37385127Y19251443D01*
X37323528Y19204177D01*
X37234646Y19088344D01*
X37234645Y19088342D01*
X37228608Y19073767D01*
X37178771Y18953453D01*
X37159715Y18808701D01*
X37159715Y18808700D01*
X37178771Y18663948D01*
X37234644Y18529059D01*
X37234649Y18529051D01*
X37308542Y18432753D01*
X37323526Y18413226D01*
X37342343Y18398787D01*
X37376852Y18372307D01*
X37418719Y18314969D01*
X37422940Y18244098D01*
X37388175Y18182195D01*
X37376851Y18172383D01*
X37298128Y18111977D01*
X37209246Y17996144D01*
X37209245Y17996142D01*
X37196595Y17965602D01*
X37153371Y17861253D01*
X37134315Y17716502D01*
X37134315Y17716496D01*
X37140381Y17670411D01*
X37129440Y17600263D01*
X37124581Y17590973D01*
X37119602Y17582349D01*
X37118562Y17579838D01*
X37118316Y17579323D01*
X37117615Y17577571D01*
X37117437Y17577023D01*
X37116466Y17574507D01*
X37107173Y17536111D01*
X37106417Y17533145D01*
X37096199Y17495007D01*
X37095847Y17492330D01*
X37095742Y17491769D01*
X37095516Y17489871D01*
X37095486Y17489296D01*
X37095200Y17486624D01*
X37096163Y17447146D01*
X37096200Y17444074D01*
X37096200Y14659731D01*
X37076198Y14591610D01*
X37059299Y14570641D01*
X36822347Y14333688D01*
X36784303Y14295645D01*
X30718719Y8242203D01*
X30578049Y8101815D01*
X30515703Y8067853D01*
X30489043Y8065000D01*
X27347031Y8065000D01*
X27278910Y8085002D01*
X27257936Y8101905D01*
X26976634Y8383207D01*
X26942608Y8445519D01*
X26947673Y8516334D01*
X26990220Y8573170D01*
X27017505Y8588708D01*
X27127443Y8634245D01*
X27212468Y8699488D01*
X27278684Y8725087D01*
X27348233Y8710823D01*
X27389130Y8676230D01*
X27392126Y8672326D01*
X27507602Y8583717D01*
X27507957Y8583445D01*
X27642846Y8527572D01*
X27787600Y8508515D01*
X27932354Y8527572D01*
X28067243Y8583445D01*
X28183074Y8672326D01*
X28271955Y8788157D01*
X28327828Y8923046D01*
X28346885Y9067800D01*
X28327828Y9212554D01*
X28271955Y9347442D01*
X28183074Y9463274D01*
X28183072Y9463276D01*
X28183071Y9463277D01*
X28067249Y9552151D01*
X28067241Y9552156D01*
X27932352Y9608029D01*
X27787600Y9627085D01*
X27642847Y9608029D01*
X27608656Y9593866D01*
X27507958Y9552155D01*
X27507957Y9552154D01*
X27507952Y9552151D01*
X27422933Y9486914D01*
X27356713Y9461314D01*
X27287164Y9475579D01*
X27246268Y9510172D01*
X27243272Y9514076D01*
X27127449Y9602951D01*
X27127441Y9602956D01*
X26992552Y9658829D01*
X26876749Y9674074D01*
X26811822Y9702796D01*
X26772730Y9762062D01*
X26768274Y9782545D01*
X26753028Y9898354D01*
X26697155Y10033242D01*
X26608274Y10149074D01*
X26608272Y10149076D01*
X26608271Y10149077D01*
X26492449Y10237951D01*
X26492441Y10237956D01*
X26357552Y10293829D01*
X26212800Y10312885D01*
X26211632Y10312885D01*
X26210682Y10313164D01*
X26204612Y10313963D01*
X26204736Y10314910D01*
X26143511Y10332887D01*
X26097018Y10386543D01*
X26088434Y10443842D01*
X26086285Y10443842D01*
X26086285Y10452101D01*
X26067228Y10596853D01*
X26051107Y10635772D01*
X26011355Y10731742D01*
X25922474Y10847574D01*
X25922472Y10847576D01*
X25922471Y10847577D01*
X25806649Y10936451D01*
X25806641Y10936456D01*
X25671752Y10992329D01*
X25535206Y11010305D01*
X25470278Y11039028D01*
X25431187Y11098293D01*
X25426730Y11118781D01*
X25419428Y11174245D01*
X25406828Y11269954D01*
X25350955Y11404842D01*
X25262074Y11520674D01*
X25262072Y11520676D01*
X25262071Y11520677D01*
X25195660Y11571636D01*
X25153793Y11628974D01*
X25149571Y11699845D01*
X25184335Y11761748D01*
X25224140Y11788004D01*
X25336743Y11834645D01*
X25452574Y11923526D01*
X25541455Y12039357D01*
X25597328Y12174246D01*
X25616385Y12319000D01*
X25610708Y12362118D01*
X25597328Y12463753D01*
X25597328Y12463754D01*
X25541455Y12598642D01*
X25452574Y12714474D01*
X25452572Y12714476D01*
X25452571Y12714477D01*
X25336749Y12803351D01*
X25336741Y12803356D01*
X25201852Y12859229D01*
X25057100Y12878285D01*
X24912347Y12859229D01*
X24881543Y12846469D01*
X24777458Y12803355D01*
X24777457Y12803354D01*
X24777456Y12803354D01*
X24661623Y12714472D01*
X24572362Y12598144D01*
X24515024Y12556277D01*
X24444153Y12552055D01*
X24382250Y12586819D01*
X24348969Y12649532D01*
X24346400Y12674848D01*
X24346400Y14091408D01*
X24335115Y14133524D01*
X24322998Y14178747D01*
X24288925Y14237763D01*
X24277788Y14257053D01*
X24277785Y14257056D01*
X24277782Y14257060D01*
X20657859Y17876983D01*
X20657852Y17876989D01*
X20626295Y17895208D01*
X20579548Y17922198D01*
X20579545Y17922199D01*
X20556144Y17928470D01*
X20556144Y17928471D01*
X20492213Y17945600D01*
X20492209Y17945600D01*
X18734768Y17945600D01*
X18666647Y17965602D01*
X18634805Y17994897D01*
X18632673Y17997676D01*
X18516849Y18086551D01*
X18516841Y18086556D01*
X18381952Y18142429D01*
X18237201Y18161485D01*
X18237197Y18161485D01*
X18233725Y18161028D01*
X18230795Y18161485D01*
X18228942Y18161485D01*
X18228942Y18161774D01*
X18163577Y18171968D01*
X18128186Y18196855D01*
X16128305Y20196736D01*
X16094279Y20259048D01*
X16091400Y20285831D01*
X16091400Y22326601D01*
X17258815Y22326601D01*
X17258815Y22326600D01*
X17277871Y22181848D01*
X17333744Y22046959D01*
X17333749Y22046951D01*
X17422625Y21931126D01*
X17496965Y21874083D01*
X17538457Y21842245D01*
X17673346Y21786372D01*
X17818100Y21767315D01*
X17821565Y21767772D01*
X17824492Y21767315D01*
X17826359Y21767315D01*
X17826359Y21767024D01*
X17891710Y21756838D01*
X17927113Y21731946D01*
X22826940Y16832118D01*
X22826945Y16832114D01*
X22826947Y16832112D01*
X22826948Y16832111D01*
X22826950Y16832110D01*
X22881990Y16800333D01*
X22905252Y16786902D01*
X22992591Y16763500D01*
X23083010Y16763500D01*
X23137132Y16763500D01*
X23205253Y16743498D01*
X23237095Y16714203D01*
X23239226Y16711425D01*
X23355050Y16622550D01*
X23355057Y16622545D01*
X23489946Y16566672D01*
X23634700Y16547615D01*
X23779454Y16566672D01*
X23914343Y16622545D01*
X24030174Y16711426D01*
X24119055Y16827257D01*
X24174928Y16962146D01*
X24193985Y17106900D01*
X24192543Y17117850D01*
X24177496Y17232145D01*
X24174928Y17251654D01*
X24119055Y17386542D01*
X24030174Y17502374D01*
X24030172Y17502376D01*
X24030171Y17502377D01*
X23914349Y17591251D01*
X23914341Y17591256D01*
X23779452Y17647129D01*
X23634700Y17666185D01*
X23489947Y17647129D01*
X23444950Y17628490D01*
X23355058Y17591255D01*
X23355057Y17591254D01*
X23355056Y17591254D01*
X23333230Y17574506D01*
X23263935Y17521335D01*
X23197717Y17495735D01*
X23128168Y17510000D01*
X23098138Y17532203D01*
X19764240Y20866101D01*
X22923015Y20866101D01*
X22923015Y20866100D01*
X22942071Y20721348D01*
X22997944Y20586459D01*
X22997949Y20586451D01*
X23086825Y20470626D01*
X23181533Y20397954D01*
X23202657Y20381745D01*
X23337546Y20325872D01*
X23482300Y20306815D01*
X23627054Y20325872D01*
X23761943Y20381745D01*
X23877774Y20470626D01*
X23966655Y20586457D01*
X24022528Y20721346D01*
X24041585Y20866100D01*
X24022528Y21010854D01*
X23966655Y21145742D01*
X23877774Y21261574D01*
X23877772Y21261576D01*
X23877771Y21261577D01*
X23761949Y21350451D01*
X23761941Y21350456D01*
X23627052Y21406329D01*
X23482300Y21425385D01*
X23337547Y21406329D01*
X23270102Y21378392D01*
X23202658Y21350455D01*
X23202657Y21350454D01*
X23202656Y21350454D01*
X23086826Y21261574D01*
X22997946Y21145744D01*
X22997945Y21145742D01*
X22982814Y21109212D01*
X22942071Y21010853D01*
X22923015Y20866101D01*
X19764240Y20866101D01*
X18412754Y22217587D01*
X18378728Y22279899D01*
X18376928Y22323132D01*
X18377385Y22326600D01*
X18358328Y22471354D01*
X18302455Y22606242D01*
X18213574Y22722074D01*
X18213572Y22722076D01*
X18213571Y22722077D01*
X18097749Y22810951D01*
X18097741Y22810956D01*
X17962852Y22866829D01*
X17818100Y22885885D01*
X17673347Y22866829D01*
X17605902Y22838892D01*
X17538458Y22810955D01*
X17538457Y22810954D01*
X17538456Y22810954D01*
X17422626Y22722074D01*
X17333746Y22606244D01*
X17333745Y22606242D01*
X17305808Y22538798D01*
X17277871Y22471353D01*
X17258815Y22326601D01*
X16091400Y22326601D01*
X16091400Y23515756D01*
X16111402Y23583877D01*
X16128300Y23604846D01*
X17485628Y24962175D01*
X17547938Y24996198D01*
X17618753Y24991134D01*
X17627457Y24987307D01*
X17630733Y24985951D01*
X17630742Y24985946D01*
X17798121Y24931561D01*
X17971947Y24904030D01*
X17971950Y24904030D01*
X18147938Y24904030D01*
X18147941Y24904030D01*
X18321767Y24931561D01*
X18489146Y24985946D01*
X18645956Y25065846D01*
X18788338Y25169291D01*
X19128309Y25509263D01*
X19231754Y25651644D01*
X19311654Y25808454D01*
X19366039Y25975834D01*
X19393570Y26149660D01*
X19393570Y26325653D01*
X19366039Y26499479D01*
X19311654Y26666858D01*
X19311652Y26666861D01*
X19311563Y26667077D01*
X19311553Y26667169D01*
X19310124Y26671567D01*
X19311047Y26671868D01*
X19303967Y26737666D01*
X19335740Y26801156D01*
X19396795Y26837389D01*
X19467746Y26834862D01*
X19485160Y26827577D01*
X19510342Y26814746D01*
X19510344Y26814746D01*
X19510345Y26814745D01*
X19566135Y26796618D01*
X19677721Y26760361D01*
X19851547Y26732830D01*
X19851550Y26732830D01*
X20027538Y26732830D01*
X20027541Y26732830D01*
X20201367Y26760361D01*
X20368746Y26814746D01*
X20525556Y26894646D01*
X20667938Y26998091D01*
X21007909Y27338063D01*
X21111354Y27480444D01*
X21191254Y27637254D01*
X21245639Y27804634D01*
X21273170Y27978460D01*
X21273170Y28154453D01*
X21272119Y28161090D01*
X21281217Y28231501D01*
X21326938Y28285816D01*
X21394766Y28306789D01*
X21463166Y28287763D01*
X21485662Y28269897D01*
X22154562Y27600997D01*
X22188588Y27538685D01*
X22183523Y27467870D01*
X22140976Y27411034D01*
X22074456Y27386223D01*
X22045764Y27387452D01*
X22039119Y27388504D01*
X21863126Y27388504D01*
X21689300Y27360973D01*
X21689294Y27360972D01*
X21521921Y27306589D01*
X21521914Y27306586D01*
X21365112Y27226690D01*
X21222730Y27123245D01*
X20882755Y26783271D01*
X20779312Y26640890D01*
X20779305Y26640879D01*
X20699414Y26484086D01*
X20699411Y26484078D01*
X20645028Y26316707D01*
X20645027Y26316702D01*
X20645027Y26316701D01*
X20617496Y26142875D01*
X20617496Y25966881D01*
X20634868Y25857200D01*
X20645028Y25793050D01*
X20699412Y25625674D01*
X20699507Y25625446D01*
X20699517Y25625353D01*
X20700942Y25620967D01*
X20700020Y25620668D01*
X20707096Y25554856D01*
X20675316Y25491369D01*
X20614257Y25455143D01*
X20543306Y25457677D01*
X20525895Y25464963D01*
X20500730Y25477786D01*
X20500721Y25477789D01*
X20333350Y25532172D01*
X20333346Y25532173D01*
X20333345Y25532173D01*
X20159519Y25559704D01*
X19983526Y25559704D01*
X19809700Y25532173D01*
X19809694Y25532172D01*
X19642321Y25477789D01*
X19642314Y25477786D01*
X19485512Y25397890D01*
X19343130Y25294445D01*
X19003155Y24954471D01*
X18899712Y24812090D01*
X18899705Y24812079D01*
X18819814Y24655286D01*
X18819811Y24655278D01*
X18765428Y24487907D01*
X18765427Y24487902D01*
X18765427Y24487901D01*
X18737896Y24314075D01*
X18737896Y24138081D01*
X18755632Y24026101D01*
X18765428Y23964250D01*
X18819811Y23796879D01*
X18819814Y23796871D01*
X18899705Y23640078D01*
X18899709Y23640072D01*
X18899712Y23640066D01*
X19003157Y23497684D01*
X19003163Y23497678D01*
X19003167Y23497673D01*
X19127590Y23373250D01*
X19127595Y23373246D01*
X19127602Y23373239D01*
X19269984Y23269794D01*
X19269991Y23269790D01*
X19269995Y23269788D01*
X19426788Y23189897D01*
X19426794Y23189894D01*
X19594173Y23135509D01*
X19767999Y23107978D01*
X19768002Y23107978D01*
X19943990Y23107978D01*
X19943993Y23107978D01*
X20117819Y23135509D01*
X20285198Y23189894D01*
X20442008Y23269794D01*
X20584390Y23373239D01*
X20924361Y23713211D01*
X21027806Y23855592D01*
X21061462Y23921646D01*
X21110210Y23973259D01*
X21173728Y23990441D01*
X24644344Y23990441D01*
X24712465Y23970439D01*
X24733439Y23953536D01*
X25480093Y23206882D01*
X25514119Y23144570D01*
X25516998Y23117787D01*
X25516998Y18514131D01*
X25514330Y18493865D01*
X25514878Y18493792D01*
X25513801Y18485613D01*
X25513800Y18485609D01*
X25513800Y15397991D01*
X25523590Y15361454D01*
X25523591Y15361451D01*
X25537199Y15310660D01*
X25537202Y15310652D01*
X25582409Y15232351D01*
X25582417Y15232341D01*
X29021745Y11793014D01*
X29055771Y11730702D01*
X29057572Y11687475D01*
X29057115Y11684004D01*
X29057115Y11683999D01*
X29076171Y11539248D01*
X29132044Y11404359D01*
X29132049Y11404351D01*
X29220925Y11288526D01*
X29324505Y11209046D01*
X29336757Y11199645D01*
X29471646Y11143772D01*
X29616400Y11124715D01*
X29761154Y11143772D01*
X29896043Y11199645D01*
X30011874Y11288526D01*
X30100755Y11404357D01*
X30156628Y11539246D01*
X30175685Y11684000D01*
X30175684Y11684004D01*
X30161333Y11793014D01*
X30156628Y11828754D01*
X30100755Y11963642D01*
X30011874Y12079474D01*
X30011872Y12079475D01*
X30006846Y12086026D01*
X30008498Y12087295D01*
X29979818Y12139817D01*
X29984883Y12210632D01*
X30007865Y12246393D01*
X30006847Y12247174D01*
X30093151Y12359648D01*
X30100755Y12369557D01*
X30156628Y12504446D01*
X30175685Y12649200D01*
X30172308Y12674848D01*
X30156628Y12793953D01*
X30156628Y12793954D01*
X30100755Y12928842D01*
X30011874Y13044674D01*
X30011872Y13044675D01*
X30006846Y13051226D01*
X30008498Y13052495D01*
X29979818Y13105017D01*
X29984883Y13175832D01*
X30007865Y13211593D01*
X30006847Y13212374D01*
X30100750Y13334751D01*
X30100755Y13334757D01*
X30156628Y13469646D01*
X30175685Y13614400D01*
X30156628Y13759154D01*
X30100755Y13894042D01*
X30011874Y14009874D01*
X30011872Y14009875D01*
X30006846Y14016426D01*
X30008498Y14017695D01*
X29979818Y14070217D01*
X29984883Y14141032D01*
X30007865Y14176793D01*
X30006847Y14177574D01*
X30076052Y14267764D01*
X30100755Y14299957D01*
X30156628Y14434846D01*
X30175685Y14579600D01*
X30173779Y14594074D01*
X30156628Y14724353D01*
X30156628Y14724354D01*
X30100755Y14859242D01*
X30023366Y14960097D01*
X29997766Y15026316D01*
X30012031Y15095865D01*
X30023362Y15113498D01*
X30100755Y15214357D01*
X30156628Y15349246D01*
X30175685Y15494000D01*
X30156628Y15638754D01*
X30100755Y15773642D01*
X30011874Y15889474D01*
X30011872Y15889475D01*
X30006846Y15896026D01*
X30008498Y15897295D01*
X29979818Y15949817D01*
X29984883Y16020632D01*
X30007865Y16056393D01*
X30006847Y16057174D01*
X30100750Y16179551D01*
X30100755Y16179557D01*
X30156628Y16314446D01*
X30175685Y16459200D01*
X30173027Y16479386D01*
X30156628Y16603953D01*
X30148925Y16622550D01*
X30100755Y16738842D01*
X30011874Y16854674D01*
X30011872Y16854675D01*
X30006846Y16861226D01*
X30008498Y16862495D01*
X29979818Y16915017D01*
X29984883Y16985832D01*
X30007865Y17021593D01*
X30006847Y17022374D01*
X30079419Y17116952D01*
X30100755Y17144757D01*
X30156628Y17279646D01*
X30175685Y17424400D01*
X30172690Y17447146D01*
X30158623Y17553999D01*
X30156628Y17569154D01*
X30100755Y17704042D01*
X30042856Y17779497D01*
X30017256Y17845716D01*
X30031520Y17915265D01*
X30042851Y17932896D01*
X30100755Y18008357D01*
X30122292Y18060353D01*
X30166839Y18115632D01*
X30234203Y18138053D01*
X30302994Y18120495D01*
X30351372Y18068533D01*
X30355101Y18060367D01*
X30372287Y18018877D01*
X30376644Y18008359D01*
X30376649Y18008351D01*
X30465524Y17892527D01*
X30468303Y17890395D01*
X30470054Y17887997D01*
X30471365Y17886686D01*
X30471160Y17886482D01*
X30510171Y17833058D01*
X30517600Y17790432D01*
X30517600Y13518391D01*
X30527390Y13481854D01*
X30527391Y13481851D01*
X30540999Y13431060D01*
X30541002Y13431052D01*
X30586209Y13352751D01*
X30586211Y13352749D01*
X30586212Y13352747D01*
X31484011Y12454948D01*
X31518035Y12392637D01*
X31520915Y12365854D01*
X31520915Y12362118D01*
X31539971Y12217366D01*
X31595844Y12082477D01*
X31595849Y12082469D01*
X31684723Y11966647D01*
X31684724Y11966646D01*
X31684726Y11966644D01*
X31714706Y11943639D01*
X31756572Y11886303D01*
X31760794Y11815432D01*
X31726030Y11753529D01*
X31663318Y11720248D01*
X31621555Y11718756D01*
X31496001Y11735285D01*
X31496000Y11735285D01*
X31351247Y11716229D01*
X31311694Y11699845D01*
X31216358Y11660355D01*
X31216357Y11660354D01*
X31216356Y11660354D01*
X31100526Y11571474D01*
X31011646Y11455644D01*
X31011645Y11455642D01*
X30990604Y11404844D01*
X30955771Y11320753D01*
X30936715Y11176001D01*
X30936715Y11176000D01*
X30955771Y11031248D01*
X31011644Y10896359D01*
X31011649Y10896351D01*
X31100525Y10780526D01*
X31206662Y10699084D01*
X31216357Y10691645D01*
X31351246Y10635772D01*
X31496000Y10616715D01*
X31640754Y10635772D01*
X31775643Y10691645D01*
X31891474Y10780526D01*
X31980355Y10896357D01*
X32036228Y11031246D01*
X32055285Y11176000D01*
X32052171Y11199650D01*
X32036228Y11320753D01*
X32036228Y11320754D01*
X31980355Y11455642D01*
X31891474Y11571474D01*
X31861492Y11594480D01*
X31819627Y11651816D01*
X31815405Y11722687D01*
X31850169Y11784590D01*
X31912882Y11817872D01*
X31954641Y11819363D01*
X32080200Y11802833D01*
X32224954Y11821890D01*
X32359843Y11877763D01*
X32475674Y11966644D01*
X32564555Y12082475D01*
X32620428Y12217364D01*
X32639485Y12362118D01*
X32638506Y12369551D01*
X32626105Y12463753D01*
X32620428Y12506872D01*
X32564555Y12641760D01*
X32475674Y12757592D01*
X32475672Y12757594D01*
X32475671Y12757595D01*
X32359849Y12846469D01*
X32359841Y12846474D01*
X32224952Y12902347D01*
X32080201Y12921403D01*
X32080197Y12921403D01*
X32061068Y12918885D01*
X31990920Y12929825D01*
X31955529Y12954712D01*
X31241305Y13668936D01*
X31207279Y13731248D01*
X31204400Y13758031D01*
X31204400Y17790432D01*
X31224402Y17858553D01*
X31253697Y17890395D01*
X31256475Y17892527D01*
X31299512Y17948614D01*
X31345355Y18008357D01*
X31401228Y18143246D01*
X31420285Y18288000D01*
X31401228Y18432754D01*
X31345355Y18567642D01*
X31256474Y18683474D01*
X31256472Y18683476D01*
X31256471Y18683477D01*
X31140649Y18772351D01*
X31140641Y18772356D01*
X31005752Y18828229D01*
X30861000Y18847285D01*
X30716247Y18828229D01*
X30648802Y18800292D01*
X30581358Y18772355D01*
X30581357Y18772354D01*
X30581356Y18772354D01*
X30465526Y18683474D01*
X30376646Y18567644D01*
X30376642Y18567637D01*
X30355108Y18515649D01*
X30310560Y18460368D01*
X30243196Y18437948D01*
X30174405Y18455507D01*
X30126027Y18507469D01*
X30122292Y18515649D01*
X30100757Y18567637D01*
X30100755Y18567642D01*
X30011874Y18683474D01*
X30011872Y18683476D01*
X30011871Y18683477D01*
X29896049Y18772351D01*
X29896041Y18772356D01*
X29761152Y18828229D01*
X29616401Y18847285D01*
X29616397Y18847285D01*
X29612925Y18846828D01*
X29609995Y18847285D01*
X29608142Y18847285D01*
X29608142Y18847574D01*
X29542777Y18857768D01*
X29507386Y18882655D01*
X28891805Y19498236D01*
X28857779Y19560548D01*
X28855322Y19583401D01*
X34162515Y19583401D01*
X34162515Y19583400D01*
X34181571Y19438648D01*
X34237444Y19303759D01*
X34237449Y19303751D01*
X34326325Y19187926D01*
X34439218Y19101300D01*
X34442157Y19099045D01*
X34577046Y19043172D01*
X34721800Y19024115D01*
X34866554Y19043172D01*
X35001443Y19099045D01*
X35117274Y19187926D01*
X35206155Y19303757D01*
X35262028Y19438646D01*
X35281085Y19583400D01*
X35280567Y19587331D01*
X35271157Y19658808D01*
X35262028Y19728154D01*
X35206155Y19863042D01*
X35117274Y19978874D01*
X35117272Y19978876D01*
X35117271Y19978877D01*
X35001449Y20067751D01*
X35001441Y20067756D01*
X34866552Y20123629D01*
X34721800Y20142685D01*
X34577047Y20123629D01*
X34517717Y20099053D01*
X34442158Y20067755D01*
X34442157Y20067754D01*
X34442156Y20067754D01*
X34326326Y19978874D01*
X34237446Y19863044D01*
X34237445Y19863042D01*
X34212847Y19803657D01*
X34181571Y19728153D01*
X34162515Y19583401D01*
X28855322Y19583401D01*
X28854900Y19587331D01*
X28854900Y20701001D01*
X30936715Y20701001D01*
X30936715Y20701000D01*
X30955771Y20556248D01*
X31011644Y20421359D01*
X31011649Y20421351D01*
X31100525Y20305526D01*
X31216272Y20216710D01*
X31216357Y20216645D01*
X31351246Y20160772D01*
X31496000Y20141715D01*
X31640754Y20160772D01*
X31775643Y20216645D01*
X31891474Y20305526D01*
X31980355Y20421357D01*
X32036228Y20556246D01*
X32055285Y20701000D01*
X32052606Y20721346D01*
X32036228Y20845753D01*
X32036228Y20845754D01*
X31980355Y20980642D01*
X31891474Y21096474D01*
X31891472Y21096476D01*
X31891471Y21096477D01*
X31775649Y21185351D01*
X31775641Y21185356D01*
X31640752Y21241229D01*
X31496000Y21260285D01*
X31351247Y21241229D01*
X31286775Y21214523D01*
X31216358Y21185355D01*
X31216357Y21185354D01*
X31216356Y21185354D01*
X31100526Y21096474D01*
X31011646Y20980644D01*
X31011645Y20980642D01*
X30994847Y20940088D01*
X30955771Y20845753D01*
X30936715Y20701001D01*
X28854900Y20701001D01*
X28854900Y21414314D01*
X28874902Y21482435D01*
X28928558Y21528928D01*
X28980529Y21540313D01*
X41617900Y21577300D01*
X41617900Y21907501D01*
X43433515Y21907501D01*
X43433515Y21907500D01*
X43452571Y21762748D01*
X43508444Y21627859D01*
X43508449Y21627851D01*
X43597325Y21512026D01*
X43713150Y21423150D01*
X43713157Y21423145D01*
X43848046Y21367272D01*
X43992800Y21348215D01*
X44137554Y21367272D01*
X44272443Y21423145D01*
X44388274Y21512026D01*
X44477155Y21627857D01*
X44533028Y21762746D01*
X44552085Y21907500D01*
X44549954Y21923683D01*
X44533028Y22052253D01*
X44514182Y22097751D01*
X44477155Y22187142D01*
X44388274Y22302974D01*
X44388272Y22302976D01*
X44388271Y22302977D01*
X44272449Y22391851D01*
X44272441Y22391856D01*
X44137552Y22447729D01*
X43992800Y22466785D01*
X43848047Y22447729D01*
X43793811Y22425263D01*
X43713158Y22391855D01*
X43713157Y22391854D01*
X43713156Y22391854D01*
X43597326Y22302974D01*
X43508446Y22187144D01*
X43508445Y22187142D01*
X43480508Y22119698D01*
X43452571Y22052253D01*
X43433515Y21907501D01*
X41617900Y21907501D01*
X41617900Y23177501D01*
X44398715Y23177501D01*
X44398715Y23177500D01*
X44417771Y23032748D01*
X44473644Y22897859D01*
X44473649Y22897851D01*
X44562525Y22782026D01*
X44640652Y22722077D01*
X44678357Y22693145D01*
X44813246Y22637272D01*
X44958000Y22618215D01*
X45102754Y22637272D01*
X45237643Y22693145D01*
X45353474Y22782026D01*
X45442355Y22897857D01*
X45498228Y23032746D01*
X45517285Y23177500D01*
X45516950Y23180043D01*
X45517285Y23182190D01*
X45517285Y23185759D01*
X45517842Y23185759D01*
X45527888Y23250190D01*
X45552910Y23285718D01*
X45581741Y23314463D01*
X45644104Y23348395D01*
X45714912Y23343225D01*
X45771684Y23300593D01*
X45795625Y23241681D01*
X45814771Y23096248D01*
X45870644Y22961359D01*
X45870649Y22961351D01*
X45959525Y22845526D01*
X46075350Y22756650D01*
X46075357Y22756645D01*
X46210246Y22700772D01*
X46355000Y22681715D01*
X46499754Y22700772D01*
X46634643Y22756645D01*
X46750474Y22845526D01*
X46839355Y22961357D01*
X46895228Y23096246D01*
X46914285Y23241000D01*
X46914184Y23241764D01*
X46895228Y23385753D01*
X46895228Y23385754D01*
X46839355Y23520642D01*
X46750474Y23636474D01*
X46750472Y23636476D01*
X46750471Y23636477D01*
X46634649Y23725351D01*
X46634641Y23725356D01*
X46499752Y23781229D01*
X46356170Y23800131D01*
X46291243Y23828853D01*
X46252151Y23888118D01*
X46251392Y23951870D01*
X51713900Y23951870D01*
X51713900Y22174537D01*
X51713901Y22174527D01*
X51728665Y22100300D01*
X51784916Y22016116D01*
X51869097Y21959867D01*
X51869099Y21959866D01*
X51943333Y21945100D01*
X54025466Y21945101D01*
X54025469Y21945102D01*
X54025473Y21945102D01*
X54074726Y21954899D01*
X54099701Y21959866D01*
X54183884Y22016116D01*
X54240134Y22100299D01*
X54254900Y22174533D01*
X54254899Y23951866D01*
X54254898Y23951870D01*
X54254898Y23951874D01*
X54240134Y24026101D01*
X54183883Y24110285D01*
X54099702Y24166534D01*
X54025467Y24181300D01*
X51943336Y24181300D01*
X51943326Y24181299D01*
X51869099Y24166535D01*
X51784915Y24110284D01*
X51728666Y24026103D01*
X51713900Y23951870D01*
X46251392Y23951870D01*
X46251306Y23959110D01*
X46283652Y24014280D01*
X47851855Y25577801D01*
X54152315Y25577801D01*
X54152315Y25577800D01*
X54171371Y25433048D01*
X54227244Y25298159D01*
X54227249Y25298151D01*
X54316125Y25182326D01*
X54431950Y25093450D01*
X54431957Y25093445D01*
X54566846Y25037572D01*
X54711600Y25018515D01*
X54856354Y25037572D01*
X54991243Y25093445D01*
X55107074Y25182326D01*
X55195955Y25298157D01*
X55251828Y25433046D01*
X55270885Y25577800D01*
X55269567Y25587808D01*
X55251828Y25722553D01*
X55251828Y25722554D01*
X55195955Y25857442D01*
X55107074Y25973274D01*
X55107072Y25973276D01*
X55107071Y25973277D01*
X54991249Y26062151D01*
X54991241Y26062156D01*
X54856352Y26118029D01*
X54711600Y26137085D01*
X54566847Y26118029D01*
X54501243Y26090854D01*
X54431958Y26062155D01*
X54431957Y26062154D01*
X54431956Y26062154D01*
X54316126Y25973274D01*
X54227246Y25857444D01*
X54227245Y25857442D01*
X54206954Y25808456D01*
X54171371Y25722553D01*
X54152315Y25577801D01*
X47851855Y25577801D01*
X49225782Y26947626D01*
X49317559Y27039129D01*
X49379922Y27073060D01*
X49406521Y27075900D01*
X54607732Y27075900D01*
X54675853Y27055898D01*
X54707695Y27026603D01*
X54709826Y27023825D01*
X54825650Y26934950D01*
X54825657Y26934945D01*
X54960546Y26879072D01*
X55105300Y26860015D01*
X55250054Y26879072D01*
X55384943Y26934945D01*
X55500774Y27023826D01*
X55589655Y27139657D01*
X55645528Y27274546D01*
X55664585Y27419300D01*
X55645528Y27564054D01*
X55589655Y27698942D01*
X55500774Y27814774D01*
X55500772Y27814776D01*
X55500771Y27814777D01*
X55384949Y27903651D01*
X55384941Y27903656D01*
X55250052Y27959529D01*
X55105300Y27978585D01*
X54960547Y27959529D01*
X54910811Y27938927D01*
X54825658Y27903655D01*
X54825657Y27903654D01*
X54825656Y27903654D01*
X54709824Y27814773D01*
X54707695Y27811997D01*
X54705296Y27810246D01*
X54703986Y27808935D01*
X54703781Y27809140D01*
X54650358Y27770129D01*
X54607732Y27762700D01*
X49212010Y27762700D01*
X49209246Y27762705D01*
X49167804Y27762766D01*
X49167803Y27762766D01*
X49167789Y27762766D01*
X49167299Y27762702D01*
X49167292Y27762700D01*
X49167291Y27762700D01*
X49123328Y27750921D01*
X49080411Y27739490D01*
X49079971Y27739308D01*
X49079954Y27739299D01*
X49079953Y27739298D01*
X49041071Y27716850D01*
X49015878Y27702356D01*
X49002037Y27694391D01*
X49001663Y27694105D01*
X48970364Y27662805D01*
X48970232Y27662673D01*
X45067808Y23771899D01*
X45005445Y23737968D01*
X44962402Y23736206D01*
X44958003Y23736785D01*
X44957999Y23736785D01*
X44813247Y23717729D01*
X44745802Y23689792D01*
X44678358Y23661855D01*
X44678357Y23661854D01*
X44678356Y23661854D01*
X44562526Y23572974D01*
X44473646Y23457144D01*
X44473645Y23457142D01*
X44464079Y23434048D01*
X44417771Y23322253D01*
X44398715Y23177501D01*
X41617900Y23177501D01*
X41617900Y24551387D01*
X41637902Y24619508D01*
X41691558Y24666001D01*
X41742603Y24677380D01*
X44094400Y24701500D01*
X44082119Y27863801D01*
X45694115Y27863801D01*
X45694115Y27863800D01*
X45713171Y27719048D01*
X45769044Y27584159D01*
X45769049Y27584151D01*
X45857925Y27468326D01*
X45973750Y27379450D01*
X45973757Y27379445D01*
X46108646Y27323572D01*
X46253400Y27304515D01*
X46398154Y27323572D01*
X46533043Y27379445D01*
X46648874Y27468326D01*
X46737755Y27584157D01*
X46793628Y27719046D01*
X46812685Y27863800D01*
X46793628Y28008554D01*
X46737755Y28143442D01*
X46648874Y28259274D01*
X46648872Y28259276D01*
X46648871Y28259277D01*
X46533049Y28348151D01*
X46533041Y28348156D01*
X46398152Y28404029D01*
X46253400Y28423085D01*
X46108647Y28404029D01*
X46041202Y28376092D01*
X45973758Y28348155D01*
X45973757Y28348154D01*
X45973756Y28348154D01*
X45857926Y28259274D01*
X45769046Y28143444D01*
X45769045Y28143442D01*
X45756336Y28112759D01*
X45713171Y28008553D01*
X45694115Y27863801D01*
X44082119Y27863801D01*
X44077968Y28932596D01*
X58453500Y28932596D01*
X58453500Y28794605D01*
X58460107Y28761392D01*
X58480420Y28659272D01*
X58533225Y28531789D01*
X58579103Y28463128D01*
X58609885Y28417059D01*
X58609890Y28417053D01*
X58707452Y28319491D01*
X58707458Y28319486D01*
X58822189Y28242825D01*
X58949672Y28190020D01*
X59085007Y28163100D01*
X59085008Y28163100D01*
X59222992Y28163100D01*
X59222993Y28163100D01*
X59358328Y28190020D01*
X59485811Y28242825D01*
X59600542Y28319486D01*
X59698114Y28417058D01*
X59774775Y28531789D01*
X59827580Y28659272D01*
X59854500Y28794607D01*
X59854500Y28932593D01*
X59827580Y29067928D01*
X59774775Y29195411D01*
X59698114Y29310142D01*
X59698109Y29310148D01*
X59600547Y29407710D01*
X59600541Y29407715D01*
X59562239Y29433307D01*
X59485811Y29484375D01*
X59384742Y29526239D01*
X59358331Y29537179D01*
X59358328Y29537180D01*
X59222995Y29564100D01*
X59222993Y29564100D01*
X59085007Y29564100D01*
X59085004Y29564100D01*
X58949671Y29537180D01*
X58949668Y29537179D01*
X58822189Y29484375D01*
X58707458Y29407715D01*
X58707452Y29407710D01*
X58609890Y29310148D01*
X58609885Y29310142D01*
X58533225Y29195411D01*
X58480421Y29067932D01*
X58480420Y29067929D01*
X58453500Y28932596D01*
X44077968Y28932596D01*
X44069203Y31189527D01*
X44088940Y31257722D01*
X44106102Y31279103D01*
X44627800Y31800801D01*
X45922715Y31800801D01*
X45922715Y31800800D01*
X45941771Y31656048D01*
X45997644Y31521159D01*
X45997649Y31521151D01*
X46086525Y31405326D01*
X46202350Y31316450D01*
X46202357Y31316445D01*
X46337246Y31260572D01*
X46482000Y31241515D01*
X46626754Y31260572D01*
X46761643Y31316445D01*
X46877474Y31405326D01*
X46966355Y31521157D01*
X47022228Y31656046D01*
X47041285Y31800800D01*
X47023934Y31932596D01*
X58453500Y31932596D01*
X58453500Y31794605D01*
X58477866Y31672112D01*
X58480420Y31659272D01*
X58533225Y31531789D01*
X58584447Y31455129D01*
X58609885Y31417059D01*
X58609890Y31417053D01*
X58707452Y31319491D01*
X58707458Y31319486D01*
X58822189Y31242825D01*
X58949672Y31190020D01*
X59085007Y31163100D01*
X59085008Y31163100D01*
X59222992Y31163100D01*
X59222993Y31163100D01*
X59358328Y31190020D01*
X59485811Y31242825D01*
X59600542Y31319486D01*
X59698114Y31417058D01*
X59774775Y31531789D01*
X59827580Y31659272D01*
X59854500Y31794607D01*
X59854500Y31932593D01*
X59827580Y32067928D01*
X59774775Y32195411D01*
X59698114Y32310142D01*
X59698109Y32310148D01*
X59600547Y32407710D01*
X59600541Y32407715D01*
X59540227Y32448015D01*
X59485811Y32484375D01*
X59405421Y32517674D01*
X59358331Y32537179D01*
X59358328Y32537180D01*
X59222995Y32564100D01*
X59222993Y32564100D01*
X59085007Y32564100D01*
X59085004Y32564100D01*
X58949671Y32537180D01*
X58949668Y32537179D01*
X58822189Y32484375D01*
X58707458Y32407715D01*
X58707452Y32407710D01*
X58609890Y32310148D01*
X58609885Y32310142D01*
X58533225Y32195411D01*
X58480421Y32067932D01*
X58480420Y32067929D01*
X58453500Y31932596D01*
X47023934Y31932596D01*
X47022228Y31945554D01*
X46966355Y32080442D01*
X46877474Y32196274D01*
X46877472Y32196276D01*
X46877471Y32196277D01*
X46761649Y32285151D01*
X46761641Y32285156D01*
X46626752Y32341029D01*
X46482000Y32360085D01*
X46337247Y32341029D01*
X46269802Y32313092D01*
X46202358Y32285155D01*
X46202357Y32285154D01*
X46202356Y32285154D01*
X46086526Y32196274D01*
X45997646Y32080444D01*
X45997645Y32080442D01*
X45969708Y32012998D01*
X45941771Y31945553D01*
X45922715Y31800801D01*
X44627800Y31800801D01*
X46532800Y33705801D01*
X52755315Y33705801D01*
X52755315Y33705800D01*
X52774371Y33561048D01*
X52830244Y33426159D01*
X52830249Y33426151D01*
X52919125Y33310326D01*
X53000200Y33248115D01*
X53034957Y33221445D01*
X53169846Y33165572D01*
X53314600Y33146515D01*
X53459354Y33165572D01*
X53594243Y33221445D01*
X53710074Y33310326D01*
X53798955Y33426157D01*
X53854828Y33561046D01*
X53873885Y33705800D01*
X53872484Y33716438D01*
X53860509Y33807401D01*
X56260515Y33807401D01*
X56260515Y33807400D01*
X56279571Y33662648D01*
X56335444Y33527759D01*
X56335449Y33527751D01*
X56424325Y33411926D01*
X56534902Y33327077D01*
X56540157Y33323045D01*
X56675046Y33267172D01*
X56819800Y33248115D01*
X56964554Y33267172D01*
X57099443Y33323045D01*
X57215274Y33411926D01*
X57304155Y33527757D01*
X57360028Y33662646D01*
X57379085Y33807400D01*
X57376755Y33825095D01*
X57368963Y33884286D01*
X57360028Y33952154D01*
X57304155Y34087042D01*
X57215274Y34202874D01*
X57215272Y34202876D01*
X57215271Y34202877D01*
X57099449Y34291751D01*
X57099441Y34291756D01*
X56964552Y34347629D01*
X56819800Y34366685D01*
X56675047Y34347629D01*
X56607602Y34319692D01*
X56540158Y34291755D01*
X56540157Y34291754D01*
X56540156Y34291754D01*
X56424326Y34202874D01*
X56335446Y34087044D01*
X56335445Y34087042D01*
X56311375Y34028932D01*
X56279571Y33952153D01*
X56260515Y33807401D01*
X53860509Y33807401D01*
X53854828Y33850553D01*
X53854488Y33851374D01*
X53798955Y33985442D01*
X53710074Y34101274D01*
X53710072Y34101276D01*
X53710071Y34101277D01*
X53594249Y34190151D01*
X53594241Y34190156D01*
X53459352Y34246029D01*
X53314600Y34265085D01*
X53169847Y34246029D01*
X53102402Y34218092D01*
X53034958Y34190155D01*
X53034957Y34190154D01*
X53034956Y34190154D01*
X52919126Y34101274D01*
X52830246Y33985444D01*
X52830245Y33985442D01*
X52803913Y33921871D01*
X52774371Y33850553D01*
X52755315Y33705801D01*
X46532800Y33705801D01*
X47715295Y34888296D01*
X47777605Y34922320D01*
X47803903Y34925198D01*
X60910424Y34975033D01*
X60978617Y34955290D01*
X61025314Y34901812D01*
X61036900Y34849034D01*
X61036900Y17939664D01*
X61016898Y17871543D01*
X60999995Y17850569D01*
X47627372Y4477947D01*
X47565060Y4443921D01*
X47541140Y4441075D01*
X45479912Y4394228D01*
X45477526Y4394196D01*
X42126164Y4381501D01*
X42125687Y4381500D01*
X40145904Y4381500D01*
X40077783Y4401502D01*
X40031290Y4455158D01*
X40021186Y4525432D01*
X40029492Y4555712D01*
X40049928Y4605046D01*
X40068985Y4749800D01*
X40049928Y4894554D01*
X39994055Y5029442D01*
X39905174Y5145274D01*
X39905172Y5145276D01*
X39905171Y5145277D01*
X39789349Y5234151D01*
X39789341Y5234156D01*
X39670936Y5283201D01*
X40360115Y5283201D01*
X40360115Y5283200D01*
X40379171Y5138448D01*
X40435044Y5003559D01*
X40435049Y5003551D01*
X40523925Y4887726D01*
X40639750Y4798850D01*
X40639757Y4798845D01*
X40774646Y4742972D01*
X40919400Y4723915D01*
X41064154Y4742972D01*
X41199043Y4798845D01*
X41314874Y4887726D01*
X41403755Y5003557D01*
X41459628Y5138446D01*
X41459629Y5138456D01*
X41461044Y5143733D01*
X41497992Y5204358D01*
X41561851Y5235382D01*
X41599192Y5236050D01*
X41630600Y5231915D01*
X41775354Y5250972D01*
X41910243Y5306845D01*
X42026074Y5395726D01*
X42114955Y5511557D01*
X42123907Y5533170D01*
X42168453Y5588449D01*
X42235816Y5610871D01*
X42265045Y5607553D01*
X42265058Y5607650D01*
X42270519Y5606932D01*
X42272924Y5606658D01*
X42273243Y5606573D01*
X42273246Y5606572D01*
X42418000Y5587515D01*
X42562754Y5606572D01*
X42697643Y5662445D01*
X42813474Y5751326D01*
X42835266Y5779727D01*
X42892604Y5821594D01*
X42963475Y5825816D01*
X42983438Y5819434D01*
X43098746Y5771672D01*
X43243500Y5752615D01*
X43388254Y5771672D01*
X43523143Y5827545D01*
X43638974Y5916426D01*
X43727855Y6032257D01*
X43783728Y6167146D01*
X43802785Y6311900D01*
X43783728Y6456654D01*
X43727855Y6591542D01*
X43638974Y6707374D01*
X43638972Y6707376D01*
X43638971Y6707377D01*
X43523149Y6796251D01*
X43523141Y6796256D01*
X43388252Y6852129D01*
X43243500Y6871185D01*
X43098747Y6852129D01*
X43031302Y6824192D01*
X42963858Y6796255D01*
X42963857Y6796254D01*
X42963856Y6796254D01*
X42848025Y6707374D01*
X42826233Y6678973D01*
X42768895Y6637106D01*
X42698024Y6632885D01*
X42678057Y6639268D01*
X42593828Y6674157D01*
X42562752Y6687029D01*
X42418000Y6706085D01*
X42273247Y6687029D01*
X42205802Y6659092D01*
X42138358Y6631155D01*
X42138357Y6631154D01*
X42138356Y6631154D01*
X42022526Y6542274D01*
X41933646Y6426444D01*
X41933641Y6426434D01*
X41924691Y6404828D01*
X41880142Y6349548D01*
X41812778Y6327129D01*
X41783554Y6330448D01*
X41783542Y6330350D01*
X41778055Y6331073D01*
X41775672Y6331343D01*
X41775355Y6331428D01*
X41630600Y6350485D01*
X41485847Y6331429D01*
X41418402Y6303492D01*
X41350958Y6275555D01*
X41350957Y6275554D01*
X41350956Y6275554D01*
X41235126Y6186674D01*
X41146246Y6070844D01*
X41146245Y6070842D01*
X41130260Y6032251D01*
X41090370Y5935950D01*
X41088953Y5930659D01*
X41052000Y5870037D01*
X40988139Y5839017D01*
X40950801Y5838351D01*
X40949365Y5838540D01*
X40919400Y5842485D01*
X40774647Y5823429D01*
X40707202Y5795492D01*
X40639758Y5767555D01*
X40639757Y5767554D01*
X40639756Y5767554D01*
X40523926Y5678674D01*
X40435046Y5562844D01*
X40435045Y5562842D01*
X40434842Y5562351D01*
X40379171Y5427953D01*
X40360115Y5283201D01*
X39670936Y5283201D01*
X39654452Y5290029D01*
X39509700Y5309085D01*
X39364947Y5290029D01*
X39297502Y5262092D01*
X39230058Y5234155D01*
X39230057Y5234154D01*
X39230056Y5234154D01*
X39114226Y5145274D01*
X39025346Y5029444D01*
X39025345Y5029442D01*
X38997408Y4961998D01*
X38969471Y4894553D01*
X38950415Y4749801D01*
X38950415Y4749800D01*
X38958543Y4688056D01*
X38969472Y4605046D01*
X38989905Y4555716D01*
X38997494Y4485129D01*
X38965715Y4421642D01*
X38904657Y4385414D01*
X38873496Y4381500D01*
X31788100Y4381500D01*
X31788100Y150700D01*
X31768098Y82579D01*
X31714442Y36086D01*
X31662100Y24700D01*
X17888863Y24700D01*
X17820742Y44702D01*
X17799768Y61605D01*
X13657672Y4203701D01*
X18173215Y4203701D01*
X18173215Y4203700D01*
X18192271Y4058948D01*
X18248144Y3924059D01*
X18248149Y3924051D01*
X18337025Y3808226D01*
X18452850Y3719350D01*
X18452857Y3719345D01*
X18587746Y3663472D01*
X18732500Y3644415D01*
X18877254Y3663472D01*
X19012143Y3719345D01*
X19127974Y3808226D01*
X19216855Y3924057D01*
X19272728Y4058946D01*
X19291785Y4203700D01*
X19272728Y4348454D01*
X19216855Y4483342D01*
X19127974Y4599174D01*
X19127972Y4599176D01*
X19127971Y4599177D01*
X19012149Y4688051D01*
X19012141Y4688056D01*
X18877252Y4743929D01*
X18732500Y4762985D01*
X18587747Y4743929D01*
X18520302Y4715992D01*
X18452858Y4688055D01*
X18452857Y4688054D01*
X18452856Y4688054D01*
X18337026Y4599174D01*
X18248146Y4483344D01*
X18248145Y4483342D01*
X18242684Y4470157D01*
X18192271Y4348453D01*
X18173215Y4203701D01*
X13657672Y4203701D01*
X8120472Y9740901D01*
X12839215Y9740901D01*
X12839215Y9740900D01*
X12858271Y9596148D01*
X12914144Y9461259D01*
X12914149Y9461251D01*
X13003025Y9345426D01*
X13118850Y9256550D01*
X13118857Y9256545D01*
X13253746Y9200672D01*
X13398500Y9181615D01*
X13543254Y9200672D01*
X13678143Y9256545D01*
X13793974Y9345426D01*
X13882855Y9461257D01*
X13938728Y9596146D01*
X13957785Y9740900D01*
X13955675Y9756924D01*
X13938728Y9885653D01*
X13935873Y9892546D01*
X13882855Y10020542D01*
X13793974Y10136374D01*
X13793972Y10136376D01*
X13793971Y10136377D01*
X13678149Y10225251D01*
X13678141Y10225256D01*
X13543252Y10281129D01*
X13398500Y10300185D01*
X13253747Y10281129D01*
X13190526Y10254941D01*
X13118858Y10225255D01*
X13118857Y10225254D01*
X13118856Y10225254D01*
X13003026Y10136374D01*
X12914146Y10020544D01*
X12914145Y10020542D01*
X12890910Y9964448D01*
X12858271Y9885653D01*
X12839215Y9740901D01*
X8120472Y9740901D01*
X4184488Y13676885D01*
X8816925Y13676885D01*
X8816925Y13538894D01*
X8828272Y13481852D01*
X8843845Y13403561D01*
X8896650Y13276078D01*
X8939216Y13212374D01*
X8973310Y13161348D01*
X8973315Y13161342D01*
X9070877Y13063780D01*
X9070883Y13063775D01*
X9185614Y12987114D01*
X9313097Y12934309D01*
X9448432Y12907389D01*
X9448433Y12907389D01*
X9586417Y12907389D01*
X9586418Y12907389D01*
X9721753Y12934309D01*
X9849236Y12987114D01*
X9963967Y13063775D01*
X10061539Y13161347D01*
X10138200Y13276078D01*
X10191005Y13403561D01*
X10217925Y13538896D01*
X10217925Y13596269D01*
X10237927Y13664390D01*
X10291583Y13710883D01*
X10361857Y13720987D01*
X10392132Y13712682D01*
X10523246Y13658372D01*
X10668000Y13639315D01*
X10671465Y13639772D01*
X10674392Y13639315D01*
X10676259Y13639315D01*
X10676259Y13639024D01*
X10741610Y13628838D01*
X10777013Y13603946D01*
X12590899Y11790060D01*
X12624925Y11727748D01*
X12626727Y11684523D01*
X12623315Y11658599D01*
X12642371Y11513848D01*
X12698244Y11378959D01*
X12698249Y11378951D01*
X12787125Y11263126D01*
X12902502Y11174594D01*
X12902957Y11174245D01*
X13037846Y11118372D01*
X13182600Y11099315D01*
X13186065Y11099772D01*
X13188992Y11099315D01*
X13190859Y11099315D01*
X13190859Y11099024D01*
X13256210Y11088838D01*
X13291613Y11063946D01*
X15153345Y9202214D01*
X15187371Y9139902D01*
X15189172Y9096675D01*
X15188715Y9093204D01*
X15188715Y9093199D01*
X15207771Y8948448D01*
X15217112Y8925897D01*
X15258594Y8825751D01*
X15266183Y8755164D01*
X15234404Y8691677D01*
X15173346Y8655449D01*
X15142185Y8651535D01*
X15105283Y8651535D01*
X14969950Y8624615D01*
X14969947Y8624614D01*
X14842468Y8571810D01*
X14727737Y8495150D01*
X14727731Y8495145D01*
X14630169Y8397583D01*
X14630164Y8397577D01*
X14553504Y8282846D01*
X14500700Y8155367D01*
X14500699Y8155364D01*
X14473779Y8020031D01*
X14473779Y7882040D01*
X14490493Y7798017D01*
X14500699Y7746707D01*
X14553504Y7619224D01*
X14578053Y7582484D01*
X14630164Y7504494D01*
X14630169Y7504488D01*
X14727731Y7406926D01*
X14727737Y7406921D01*
X14842468Y7330260D01*
X14969951Y7277455D01*
X15105286Y7250535D01*
X15105287Y7250535D01*
X15243271Y7250535D01*
X15243272Y7250535D01*
X15378607Y7277455D01*
X15506090Y7330260D01*
X15617599Y7404769D01*
X15685351Y7425983D01*
X15753818Y7407200D01*
X15801261Y7354383D01*
X15812522Y7316450D01*
X15830071Y7183148D01*
X15885944Y7048259D01*
X15885949Y7048251D01*
X15974825Y6932426D01*
X16090650Y6843550D01*
X16090657Y6843545D01*
X16225546Y6787672D01*
X16370300Y6768615D01*
X16515054Y6787672D01*
X16649943Y6843545D01*
X16765774Y6932426D01*
X16854655Y7048257D01*
X16910528Y7183146D01*
X16910528Y7183148D01*
X16913688Y7190776D01*
X16916040Y7189802D01*
X16946332Y7239505D01*
X17010191Y7270530D01*
X17080686Y7262106D01*
X17120188Y7235371D01*
X18337209Y6018350D01*
X18371235Y5956038D01*
X18373036Y5912810D01*
X18363715Y5842003D01*
X18363715Y5842000D01*
X18382771Y5697248D01*
X18438644Y5562359D01*
X18438649Y5562351D01*
X18527525Y5446526D01*
X18593729Y5395726D01*
X18643357Y5357645D01*
X18778246Y5301772D01*
X18923000Y5282715D01*
X18926465Y5283172D01*
X18929392Y5282715D01*
X18931259Y5282715D01*
X18931259Y5282424D01*
X18996610Y5272238D01*
X19032013Y5247346D01*
X20181010Y4098349D01*
X20215036Y4036037D01*
X20216613Y4021358D01*
X20216837Y4021387D01*
X20236971Y3868448D01*
X20292844Y3733559D01*
X20292849Y3733551D01*
X20381725Y3617726D01*
X20497550Y3528850D01*
X20497557Y3528845D01*
X20632446Y3472972D01*
X20777200Y3453915D01*
X20921954Y3472972D01*
X20999761Y3505201D01*
X25247115Y3505201D01*
X25247115Y3505200D01*
X25266171Y3360448D01*
X25322044Y3225559D01*
X25322049Y3225551D01*
X25410925Y3109726D01*
X25526750Y3020850D01*
X25526757Y3020845D01*
X25661646Y2964972D01*
X25806400Y2945915D01*
X25951154Y2964972D01*
X26086043Y3020845D01*
X26201874Y3109726D01*
X26290755Y3225557D01*
X26346628Y3360446D01*
X26365685Y3505200D01*
X26362571Y3528850D01*
X26346628Y3649953D01*
X26346628Y3649954D01*
X26290755Y3784842D01*
X26201874Y3900674D01*
X26201872Y3900676D01*
X26201871Y3900677D01*
X26086049Y3989551D01*
X26086041Y3989556D01*
X25951152Y4045429D01*
X25806400Y4064485D01*
X25661647Y4045429D01*
X25603606Y4021387D01*
X25526758Y3989555D01*
X25526757Y3989554D01*
X25526756Y3989554D01*
X25410926Y3900674D01*
X25322046Y3784844D01*
X25322045Y3784842D01*
X25300803Y3733559D01*
X25266171Y3649953D01*
X25247115Y3505201D01*
X20999761Y3505201D01*
X21056843Y3528845D01*
X21172674Y3617726D01*
X21261555Y3733557D01*
X21317428Y3868446D01*
X21336485Y4013200D01*
X21333478Y4036037D01*
X21317428Y4157953D01*
X21317428Y4157954D01*
X21261555Y4292842D01*
X21172674Y4408674D01*
X21172672Y4408676D01*
X21172671Y4408677D01*
X21056849Y4497551D01*
X21056841Y4497556D01*
X20921952Y4553429D01*
X20777201Y4572485D01*
X20777200Y4572485D01*
X20773009Y4571934D01*
X20751277Y4569073D01*
X20681128Y4580015D01*
X20645740Y4604901D01*
X20272240Y4978401D01*
X29514315Y4978401D01*
X29514315Y4978400D01*
X29533371Y4833648D01*
X29589244Y4698759D01*
X29589249Y4698751D01*
X29678125Y4582926D01*
X29793950Y4494050D01*
X29793957Y4494045D01*
X29928846Y4438172D01*
X30073600Y4419115D01*
X30218354Y4438172D01*
X30353243Y4494045D01*
X30469074Y4582926D01*
X30557955Y4698757D01*
X30613828Y4833646D01*
X30632885Y4978400D01*
X30613828Y5123154D01*
X30557955Y5258042D01*
X30469074Y5373874D01*
X30469072Y5373876D01*
X30469071Y5373877D01*
X30353249Y5462751D01*
X30353241Y5462756D01*
X30218352Y5518629D01*
X30073600Y5537685D01*
X29928847Y5518629D01*
X29861402Y5490692D01*
X29793958Y5462755D01*
X29793957Y5462754D01*
X29793956Y5462754D01*
X29678126Y5373874D01*
X29589246Y5258044D01*
X29589245Y5258042D01*
X29578423Y5231915D01*
X29533371Y5123153D01*
X29514315Y4978401D01*
X20272240Y4978401D01*
X19517654Y5732987D01*
X19483628Y5795299D01*
X19481828Y5838532D01*
X19482285Y5842000D01*
X19463228Y5986754D01*
X19407355Y6121642D01*
X19318474Y6237474D01*
X19318472Y6237476D01*
X19318471Y6237477D01*
X19202649Y6326351D01*
X19202641Y6326356D01*
X19067752Y6382229D01*
X18968346Y6395316D01*
X18903419Y6424039D01*
X18895698Y6431143D01*
X16342654Y8984187D01*
X16308628Y9046499D01*
X16306828Y9089732D01*
X16307285Y9093200D01*
X16288228Y9237954D01*
X16232355Y9372842D01*
X16143474Y9488674D01*
X16143472Y9488676D01*
X16143471Y9488677D01*
X16027649Y9577551D01*
X16027641Y9577556D01*
X15892752Y9633429D01*
X15748001Y9652485D01*
X15747997Y9652485D01*
X15744525Y9652028D01*
X15741595Y9652485D01*
X15739742Y9652485D01*
X15739742Y9652774D01*
X15674377Y9662968D01*
X15638986Y9687855D01*
X13777254Y11549587D01*
X13743228Y11611899D01*
X13741428Y11655132D01*
X13741885Y11658600D01*
X13722828Y11803354D01*
X13666955Y11938242D01*
X13578074Y12054074D01*
X13578072Y12054076D01*
X13578071Y12054077D01*
X13462249Y12142951D01*
X13462241Y12142956D01*
X13327352Y12198829D01*
X13174413Y12218963D01*
X13174727Y12221356D01*
X13118425Y12237887D01*
X13097451Y12254790D01*
X11262654Y14089587D01*
X11228628Y14151899D01*
X11226828Y14195132D01*
X11227285Y14198600D01*
X11208228Y14343354D01*
X11152355Y14478242D01*
X11063474Y14594074D01*
X11063472Y14594076D01*
X11063471Y14594077D01*
X10947649Y14682951D01*
X10947641Y14682956D01*
X10812752Y14738829D01*
X10668000Y14757885D01*
X10523247Y14738829D01*
X10475073Y14718874D01*
X10388358Y14682955D01*
X10388357Y14682954D01*
X10388356Y14682954D01*
X10272526Y14594074D01*
X10183646Y14478244D01*
X10183645Y14478242D01*
X10165670Y14434846D01*
X10127771Y14343353D01*
X10117820Y14267764D01*
X10089097Y14202837D01*
X10029832Y14163746D01*
X9958840Y14162901D01*
X9922896Y14179446D01*
X9849236Y14228664D01*
X9721756Y14281468D01*
X9721753Y14281469D01*
X9586420Y14308389D01*
X9586418Y14308389D01*
X9448432Y14308389D01*
X9448429Y14308389D01*
X9313096Y14281469D01*
X9313093Y14281468D01*
X9185614Y14228664D01*
X9070883Y14152004D01*
X9070877Y14151999D01*
X8973315Y14054437D01*
X8973310Y14054431D01*
X8896650Y13939700D01*
X8843846Y13812221D01*
X8843845Y13812218D01*
X8816925Y13676885D01*
X4184488Y13676885D01*
X1579972Y16281401D01*
X6882915Y16281401D01*
X6882915Y16281400D01*
X6901971Y16136648D01*
X6957844Y16001759D01*
X6957849Y16001751D01*
X7046725Y15885926D01*
X7162550Y15797050D01*
X7162557Y15797045D01*
X7297446Y15741172D01*
X7442200Y15722115D01*
X7586954Y15741172D01*
X7721843Y15797045D01*
X7837674Y15885926D01*
X7926555Y16001757D01*
X7982428Y16136646D01*
X8001485Y16281400D01*
X7997134Y16314446D01*
X7982428Y16426153D01*
X7982428Y16426154D01*
X7926555Y16561042D01*
X7837674Y16676874D01*
X7837672Y16676876D01*
X7837671Y16676877D01*
X7721849Y16765751D01*
X7721841Y16765756D01*
X7586952Y16821629D01*
X7442200Y16840685D01*
X7297447Y16821629D01*
X7230002Y16793692D01*
X7162558Y16765755D01*
X7162557Y16765754D01*
X7162556Y16765754D01*
X7046726Y16676874D01*
X6957846Y16561044D01*
X6957845Y16561042D01*
X6929908Y16493598D01*
X6901971Y16426153D01*
X6882915Y16281401D01*
X1579972Y16281401D01*
X10805Y17850568D01*
X-23221Y17912880D01*
X-26100Y17939663D01*
X-26100Y20320007D01*
X681580Y20320007D01*
X681580Y20319994D01*
X701239Y20007510D01*
X701242Y20007486D01*
X754528Y19728153D01*
X759915Y19699912D01*
X856677Y19402111D01*
X989999Y19118786D01*
X990001Y19118783D01*
X990004Y19118777D01*
X1157775Y18854411D01*
X1357371Y18613141D01*
X1357374Y18613139D01*
X1357375Y18613137D01*
X1543932Y18437948D01*
X1585634Y18398787D01*
X1798545Y18244098D01*
X1838959Y18214736D01*
X2113353Y18063886D01*
X2318912Y17982500D01*
X2404485Y17948619D01*
X2404488Y17948619D01*
X2404491Y17948617D01*
X2707780Y17870745D01*
X2707783Y17870745D01*
X2707786Y17870744D01*
X2905905Y17845716D01*
X3018437Y17831500D01*
X3018441Y17831500D01*
X3331559Y17831500D01*
X3331563Y17831500D01*
X3567091Y17861254D01*
X3642213Y17870744D01*
X3642214Y17870745D01*
X3642220Y17870745D01*
X3945509Y17948617D01*
X4236647Y18063886D01*
X4511041Y18214736D01*
X4764366Y18398787D01*
X4992625Y18613137D01*
X5192219Y18854404D01*
X5192221Y18854409D01*
X5192224Y18854411D01*
X5331432Y19073768D01*
X5360001Y19118786D01*
X5493323Y19402111D01*
X5590085Y19699912D01*
X5648759Y20007492D01*
X5656066Y20123629D01*
X5668420Y20319994D01*
X5668420Y20320007D01*
X5648760Y20632491D01*
X5648759Y20632508D01*
X5590085Y20940088D01*
X5493323Y21237889D01*
X5447155Y21336001D01*
X7632215Y21336001D01*
X7632215Y21336000D01*
X7651271Y21191248D01*
X7707144Y21056359D01*
X7707149Y21056351D01*
X7796025Y20940526D01*
X7911850Y20851650D01*
X7911857Y20851645D01*
X8046746Y20795772D01*
X8191500Y20776715D01*
X8336254Y20795772D01*
X8471143Y20851645D01*
X8586974Y20940526D01*
X8675855Y21056357D01*
X8731728Y21191246D01*
X8750785Y21336000D01*
X8731728Y21480754D01*
X8675855Y21615642D01*
X8586974Y21731474D01*
X8586972Y21731476D01*
X8586971Y21731477D01*
X8471149Y21820351D01*
X8471141Y21820356D01*
X8336252Y21876229D01*
X8191500Y21895285D01*
X8046747Y21876229D01*
X7979302Y21848292D01*
X7911858Y21820355D01*
X7911857Y21820354D01*
X7911856Y21820354D01*
X7796026Y21731474D01*
X7707146Y21615644D01*
X7707145Y21615642D01*
X7691263Y21577300D01*
X7651271Y21480753D01*
X7632215Y21336001D01*
X5447155Y21336001D01*
X5360001Y21521214D01*
X5355106Y21528928D01*
X5192224Y21785590D01*
X4992628Y22026860D01*
X4971233Y22046951D01*
X4764366Y22241213D01*
X4764365Y22241214D01*
X4511043Y22425263D01*
X4334799Y22522154D01*
X4236647Y22576114D01*
X4152849Y22609292D01*
X3945514Y22691382D01*
X3945496Y22691387D01*
X3642226Y22769254D01*
X3642213Y22769257D01*
X3331577Y22808499D01*
X3331566Y22808500D01*
X3331563Y22808500D01*
X3018437Y22808500D01*
X3018434Y22808500D01*
X3018422Y22808499D01*
X2707786Y22769257D01*
X2707773Y22769254D01*
X2404503Y22691387D01*
X2404485Y22691382D01*
X2113353Y22576114D01*
X1838956Y22425263D01*
X1585635Y22241214D01*
X1585634Y22241214D01*
X1357371Y22026860D01*
X1157775Y21785590D01*
X990004Y21521224D01*
X989997Y21521210D01*
X856680Y21237896D01*
X856678Y21237892D01*
X759916Y20940092D01*
X759914Y20940084D01*
X701242Y20632515D01*
X701239Y20632491D01*
X681580Y20320007D01*
X-26100Y20320007D01*
X-26100Y25946101D01*
X4952515Y25946101D01*
X4952515Y25946100D01*
X4971571Y25801348D01*
X5027444Y25666459D01*
X5027449Y25666451D01*
X5116325Y25550626D01*
X5227963Y25464963D01*
X5232157Y25461745D01*
X5367046Y25405872D01*
X5511800Y25386815D01*
X5656554Y25405872D01*
X5791443Y25461745D01*
X5907274Y25550626D01*
X5996155Y25666457D01*
X6052028Y25801346D01*
X6071085Y25946100D01*
X6067170Y25975834D01*
X6052028Y26090853D01*
X6052028Y26090854D01*
X5996155Y26225742D01*
X5907274Y26341574D01*
X5907272Y26341576D01*
X5907271Y26341577D01*
X5791449Y26430451D01*
X5791441Y26430456D01*
X5656552Y26486329D01*
X5511800Y26505385D01*
X5367047Y26486329D01*
X5299602Y26458392D01*
X5232158Y26430455D01*
X5232157Y26430454D01*
X5232156Y26430454D01*
X5116326Y26341574D01*
X5027446Y26225744D01*
X5027445Y26225742D01*
X5001142Y26162242D01*
X4971571Y26090853D01*
X4952515Y25946101D01*
X-26100Y25946101D01*
X-26100Y33274001D01*
X3580915Y33274001D01*
X3580915Y33274000D01*
X3599971Y33129248D01*
X3655844Y32994359D01*
X3655849Y32994351D01*
X3744725Y32878526D01*
X3860550Y32789650D01*
X3860557Y32789645D01*
X3995446Y32733772D01*
X4140200Y32714715D01*
X4284954Y32733772D01*
X4419843Y32789645D01*
X4535674Y32878526D01*
X4624555Y32994357D01*
X4680428Y33129246D01*
X4699485Y33274000D01*
X4680428Y33418754D01*
X4624555Y33553642D01*
X4535674Y33669474D01*
X4535672Y33669476D01*
X4535671Y33669477D01*
X4419849Y33758351D01*
X4419841Y33758356D01*
X4284952Y33814229D01*
X4140200Y33833285D01*
X3995447Y33814229D01*
X3928002Y33786292D01*
X3860558Y33758355D01*
X3860557Y33758354D01*
X3860556Y33758354D01*
X3744726Y33669474D01*
X3655846Y33553644D01*
X3655845Y33553642D01*
X3637709Y33509858D01*
X3599971Y33418753D01*
X3580915Y33274001D01*
X-26100Y33274001D01*
X-26100Y36798438D01*
X5803346Y36798438D01*
X5803346Y36798437D01*
X5823059Y36699331D01*
X5865026Y36636523D01*
X5865031Y36636517D01*
X6313768Y36187780D01*
X6313769Y36187780D01*
X6900709Y36774721D01*
X6918019Y36710119D01*
X6984898Y36594280D01*
X7079480Y36499698D01*
X7195319Y36432819D01*
X7259917Y36415510D01*
X6672979Y35828571D01*
X7121720Y35379830D01*
X7184531Y35337859D01*
X7283637Y35318146D01*
X7382742Y35337859D01*
X7445553Y35379829D01*
X8917771Y36852049D01*
X8917772Y36852050D01*
X8959741Y36914858D01*
X8979454Y37013963D01*
X8979454Y37026373D01*
X8983148Y37026373D01*
X8987562Y37075719D01*
X9031114Y37131788D01*
X9098066Y37155409D01*
X9129388Y37153170D01*
X9163237Y37146437D01*
X9262538Y37166188D01*
X9325471Y37208238D01*
X10797760Y38680529D01*
X10839812Y38743462D01*
X10859563Y38842763D01*
X10848186Y38899966D01*
X10839812Y38942065D01*
X10825763Y38963090D01*
X10797762Y39004997D01*
X9540997Y40261760D01*
X9478064Y40303812D01*
X9478063Y40303813D01*
X9378764Y40323563D01*
X9378762Y40323563D01*
X9279461Y40303813D01*
X9226969Y40268739D01*
X9216531Y40261763D01*
X9216528Y40261761D01*
X9216526Y40261760D01*
X7744241Y38789473D01*
X7744237Y38789468D01*
X7702187Y38726538D01*
X7682437Y38627238D01*
X7682437Y38614828D01*
X7678867Y38614828D01*
X7674409Y38565047D01*
X7630851Y38508982D01*
X7563897Y38485367D01*
X7532582Y38487608D01*
X7499167Y38494254D01*
X7499163Y38494254D01*
X7400057Y38474542D01*
X7337246Y38432572D01*
X6780742Y37876068D01*
X7259920Y37396891D01*
X7195319Y37379581D01*
X7079480Y37312702D01*
X6984898Y37218120D01*
X6918019Y37102281D01*
X6900709Y37037682D01*
X6421534Y37516857D01*
X6421533Y37516857D01*
X5865027Y36960351D01*
X5823058Y36897543D01*
X5803346Y36798438D01*
X-26100Y36798438D01*
X-26100Y40640007D01*
X681580Y40640007D01*
X681580Y40639994D01*
X701239Y40327510D01*
X701240Y40327497D01*
X701241Y40327492D01*
X759915Y40019912D01*
X856677Y39722111D01*
X989999Y39438786D01*
X990001Y39438783D01*
X990004Y39438777D01*
X1157775Y39174411D01*
X1357371Y38933141D01*
X1357374Y38933139D01*
X1357375Y38933137D01*
X1392703Y38899962D01*
X1585634Y38718787D01*
X1728721Y38614828D01*
X1838959Y38534736D01*
X2113353Y38383886D01*
X2318912Y38302500D01*
X2404485Y38268619D01*
X2404488Y38268619D01*
X2404491Y38268617D01*
X2707780Y38190745D01*
X2707783Y38190745D01*
X2707786Y38190744D01*
X2913061Y38164812D01*
X3018437Y38151500D01*
X3018441Y38151500D01*
X3331559Y38151500D01*
X3331563Y38151500D01*
X3538667Y38177664D01*
X3642213Y38190744D01*
X3642214Y38190745D01*
X3642220Y38190745D01*
X3945509Y38268617D01*
X4236647Y38383886D01*
X4511041Y38534736D01*
X4764366Y38718787D01*
X4992625Y38933137D01*
X5192219Y39174404D01*
X5192221Y39174409D01*
X5192224Y39174411D01*
X5359995Y39438777D01*
X5360001Y39438786D01*
X5493323Y39722111D01*
X5590085Y40019912D01*
X5648759Y40327492D01*
X5653866Y40408673D01*
X5668420Y40639994D01*
X5668420Y40640007D01*
X5648760Y40952491D01*
X5648759Y40952508D01*
X5590085Y41260088D01*
X5493323Y41557889D01*
X5360001Y41841214D01*
X5312766Y41915645D01*
X5192224Y42105590D01*
X4992628Y42346860D01*
X4968248Y42369754D01*
X4764366Y42561213D01*
X4717210Y42595474D01*
X4511043Y42745263D01*
X4330070Y42844754D01*
X4236647Y42896114D01*
X4125227Y42940228D01*
X3945514Y43011382D01*
X3945496Y43011387D01*
X3642226Y43089254D01*
X3642213Y43089257D01*
X3331577Y43128499D01*
X3331566Y43128500D01*
X3331563Y43128500D01*
X3018437Y43128500D01*
X3018434Y43128500D01*
X3018422Y43128499D01*
X2707786Y43089257D01*
X2707773Y43089254D01*
X2404503Y43011387D01*
X2404485Y43011382D01*
X2113353Y42896114D01*
X1838956Y42745263D01*
X1585635Y42561214D01*
X1585634Y42561214D01*
X1357371Y42346860D01*
X1157775Y42105590D01*
X990004Y41841224D01*
X989997Y41841210D01*
X856680Y41557896D01*
X856678Y41557892D01*
X759916Y41260092D01*
X759914Y41260084D01*
X701242Y40952515D01*
X701239Y40952491D01*
X681580Y40640007D01*
X-26100Y40640007D01*
X-26100Y43172738D01*
X-6098Y43240859D01*
X10800Y43261828D01*
X5006156Y48257184D01*
X5068464Y48291207D01*
X5139279Y48286142D01*
G37*
%TD.AperFunction*%
%TA.AperFunction,Conductor*%
G36*
X17577490Y34053598D02*
G01*
X17598464Y34036695D01*
X18564664Y33070495D01*
X18598690Y33008183D01*
X18593625Y32937368D01*
X18551078Y32880532D01*
X18484558Y32855721D01*
X18475569Y32855400D01*
X17371196Y32855400D01*
X17307265Y32838271D01*
X17307266Y32838270D01*
X17283864Y32831999D01*
X17205557Y32786789D01*
X17137284Y32718516D01*
X17074971Y32684491D01*
X17004156Y32689557D01*
X16995466Y32693377D01*
X16992178Y32694738D01*
X16992170Y32694742D01*
X16824791Y32749127D01*
X16650965Y32776658D01*
X16474972Y32776658D01*
X16301146Y32749127D01*
X16301140Y32749126D01*
X16133767Y32694743D01*
X16133760Y32694740D01*
X15976958Y32614844D01*
X15834576Y32511399D01*
X15494601Y32171425D01*
X15391158Y32029044D01*
X15391151Y32029033D01*
X15311260Y31872240D01*
X15311257Y31872232D01*
X15256874Y31704861D01*
X15256873Y31704856D01*
X15256873Y31704855D01*
X15229342Y31531029D01*
X15229342Y31355035D01*
X15255556Y31189527D01*
X15256874Y31181204D01*
X15311258Y31013828D01*
X15311353Y31013600D01*
X15311363Y31013507D01*
X15312788Y31009121D01*
X15311866Y31008822D01*
X15318942Y30943010D01*
X15287162Y30879523D01*
X15226103Y30843297D01*
X15155152Y30845831D01*
X15137741Y30853117D01*
X15112576Y30865940D01*
X15112567Y30865943D01*
X14945196Y30920326D01*
X14945192Y30920327D01*
X14945191Y30920327D01*
X14771365Y30947858D01*
X14595372Y30947858D01*
X14421546Y30920327D01*
X14421540Y30920326D01*
X14254167Y30865943D01*
X14254160Y30865940D01*
X14097358Y30786044D01*
X13954976Y30682599D01*
X13615001Y30342625D01*
X13511558Y30200244D01*
X13511551Y30200233D01*
X13431660Y30043440D01*
X13431657Y30043432D01*
X13377274Y29876061D01*
X13377273Y29876056D01*
X13377273Y29876055D01*
X13349742Y29702229D01*
X13349742Y29526235D01*
X13369648Y29400551D01*
X13377274Y29352404D01*
X13431657Y29185033D01*
X13431660Y29185025D01*
X13511551Y29028232D01*
X13511555Y29028226D01*
X13511558Y29028220D01*
X13615003Y28885838D01*
X13615009Y28885832D01*
X13615013Y28885827D01*
X13739436Y28761404D01*
X13739441Y28761400D01*
X13739448Y28761393D01*
X13881830Y28657948D01*
X13881837Y28657944D01*
X13881841Y28657942D01*
X13974369Y28610796D01*
X14038640Y28578048D01*
X14206019Y28523663D01*
X14379845Y28496132D01*
X14379848Y28496132D01*
X14555836Y28496132D01*
X14555839Y28496132D01*
X14729665Y28523663D01*
X14897044Y28578048D01*
X15053854Y28657948D01*
X15196236Y28761393D01*
X15536207Y29101365D01*
X15639652Y29243746D01*
X15719552Y29400556D01*
X15773937Y29567936D01*
X15801468Y29741762D01*
X15801468Y29917755D01*
X15773937Y30091581D01*
X15719552Y30258960D01*
X15719550Y30258963D01*
X15719461Y30259179D01*
X15719451Y30259271D01*
X15718022Y30263669D01*
X15718945Y30263970D01*
X15711865Y30329768D01*
X15743638Y30393258D01*
X15804693Y30429491D01*
X15875644Y30426964D01*
X15893058Y30419679D01*
X15918240Y30406848D01*
X15918242Y30406848D01*
X15918243Y30406847D01*
X15965962Y30391342D01*
X16085619Y30352463D01*
X16259445Y30324932D01*
X16259448Y30324932D01*
X16435436Y30324932D01*
X16435439Y30324932D01*
X16609265Y30352463D01*
X16776644Y30406848D01*
X16933454Y30486748D01*
X17075836Y30590193D01*
X17415807Y30930165D01*
X17519252Y31072546D01*
X17599152Y31229356D01*
X17653537Y31396736D01*
X17681068Y31570562D01*
X17681068Y31746555D01*
X17653537Y31920381D01*
X17639773Y31962743D01*
X17626477Y32003664D01*
X17624449Y32074632D01*
X17661112Y32135429D01*
X17724824Y32166755D01*
X17746310Y32168600D01*
X18779369Y32168600D01*
X18847490Y32148598D01*
X18868464Y32131695D01*
X19809264Y31190895D01*
X19843290Y31128583D01*
X19838225Y31057768D01*
X19795678Y31000932D01*
X19729158Y30976121D01*
X19720169Y30975800D01*
X19083698Y30975800D01*
X19019767Y30958671D01*
X19019768Y30958670D01*
X18996366Y30952399D01*
X18996364Y30952399D01*
X18996364Y30952398D01*
X18918059Y30907188D01*
X18918058Y30907188D01*
X18910908Y30903059D01*
X18909439Y30905603D01*
X18856404Y30885119D01*
X18793113Y30897559D01*
X18792797Y30896795D01*
X18789005Y30898366D01*
X18788768Y30898412D01*
X18788221Y30898691D01*
X18620842Y30953076D01*
X18447016Y30980607D01*
X18271023Y30980607D01*
X18097197Y30953076D01*
X18097191Y30953075D01*
X17929818Y30898692D01*
X17929811Y30898689D01*
X17773009Y30818793D01*
X17630627Y30715348D01*
X17290652Y30375374D01*
X17187209Y30232993D01*
X17187202Y30232982D01*
X17107311Y30076189D01*
X17107308Y30076181D01*
X17052925Y29908810D01*
X17052924Y29908805D01*
X17052924Y29908804D01*
X17025393Y29734978D01*
X17025393Y29558984D01*
X17049352Y29407714D01*
X17052925Y29385153D01*
X17107309Y29217777D01*
X17107404Y29217549D01*
X17107414Y29217456D01*
X17108839Y29213070D01*
X17107917Y29212771D01*
X17114993Y29146959D01*
X17083213Y29083472D01*
X17022154Y29047246D01*
X16951203Y29049780D01*
X16933792Y29057066D01*
X16908627Y29069889D01*
X16908618Y29069892D01*
X16741247Y29124275D01*
X16741243Y29124276D01*
X16741242Y29124276D01*
X16567416Y29151807D01*
X16391423Y29151807D01*
X16217597Y29124276D01*
X16217591Y29124275D01*
X16050218Y29069892D01*
X16050211Y29069889D01*
X15893409Y28989993D01*
X15751027Y28886548D01*
X15411052Y28546574D01*
X15307609Y28404193D01*
X15307602Y28404182D01*
X15227711Y28247389D01*
X15227708Y28247381D01*
X15173325Y28080010D01*
X15173324Y28080005D01*
X15173324Y28080004D01*
X15145793Y27906178D01*
X15145793Y27730184D01*
X15165699Y27604500D01*
X15173325Y27556353D01*
X15227708Y27388982D01*
X15227711Y27388974D01*
X15307602Y27232181D01*
X15307606Y27232175D01*
X15307609Y27232169D01*
X15411054Y27089787D01*
X15411060Y27089781D01*
X15411064Y27089776D01*
X15535487Y26965353D01*
X15535492Y26965349D01*
X15535499Y26965342D01*
X15677881Y26861897D01*
X15677888Y26861893D01*
X15677892Y26861891D01*
X15793722Y26802872D01*
X15834691Y26781997D01*
X16002070Y26727612D01*
X16175896Y26700081D01*
X16175899Y26700081D01*
X16351887Y26700081D01*
X16351890Y26700081D01*
X16525716Y26727612D01*
X16693095Y26781997D01*
X16849905Y26861897D01*
X16992287Y26965342D01*
X17332258Y27305314D01*
X17435703Y27447695D01*
X17515603Y27604505D01*
X17569988Y27771885D01*
X17597519Y27945711D01*
X17597519Y28121704D01*
X17569988Y28295530D01*
X17515603Y28462909D01*
X17515601Y28462912D01*
X17515512Y28463128D01*
X17515502Y28463220D01*
X17514073Y28467618D01*
X17514996Y28467919D01*
X17507916Y28533717D01*
X17539689Y28597207D01*
X17600744Y28633440D01*
X17671695Y28630913D01*
X17689109Y28623628D01*
X17714291Y28610797D01*
X17714293Y28610797D01*
X17714294Y28610796D01*
X17770084Y28592669D01*
X17881670Y28556412D01*
X18055496Y28528881D01*
X18055499Y28528881D01*
X18231487Y28528881D01*
X18231490Y28528881D01*
X18405316Y28556412D01*
X18572695Y28610797D01*
X18729505Y28690697D01*
X18871887Y28794142D01*
X19211858Y29134114D01*
X19315303Y29276495D01*
X19395203Y29433305D01*
X19449588Y29600685D01*
X19477119Y29774511D01*
X19477119Y29950504D01*
X19449588Y30124330D01*
X19449586Y30124335D01*
X19449586Y30124338D01*
X19448431Y30129150D01*
X19449520Y30129412D01*
X19447649Y30195039D01*
X19484316Y30255834D01*
X19548030Y30287156D01*
X19569508Y30289000D01*
X20049369Y30289000D01*
X20117490Y30268998D01*
X20138464Y30252095D01*
X20977777Y29412782D01*
X21011803Y29350470D01*
X21006738Y29279655D01*
X20964191Y29222819D01*
X20905137Y29198766D01*
X20897804Y29197801D01*
X20833869Y29180671D01*
X20833870Y29180670D01*
X20810468Y29174399D01*
X20810466Y29174399D01*
X20810466Y29174398D01*
X20780374Y29157024D01*
X20732161Y29129188D01*
X20729382Y29126409D01*
X20726463Y29124816D01*
X20725613Y29124163D01*
X20725511Y29124296D01*
X20667068Y29092388D01*
X20596253Y29097457D01*
X20587554Y29101280D01*
X20584280Y29102636D01*
X20584272Y29102640D01*
X20416893Y29157025D01*
X20243067Y29184556D01*
X20067074Y29184556D01*
X19893248Y29157025D01*
X19893242Y29157024D01*
X19725869Y29102641D01*
X19725862Y29102638D01*
X19569060Y29022742D01*
X19426678Y28919297D01*
X19086703Y28579323D01*
X18983260Y28436942D01*
X18983253Y28436931D01*
X18903362Y28280138D01*
X18903359Y28280130D01*
X18848976Y28112759D01*
X18848975Y28112754D01*
X18848975Y28112753D01*
X18821444Y27938927D01*
X18821444Y27762933D01*
X18841350Y27637249D01*
X18848976Y27589102D01*
X18903360Y27421726D01*
X18903455Y27421498D01*
X18903465Y27421405D01*
X18904890Y27417019D01*
X18903968Y27416720D01*
X18911044Y27350908D01*
X18879264Y27287421D01*
X18818205Y27251195D01*
X18747254Y27253729D01*
X18729843Y27261015D01*
X18704678Y27273838D01*
X18704669Y27273841D01*
X18537298Y27328224D01*
X18537294Y27328225D01*
X18537293Y27328225D01*
X18363467Y27355756D01*
X18187474Y27355756D01*
X18013648Y27328225D01*
X18013642Y27328224D01*
X17846269Y27273841D01*
X17846262Y27273838D01*
X17689460Y27193942D01*
X17547078Y27090497D01*
X17207103Y26750523D01*
X17103660Y26608142D01*
X17103653Y26608131D01*
X17023762Y26451338D01*
X17023759Y26451330D01*
X16969376Y26283959D01*
X16969375Y26283954D01*
X16969375Y26283953D01*
X16941844Y26110127D01*
X16941844Y25934133D01*
X16969375Y25760307D01*
X17023760Y25592928D01*
X17023764Y25592920D01*
X17025656Y25588352D01*
X17024342Y25587808D01*
X17036260Y25524328D01*
X17009556Y25458545D01*
X16999985Y25447814D01*
X15473217Y23921046D01*
X15473211Y23921039D01*
X15428001Y23842734D01*
X15428002Y23842733D01*
X15415714Y23796871D01*
X15404600Y23755394D01*
X15404600Y22942417D01*
X15384598Y22874296D01*
X15330942Y22827803D01*
X15260668Y22817699D01*
X15201896Y22842454D01*
X15176744Y22861754D01*
X15176743Y22861755D01*
X15164494Y22866829D01*
X15041852Y22917629D01*
X14897100Y22936685D01*
X14752347Y22917629D01*
X14684902Y22889692D01*
X14617458Y22861755D01*
X14617457Y22861754D01*
X14617456Y22861754D01*
X14501626Y22772874D01*
X14412746Y22657044D01*
X14412745Y22657042D01*
X14404556Y22637272D01*
X14356871Y22522153D01*
X14337815Y22377401D01*
X14337815Y22377400D01*
X14356871Y22232648D01*
X14412744Y22097759D01*
X14412749Y22097751D01*
X14501625Y21981926D01*
X14617450Y21893050D01*
X14617457Y21893045D01*
X14752346Y21837172D01*
X14897100Y21818115D01*
X15041854Y21837172D01*
X15176743Y21893045D01*
X15201896Y21912346D01*
X15268114Y21937947D01*
X15337663Y21923683D01*
X15388460Y21874083D01*
X15404600Y21812384D01*
X15404600Y20284831D01*
X15384598Y20216710D01*
X15330942Y20170217D01*
X15260668Y20160113D01*
X15196088Y20189607D01*
X15189505Y20195736D01*
X12013505Y23371736D01*
X11979479Y23434048D01*
X11976600Y23460831D01*
X11976600Y30177261D01*
X11996602Y30245382D01*
X12013505Y30266356D01*
X12097474Y30350325D01*
X12159786Y30384351D01*
X12230601Y30379286D01*
X12239316Y30375455D01*
X12242580Y30374104D01*
X12242589Y30374099D01*
X12409968Y30319714D01*
X12583794Y30292183D01*
X12583797Y30292183D01*
X12759785Y30292183D01*
X12759788Y30292183D01*
X12933614Y30319714D01*
X13100993Y30374099D01*
X13257803Y30453999D01*
X13400185Y30557444D01*
X13740156Y30897416D01*
X13843601Y31039797D01*
X13923501Y31196607D01*
X13977886Y31363987D01*
X14005417Y31537813D01*
X14005417Y31713806D01*
X13977886Y31887632D01*
X13923501Y32055011D01*
X13923499Y32055014D01*
X13923410Y32055230D01*
X13923400Y32055322D01*
X13921971Y32059720D01*
X13922894Y32060021D01*
X13915814Y32125819D01*
X13947587Y32189309D01*
X14008642Y32225542D01*
X14079593Y32223015D01*
X14097007Y32215730D01*
X14122189Y32202899D01*
X14122191Y32202899D01*
X14122192Y32202898D01*
X14177982Y32184771D01*
X14289568Y32148514D01*
X14463394Y32120983D01*
X14463397Y32120983D01*
X14639385Y32120983D01*
X14639388Y32120983D01*
X14813214Y32148514D01*
X14980593Y32202899D01*
X15137403Y32282799D01*
X15279785Y32386244D01*
X15619756Y32726216D01*
X15723201Y32868597D01*
X15803101Y33025407D01*
X15857486Y33192787D01*
X15885017Y33366613D01*
X15885017Y33542606D01*
X15857486Y33716432D01*
X15803101Y33883811D01*
X15803096Y33883820D01*
X15801207Y33888383D01*
X15802522Y33888928D01*
X15790598Y33952397D01*
X15817294Y34018183D01*
X15826875Y34028927D01*
X15834650Y34036701D01*
X15896965Y34070722D01*
X15923740Y34073600D01*
X17509369Y34073600D01*
X17577490Y34053598D01*
G37*
%TD.AperFunction*%
%TA.AperFunction,Conductor*%
G36*
X16459890Y35780798D02*
G01*
X16480864Y35763895D01*
X17269264Y34975495D01*
X17303290Y34913183D01*
X17298225Y34842368D01*
X17255678Y34785532D01*
X17189158Y34760721D01*
X17180169Y34760400D01*
X15684099Y34760400D01*
X15637297Y34747860D01*
X15596763Y34736999D01*
X15596756Y34736996D01*
X15563665Y34717890D01*
X15518458Y34691791D01*
X15518452Y34691786D01*
X15341233Y34514567D01*
X15278921Y34480542D01*
X15208105Y34485607D01*
X15199401Y34489433D01*
X15196127Y34490789D01*
X15196119Y34490793D01*
X15028740Y34545178D01*
X14854914Y34572709D01*
X14678921Y34572709D01*
X14505095Y34545178D01*
X14505089Y34545177D01*
X14337716Y34490794D01*
X14337709Y34490791D01*
X14180907Y34410895D01*
X14038525Y34307450D01*
X13698550Y33967476D01*
X13595107Y33825095D01*
X13595100Y33825084D01*
X13515209Y33668291D01*
X13515206Y33668283D01*
X13460823Y33500912D01*
X13460822Y33500907D01*
X13460822Y33500906D01*
X13433291Y33327080D01*
X13433291Y33151086D01*
X13456064Y33007300D01*
X13460823Y32977255D01*
X13515207Y32809879D01*
X13515302Y32809651D01*
X13515312Y32809558D01*
X13516737Y32805172D01*
X13515815Y32804873D01*
X13522891Y32739061D01*
X13491111Y32675574D01*
X13430052Y32639348D01*
X13359101Y32641882D01*
X13341690Y32649168D01*
X13316525Y32661991D01*
X13316516Y32661994D01*
X13149145Y32716377D01*
X13149141Y32716378D01*
X13149140Y32716378D01*
X12975314Y32743909D01*
X12799321Y32743909D01*
X12638994Y32718516D01*
X12625489Y32716377D01*
X12458116Y32661994D01*
X12458109Y32661991D01*
X12301307Y32582095D01*
X12158925Y32478650D01*
X11818950Y32138676D01*
X11715507Y31996295D01*
X11715500Y31996284D01*
X11635609Y31839491D01*
X11635606Y31839483D01*
X11581223Y31672112D01*
X11581222Y31672107D01*
X11581222Y31672106D01*
X11553691Y31498280D01*
X11553691Y31322286D01*
X11581222Y31148460D01*
X11635607Y30981081D01*
X11635611Y30981073D01*
X11637503Y30976505D01*
X11636186Y30975960D01*
X11648109Y30912497D01*
X11621413Y30846711D01*
X11611833Y30835968D01*
X11358414Y30582548D01*
X11358409Y30582542D01*
X11313202Y30504241D01*
X11313199Y30504235D01*
X11308835Y30487943D01*
X11308835Y30487942D01*
X11289800Y30416902D01*
X11289800Y23332831D01*
X11269798Y23264710D01*
X11216142Y23218217D01*
X11145868Y23208113D01*
X11081288Y23237607D01*
X11074705Y23243736D01*
X9879905Y24438536D01*
X9845879Y24500848D01*
X9843000Y24527631D01*
X9843000Y31635765D01*
X9863002Y31703886D01*
X9879900Y31724856D01*
X10301422Y32146379D01*
X10363733Y32180402D01*
X10434548Y32175338D01*
X10443269Y32171505D01*
X10446528Y32170156D01*
X10446537Y32170151D01*
X10613916Y32115766D01*
X10787742Y32088235D01*
X10787745Y32088235D01*
X10963733Y32088235D01*
X10963736Y32088235D01*
X11137562Y32115766D01*
X11304941Y32170151D01*
X11461751Y32250051D01*
X11604133Y32353496D01*
X11944104Y32693468D01*
X12047549Y32835849D01*
X12127449Y32992659D01*
X12181834Y33160039D01*
X12209365Y33333865D01*
X12209365Y33509858D01*
X12181834Y33683684D01*
X12127449Y33851063D01*
X12127447Y33851066D01*
X12127358Y33851282D01*
X12127348Y33851374D01*
X12125919Y33855772D01*
X12126842Y33856073D01*
X12119762Y33921871D01*
X12151535Y33985361D01*
X12212590Y34021594D01*
X12283541Y34019067D01*
X12300955Y34011782D01*
X12326137Y33998951D01*
X12326139Y33998951D01*
X12326140Y33998950D01*
X12381930Y33980823D01*
X12493516Y33944566D01*
X12667342Y33917035D01*
X12667345Y33917035D01*
X12843333Y33917035D01*
X12843336Y33917035D01*
X13017162Y33944566D01*
X13184541Y33998951D01*
X13341351Y34078851D01*
X13483733Y34182296D01*
X13823704Y34522268D01*
X13927149Y34664649D01*
X14007049Y34821459D01*
X14061434Y34988839D01*
X14088965Y35162665D01*
X14088965Y35338658D01*
X14061434Y35512484D01*
X14021344Y35635865D01*
X14019317Y35706831D01*
X14055980Y35767629D01*
X14119692Y35798954D01*
X14141178Y35800800D01*
X16391769Y35800800D01*
X16459890Y35780798D01*
G37*
%TD.AperFunction*%
%TD*%
%TA.AperFunction,Conductor*%
%TO.N,VAA*%
G36*
X43190058Y61067698D02*
G01*
X43211032Y61050795D01*
X60999995Y43261832D01*
X61034021Y43199520D01*
X61036900Y43172737D01*
X61036900Y35559000D01*
X61016898Y35490879D01*
X60963242Y35444386D01*
X60910900Y35433000D01*
X47497998Y35433000D01*
X43688000Y31623002D01*
X43688000Y31623001D01*
X43638186Y25309106D01*
X43617647Y25241145D01*
X43563626Y25195077D01*
X43512190Y25184100D01*
X41135299Y25184100D01*
X41110858Y21994435D01*
X41090335Y21926469D01*
X41036325Y21880389D01*
X40984862Y21869400D01*
X29107400Y21869400D01*
X29039279Y21889402D01*
X28992786Y21943058D01*
X28981400Y21995400D01*
X28981400Y25107901D01*
X28207116Y25882601D01*
X32168615Y25882601D01*
X32168615Y25882600D01*
X32187671Y25737848D01*
X32243544Y25602959D01*
X32243549Y25602951D01*
X32332425Y25487126D01*
X32438317Y25405872D01*
X32448257Y25398245D01*
X32583146Y25342372D01*
X32727900Y25323315D01*
X32872654Y25342372D01*
X33007543Y25398245D01*
X33123374Y25487126D01*
X33212255Y25602957D01*
X33268128Y25737846D01*
X33283841Y25857201D01*
X36334215Y25857201D01*
X36334215Y25857200D01*
X36353271Y25712448D01*
X36409144Y25577559D01*
X36409149Y25577551D01*
X36498025Y25461726D01*
X36592651Y25389117D01*
X36613857Y25372845D01*
X36748746Y25316972D01*
X36893500Y25297915D01*
X37038254Y25316972D01*
X37173143Y25372845D01*
X37288974Y25461726D01*
X37377855Y25577557D01*
X37433728Y25712446D01*
X37452785Y25857200D01*
X37433728Y26001954D01*
X37377855Y26136842D01*
X37288974Y26252674D01*
X37288972Y26252676D01*
X37288971Y26252677D01*
X37173149Y26341551D01*
X37173141Y26341556D01*
X37038252Y26397429D01*
X36893500Y26416485D01*
X36748747Y26397429D01*
X36681302Y26369492D01*
X36613858Y26341555D01*
X36613857Y26341554D01*
X36613856Y26341554D01*
X36498026Y26252674D01*
X36409146Y26136844D01*
X36409145Y26136842D01*
X36393998Y26100274D01*
X36353271Y26001953D01*
X36334215Y25857201D01*
X33283841Y25857201D01*
X33287185Y25882600D01*
X33268128Y26027354D01*
X33212255Y26162242D01*
X33123374Y26278074D01*
X33123372Y26278076D01*
X33123371Y26278077D01*
X33007549Y26366951D01*
X33007541Y26366956D01*
X32872652Y26422829D01*
X32727900Y26441885D01*
X32583147Y26422829D01*
X32515702Y26394892D01*
X32448258Y26366955D01*
X32448257Y26366954D01*
X32448256Y26366954D01*
X32332426Y26278074D01*
X32243546Y26162244D01*
X32243545Y26162242D01*
X32233024Y26136842D01*
X32187671Y26027353D01*
X32168615Y25882601D01*
X28207116Y25882601D01*
X13635835Y40461715D01*
X11398752Y42700001D01*
X14840715Y42700001D01*
X14840715Y42700000D01*
X14859771Y42555248D01*
X14915644Y42420359D01*
X14915649Y42420351D01*
X15004525Y42304526D01*
X15114216Y42220357D01*
X15120357Y42215645D01*
X15255246Y42159772D01*
X15400000Y42140715D01*
X15403493Y42140715D01*
X15406332Y42139882D01*
X15408188Y42139637D01*
X15408149Y42139348D01*
X15471614Y42120713D01*
X15492588Y42103810D01*
X26245642Y31350755D01*
X26245647Y31350751D01*
X26245649Y31350749D01*
X26326850Y31303867D01*
X26417419Y31279600D01*
X26511181Y31279600D01*
X32812361Y31279600D01*
X32880482Y31259598D01*
X32901456Y31242695D01*
X32903924Y31240227D01*
X33019750Y31151350D01*
X33019757Y31151345D01*
X33154646Y31095472D01*
X33299400Y31076415D01*
X33444154Y31095472D01*
X33579043Y31151345D01*
X33694874Y31240226D01*
X33783755Y31356057D01*
X33839628Y31490946D01*
X33858685Y31635700D01*
X33856006Y31656046D01*
X33839628Y31780453D01*
X33839628Y31780454D01*
X33783755Y31915342D01*
X33694874Y32031174D01*
X33694872Y32031176D01*
X33694871Y32031177D01*
X33579049Y32120051D01*
X33579041Y32120056D01*
X33444152Y32175929D01*
X33299400Y32194985D01*
X33154647Y32175929D01*
X33088463Y32148514D01*
X33019758Y32120055D01*
X33019757Y32120054D01*
X33019756Y32120054D01*
X32903919Y32031169D01*
X32901456Y32028705D01*
X32898865Y32027291D01*
X32897374Y32026146D01*
X32897195Y32026379D01*
X32839144Y31994679D01*
X32812361Y31991800D01*
X26663992Y31991800D01*
X26595871Y32011802D01*
X26574897Y32028705D01*
X23778601Y34825001D01*
X24990715Y34825001D01*
X24990715Y34825000D01*
X25009771Y34680248D01*
X25065644Y34545359D01*
X25065649Y34545351D01*
X25154525Y34429526D01*
X25269976Y34340937D01*
X25270357Y34340645D01*
X25405246Y34284772D01*
X25550000Y34265715D01*
X25694754Y34284772D01*
X25829643Y34340645D01*
X25945474Y34429526D01*
X26034355Y34545357D01*
X26090228Y34680246D01*
X26105994Y34800001D01*
X28740715Y34800001D01*
X28740715Y34800000D01*
X28759771Y34655248D01*
X28815644Y34520359D01*
X28815649Y34520351D01*
X28904525Y34404526D01*
X29020350Y34315650D01*
X29020357Y34315645D01*
X29155246Y34259772D01*
X29300000Y34240715D01*
X29444754Y34259772D01*
X29579643Y34315645D01*
X29695474Y34404526D01*
X29784355Y34520357D01*
X29840228Y34655246D01*
X29859285Y34800000D01*
X29840228Y34944754D01*
X29784355Y35079642D01*
X29695474Y35195474D01*
X29695472Y35195476D01*
X29695471Y35195477D01*
X29579649Y35284351D01*
X29579641Y35284356D01*
X29444752Y35340229D01*
X29300000Y35359285D01*
X29155247Y35340229D01*
X29100707Y35317637D01*
X29020358Y35284355D01*
X29020357Y35284354D01*
X29020356Y35284354D01*
X28904526Y35195474D01*
X28815646Y35079644D01*
X28815645Y35079642D01*
X28792108Y35022820D01*
X28759771Y34944753D01*
X28740715Y34800001D01*
X26105994Y34800001D01*
X26109285Y34825000D01*
X26090228Y34969754D01*
X26034355Y35104642D01*
X25945474Y35220474D01*
X25945472Y35220476D01*
X25945471Y35220477D01*
X25829649Y35309351D01*
X25829641Y35309356D01*
X25694752Y35365229D01*
X25550000Y35384285D01*
X25405247Y35365229D01*
X25344894Y35340229D01*
X25270358Y35309355D01*
X25270357Y35309354D01*
X25270356Y35309354D01*
X25154526Y35220474D01*
X25065646Y35104644D01*
X25065645Y35104642D01*
X25051726Y35071039D01*
X25009771Y34969753D01*
X24990715Y34825001D01*
X23778601Y34825001D01*
X21823971Y36779631D01*
X21789945Y36841943D01*
X21795010Y36912758D01*
X21836360Y36968687D01*
X21934674Y37044126D01*
X22023555Y37159957D01*
X22079428Y37294846D01*
X22098485Y37439600D01*
X22079428Y37584354D01*
X22023555Y37719242D01*
X21934674Y37835074D01*
X21934672Y37835076D01*
X21934671Y37835077D01*
X21818849Y37923951D01*
X21818841Y37923956D01*
X21683952Y37979829D01*
X21539200Y37998885D01*
X21394447Y37979829D01*
X21343019Y37958526D01*
X21259558Y37923955D01*
X21259557Y37923954D01*
X21259556Y37923954D01*
X21181101Y37863753D01*
X21143726Y37835074D01*
X21112758Y37794715D01*
X21068289Y37736762D01*
X21010951Y37694895D01*
X20940080Y37690673D01*
X20879231Y37724371D01*
X17303601Y41300001D01*
X20440715Y41300001D01*
X20440715Y41300000D01*
X20459771Y41155248D01*
X20515644Y41020359D01*
X20515649Y41020351D01*
X20604525Y40904526D01*
X20720350Y40815650D01*
X20720357Y40815645D01*
X20855246Y40759772D01*
X21000000Y40740715D01*
X21144754Y40759772D01*
X21279643Y40815645D01*
X21395474Y40904526D01*
X21484355Y41020357D01*
X21540228Y41155246D01*
X21559285Y41300000D01*
X21559200Y41300642D01*
X21540228Y41444753D01*
X21540228Y41444754D01*
X21517344Y41500001D01*
X24365715Y41500001D01*
X24365715Y41500000D01*
X24384771Y41355248D01*
X24440644Y41220359D01*
X24440649Y41220351D01*
X24529525Y41104526D01*
X24639216Y41020357D01*
X24645357Y41015645D01*
X24780246Y40959772D01*
X24925000Y40940715D01*
X25069754Y40959772D01*
X25204643Y41015645D01*
X25320474Y41104526D01*
X25409355Y41220357D01*
X25465228Y41355246D01*
X25484285Y41500000D01*
X25465228Y41644754D01*
X25409355Y41779642D01*
X25409353Y41779645D01*
X25406349Y41786897D01*
X25398760Y41857487D01*
X25430539Y41920974D01*
X25491597Y41957202D01*
X25562548Y41954668D01*
X25611855Y41924209D01*
X27894525Y39641351D01*
X29956669Y37579036D01*
X29990692Y37516722D01*
X29985624Y37445907D01*
X29943075Y37389073D01*
X29915792Y37373537D01*
X29895563Y37365158D01*
X29895556Y37365154D01*
X29779726Y37276274D01*
X29690846Y37160444D01*
X29690845Y37160442D01*
X29690642Y37159951D01*
X29634971Y37025553D01*
X29615915Y36880801D01*
X29615915Y36880800D01*
X29634971Y36736048D01*
X29690844Y36601159D01*
X29690849Y36601151D01*
X29779725Y36485326D01*
X29888338Y36401984D01*
X29895557Y36396445D01*
X30030446Y36340572D01*
X30175200Y36321515D01*
X30319954Y36340572D01*
X30454843Y36396445D01*
X30570674Y36485326D01*
X30659555Y36601157D01*
X30667913Y36621337D01*
X30712458Y36676615D01*
X30779820Y36699038D01*
X30848612Y36681482D01*
X30873418Y36662211D01*
X34080720Y33454644D01*
X34471745Y33063587D01*
X34505768Y33001273D01*
X34507568Y32990942D01*
X34524471Y32862548D01*
X34580344Y32727659D01*
X34580349Y32727651D01*
X34669225Y32611826D01*
X34785050Y32522950D01*
X34785057Y32522945D01*
X34919946Y32467072D01*
X35064700Y32448015D01*
X35209454Y32467072D01*
X35344343Y32522945D01*
X35460174Y32611826D01*
X35549055Y32727657D01*
X35604928Y32862546D01*
X35623985Y33007300D01*
X35604928Y33152054D01*
X35549055Y33286942D01*
X35460174Y33402774D01*
X35460172Y33402776D01*
X35460171Y33402777D01*
X35344349Y33491651D01*
X35344341Y33491656D01*
X35209452Y33547529D01*
X35081119Y33564424D01*
X35016192Y33593147D01*
X35008467Y33600254D01*
X34079836Y34528962D01*
X26209447Y42400001D01*
X28740715Y42400001D01*
X28740715Y42400000D01*
X28759771Y42255248D01*
X28815644Y42120359D01*
X28815649Y42120351D01*
X28904525Y42004526D01*
X29014216Y41920357D01*
X29020357Y41915645D01*
X29155246Y41859772D01*
X29300000Y41840715D01*
X29444754Y41859772D01*
X29579643Y41915645D01*
X29695474Y42004526D01*
X29784355Y42120357D01*
X29840228Y42255246D01*
X29859285Y42400000D01*
X29840228Y42544754D01*
X29817344Y42600001D01*
X33890715Y42600001D01*
X33890715Y42600000D01*
X33909771Y42455248D01*
X33965644Y42320359D01*
X33965649Y42320351D01*
X34054525Y42204526D01*
X34164216Y42120357D01*
X34170357Y42115645D01*
X34305246Y42059772D01*
X34450000Y42040715D01*
X34453493Y42040715D01*
X34456332Y42039882D01*
X34458188Y42039637D01*
X34458149Y42039348D01*
X34521614Y42020713D01*
X34542588Y42003810D01*
X36998043Y39548355D01*
X37032069Y39486043D01*
X37027004Y39415228D01*
X36984457Y39358392D01*
X36925395Y39334338D01*
X36780247Y39315229D01*
X36712802Y39287292D01*
X36645358Y39259355D01*
X36645357Y39259354D01*
X36645356Y39259354D01*
X36529526Y39170474D01*
X36440646Y39054644D01*
X36440645Y39054642D01*
X36420991Y39007194D01*
X36384771Y38919753D01*
X36365715Y38775001D01*
X36365715Y38775000D01*
X36384771Y38630248D01*
X36440644Y38495359D01*
X36440649Y38495351D01*
X36529525Y38379526D01*
X36629907Y38302500D01*
X36645357Y38290645D01*
X36780246Y38234772D01*
X36925000Y38215715D01*
X37069754Y38234772D01*
X37163283Y38273514D01*
X37233871Y38281103D01*
X37297358Y38249324D01*
X37333586Y38188267D01*
X37337500Y38157105D01*
X37337500Y32135439D01*
X37317498Y32067318D01*
X37300595Y32046344D01*
X37298131Y32043881D01*
X37209246Y31928044D01*
X37209245Y31928042D01*
X37187442Y31875405D01*
X37153371Y31793153D01*
X37134315Y31648401D01*
X37134315Y31648400D01*
X37153371Y31503648D01*
X37209244Y31368759D01*
X37209249Y31368751D01*
X37298125Y31252926D01*
X37413950Y31164050D01*
X37413957Y31164045D01*
X37548846Y31108172D01*
X37693600Y31089115D01*
X37838354Y31108172D01*
X37973243Y31164045D01*
X38089074Y31252926D01*
X38177955Y31368757D01*
X38233828Y31503646D01*
X38252885Y31648400D01*
X38251878Y31656046D01*
X38233828Y31793153D01*
X38233226Y31794607D01*
X38177955Y31928042D01*
X38089074Y32043874D01*
X38089072Y32043876D01*
X38089068Y32043881D01*
X38086605Y32046344D01*
X38085190Y32048935D01*
X38084046Y32050426D01*
X38084278Y32050605D01*
X38052579Y32108656D01*
X38049700Y32135439D01*
X38049700Y34528962D01*
X38069702Y34597083D01*
X38123358Y34643576D01*
X38193632Y34653680D01*
X38258212Y34624186D01*
X38292106Y34577183D01*
X38305289Y34545359D01*
X38315644Y34520359D01*
X38315649Y34520351D01*
X38394462Y34417641D01*
X38420063Y34351421D01*
X38420500Y34340937D01*
X38420500Y33782697D01*
X38420499Y33782679D01*
X38420499Y33675035D01*
X38424701Y33659355D01*
X38440896Y33598916D01*
X38446362Y33578518D01*
X38454499Y33564424D01*
X38496321Y33491985D01*
X38496329Y33491975D01*
X38574156Y33414148D01*
X38574170Y33414136D01*
X38757045Y33231261D01*
X38791071Y33168949D01*
X38792872Y33158613D01*
X38809771Y33030248D01*
X38865644Y32895359D01*
X38865649Y32895351D01*
X38954525Y32779526D01*
X39066678Y32693468D01*
X39070357Y32690645D01*
X39205246Y32634772D01*
X39350000Y32615715D01*
X39494754Y32634772D01*
X39629643Y32690645D01*
X39745474Y32779526D01*
X39834355Y32895357D01*
X39875463Y32994601D01*
X40995115Y32994601D01*
X40995115Y32994600D01*
X41014171Y32849848D01*
X41070044Y32714959D01*
X41070049Y32714951D01*
X41158925Y32599126D01*
X41274178Y32510689D01*
X41274757Y32510245D01*
X41409646Y32454372D01*
X41554400Y32435315D01*
X41699154Y32454372D01*
X41834043Y32510245D01*
X41949874Y32599126D01*
X42038755Y32714957D01*
X42094628Y32849846D01*
X42113685Y32994600D01*
X42112806Y33001273D01*
X42094628Y33139353D01*
X42094628Y33139354D01*
X42038755Y33274242D01*
X42003833Y33319753D01*
X41959937Y33376961D01*
X41934337Y33443181D01*
X41933900Y33453664D01*
X41933900Y35376016D01*
X41953902Y35444137D01*
X41970800Y35465107D01*
X42100295Y35594603D01*
X42119682Y35609478D01*
X42119667Y35609498D01*
X42126212Y35614522D01*
X42126219Y35614525D01*
X42132638Y35620945D01*
X42132646Y35620950D01*
X42224043Y35712348D01*
X42224050Y35712358D01*
X44230693Y37719001D01*
X46176715Y37719001D01*
X46176715Y37719000D01*
X46195771Y37574248D01*
X46251644Y37439359D01*
X46251649Y37439351D01*
X46340525Y37323526D01*
X46456350Y37234650D01*
X46456357Y37234645D01*
X46591246Y37178772D01*
X46736000Y37159715D01*
X46880754Y37178772D01*
X47015643Y37234645D01*
X47131474Y37323526D01*
X47220355Y37439357D01*
X47276228Y37574246D01*
X47278889Y37594468D01*
X47307609Y37659391D01*
X47314704Y37667104D01*
X48001601Y38354001D01*
X51129715Y38354001D01*
X51129715Y38354000D01*
X51148771Y38209248D01*
X51204644Y38074359D01*
X51204649Y38074351D01*
X51293525Y37958526D01*
X51402378Y37875000D01*
X51409357Y37869645D01*
X51544246Y37813772D01*
X51689000Y37794715D01*
X51833754Y37813772D01*
X51968643Y37869645D01*
X52084474Y37958526D01*
X52173355Y38074357D01*
X52229228Y38209246D01*
X52248285Y38354000D01*
X52244924Y38379526D01*
X52229228Y38498753D01*
X52217140Y38527936D01*
X52173355Y38633642D01*
X52084474Y38749474D01*
X52084472Y38749476D01*
X52084471Y38749477D01*
X51968649Y38838351D01*
X51968641Y38838356D01*
X51833752Y38894229D01*
X51689000Y38913285D01*
X51544247Y38894229D01*
X51476802Y38866292D01*
X51409358Y38838355D01*
X51409357Y38838354D01*
X51409356Y38838354D01*
X51293526Y38749474D01*
X51204646Y38633644D01*
X51204645Y38633642D01*
X51197199Y38615666D01*
X51148771Y38498753D01*
X51129715Y38354001D01*
X48001601Y38354001D01*
X50072410Y40424811D01*
X50134722Y40458836D01*
X50161505Y40461715D01*
X50165000Y40461715D01*
X50309754Y40480772D01*
X50444643Y40536645D01*
X50560474Y40625526D01*
X50571586Y40640007D01*
X55545580Y40640007D01*
X55545580Y40639994D01*
X55565239Y40327510D01*
X55565240Y40327497D01*
X55565241Y40327492D01*
X55623915Y40019912D01*
X55720677Y39722111D01*
X55853999Y39438786D01*
X55854001Y39438783D01*
X55854004Y39438777D01*
X56021775Y39174411D01*
X56221371Y38933141D01*
X56221374Y38933139D01*
X56221375Y38933137D01*
X56322312Y38838351D01*
X56449634Y38718787D01*
X56701293Y38535946D01*
X56702959Y38534736D01*
X56977353Y38383886D01*
X57182912Y38302500D01*
X57268485Y38268619D01*
X57268488Y38268619D01*
X57268491Y38268617D01*
X57571780Y38190745D01*
X57571783Y38190745D01*
X57571786Y38190744D01*
X57777061Y38164812D01*
X57882437Y38151500D01*
X57882441Y38151500D01*
X58195559Y38151500D01*
X58195563Y38151500D01*
X58486605Y38188267D01*
X58506213Y38190744D01*
X58506214Y38190745D01*
X58506220Y38190745D01*
X58809509Y38268617D01*
X59100647Y38383886D01*
X59375041Y38534736D01*
X59628366Y38718787D01*
X59856625Y38933137D01*
X60056219Y39174404D01*
X60056221Y39174409D01*
X60056224Y39174411D01*
X60172981Y39358392D01*
X60224001Y39438786D01*
X60357323Y39722111D01*
X60454085Y40019912D01*
X60512759Y40327492D01*
X60521022Y40458836D01*
X60532420Y40639994D01*
X60532420Y40640007D01*
X60512760Y40952491D01*
X60512759Y40952508D01*
X60454085Y41260088D01*
X60357323Y41557889D01*
X60224001Y41841214D01*
X60176766Y41915645D01*
X60056224Y42105590D01*
X59856628Y42346860D01*
X59832248Y42369754D01*
X59628366Y42561213D01*
X59579788Y42596507D01*
X59375043Y42745263D01*
X59276263Y42799568D01*
X59100647Y42896114D01*
X58989225Y42940229D01*
X58809514Y43011382D01*
X58809496Y43011387D01*
X58506226Y43089254D01*
X58506213Y43089257D01*
X58195577Y43128499D01*
X58195566Y43128500D01*
X58195563Y43128500D01*
X57882437Y43128500D01*
X57882434Y43128500D01*
X57882422Y43128499D01*
X57571786Y43089257D01*
X57571773Y43089254D01*
X57268503Y43011387D01*
X57268485Y43011382D01*
X56977353Y42896114D01*
X56702956Y42745263D01*
X56449635Y42561214D01*
X56449634Y42561214D01*
X56221371Y42346860D01*
X56021775Y42105590D01*
X55854004Y41841224D01*
X55853997Y41841210D01*
X55720680Y41557896D01*
X55720678Y41557892D01*
X55623916Y41260092D01*
X55623914Y41260084D01*
X55565242Y40952515D01*
X55565239Y40952491D01*
X55545580Y40640007D01*
X50571586Y40640007D01*
X50649355Y40741357D01*
X50705228Y40876246D01*
X50724285Y41021000D01*
X50705228Y41165754D01*
X50649355Y41300642D01*
X50560474Y41416474D01*
X50560472Y41416476D01*
X50560471Y41416477D01*
X50444649Y41505351D01*
X50444641Y41505356D01*
X50309752Y41561229D01*
X50165000Y41580285D01*
X50020247Y41561229D01*
X49955775Y41534523D01*
X49885358Y41505355D01*
X49885357Y41505354D01*
X49885356Y41505354D01*
X49769526Y41416474D01*
X49680646Y41300644D01*
X49680645Y41300642D01*
X49657593Y41244990D01*
X49624771Y41165753D01*
X49605715Y41021001D01*
X49605715Y41017508D01*
X49604881Y41014670D01*
X49604637Y41012812D01*
X49604347Y41012851D01*
X49585713Y40949387D01*
X49568810Y40928413D01*
X46941366Y38300970D01*
X46879054Y38266944D01*
X46835825Y38265143D01*
X46736000Y38278285D01*
X46591247Y38259229D01*
X46523802Y38231292D01*
X46456358Y38203355D01*
X46456357Y38203354D01*
X46456356Y38203354D01*
X46340526Y38114474D01*
X46251646Y37998644D01*
X46251645Y37998642D01*
X46243852Y37979828D01*
X46195771Y37863753D01*
X46176715Y37719001D01*
X44230693Y37719001D01*
X45047642Y38535950D01*
X45047652Y38535957D01*
X45128670Y38616975D01*
X45128676Y38616981D01*
X45139576Y38635862D01*
X45165364Y38680526D01*
X45165365Y38680529D01*
X45178638Y38703518D01*
X45178639Y38703519D01*
X45204501Y38800038D01*
X45204501Y38899962D01*
X45204501Y38907679D01*
X45204500Y38907697D01*
X45204500Y41065937D01*
X45224502Y41134058D01*
X45230538Y41142641D01*
X45290167Y41220351D01*
X45309355Y41245357D01*
X45365228Y41380246D01*
X45384285Y41525000D01*
X45365228Y41669754D01*
X45309355Y41804642D01*
X45220474Y41920474D01*
X45220472Y41920476D01*
X45220471Y41920477D01*
X45104649Y42009351D01*
X45104641Y42009356D01*
X44969752Y42065229D01*
X44825000Y42084285D01*
X44680247Y42065229D01*
X44636706Y42047193D01*
X44545358Y42009355D01*
X44545357Y42009354D01*
X44545356Y42009354D01*
X44429526Y41920474D01*
X44340646Y41804644D01*
X44340645Y41804642D01*
X44330290Y41779643D01*
X44284771Y41669753D01*
X44265715Y41525001D01*
X44265715Y41525000D01*
X44284771Y41380248D01*
X44340644Y41245359D01*
X44340649Y41245351D01*
X44419462Y41142641D01*
X44445063Y41076421D01*
X44445500Y41065937D01*
X44445500Y39059385D01*
X44425498Y38991264D01*
X44408595Y38970290D01*
X43576514Y38138209D01*
X43514202Y38104183D01*
X43443387Y38109248D01*
X43387456Y38150600D01*
X43384355Y38154641D01*
X43384355Y38154642D01*
X43295474Y38270474D01*
X43295472Y38270476D01*
X43295471Y38270477D01*
X43179649Y38359351D01*
X43179641Y38359356D01*
X43044752Y38415229D01*
X42900000Y38434285D01*
X42755247Y38415229D01*
X42687802Y38387292D01*
X42620358Y38359355D01*
X42620357Y38359354D01*
X42620356Y38359354D01*
X42504526Y38270474D01*
X42415646Y38154644D01*
X42415645Y38154642D01*
X42408454Y38137281D01*
X42359771Y38019753D01*
X42340715Y37875001D01*
X42340715Y37875000D01*
X42359771Y37730248D01*
X42415644Y37595359D01*
X42415649Y37595351D01*
X42504525Y37479526D01*
X42624399Y37387543D01*
X42666266Y37330205D01*
X42670488Y37259334D01*
X42636790Y37198486D01*
X41702909Y36264605D01*
X41683517Y36249723D01*
X41683532Y36249703D01*
X41676981Y36244677D01*
X41641653Y36209348D01*
X41606324Y36174019D01*
X41606322Y36174017D01*
X41321383Y35889078D01*
X41321381Y35889076D01*
X41286053Y35853748D01*
X41250725Y35818421D01*
X41250721Y35818416D01*
X41200762Y35731884D01*
X41200763Y35731884D01*
X41200762Y35731880D01*
X41174899Y35635364D01*
X41174899Y35525288D01*
X41174900Y35525275D01*
X41174900Y33453664D01*
X41154898Y33385543D01*
X41148863Y33376961D01*
X41070049Y33274248D01*
X41070046Y33274245D01*
X41070045Y33274242D01*
X41059223Y33248115D01*
X41014171Y33139353D01*
X40995115Y32994601D01*
X39875463Y32994601D01*
X39890228Y33030246D01*
X39909285Y33175000D01*
X39903170Y33221445D01*
X39890228Y33319753D01*
X39890228Y33319754D01*
X39834355Y33454642D01*
X39745474Y33570474D01*
X39745472Y33570476D01*
X39745471Y33570477D01*
X39629649Y33659351D01*
X39629641Y33659356D01*
X39494752Y33715229D01*
X39366387Y33732128D01*
X39301460Y33760851D01*
X39293739Y33767955D01*
X39216405Y33845289D01*
X39182379Y33907601D01*
X39179500Y33934384D01*
X39179500Y34340937D01*
X39199502Y34409058D01*
X39205538Y34417641D01*
X39260692Y34489519D01*
X39284355Y34520357D01*
X39340228Y34655246D01*
X39359285Y34800000D01*
X39340228Y34944754D01*
X39284355Y35079642D01*
X39195474Y35195474D01*
X39195472Y35195476D01*
X39195471Y35195477D01*
X39079649Y35284351D01*
X39079641Y35284356D01*
X38944752Y35340229D01*
X38800000Y35359285D01*
X38655247Y35340229D01*
X38600707Y35317637D01*
X38520358Y35284355D01*
X38520357Y35284354D01*
X38520356Y35284354D01*
X38404526Y35195474D01*
X38315646Y35079644D01*
X38315642Y35079637D01*
X38292108Y35022820D01*
X38247560Y34967539D01*
X38180196Y34945119D01*
X38111405Y34962678D01*
X38063027Y35014640D01*
X38049700Y35071039D01*
X38049700Y39403279D01*
X38049700Y39403281D01*
X38025433Y39493850D01*
X37978551Y39575051D01*
X37912251Y39641351D01*
X35053601Y42500001D01*
X38240715Y42500001D01*
X38240715Y42500000D01*
X38259771Y42355248D01*
X38315644Y42220359D01*
X38315649Y42220351D01*
X38404525Y42104526D01*
X38503789Y42028358D01*
X38520357Y42015645D01*
X38655246Y41959772D01*
X38800000Y41940715D01*
X38944754Y41959772D01*
X39079643Y42015645D01*
X39195474Y42104526D01*
X39284355Y42220357D01*
X39286279Y42225001D01*
X42165715Y42225001D01*
X42165715Y42225000D01*
X42184771Y42080248D01*
X42240644Y41945359D01*
X42240649Y41945351D01*
X42329525Y41829526D01*
X42445350Y41740650D01*
X42445357Y41740645D01*
X42580246Y41684772D01*
X42725000Y41665715D01*
X42869754Y41684772D01*
X43004643Y41740645D01*
X43120474Y41829526D01*
X43209355Y41945357D01*
X43265228Y42080246D01*
X43280994Y42200001D01*
X48640715Y42200001D01*
X48640715Y42200000D01*
X48659771Y42055248D01*
X48715644Y41920359D01*
X48715649Y41920351D01*
X48804525Y41804526D01*
X48920350Y41715650D01*
X48920357Y41715645D01*
X49055246Y41659772D01*
X49200000Y41640715D01*
X49344754Y41659772D01*
X49479643Y41715645D01*
X49595474Y41804526D01*
X49684355Y41920357D01*
X49740228Y42055246D01*
X49759285Y42200000D01*
X49756853Y42218470D01*
X49740228Y42344753D01*
X49740228Y42344754D01*
X49684355Y42479642D01*
X49595474Y42595474D01*
X49595472Y42595476D01*
X49595471Y42595477D01*
X49479649Y42684351D01*
X49479641Y42684356D01*
X49344752Y42740229D01*
X49200000Y42759285D01*
X49055247Y42740229D01*
X48987802Y42712292D01*
X48920358Y42684355D01*
X48920357Y42684354D01*
X48920356Y42684354D01*
X48804526Y42595474D01*
X48715646Y42479644D01*
X48715645Y42479642D01*
X48705541Y42455248D01*
X48659771Y42344753D01*
X48640715Y42200001D01*
X43280994Y42200001D01*
X43284285Y42225000D01*
X43265228Y42369754D01*
X43209355Y42504642D01*
X43120474Y42620474D01*
X43120472Y42620476D01*
X43120471Y42620477D01*
X43004649Y42709351D01*
X43004641Y42709356D01*
X42869752Y42765229D01*
X42725000Y42784285D01*
X42580247Y42765229D01*
X42530818Y42744754D01*
X42445358Y42709355D01*
X42445357Y42709354D01*
X42445356Y42709354D01*
X42329526Y42620474D01*
X42240646Y42504644D01*
X42240645Y42504642D01*
X42230290Y42479643D01*
X42184771Y42369753D01*
X42165715Y42225001D01*
X39286279Y42225001D01*
X39340228Y42355246D01*
X39359285Y42500000D01*
X39340228Y42644754D01*
X39284355Y42779642D01*
X39195474Y42895474D01*
X39195472Y42895476D01*
X39195471Y42895477D01*
X39079649Y42984351D01*
X39079641Y42984356D01*
X38944752Y43040229D01*
X38800000Y43059285D01*
X38655247Y43040229D01*
X38587802Y43012292D01*
X38520358Y42984355D01*
X38520357Y42984354D01*
X38520356Y42984354D01*
X38404526Y42895474D01*
X38315646Y42779644D01*
X38315645Y42779642D01*
X38299319Y42740228D01*
X38259771Y42644753D01*
X38240715Y42500001D01*
X35053601Y42500001D01*
X35046190Y42507412D01*
X35012164Y42569724D01*
X35009285Y42596507D01*
X35009285Y42600001D01*
X34990228Y42744753D01*
X34990017Y42745263D01*
X34934355Y42879642D01*
X34845474Y42995474D01*
X34845472Y42995476D01*
X34845471Y42995477D01*
X34729649Y43084351D01*
X34729641Y43084356D01*
X34594752Y43140229D01*
X34450000Y43159285D01*
X34305247Y43140229D01*
X34237802Y43112292D01*
X34170358Y43084355D01*
X34170357Y43084354D01*
X34170356Y43084354D01*
X34054526Y42995474D01*
X33965646Y42879644D01*
X33965645Y42879642D01*
X33937708Y42812198D01*
X33909771Y42744753D01*
X33890715Y42600001D01*
X29817344Y42600001D01*
X29784355Y42679642D01*
X29695474Y42795474D01*
X29695472Y42795476D01*
X29695471Y42795477D01*
X29579649Y42884351D01*
X29579641Y42884356D01*
X29444752Y42940229D01*
X29300000Y42959285D01*
X29155247Y42940229D01*
X29087802Y42912292D01*
X29020358Y42884355D01*
X29020357Y42884354D01*
X29020356Y42884354D01*
X28904526Y42795474D01*
X28815646Y42679644D01*
X28815645Y42679642D01*
X28791138Y42620477D01*
X28759771Y42544753D01*
X28740715Y42400001D01*
X26209447Y42400001D01*
X25682691Y42926800D01*
X25682665Y42926830D01*
X25669266Y42940229D01*
X25624547Y42984948D01*
X25624544Y42984954D01*
X25624543Y42984952D01*
X25605831Y43003666D01*
X25605830Y43003667D01*
X25605822Y43003675D01*
X25554263Y43033443D01*
X25554261Y43033444D01*
X25519296Y43053632D01*
X25519294Y43053633D01*
X25519285Y43053638D01*
X25480088Y43064140D01*
X25480088Y43064142D01*
X25480081Y43064142D01*
X25437018Y43075683D01*
X25392931Y43097426D01*
X25279649Y43184351D01*
X25279641Y43184356D01*
X25144752Y43240229D01*
X25000000Y43259285D01*
X24855247Y43240229D01*
X24818306Y43224927D01*
X24720358Y43184355D01*
X24720357Y43184354D01*
X24720356Y43184354D01*
X24604526Y43095474D01*
X24515646Y42979644D01*
X24515645Y42979642D01*
X24499319Y42940228D01*
X24459771Y42844753D01*
X24440715Y42700001D01*
X24440715Y42700000D01*
X24459771Y42555248D01*
X24515644Y42420359D01*
X24515649Y42420351D01*
X24604523Y42304529D01*
X24604524Y42304528D01*
X24604526Y42304526D01*
X24716679Y42218468D01*
X24758544Y42161132D01*
X24762766Y42090261D01*
X24728002Y42028358D01*
X24688194Y42002099D01*
X24645359Y41984356D01*
X24645356Y41984354D01*
X24529526Y41895474D01*
X24440646Y41779644D01*
X24440645Y41779642D01*
X24424494Y41740650D01*
X24384771Y41644753D01*
X24365715Y41500001D01*
X21517344Y41500001D01*
X21484355Y41579642D01*
X21395474Y41695474D01*
X21395472Y41695476D01*
X21395471Y41695477D01*
X21279649Y41784351D01*
X21279641Y41784356D01*
X21144752Y41840229D01*
X21000000Y41859285D01*
X20855247Y41840229D01*
X20787802Y41812292D01*
X20720358Y41784355D01*
X20720357Y41784354D01*
X20720356Y41784354D01*
X20604526Y41695474D01*
X20515646Y41579644D01*
X20515645Y41579642D01*
X20506636Y41557892D01*
X20459771Y41444753D01*
X20440715Y41300001D01*
X17303601Y41300001D01*
X15996190Y42607412D01*
X15962164Y42669724D01*
X15959285Y42696507D01*
X15959285Y42700001D01*
X15940228Y42844753D01*
X15940228Y42844754D01*
X15884355Y42979642D01*
X15795474Y43095474D01*
X15795472Y43095476D01*
X15795471Y43095477D01*
X15679649Y43184351D01*
X15679641Y43184356D01*
X15544752Y43240229D01*
X15400000Y43259285D01*
X15255247Y43240229D01*
X15218306Y43224927D01*
X15120358Y43184355D01*
X15120357Y43184354D01*
X15120356Y43184354D01*
X15004526Y43095474D01*
X14915646Y42979644D01*
X14915645Y42979642D01*
X14899319Y42940228D01*
X14859771Y42844753D01*
X14840715Y42700001D01*
X11398752Y42700001D01*
X7101064Y47000001D01*
X19840715Y47000001D01*
X19840715Y47000000D01*
X19859771Y46855248D01*
X19915644Y46720359D01*
X19915649Y46720351D01*
X20004525Y46604526D01*
X20120350Y46515650D01*
X20120357Y46515645D01*
X20255246Y46459772D01*
X20400000Y46440715D01*
X20544754Y46459772D01*
X20679643Y46515645D01*
X20795474Y46604526D01*
X20884355Y46720357D01*
X20940228Y46855246D01*
X20959285Y47000000D01*
X20940228Y47144754D01*
X20884355Y47279642D01*
X20795474Y47395474D01*
X20795472Y47395476D01*
X20795471Y47395477D01*
X20789575Y47400001D01*
X22340715Y47400001D01*
X22340715Y47400000D01*
X22359771Y47255248D01*
X22415644Y47120359D01*
X22415649Y47120351D01*
X22504525Y47004526D01*
X22620350Y46915650D01*
X22620357Y46915645D01*
X22755246Y46859772D01*
X22900000Y46840715D01*
X23044754Y46859772D01*
X23179643Y46915645D01*
X23295474Y47004526D01*
X23384355Y47120357D01*
X23440228Y47255246D01*
X23442829Y47275001D01*
X27815715Y47275001D01*
X27815715Y47275000D01*
X27834771Y47130248D01*
X27890644Y46995359D01*
X27890649Y46995351D01*
X27979525Y46879526D01*
X28095350Y46790650D01*
X28095357Y46790645D01*
X28230246Y46734772D01*
X28375000Y46715715D01*
X28519754Y46734772D01*
X28654643Y46790645D01*
X28770474Y46879526D01*
X28859355Y46995357D01*
X28915228Y47130246D01*
X28934285Y47275000D01*
X28915228Y47419754D01*
X28913055Y47425001D01*
X32640715Y47425001D01*
X32640715Y47425000D01*
X32659771Y47280248D01*
X32715644Y47145359D01*
X32715649Y47145351D01*
X32804525Y47029526D01*
X32849063Y46995351D01*
X32920357Y46940645D01*
X33055246Y46884772D01*
X33200000Y46865715D01*
X33344754Y46884772D01*
X33479643Y46940645D01*
X33595474Y47029526D01*
X33684355Y47145357D01*
X33696634Y47175001D01*
X38240715Y47175001D01*
X38240715Y47175000D01*
X38259771Y47030248D01*
X38315644Y46895359D01*
X38315649Y46895351D01*
X38404525Y46779526D01*
X38487685Y46715715D01*
X38520357Y46690645D01*
X38655246Y46634772D01*
X38800000Y46615715D01*
X38944754Y46634772D01*
X39079643Y46690645D01*
X39195474Y46779526D01*
X39284355Y46895357D01*
X39340228Y47030246D01*
X39359285Y47175000D01*
X39340228Y47319754D01*
X39306988Y47400001D01*
X41840715Y47400001D01*
X41840715Y47400000D01*
X41859771Y47255248D01*
X41915644Y47120359D01*
X41915649Y47120351D01*
X42004525Y47004526D01*
X42120350Y46915650D01*
X42120357Y46915645D01*
X42255246Y46859772D01*
X42400000Y46840715D01*
X42544754Y46859772D01*
X42679643Y46915645D01*
X42795474Y47004526D01*
X42884355Y47120357D01*
X42940228Y47255246D01*
X42959285Y47400000D01*
X42959285Y47400001D01*
X51840715Y47400001D01*
X51840715Y47400000D01*
X51859771Y47255248D01*
X51915644Y47120359D01*
X51915649Y47120351D01*
X52004525Y47004526D01*
X52120350Y46915650D01*
X52120357Y46915645D01*
X52255246Y46859772D01*
X52400000Y46840715D01*
X52544754Y46859772D01*
X52679643Y46915645D01*
X52795474Y47004526D01*
X52884355Y47120357D01*
X52940228Y47255246D01*
X52959285Y47400000D01*
X52956684Y47419753D01*
X52940228Y47544753D01*
X52936132Y47554642D01*
X52884355Y47679642D01*
X52795474Y47795474D01*
X52795472Y47795476D01*
X52795471Y47795477D01*
X52679649Y47884351D01*
X52679641Y47884356D01*
X52544752Y47940229D01*
X52400000Y47959285D01*
X52255247Y47940229D01*
X52187802Y47912292D01*
X52120358Y47884355D01*
X52120357Y47884354D01*
X52120356Y47884354D01*
X52004526Y47795474D01*
X51915646Y47679644D01*
X51915645Y47679642D01*
X51887708Y47612198D01*
X51859771Y47544753D01*
X51840715Y47400001D01*
X42959285Y47400001D01*
X42956684Y47419753D01*
X42940228Y47544753D01*
X42936132Y47554642D01*
X42884355Y47679642D01*
X42795474Y47795474D01*
X42795472Y47795476D01*
X42795471Y47795477D01*
X42679649Y47884351D01*
X42679641Y47884356D01*
X42544752Y47940229D01*
X42400000Y47959285D01*
X42255247Y47940229D01*
X42187802Y47912292D01*
X42120358Y47884355D01*
X42120357Y47884354D01*
X42120356Y47884354D01*
X42004526Y47795474D01*
X41915646Y47679644D01*
X41915645Y47679642D01*
X41887708Y47612198D01*
X41859771Y47544753D01*
X41840715Y47400001D01*
X39306988Y47400001D01*
X39284355Y47454642D01*
X39195474Y47570474D01*
X39195472Y47570476D01*
X39195471Y47570477D01*
X39079649Y47659351D01*
X39079641Y47659356D01*
X38944752Y47715229D01*
X38800000Y47734285D01*
X38655247Y47715229D01*
X38629689Y47704642D01*
X38520358Y47659355D01*
X38520357Y47659354D01*
X38520356Y47659354D01*
X38404526Y47570474D01*
X38315646Y47454644D01*
X38315645Y47454642D01*
X38293012Y47400001D01*
X38259771Y47319753D01*
X38240715Y47175001D01*
X33696634Y47175001D01*
X33740228Y47280246D01*
X33759285Y47425000D01*
X33755382Y47454643D01*
X33743519Y47544754D01*
X33740228Y47569754D01*
X33684355Y47704642D01*
X33595474Y47820474D01*
X33595472Y47820476D01*
X33595471Y47820477D01*
X33479649Y47909351D01*
X33479641Y47909356D01*
X33344752Y47965229D01*
X33200000Y47984285D01*
X33055247Y47965229D01*
X32994894Y47940229D01*
X32920358Y47909355D01*
X32920357Y47909354D01*
X32920356Y47909354D01*
X32804526Y47820474D01*
X32715646Y47704644D01*
X32715645Y47704642D01*
X32696886Y47659354D01*
X32659771Y47569753D01*
X32640715Y47425001D01*
X28913055Y47425001D01*
X28859355Y47554642D01*
X28770474Y47670474D01*
X28770472Y47670476D01*
X28770471Y47670477D01*
X28654649Y47759351D01*
X28654641Y47759356D01*
X28519752Y47815229D01*
X28375000Y47834285D01*
X28230247Y47815229D01*
X28182563Y47795477D01*
X28095358Y47759355D01*
X28095357Y47759354D01*
X28095356Y47759354D01*
X27979526Y47670474D01*
X27890646Y47554644D01*
X27890645Y47554642D01*
X27862708Y47487198D01*
X27834771Y47419753D01*
X27815715Y47275001D01*
X23442829Y47275001D01*
X23459285Y47400000D01*
X23456684Y47419753D01*
X23440228Y47544753D01*
X23436132Y47554642D01*
X23384355Y47679642D01*
X23295474Y47795474D01*
X23295472Y47795476D01*
X23295471Y47795477D01*
X23179649Y47884351D01*
X23179641Y47884356D01*
X23044752Y47940229D01*
X22900000Y47959285D01*
X22755247Y47940229D01*
X22687802Y47912292D01*
X22620358Y47884355D01*
X22620357Y47884354D01*
X22620356Y47884354D01*
X22504526Y47795474D01*
X22415646Y47679644D01*
X22415645Y47679642D01*
X22387708Y47612198D01*
X22359771Y47544753D01*
X22340715Y47400001D01*
X20789575Y47400001D01*
X20679649Y47484351D01*
X20679641Y47484356D01*
X20544752Y47540229D01*
X20400000Y47559285D01*
X20255247Y47540229D01*
X20187802Y47512292D01*
X20120358Y47484355D01*
X20120357Y47484354D01*
X20120356Y47484354D01*
X20004526Y47395474D01*
X19915646Y47279644D01*
X19915645Y47279642D01*
X19905541Y47255248D01*
X19859771Y47144753D01*
X19840715Y47000001D01*
X7101064Y47000001D01*
X5514513Y48587405D01*
X5480506Y48649723D01*
X5485590Y48720537D01*
X5514535Y48765563D01*
X7448973Y50700001D01*
X48240715Y50700001D01*
X48240715Y50700000D01*
X48259771Y50555248D01*
X48315644Y50420359D01*
X48315649Y50420351D01*
X48404525Y50304526D01*
X48520350Y50215650D01*
X48520357Y50215645D01*
X48655246Y50159772D01*
X48800000Y50140715D01*
X48944754Y50159772D01*
X49079643Y50215645D01*
X49195474Y50304526D01*
X49284355Y50420357D01*
X49340228Y50555246D01*
X49359285Y50700000D01*
X49340228Y50844754D01*
X49284355Y50979642D01*
X49195474Y51095474D01*
X49195472Y51095476D01*
X49195471Y51095477D01*
X49079649Y51184351D01*
X49079641Y51184356D01*
X48944752Y51240229D01*
X48800000Y51259285D01*
X48655247Y51240229D01*
X48587802Y51212292D01*
X48520358Y51184355D01*
X48520357Y51184354D01*
X48520356Y51184354D01*
X48404526Y51095474D01*
X48315646Y50979644D01*
X48315645Y50979642D01*
X48287708Y50912198D01*
X48259771Y50844753D01*
X48240715Y50700001D01*
X7448973Y50700001D01*
X10469642Y53720670D01*
X20471900Y53720670D01*
X20471900Y51943337D01*
X20471901Y51943327D01*
X20486665Y51869100D01*
X20542916Y51784916D01*
X20627097Y51728667D01*
X20627099Y51728666D01*
X20701333Y51713900D01*
X22478666Y51713901D01*
X22478669Y51713902D01*
X22478673Y51713902D01*
X22527926Y51723699D01*
X22552901Y51728666D01*
X22637084Y51784916D01*
X22693334Y51869099D01*
X22708100Y51943333D01*
X22708099Y52832000D01*
X23007110Y52832000D01*
X23026229Y52625668D01*
X23082933Y52426373D01*
X23082939Y52426357D01*
X23175296Y52240880D01*
X23175300Y52240875D01*
X23300175Y52075513D01*
X23453308Y51935914D01*
X23453309Y51935913D01*
X23629473Y51826837D01*
X23629476Y51826836D01*
X23629485Y51826830D01*
X23822707Y51751976D01*
X24026393Y51713900D01*
X24026397Y51713900D01*
X24233603Y51713900D01*
X24233607Y51713900D01*
X24437293Y51751976D01*
X24630515Y51826830D01*
X24806692Y51935914D01*
X24959826Y52075514D01*
X25084700Y52240875D01*
X25084701Y52240879D01*
X25084703Y52240880D01*
X25177060Y52426357D01*
X25177059Y52426357D01*
X25177064Y52426365D01*
X25233771Y52625670D01*
X25252890Y52832000D01*
X25547110Y52832000D01*
X25566229Y52625668D01*
X25622933Y52426373D01*
X25622939Y52426357D01*
X25715296Y52240880D01*
X25715300Y52240875D01*
X25840175Y52075513D01*
X25993308Y51935914D01*
X25993309Y51935913D01*
X26169473Y51826837D01*
X26169476Y51826836D01*
X26169485Y51826830D01*
X26362707Y51751976D01*
X26566393Y51713900D01*
X26566397Y51713900D01*
X26773603Y51713900D01*
X26773607Y51713900D01*
X26977293Y51751976D01*
X27170515Y51826830D01*
X27346692Y51935914D01*
X27499826Y52075514D01*
X27624700Y52240875D01*
X27624701Y52240879D01*
X27624703Y52240880D01*
X27717060Y52426357D01*
X27717059Y52426357D01*
X27717064Y52426365D01*
X27773771Y52625670D01*
X27792890Y52832000D01*
X28087110Y52832000D01*
X28106229Y52625668D01*
X28162933Y52426373D01*
X28162939Y52426357D01*
X28255296Y52240880D01*
X28255300Y52240875D01*
X28380175Y52075513D01*
X28533308Y51935914D01*
X28533309Y51935913D01*
X28709473Y51826837D01*
X28709476Y51826836D01*
X28709485Y51826830D01*
X28902707Y51751976D01*
X29106393Y51713900D01*
X29106397Y51713900D01*
X29313603Y51713900D01*
X29313607Y51713900D01*
X29517293Y51751976D01*
X29710515Y51826830D01*
X29886692Y51935914D01*
X30039826Y52075514D01*
X30164700Y52240875D01*
X30164701Y52240879D01*
X30164703Y52240880D01*
X30257060Y52426357D01*
X30257059Y52426357D01*
X30257064Y52426365D01*
X30313771Y52625670D01*
X30332890Y52832000D01*
X30313771Y53038330D01*
X30257064Y53237635D01*
X30257060Y53237644D01*
X30164703Y53423121D01*
X30164699Y53423126D01*
X30039824Y53588488D01*
X29886691Y53728087D01*
X29886690Y53728088D01*
X29710526Y53837164D01*
X29710519Y53837168D01*
X29710515Y53837170D01*
X29578406Y53888349D01*
X29517294Y53912024D01*
X29313607Y53950100D01*
X29106393Y53950100D01*
X29106392Y53950100D01*
X28902705Y53912024D01*
X28769908Y53860578D01*
X28709485Y53837170D01*
X28709484Y53837170D01*
X28709483Y53837169D01*
X28709473Y53837164D01*
X28533309Y53728088D01*
X28533308Y53728087D01*
X28380175Y53588488D01*
X28255300Y53423126D01*
X28255296Y53423121D01*
X28162939Y53237644D01*
X28162933Y53237628D01*
X28106229Y53038333D01*
X28087110Y52832000D01*
X27792890Y52832000D01*
X27773771Y53038330D01*
X27717064Y53237635D01*
X27717060Y53237644D01*
X27624703Y53423121D01*
X27624699Y53423126D01*
X27499824Y53588488D01*
X27346691Y53728087D01*
X27346690Y53728088D01*
X27170526Y53837164D01*
X27170519Y53837168D01*
X27170515Y53837170D01*
X27038406Y53888349D01*
X26977294Y53912024D01*
X26773607Y53950100D01*
X26566393Y53950100D01*
X26566392Y53950100D01*
X26362705Y53912024D01*
X26229908Y53860578D01*
X26169485Y53837170D01*
X26169484Y53837170D01*
X26169483Y53837169D01*
X26169473Y53837164D01*
X25993309Y53728088D01*
X25993308Y53728087D01*
X25840175Y53588488D01*
X25715300Y53423126D01*
X25715296Y53423121D01*
X25622939Y53237644D01*
X25622933Y53237628D01*
X25566229Y53038333D01*
X25547110Y52832000D01*
X25252890Y52832000D01*
X25233771Y53038330D01*
X25177064Y53237635D01*
X25177060Y53237644D01*
X25084703Y53423121D01*
X25084699Y53423126D01*
X24959824Y53588488D01*
X24806691Y53728087D01*
X24806690Y53728088D01*
X24630526Y53837164D01*
X24630519Y53837168D01*
X24630515Y53837170D01*
X24498406Y53888349D01*
X24437294Y53912024D01*
X24233607Y53950100D01*
X24026393Y53950100D01*
X24026392Y53950100D01*
X23822705Y53912024D01*
X23689908Y53860578D01*
X23629485Y53837170D01*
X23629484Y53837170D01*
X23629483Y53837169D01*
X23629473Y53837164D01*
X23453309Y53728088D01*
X23453308Y53728087D01*
X23300175Y53588488D01*
X23175300Y53423126D01*
X23175296Y53423121D01*
X23082939Y53237644D01*
X23082933Y53237628D01*
X23026229Y53038333D01*
X23007110Y52832000D01*
X22708099Y52832000D01*
X22708099Y53720666D01*
X22708098Y53720670D01*
X22708098Y53720674D01*
X22693334Y53794901D01*
X22649449Y53860578D01*
X22637084Y53879084D01*
X22637083Y53879085D01*
X22552902Y53935334D01*
X22478667Y53950100D01*
X20701336Y53950100D01*
X20701326Y53950099D01*
X20627099Y53935335D01*
X20542915Y53879084D01*
X20486666Y53794903D01*
X20471900Y53720670D01*
X10469642Y53720670D01*
X11651073Y54902101D01*
X15480815Y54902101D01*
X15480815Y54902100D01*
X15499871Y54757348D01*
X15555744Y54622459D01*
X15555749Y54622451D01*
X15644625Y54506626D01*
X15760450Y54417750D01*
X15760457Y54417745D01*
X15895346Y54361872D01*
X16040100Y54342815D01*
X16184854Y54361872D01*
X16319743Y54417745D01*
X16435574Y54506626D01*
X16524455Y54622457D01*
X16580328Y54757346D01*
X16599385Y54902100D01*
X16599385Y54902101D01*
X16599385Y54905594D01*
X16600218Y54908435D01*
X16600463Y54910288D01*
X16600752Y54910250D01*
X16619387Y54973715D01*
X16636290Y54994689D01*
X17013601Y55372000D01*
X20467110Y55372000D01*
X20486229Y55165668D01*
X20542933Y54966373D01*
X20542939Y54966357D01*
X20635296Y54780880D01*
X20635300Y54780875D01*
X20754935Y54622451D01*
X20760175Y54615513D01*
X20913308Y54475914D01*
X20913309Y54475913D01*
X21089473Y54366837D01*
X21089476Y54366836D01*
X21089485Y54366830D01*
X21282707Y54291976D01*
X21486393Y54253900D01*
X21486397Y54253900D01*
X21693603Y54253900D01*
X21693607Y54253900D01*
X21897293Y54291976D01*
X22090515Y54366830D01*
X22266692Y54475914D01*
X22419826Y54615514D01*
X22544700Y54780875D01*
X22544701Y54780879D01*
X22544703Y54780880D01*
X22637060Y54966357D01*
X22637059Y54966357D01*
X22637064Y54966365D01*
X22693771Y55165670D01*
X22712890Y55372000D01*
X23007110Y55372000D01*
X23026229Y55165668D01*
X23082933Y54966373D01*
X23082939Y54966357D01*
X23175296Y54780880D01*
X23175300Y54780875D01*
X23294935Y54622451D01*
X23300175Y54615513D01*
X23453308Y54475914D01*
X23453309Y54475913D01*
X23629473Y54366837D01*
X23629476Y54366836D01*
X23629485Y54366830D01*
X23822707Y54291976D01*
X24026393Y54253900D01*
X24026397Y54253900D01*
X24233603Y54253900D01*
X24233607Y54253900D01*
X24437293Y54291976D01*
X24630515Y54366830D01*
X24806692Y54475914D01*
X24959826Y54615514D01*
X25084700Y54780875D01*
X25084701Y54780879D01*
X25084703Y54780880D01*
X25177060Y54966357D01*
X25177059Y54966357D01*
X25177064Y54966365D01*
X25233771Y55165670D01*
X25252890Y55372000D01*
X25547110Y55372000D01*
X25566229Y55165668D01*
X25622933Y54966373D01*
X25622939Y54966357D01*
X25715296Y54780880D01*
X25715300Y54780875D01*
X25834935Y54622451D01*
X25840175Y54615513D01*
X25993308Y54475914D01*
X25993309Y54475913D01*
X26169473Y54366837D01*
X26169476Y54366836D01*
X26169485Y54366830D01*
X26362707Y54291976D01*
X26566393Y54253900D01*
X26566397Y54253900D01*
X26773603Y54253900D01*
X26773607Y54253900D01*
X26977293Y54291976D01*
X27170515Y54366830D01*
X27346692Y54475914D01*
X27499826Y54615514D01*
X27624700Y54780875D01*
X27624701Y54780879D01*
X27624703Y54780880D01*
X27717060Y54966357D01*
X27717059Y54966357D01*
X27717064Y54966365D01*
X27773771Y55165670D01*
X27792890Y55372000D01*
X27773771Y55578330D01*
X27717064Y55777635D01*
X27717060Y55777644D01*
X27624703Y55963121D01*
X27624699Y55963126D01*
X27608671Y55984351D01*
X27499826Y56128486D01*
X27401596Y56218034D01*
X27346691Y56268087D01*
X27346690Y56268088D01*
X27170526Y56377164D01*
X27170519Y56377168D01*
X27170515Y56377170D01*
X27052148Y56423026D01*
X26977294Y56452024D01*
X26773607Y56490100D01*
X26566393Y56490100D01*
X26566392Y56490100D01*
X26362705Y56452024D01*
X26212997Y56394027D01*
X26169485Y56377170D01*
X26169484Y56377170D01*
X26169483Y56377169D01*
X26169473Y56377164D01*
X25993309Y56268088D01*
X25993308Y56268087D01*
X25840175Y56128488D01*
X25715300Y55963126D01*
X25715296Y55963121D01*
X25622939Y55777644D01*
X25622933Y55777628D01*
X25566229Y55578333D01*
X25547110Y55372000D01*
X25252890Y55372000D01*
X25233771Y55578330D01*
X25177064Y55777635D01*
X25177060Y55777644D01*
X25084703Y55963121D01*
X25084699Y55963126D01*
X25068671Y55984351D01*
X24959826Y56128486D01*
X24861596Y56218034D01*
X24806691Y56268087D01*
X24806690Y56268088D01*
X24630526Y56377164D01*
X24630519Y56377168D01*
X24630515Y56377170D01*
X24512148Y56423026D01*
X24437294Y56452024D01*
X24233607Y56490100D01*
X24026393Y56490100D01*
X24026392Y56490100D01*
X23822705Y56452024D01*
X23672997Y56394027D01*
X23629485Y56377170D01*
X23629484Y56377170D01*
X23629483Y56377169D01*
X23629473Y56377164D01*
X23453309Y56268088D01*
X23453308Y56268087D01*
X23300175Y56128488D01*
X23175300Y55963126D01*
X23175296Y55963121D01*
X23082939Y55777644D01*
X23082933Y55777628D01*
X23026229Y55578333D01*
X23007110Y55372000D01*
X22712890Y55372000D01*
X22693771Y55578330D01*
X22637064Y55777635D01*
X22637060Y55777644D01*
X22544703Y55963121D01*
X22544699Y55963126D01*
X22528671Y55984351D01*
X22419826Y56128486D01*
X22321596Y56218034D01*
X22266691Y56268087D01*
X22266690Y56268088D01*
X22090526Y56377164D01*
X22090519Y56377168D01*
X22090515Y56377170D01*
X21972148Y56423026D01*
X21897294Y56452024D01*
X21693607Y56490100D01*
X21486393Y56490100D01*
X21486392Y56490100D01*
X21282705Y56452024D01*
X21132997Y56394027D01*
X21089485Y56377170D01*
X21089484Y56377170D01*
X21089483Y56377169D01*
X21089473Y56377164D01*
X20913309Y56268088D01*
X20913308Y56268087D01*
X20760175Y56128488D01*
X20635300Y55963126D01*
X20635296Y55963121D01*
X20542939Y55777644D01*
X20542933Y55777628D01*
X20486229Y55578333D01*
X20467110Y55372000D01*
X17013601Y55372000D01*
X18817193Y57175591D01*
X18879505Y57209617D01*
X18906288Y57212496D01*
X29656712Y57212496D01*
X29724833Y57192494D01*
X29745807Y57175591D01*
X30081995Y56839403D01*
X30116021Y56777091D01*
X30118900Y56750308D01*
X30118900Y56341764D01*
X30098898Y56273643D01*
X30045242Y56227150D01*
X29974968Y56217046D01*
X29910388Y56246540D01*
X29908015Y56248649D01*
X29886697Y56268083D01*
X29886690Y56268088D01*
X29710526Y56377164D01*
X29710519Y56377168D01*
X29710515Y56377170D01*
X29592148Y56423026D01*
X29517294Y56452024D01*
X29313607Y56490100D01*
X29106393Y56490100D01*
X29106392Y56490100D01*
X28902705Y56452024D01*
X28752997Y56394027D01*
X28709485Y56377170D01*
X28709484Y56377170D01*
X28709483Y56377169D01*
X28709473Y56377164D01*
X28533309Y56268088D01*
X28533308Y56268087D01*
X28380175Y56128488D01*
X28255300Y55963126D01*
X28255296Y55963121D01*
X28162939Y55777644D01*
X28162933Y55777628D01*
X28106229Y55578333D01*
X28087110Y55372000D01*
X28106229Y55165668D01*
X28162933Y54966373D01*
X28162939Y54966357D01*
X28255296Y54780880D01*
X28255300Y54780875D01*
X28374935Y54622451D01*
X28380175Y54615513D01*
X28533308Y54475914D01*
X28533309Y54475913D01*
X28709473Y54366837D01*
X28709476Y54366836D01*
X28709485Y54366830D01*
X28902707Y54291976D01*
X29106393Y54253900D01*
X29106397Y54253900D01*
X29313603Y54253900D01*
X29313607Y54253900D01*
X29517293Y54291976D01*
X29710515Y54366830D01*
X29886692Y54475914D01*
X29886694Y54475916D01*
X29886697Y54475918D01*
X29908013Y54495350D01*
X29971829Y54526463D01*
X30042335Y54518134D01*
X30097146Y54473009D01*
X30118860Y54405414D01*
X30118900Y54402237D01*
X30118900Y54153881D01*
X30118900Y54060119D01*
X30141826Y53974554D01*
X30143166Y53969554D01*
X30143169Y53969546D01*
X30190046Y53888353D01*
X30190048Y53888351D01*
X30190049Y53888349D01*
X30684648Y53393750D01*
X30718672Y53331439D01*
X30713608Y53260624D01*
X30708344Y53248495D01*
X30702936Y53237636D01*
X30702933Y53237627D01*
X30646229Y53038332D01*
X30627110Y52832000D01*
X30646229Y52625668D01*
X30702933Y52426373D01*
X30702939Y52426357D01*
X30795296Y52240880D01*
X30795300Y52240875D01*
X30920175Y52075513D01*
X31073308Y51935914D01*
X31073309Y51935913D01*
X31249473Y51826837D01*
X31249476Y51826836D01*
X31249485Y51826830D01*
X31442707Y51751976D01*
X31646393Y51713900D01*
X31646397Y51713900D01*
X31853603Y51713900D01*
X31853607Y51713900D01*
X32057293Y51751976D01*
X32250515Y51826830D01*
X32426692Y51935914D01*
X32579826Y52075514D01*
X32704700Y52240875D01*
X32704701Y52240879D01*
X32704703Y52240880D01*
X32797060Y52426357D01*
X32797059Y52426357D01*
X32797064Y52426365D01*
X32853771Y52625670D01*
X32872890Y52832000D01*
X32853771Y53038330D01*
X32797064Y53237635D01*
X32797060Y53237644D01*
X32704703Y53423121D01*
X32704699Y53423126D01*
X32579824Y53588488D01*
X32426691Y53728087D01*
X32426690Y53728088D01*
X32250526Y53837164D01*
X32250519Y53837168D01*
X32250515Y53837170D01*
X32118406Y53888349D01*
X32057294Y53912024D01*
X31853607Y53950100D01*
X31646393Y53950100D01*
X31646392Y53950100D01*
X31442705Y53912024D01*
X31325282Y53866534D01*
X31254535Y53860578D01*
X31191800Y53893816D01*
X31190671Y53894931D01*
X30868005Y54217597D01*
X30833979Y54279909D01*
X30831100Y54306692D01*
X30831100Y54411353D01*
X30851102Y54479474D01*
X30904758Y54525967D01*
X30975032Y54536071D01*
X31039612Y54506577D01*
X31041987Y54504467D01*
X31073308Y54475914D01*
X31073309Y54475913D01*
X31249473Y54366837D01*
X31249476Y54366836D01*
X31249485Y54366830D01*
X31442707Y54291976D01*
X31646393Y54253900D01*
X31646397Y54253900D01*
X31853603Y54253900D01*
X31853607Y54253900D01*
X32057293Y54291976D01*
X32250515Y54366830D01*
X32426692Y54475914D01*
X32458013Y54504468D01*
X32521830Y54535579D01*
X32592336Y54527250D01*
X32647147Y54482124D01*
X32668860Y54414529D01*
X32668900Y54411353D01*
X32668900Y54050120D01*
X32693166Y53959554D01*
X32693169Y53959546D01*
X32740046Y53878353D01*
X32740048Y53878351D01*
X32740049Y53878349D01*
X33224648Y53393750D01*
X33258672Y53331439D01*
X33253608Y53260624D01*
X33248344Y53248495D01*
X33242936Y53237636D01*
X33242933Y53237627D01*
X33186229Y53038332D01*
X33167110Y52832000D01*
X33186229Y52625668D01*
X33242933Y52426373D01*
X33242939Y52426357D01*
X33335296Y52240880D01*
X33335300Y52240875D01*
X33460175Y52075513D01*
X33613308Y51935914D01*
X33613309Y51935913D01*
X33789473Y51826837D01*
X33789476Y51826836D01*
X33789485Y51826830D01*
X33982707Y51751976D01*
X34186393Y51713900D01*
X34186397Y51713900D01*
X34393603Y51713900D01*
X34393607Y51713900D01*
X34597293Y51751976D01*
X34790515Y51826830D01*
X34966692Y51935914D01*
X35119826Y52075514D01*
X35244700Y52240875D01*
X35244701Y52240879D01*
X35244703Y52240880D01*
X35337060Y52426357D01*
X35337059Y52426357D01*
X35337064Y52426365D01*
X35393771Y52625670D01*
X35412890Y52832000D01*
X35393771Y53038330D01*
X35337064Y53237635D01*
X35337060Y53237644D01*
X35244703Y53423121D01*
X35244699Y53423126D01*
X35119824Y53588488D01*
X34966691Y53728087D01*
X34966690Y53728088D01*
X34790526Y53837164D01*
X34790519Y53837168D01*
X34790515Y53837170D01*
X34658406Y53888349D01*
X34597294Y53912024D01*
X34393607Y53950100D01*
X34186393Y53950100D01*
X34186392Y53950100D01*
X33982705Y53912024D01*
X33865282Y53866534D01*
X33794535Y53860578D01*
X33731800Y53893816D01*
X33730671Y53894931D01*
X33418005Y54207597D01*
X33383979Y54269909D01*
X33381100Y54296692D01*
X33381100Y54402237D01*
X33401102Y54470358D01*
X33454758Y54516851D01*
X33525032Y54526955D01*
X33589612Y54497461D01*
X33591987Y54495350D01*
X33613302Y54475918D01*
X33613309Y54475913D01*
X33789473Y54366837D01*
X33789476Y54366836D01*
X33789485Y54366830D01*
X33982707Y54291976D01*
X34186393Y54253900D01*
X34186397Y54253900D01*
X34393603Y54253900D01*
X34393607Y54253900D01*
X34597293Y54291976D01*
X34790515Y54366830D01*
X34966692Y54475914D01*
X34977541Y54485805D01*
X34983014Y54490793D01*
X35046831Y54521904D01*
X35117338Y54513574D01*
X35172148Y54468448D01*
X35193860Y54400853D01*
X35193900Y54397678D01*
X35193900Y54158881D01*
X35193900Y54065119D01*
X35195240Y54060119D01*
X35218166Y53974554D01*
X35218169Y53974546D01*
X35265046Y53893353D01*
X35265048Y53893351D01*
X35265049Y53893349D01*
X35764648Y53393750D01*
X35798672Y53331439D01*
X35793608Y53260624D01*
X35788344Y53248495D01*
X35782936Y53237636D01*
X35782933Y53237627D01*
X35726229Y53038332D01*
X35707110Y52832000D01*
X35726229Y52625668D01*
X35782933Y52426373D01*
X35782939Y52426357D01*
X35875296Y52240880D01*
X35875300Y52240875D01*
X36000175Y52075513D01*
X36153308Y51935914D01*
X36153309Y51935913D01*
X36329473Y51826837D01*
X36329476Y51826836D01*
X36329485Y51826830D01*
X36522707Y51751976D01*
X36726393Y51713900D01*
X36726397Y51713900D01*
X36933603Y51713900D01*
X36933607Y51713900D01*
X37137293Y51751976D01*
X37330515Y51826830D01*
X37506692Y51935914D01*
X37659826Y52075514D01*
X37784700Y52240875D01*
X37784701Y52240879D01*
X37784703Y52240880D01*
X37877060Y52426357D01*
X37877059Y52426357D01*
X37877064Y52426365D01*
X37933771Y52625670D01*
X37952890Y52832000D01*
X37933771Y53038330D01*
X37920208Y53086000D01*
X38280312Y53086000D01*
X38930058Y53086000D01*
X38896619Y53028081D01*
X38862000Y52898880D01*
X38862000Y52765120D01*
X38896619Y52635919D01*
X38930058Y52578000D01*
X38280312Y52578000D01*
X38323402Y52426553D01*
X38323404Y52426548D01*
X38415727Y52241138D01*
X38540543Y52075853D01*
X38693608Y51936316D01*
X38869702Y51827283D01*
X38869713Y51827278D01*
X39062840Y51752460D01*
X39062838Y51752460D01*
X39116000Y51742523D01*
X39116000Y52392059D01*
X39173919Y52358619D01*
X39303120Y52324000D01*
X39436880Y52324000D01*
X39566081Y52358619D01*
X39624000Y52392059D01*
X39624000Y51742523D01*
X39677160Y51752460D01*
X39870286Y51827278D01*
X39870297Y51827283D01*
X40046391Y51936316D01*
X40199456Y52075853D01*
X40324272Y52241138D01*
X40416595Y52426548D01*
X40416597Y52426553D01*
X40459688Y52578000D01*
X39809942Y52578000D01*
X39843381Y52635919D01*
X39878000Y52765120D01*
X39878000Y52898880D01*
X39843381Y53028081D01*
X39809942Y53086000D01*
X40459688Y53086000D01*
X40416597Y53237448D01*
X40416595Y53237453D01*
X40324272Y53422863D01*
X40199456Y53588148D01*
X40046391Y53727685D01*
X39870297Y53836718D01*
X39870286Y53836723D01*
X39677160Y53911541D01*
X39677154Y53911543D01*
X39624000Y53921480D01*
X39624000Y53271942D01*
X39566081Y53305381D01*
X39436880Y53340000D01*
X39303120Y53340000D01*
X39173919Y53305381D01*
X39116000Y53271942D01*
X39116000Y53921480D01*
X39115999Y53921480D01*
X39062845Y53911543D01*
X39062839Y53911541D01*
X38869713Y53836723D01*
X38869702Y53836718D01*
X38693608Y53727685D01*
X38540543Y53588148D01*
X38415727Y53422863D01*
X38323404Y53237453D01*
X38323402Y53237448D01*
X38280312Y53086000D01*
X37920208Y53086000D01*
X37877064Y53237635D01*
X37877060Y53237644D01*
X37784703Y53423121D01*
X37784699Y53423126D01*
X37659824Y53588488D01*
X37506691Y53728087D01*
X37506690Y53728088D01*
X37330526Y53837164D01*
X37330519Y53837168D01*
X37330515Y53837170D01*
X37198406Y53888349D01*
X37137294Y53912024D01*
X36933607Y53950100D01*
X36726393Y53950100D01*
X36726392Y53950100D01*
X36522705Y53912024D01*
X36405282Y53866534D01*
X36334535Y53860578D01*
X36271800Y53893816D01*
X36270671Y53894931D01*
X35943005Y54222597D01*
X35908979Y54284909D01*
X35906100Y54311692D01*
X35906100Y54415911D01*
X35926102Y54484032D01*
X35979758Y54530525D01*
X36050032Y54540629D01*
X36114612Y54511135D01*
X36116986Y54509025D01*
X36153302Y54475918D01*
X36153309Y54475913D01*
X36329473Y54366837D01*
X36329476Y54366836D01*
X36329485Y54366830D01*
X36522707Y54291976D01*
X36726393Y54253900D01*
X36726397Y54253900D01*
X36933603Y54253900D01*
X36933607Y54253900D01*
X37137293Y54291976D01*
X37330515Y54366830D01*
X37506692Y54475914D01*
X37659826Y54615514D01*
X37784700Y54780875D01*
X37784701Y54780879D01*
X37784703Y54780880D01*
X37877060Y54966357D01*
X37877059Y54966357D01*
X37877064Y54966365D01*
X37933771Y55165670D01*
X37952890Y55372000D01*
X37933771Y55578330D01*
X37920208Y55626000D01*
X38280312Y55626000D01*
X38930058Y55626000D01*
X38896619Y55568081D01*
X38862000Y55438880D01*
X38862000Y55305120D01*
X38896619Y55175919D01*
X38930058Y55118000D01*
X38280312Y55118000D01*
X38323402Y54966553D01*
X38323404Y54966548D01*
X38415727Y54781138D01*
X38540543Y54615853D01*
X38693608Y54476316D01*
X38869702Y54367283D01*
X38869713Y54367278D01*
X39062840Y54292460D01*
X39062838Y54292460D01*
X39116000Y54282523D01*
X39116000Y54932059D01*
X39173919Y54898619D01*
X39303120Y54864000D01*
X39436880Y54864000D01*
X39566081Y54898619D01*
X39624000Y54932059D01*
X39624000Y54282523D01*
X39677160Y54292460D01*
X39870286Y54367278D01*
X39870297Y54367283D01*
X40046391Y54476316D01*
X40199456Y54615853D01*
X40324272Y54781138D01*
X40416595Y54966548D01*
X40416597Y54966553D01*
X40459688Y55118000D01*
X39809942Y55118000D01*
X39843381Y55175919D01*
X39878000Y55305120D01*
X39878000Y55438880D01*
X39861623Y55500001D01*
X44090715Y55500001D01*
X44090715Y55500000D01*
X44109771Y55355248D01*
X44165644Y55220359D01*
X44165649Y55220351D01*
X44254525Y55104526D01*
X44329686Y55046853D01*
X44370357Y55015645D01*
X44505246Y54959772D01*
X44650000Y54940715D01*
X44794754Y54959772D01*
X44929643Y55015645D01*
X45045474Y55104526D01*
X45134355Y55220357D01*
X45190228Y55355246D01*
X45209285Y55500000D01*
X45190228Y55644754D01*
X45134355Y55779642D01*
X45045474Y55895474D01*
X45045472Y55895476D01*
X45045471Y55895477D01*
X44929649Y55984351D01*
X44929641Y55984356D01*
X44794752Y56040229D01*
X44650000Y56059285D01*
X44505247Y56040229D01*
X44465525Y56023775D01*
X44370358Y55984355D01*
X44370357Y55984354D01*
X44370356Y55984354D01*
X44254526Y55895474D01*
X44165646Y55779644D01*
X44165645Y55779642D01*
X44137708Y55712198D01*
X44109771Y55644753D01*
X44090715Y55500001D01*
X39861623Y55500001D01*
X39843381Y55568081D01*
X39809942Y55626000D01*
X40459688Y55626000D01*
X40416597Y55777448D01*
X40416595Y55777453D01*
X40324272Y55962863D01*
X40199456Y56128148D01*
X40046391Y56267685D01*
X39870297Y56376718D01*
X39870286Y56376723D01*
X39677160Y56451541D01*
X39677154Y56451543D01*
X39624000Y56461480D01*
X39624000Y55811942D01*
X39566081Y55845381D01*
X39436880Y55880000D01*
X39303120Y55880000D01*
X39173919Y55845381D01*
X39116000Y55811942D01*
X39116000Y56461480D01*
X39115999Y56461480D01*
X39062845Y56451543D01*
X39062839Y56451541D01*
X38869713Y56376723D01*
X38869702Y56376718D01*
X38693608Y56267685D01*
X38540543Y56128148D01*
X38415727Y55962863D01*
X38323404Y55777453D01*
X38323402Y55777448D01*
X38280312Y55626000D01*
X37920208Y55626000D01*
X37877064Y55777635D01*
X37877060Y55777644D01*
X37784703Y55963121D01*
X37784699Y55963126D01*
X37768671Y55984351D01*
X37659826Y56128486D01*
X37561596Y56218034D01*
X37506691Y56268087D01*
X37506690Y56268088D01*
X37330526Y56377164D01*
X37330519Y56377168D01*
X37330515Y56377170D01*
X37212148Y56423026D01*
X37137294Y56452024D01*
X36933607Y56490100D01*
X36726393Y56490100D01*
X36726392Y56490100D01*
X36522705Y56452024D01*
X36372997Y56394027D01*
X36329485Y56377170D01*
X36329484Y56377170D01*
X36329483Y56377169D01*
X36329473Y56377164D01*
X36153309Y56268088D01*
X36153308Y56268087D01*
X36116985Y56234974D01*
X36053168Y56203864D01*
X35982662Y56212194D01*
X35927852Y56257321D01*
X35906140Y56324916D01*
X35906100Y56328090D01*
X35906100Y56871879D01*
X35906100Y56871881D01*
X35881833Y56962450D01*
X35838531Y57037450D01*
X35834953Y57043648D01*
X35834949Y57043653D01*
X35768651Y57109951D01*
X35012485Y57866117D01*
X34218657Y58659946D01*
X34218647Y58659954D01*
X34137454Y58706831D01*
X34137452Y58706832D01*
X34137450Y58706833D01*
X34046881Y58731100D01*
X34046880Y58731100D01*
X17395915Y58731100D01*
X17395899Y58731101D01*
X17388181Y58731101D01*
X17294419Y58731101D01*
X17222989Y58711963D01*
X17222989Y58711962D01*
X17218944Y58710879D01*
X17203850Y58706834D01*
X17122649Y58659952D01*
X17122642Y58659946D01*
X16158087Y57695390D01*
X16095775Y57661364D01*
X16068992Y57658485D01*
X16065499Y57658485D01*
X15920747Y57639429D01*
X15863457Y57615698D01*
X15785858Y57583555D01*
X15785857Y57583554D01*
X15785856Y57583554D01*
X15670026Y57494674D01*
X15581146Y57378844D01*
X15581145Y57378842D01*
X15553208Y57311398D01*
X15525271Y57243953D01*
X15506215Y57099201D01*
X15506215Y57099200D01*
X15525271Y56954448D01*
X15581144Y56819559D01*
X15581149Y56819551D01*
X15670025Y56703726D01*
X15709299Y56673590D01*
X15751166Y56616252D01*
X15755388Y56545381D01*
X15720624Y56483478D01*
X15709301Y56473667D01*
X15682727Y56453276D01*
X15593846Y56337444D01*
X15593845Y56337442D01*
X15588657Y56324916D01*
X15537971Y56202553D01*
X15518915Y56057801D01*
X15518915Y56057800D01*
X15537971Y55913048D01*
X15593844Y55778159D01*
X15593849Y55778151D01*
X15682723Y55662329D01*
X15682724Y55662328D01*
X15682726Y55662326D01*
X15771656Y55594087D01*
X15813521Y55536752D01*
X15817743Y55465881D01*
X15782979Y55403978D01*
X15766820Y55391730D01*
X15767010Y55391482D01*
X15760459Y55386456D01*
X15760458Y55386455D01*
X15719786Y55355246D01*
X15644626Y55297574D01*
X15555746Y55181744D01*
X15555745Y55181742D01*
X15549088Y55165670D01*
X15499871Y55046853D01*
X15480815Y54902101D01*
X11651073Y54902101D01*
X17799768Y61050795D01*
X17862080Y61084821D01*
X17888863Y61087700D01*
X43121937Y61087700D01*
X43190058Y61067698D01*
G37*
%TD.AperFunction*%
%TD*%
M02*
