%TF.GenerationSoftware,KiCad,Pcbnew,8.0.6*%
%TF.CreationDate,2024-11-03T15:43:53-08:00*%
%TF.ProjectId,Ganglion_01,47616e67-6c69-46f6-9e5f-30312e6b6963,01*%
%TF.SameCoordinates,PX4a1f960PY74ffa90*%
%TF.FileFunction,Soldermask,Top*%
%TF.FilePolarity,Negative*%
%FSLAX46Y46*%
G04 Gerber Fmt 4.6, Leading zero omitted, Abs format (unit mm)*
G04 Created by KiCad (PCBNEW 8.0.6) date 2024-11-03 15:43:53*
%MOMM*%
%LPD*%
G01*
G04 APERTURE LIST*
G04 Aperture macros list*
%AMRoundRect*
0 Rectangle with rounded corners*
0 $1 Rounding radius*
0 $2 $3 $4 $5 $6 $7 $8 $9 X,Y pos of 4 corners*
0 Add a 4 corners polygon primitive as box body*
4,1,4,$2,$3,$4,$5,$6,$7,$8,$9,$2,$3,0*
0 Add four circle primitives for the rounded corners*
1,1,$1+$1,$2,$3*
1,1,$1+$1,$4,$5*
1,1,$1+$1,$6,$7*
1,1,$1+$1,$8,$9*
0 Add four rect primitives between the rounded corners*
20,1,$1+$1,$2,$3,$4,$5,0*
20,1,$1+$1,$4,$5,$6,$7,0*
20,1,$1+$1,$6,$7,$8,$9,0*
20,1,$1+$1,$8,$9,$2,$3,0*%
%AMHorizOval*
0 Thick line with rounded ends*
0 $1 width*
0 $2 $3 position (X,Y) of the first rounded end (center of the circle)*
0 $4 $5 position (X,Y) of the second rounded end (center of the circle)*
0 Add line between two ends*
20,1,$1,$2,$3,$4,$5,0*
0 Add two circle primitives to create the rounded ends*
1,1,$1,$2,$3*
1,1,$1,$4,$5*%
G04 Aperture macros list end*
%ADD10RoundRect,0.200000X-0.225000X0.725000X-0.225000X-0.725000X0.225000X-0.725000X0.225000X0.725000X0*%
%ADD11RoundRect,0.200000X0.375000X-0.400000X0.375000X0.400000X-0.375000X0.400000X-0.375000X-0.400000X0*%
%ADD12RoundRect,0.200000X-0.375000X0.400000X-0.375000X-0.400000X0.375000X-0.400000X0.375000X0.400000X0*%
%ADD13RoundRect,0.200000X-0.548008X0.017678X0.017678X-0.548008X0.548008X-0.017678X-0.017678X0.548008X0*%
%ADD14RoundRect,0.200000X-0.400000X-0.375000X0.400000X-0.375000X0.400000X0.375000X-0.400000X0.375000X0*%
%ADD15RoundRect,0.200000X0.400000X0.375000X-0.400000X0.375000X-0.400000X-0.375000X0.400000X-0.375000X0*%
%ADD16RoundRect,0.200000X-1.016000X0.863600X-1.016000X-0.863600X1.016000X-0.863600X1.016000X0.863600X0*%
%ADD17O,2.432000X2.127200*%
%ADD18RoundRect,0.200000X-0.107763X1.329078X-1.329078X0.107763X0.107763X-1.329078X1.329078X-0.107763X0*%
%ADD19HorizOval,2.127200X-0.107763X0.107763X0.107763X-0.107763X0*%
%ADD20RoundRect,0.200000X-1.329078X-0.107763X-0.107763X-1.329078X1.329078X0.107763X0.107763X1.329078X0*%
%ADD21HorizOval,2.127200X-0.107763X-0.107763X0.107763X0.107763X0*%
%ADD22RoundRect,0.200000X0.450000X-0.250000X0.450000X0.250000X-0.450000X0.250000X-0.450000X-0.250000X0*%
%ADD23RoundRect,0.200000X0.250000X0.450000X-0.250000X0.450000X-0.250000X-0.450000X0.250000X-0.450000X0*%
%ADD24RoundRect,0.200000X-0.494975X-0.141421X-0.141421X-0.494975X0.494975X0.141421X0.141421X0.494975X0*%
%ADD25RoundRect,0.200000X-0.141421X0.494975X-0.494975X0.141421X0.141421X-0.494975X0.494975X-0.141421X0*%
%ADD26RoundRect,0.200000X0.800000X0.500000X-0.800000X0.500000X-0.800000X-0.500000X0.800000X-0.500000X0*%
%ADD27RoundRect,0.200000X-0.225000X0.875000X-0.225000X-0.875000X0.225000X-0.875000X0.225000X0.875000X0*%
%ADD28RoundRect,0.200000X0.325000X-0.530000X0.325000X0.530000X-0.325000X0.530000X-0.325000X-0.530000X0*%
%ADD29RoundRect,0.200000X-0.604576X0.144957X0.144957X-0.604576X0.604576X-0.144957X-0.144957X0.604576X0*%
%ADD30C,1.300000*%
%ADD31RoundRect,0.200000X0.325000X-0.525000X0.325000X0.525000X-0.325000X0.525000X-0.325000X-0.525000X0*%
%ADD32RoundRect,0.200000X0.398780X-0.398780X0.398780X0.398780X-0.398780X0.398780X-0.398780X-0.398780X0*%
%ADD33RoundRect,0.200000X-0.450000X0.250000X-0.450000X-0.250000X0.450000X-0.250000X0.450000X0.250000X0*%
%ADD34RoundRect,0.200000X-0.250000X-0.450000X0.250000X-0.450000X0.250000X0.450000X-0.250000X0.450000X0*%
%ADD35RoundRect,0.200000X-0.203200X-0.330200X0.203200X-0.330200X0.203200X0.330200X-0.203200X0.330200X0*%
%ADD36RoundRect,0.200000X0.863600X-0.863600X0.863600X0.863600X-0.863600X0.863600X-0.863600X-0.863600X0*%
%ADD37O,2.127200X2.127200*%
%ADD38RoundRect,0.200000X-0.374650X0.199390X-0.374650X-0.199390X0.374650X-0.199390X0.374650X0.199390X0*%
%ADD39RoundRect,0.200000X2.800350X1.050290X-2.800350X1.050290X-2.800350X-1.050290X2.800350X-1.050290X0*%
%ADD40RoundRect,0.200000X-0.377171X-0.089803X-0.089803X-0.377171X0.377171X0.089803X0.089803X0.377171X0*%
G04 APERTURE END LIST*
D10*
%TO.C,U6*%
X47718703Y47752611D03*
X47068703Y47752611D03*
X46418703Y47752611D03*
X45768703Y47752611D03*
X45768703Y43352611D03*
X46418703Y43352611D03*
X47068703Y43352611D03*
X47718703Y43352611D03*
%TD*%
D11*
%TO.C,C15*%
X44076705Y43405612D03*
X44076705Y44905612D03*
%TD*%
%TO.C,C14*%
X49410705Y46199611D03*
X49410705Y47699611D03*
%TD*%
D12*
%TO.C,C21*%
X42418000Y22213000D03*
X42418000Y20713000D03*
%TD*%
D13*
%TO.C,C22*%
X9159770Y24622230D03*
X10220430Y23561570D03*
%TD*%
D11*
%TO.C,C24*%
X42367200Y28561600D03*
X42367200Y30061600D03*
%TD*%
D14*
%TO.C,C25*%
X52183600Y25603200D03*
X53683600Y25603200D03*
%TD*%
D15*
%TO.C,C26*%
X53683600Y27127200D03*
X52183600Y27127200D03*
%TD*%
D14*
%TO.C,C27*%
X48907000Y30734000D03*
X50407000Y30734000D03*
%TD*%
D15*
%TO.C,C28*%
X53328000Y32385000D03*
X51828000Y32385000D03*
%TD*%
D14*
%TO.C,C29*%
X48907000Y32385000D03*
X50407000Y32385000D03*
%TD*%
D16*
%TO.C,P2*%
X52984400Y23063200D03*
D17*
X52984400Y20523200D03*
X52984400Y17983200D03*
X52984400Y15443200D03*
%TD*%
D18*
%TO.C,P3*%
X50596800Y12649200D03*
D19*
X48800749Y10853149D03*
X47004698Y9057098D03*
X45208646Y7261046D03*
%TD*%
D20*
%TO.C,P4*%
X7391400Y36906200D03*
D21*
X9187451Y35110149D03*
X10983502Y33314098D03*
X12779554Y31518046D03*
X14575605Y29721995D03*
X16371656Y27925944D03*
X18167707Y26129893D03*
X19963759Y24333841D03*
%TD*%
D20*
%TO.C,P5*%
X9271000Y38735000D03*
D21*
X11067051Y36938949D03*
X12863102Y35142898D03*
X14659154Y33346846D03*
X16455205Y31550795D03*
X18251256Y29754744D03*
X20047307Y27958693D03*
X21843359Y26162641D03*
%TD*%
D22*
%TO.C,R27*%
X49410703Y43405611D03*
X49410703Y44905611D03*
%TD*%
%TO.C,R28*%
X44076703Y46199611D03*
X44076703Y47699611D03*
%TD*%
D23*
%TO.C,R37*%
X41148700Y20713700D03*
X39648700Y20713700D03*
%TD*%
D24*
%TO.C,R39*%
X7521470Y18183330D03*
X8582130Y17122670D03*
%TD*%
D25*
%TO.C,R40*%
X9420330Y20316930D03*
X8359670Y19256270D03*
%TD*%
%TO.C,R41*%
X10563330Y19199330D03*
X9502670Y18138670D03*
%TD*%
D24*
%TO.C,R42*%
X8080270Y23339530D03*
X9140930Y22278870D03*
%TD*%
D25*
%TO.C,R43*%
X13382730Y19377130D03*
X12322070Y18316470D03*
%TD*%
D26*
%TO.C,SW1*%
X40800000Y40500000D03*
X38500000Y38750000D03*
X40800000Y37000000D03*
%TD*%
%TO.C,SW2*%
X36400000Y40500000D03*
X34100000Y38750000D03*
X36400000Y37000000D03*
%TD*%
%TO.C,SW3*%
X32000000Y40500000D03*
X29700000Y38750000D03*
X32000000Y37000000D03*
%TD*%
%TO.C,SW4*%
X27600000Y40500000D03*
X25300000Y38750000D03*
X27600000Y37000000D03*
%TD*%
D27*
%TO.C,U7*%
X40293000Y30041400D03*
X39643000Y30041400D03*
X38993000Y30041400D03*
X38343000Y30041400D03*
X37693000Y30041400D03*
X37043000Y30041400D03*
X36393000Y30041400D03*
X35743000Y30041400D03*
X35093000Y30041400D03*
X34443000Y30041400D03*
X33793000Y30041400D03*
X33143000Y30041400D03*
X32493000Y30041400D03*
X31843000Y30041400D03*
X31843000Y22841400D03*
X32493000Y22841400D03*
X33143000Y22841400D03*
X33793000Y22841400D03*
X34443000Y22841400D03*
X35093000Y22841400D03*
X35743000Y22841400D03*
X36393000Y22841400D03*
X37043000Y22841400D03*
X37693000Y22841400D03*
X38343000Y22841400D03*
X38993000Y22841400D03*
X39643000Y22841400D03*
X40293000Y22841400D03*
%TD*%
D28*
%TO.C,U9*%
X51805800Y28592600D03*
X52755800Y28592600D03*
X53705800Y28592600D03*
X53705800Y30792600D03*
X51805800Y30792600D03*
%TD*%
%TO.C,U10*%
X55184000Y28618000D03*
X56134000Y28618000D03*
X57084000Y28618000D03*
X57084000Y30818000D03*
X55184000Y30818000D03*
%TD*%
D29*
%TO.C,U14*%
X11400134Y22709369D03*
X10728383Y22037617D03*
X10056631Y21365866D03*
X11612266Y19810231D03*
X12955769Y21153734D03*
%TD*%
D30*
%TO.C,SW5*%
X59154000Y28863600D03*
X59154000Y31863600D03*
%TD*%
%TO.C,U13*%
X9517425Y13607889D03*
X15174279Y7951035D03*
%TD*%
D31*
%TO.C,SW6*%
X47560000Y23692000D03*
X47560000Y27842000D03*
X49710000Y23692000D03*
X49710000Y27842000D03*
%TD*%
D14*
%TO.C,C43*%
X33997200Y17754600D03*
X35497200Y17754600D03*
%TD*%
D32*
%TO.C,D2*%
X45974000Y17665700D03*
X45974000Y19164300D03*
%TD*%
D33*
%TO.C,R47*%
X44323000Y19165000D03*
X44323000Y17665000D03*
%TD*%
D15*
%TO.C,C38*%
X41923400Y17754600D03*
X40423400Y17754600D03*
%TD*%
D14*
%TO.C,C45*%
X17372900Y45618400D03*
X18872900Y45618400D03*
%TD*%
D33*
%TO.C,R32*%
X17462500Y50267300D03*
X17462500Y48767300D03*
%TD*%
D34*
%TO.C,R33*%
X17372900Y47167800D03*
X18872900Y47167800D03*
%TD*%
D35*
%TO.C,U25*%
X18935700Y48590200D03*
X20256500Y48590200D03*
X19596100Y48590200D03*
X20256500Y50622200D03*
X18935700Y50622200D03*
%TD*%
D36*
%TO.C,P1*%
X21590000Y52832000D03*
D37*
X21590000Y55372000D03*
X24130000Y52832000D03*
X24130000Y55372000D03*
X26670000Y52832000D03*
X26670000Y55372000D03*
X29210000Y52832000D03*
X29210000Y55372000D03*
X31750000Y52832000D03*
X31750000Y55372000D03*
X34290000Y52832000D03*
X34290000Y55372000D03*
X36830000Y52832000D03*
X36830000Y55372000D03*
X39370000Y52832000D03*
X39370000Y55372000D03*
%TD*%
D38*
%TO.C,U28*%
X24550040Y49550240D03*
X24550040Y48900000D03*
X24550040Y48249760D03*
X26449960Y48249760D03*
X26449960Y48900000D03*
X26449960Y49550240D03*
%TD*%
%TO.C,U29*%
X35816540Y49608740D03*
X35816540Y48958500D03*
X35816540Y48308260D03*
X37716460Y48308260D03*
X37716460Y48958500D03*
X37716460Y49608740D03*
%TD*%
%TO.C,U30*%
X30228540Y49545240D03*
X30228540Y48895000D03*
X30228540Y48244760D03*
X32128460Y48244760D03*
X32128460Y48895000D03*
X32128460Y49545240D03*
%TD*%
D39*
%TO.C,Y1*%
X42796460Y14122400D03*
X33098740Y14122400D03*
%TD*%
D40*
%TO.C,U18*%
X13978406Y12473953D03*
X14912353Y11540006D03*
X14445380Y12006980D03*
X16349194Y12976847D03*
X15415247Y13910794D03*
%TD*%
%TO.C,U19*%
X18982206Y7292353D03*
X19916153Y6358406D03*
X19449180Y6825380D03*
X21352994Y7795247D03*
X20419047Y8729194D03*
%TD*%
%TO.C,U20*%
X16467606Y9781553D03*
X17401553Y8847606D03*
X16934580Y9314580D03*
X18838394Y10284447D03*
X17904447Y11218394D03*
%TD*%
%TO.C,U21*%
X11336806Y14912353D03*
X12270753Y13978406D03*
X11803780Y14445380D03*
X13707594Y15415247D03*
X12773647Y16349194D03*
%TD*%
%TO.C,U22*%
X21496806Y4752353D03*
X22430753Y3818406D03*
X21963780Y4285380D03*
X23867594Y5255247D03*
X22933647Y6189194D03*
%TD*%
D14*
%TO.C,C46*%
X21563900Y50457100D03*
X23063900Y50457100D03*
%TD*%
D34*
%TO.C,R49*%
X21563900Y48869600D03*
X23063900Y48869600D03*
%TD*%
M02*
