%TF.GenerationSoftware,KiCad,Pcbnew,8.0.6*%
%TF.CreationDate,2024-11-03T15:43:53-08:00*%
%TF.ProjectId,Ganglion_01,47616e67-6c69-46f6-9e5f-30312e6b6963,01*%
%TF.SameCoordinates,PX4a1f960PY74ffa90*%
%TF.FileFunction,Legend,Bot*%
%TF.FilePolarity,Positive*%
%FSLAX46Y46*%
G04 Gerber Fmt 4.6, Leading zero omitted, Abs format (unit mm)*
G04 Created by KiCad (PCBNEW 8.0.6) date 2024-11-03 15:43:53*
%MOMM*%
%LPD*%
G01*
G04 APERTURE LIST*
%ADD10C,0.300000*%
%ADD11C,0.150000*%
%ADD12C,0.100000*%
%ADD13C,0.900000*%
G04 APERTURE END LIST*
D10*
X45142941Y33054272D02*
X44214369Y33054272D01*
X44214369Y33054272D02*
X44714369Y32482843D01*
X44714369Y32482843D02*
X44500084Y32482843D01*
X44500084Y32482843D02*
X44357227Y32411415D01*
X44357227Y32411415D02*
X44285798Y32339986D01*
X44285798Y32339986D02*
X44214369Y32197129D01*
X44214369Y32197129D02*
X44214369Y31839986D01*
X44214369Y31839986D02*
X44285798Y31697129D01*
X44285798Y31697129D02*
X44357227Y31625700D01*
X44357227Y31625700D02*
X44500084Y31554272D01*
X44500084Y31554272D02*
X44928655Y31554272D01*
X44928655Y31554272D02*
X45071512Y31625700D01*
X45071512Y31625700D02*
X45142941Y31697129D01*
X43571513Y31697129D02*
X43500084Y31625700D01*
X43500084Y31625700D02*
X43571513Y31554272D01*
X43571513Y31554272D02*
X43642941Y31625700D01*
X43642941Y31625700D02*
X43571513Y31697129D01*
X43571513Y31697129D02*
X43571513Y31554272D01*
X43000084Y33054272D02*
X42071512Y33054272D01*
X42071512Y33054272D02*
X42571512Y32482843D01*
X42571512Y32482843D02*
X42357227Y32482843D01*
X42357227Y32482843D02*
X42214370Y32411415D01*
X42214370Y32411415D02*
X42142941Y32339986D01*
X42142941Y32339986D02*
X42071512Y32197129D01*
X42071512Y32197129D02*
X42071512Y31839986D01*
X42071512Y31839986D02*
X42142941Y31697129D01*
X42142941Y31697129D02*
X42214370Y31625700D01*
X42214370Y31625700D02*
X42357227Y31554272D01*
X42357227Y31554272D02*
X42785798Y31554272D01*
X42785798Y31554272D02*
X42928655Y31625700D01*
X42928655Y31625700D02*
X43000084Y31697129D01*
X41642941Y33054272D02*
X41142941Y31554272D01*
X41142941Y31554272D02*
X40642941Y33054272D01*
X39000085Y32125700D02*
X37857228Y32125700D01*
X35214370Y31554272D02*
X36071513Y31554272D01*
X35642942Y31554272D02*
X35642942Y33054272D01*
X35642942Y33054272D02*
X35785799Y32839986D01*
X35785799Y32839986D02*
X35928656Y32697129D01*
X35928656Y32697129D02*
X36071513Y32625700D01*
X34642942Y32911415D02*
X34571514Y32982843D01*
X34571514Y32982843D02*
X34428657Y33054272D01*
X34428657Y33054272D02*
X34071514Y33054272D01*
X34071514Y33054272D02*
X33928657Y32982843D01*
X33928657Y32982843D02*
X33857228Y32911415D01*
X33857228Y32911415D02*
X33785799Y32768558D01*
X33785799Y32768558D02*
X33785799Y32625700D01*
X33785799Y32625700D02*
X33857228Y32411415D01*
X33857228Y32411415D02*
X34714371Y31554272D01*
X34714371Y31554272D02*
X33785799Y31554272D01*
X33357228Y33054272D02*
X32857228Y31554272D01*
X32857228Y31554272D02*
X32357228Y33054272D01*
X25029624Y28727188D02*
X24120487Y28222111D01*
X24120487Y28222111D02*
X24423533Y28929218D01*
X24423533Y28929218D02*
X23716426Y28626172D01*
X23716426Y28626172D02*
X24221502Y29535310D01*
X23918456Y29838356D02*
X23009319Y29333279D01*
X23009319Y29333279D02*
X23312365Y30040386D01*
X23312365Y30040386D02*
X22605258Y29737340D01*
X22605258Y29737340D02*
X23110334Y30646478D01*
X22807288Y30949524D02*
X21898151Y30444448D01*
X21898151Y30444448D02*
X22201197Y31151554D01*
X22201197Y31151554D02*
X21494090Y30848509D01*
X21494090Y30848509D02*
X21999166Y31757646D01*
X20989013Y31555616D02*
X20887998Y31555616D01*
X20887998Y31555616D02*
X20887998Y31454600D01*
X20887998Y31454600D02*
X20989013Y31454600D01*
X20989013Y31454600D02*
X20989013Y31555616D01*
X20989013Y31555616D02*
X20887998Y31454600D01*
X20231399Y32111200D02*
X20382922Y32060692D01*
X20382922Y32060692D02*
X20483937Y32060692D01*
X20483937Y32060692D02*
X20635460Y32111200D01*
X20635460Y32111200D02*
X20938506Y32414246D01*
X20938506Y32414246D02*
X20989013Y32565768D01*
X20989013Y32565768D02*
X20989013Y32666784D01*
X20989013Y32666784D02*
X20938506Y32818307D01*
X20938506Y32818307D02*
X20786983Y32969829D01*
X20786983Y32969829D02*
X20635460Y33020337D01*
X20635460Y33020337D02*
X20534445Y33020337D01*
X20534445Y33020337D02*
X20382922Y32969829D01*
X20382922Y32969829D02*
X20079876Y32666784D01*
X20079876Y32666784D02*
X20029368Y32515261D01*
X20029368Y32515261D02*
X20029368Y32414246D01*
X20029368Y32414246D02*
X20079876Y32262723D01*
X20079876Y32262723D02*
X20231399Y32111200D01*
X20130383Y33626429D02*
X19069723Y32565768D01*
X20079876Y33575921D02*
X20029368Y33727444D01*
X20029368Y33727444D02*
X19827338Y33929474D01*
X19827338Y33929474D02*
X19675815Y33979982D01*
X19675815Y33979982D02*
X19574800Y33979982D01*
X19574800Y33979982D02*
X19423277Y33929474D01*
X19423277Y33929474D02*
X19120231Y33626429D01*
X19120231Y33626429D02*
X19069723Y33474906D01*
X19069723Y33474906D02*
X19069723Y33373891D01*
X19069723Y33373891D02*
X19120231Y33222368D01*
X19120231Y33222368D02*
X19322261Y33020337D01*
X19322261Y33020337D02*
X19473784Y32969830D01*
X18110078Y34333536D02*
X18160586Y34182013D01*
X18160586Y34182013D02*
X18362616Y33979982D01*
X18362616Y33979982D02*
X18514139Y33929475D01*
X18514139Y33929475D02*
X18665662Y33979982D01*
X18665662Y33979982D02*
X19069723Y34384043D01*
X19069723Y34384043D02*
X19120231Y34535566D01*
X19120231Y34535566D02*
X19069723Y34687089D01*
X19069723Y34687089D02*
X18867693Y34889119D01*
X18867693Y34889119D02*
X18716170Y34939627D01*
X18716170Y34939627D02*
X18564647Y34889119D01*
X18564647Y34889119D02*
X18463632Y34788104D01*
X18463632Y34788104D02*
X18867693Y34182013D01*
X18261601Y35495211D02*
X17554495Y34788104D01*
X18160586Y35394196D02*
X18160586Y35495211D01*
X18160586Y35495211D02*
X18110078Y35646734D01*
X18110078Y35646734D02*
X17958556Y35798257D01*
X17958556Y35798257D02*
X17807033Y35848764D01*
X17807033Y35848764D02*
X17655510Y35798257D01*
X17655510Y35798257D02*
X17099926Y35242673D01*
X16594850Y35747749D02*
X17655510Y36808409D01*
X17251449Y36404348D02*
X17200941Y36555871D01*
X17200941Y36555871D02*
X16998911Y36757902D01*
X16998911Y36757902D02*
X16847388Y36808409D01*
X16847388Y36808409D02*
X16746372Y36808409D01*
X16746372Y36808409D02*
X16594850Y36757902D01*
X16594850Y36757902D02*
X16291804Y36454856D01*
X16291804Y36454856D02*
X16241296Y36303333D01*
X16241296Y36303333D02*
X16241296Y36202318D01*
X16241296Y36202318D02*
X16291804Y36050795D01*
X16291804Y36050795D02*
X16493834Y35848764D01*
X16493834Y35848764D02*
X16645357Y35798257D01*
X15231143Y37212470D02*
X15281651Y37060947D01*
X15281651Y37060947D02*
X15483682Y36858917D01*
X15483682Y36858917D02*
X15635205Y36808409D01*
X15635205Y36808409D02*
X15736220Y36808409D01*
X15736220Y36808409D02*
X15887743Y36858917D01*
X15887743Y36858917D02*
X16190788Y37161963D01*
X16190788Y37161963D02*
X16241296Y37313486D01*
X16241296Y37313486D02*
X16241296Y37414501D01*
X16241296Y37414501D02*
X16190788Y37566024D01*
X16190788Y37566024D02*
X15988758Y37768054D01*
X15988758Y37768054D02*
X15837235Y37818562D01*
X14726067Y37616531D02*
X15433174Y38323638D01*
X15786728Y38677191D02*
X15786728Y38576176D01*
X15786728Y38576176D02*
X15685712Y38576176D01*
X15685712Y38576176D02*
X15685712Y38677191D01*
X15685712Y38677191D02*
X15786728Y38677191D01*
X15786728Y38677191D02*
X15685712Y38576176D01*
X14322006Y38222623D02*
X14220991Y38222623D01*
X14220991Y38222623D02*
X14220991Y38121608D01*
X14220991Y38121608D02*
X14322006Y38121608D01*
X14322006Y38121608D02*
X14322006Y38222623D01*
X14322006Y38222623D02*
X14220991Y38121608D01*
X13311853Y39131760D02*
X13362361Y38980237D01*
X13362361Y38980237D02*
X13564392Y38778207D01*
X13564392Y38778207D02*
X13715914Y38727699D01*
X13715914Y38727699D02*
X13816930Y38727699D01*
X13816930Y38727699D02*
X13968453Y38778207D01*
X13968453Y38778207D02*
X14271498Y39081253D01*
X14271498Y39081253D02*
X14322006Y39232776D01*
X14322006Y39232776D02*
X14322006Y39333791D01*
X14322006Y39333791D02*
X14271498Y39485314D01*
X14271498Y39485314D02*
X14069468Y39687344D01*
X14069468Y39687344D02*
X13917945Y39737852D01*
X12655255Y39687344D02*
X12806777Y39636836D01*
X12806777Y39636836D02*
X12907793Y39636836D01*
X12907793Y39636836D02*
X13059316Y39687344D01*
X13059316Y39687344D02*
X13362361Y39990390D01*
X13362361Y39990390D02*
X13412869Y40141913D01*
X13412869Y40141913D02*
X13412869Y40242928D01*
X13412869Y40242928D02*
X13362361Y40394451D01*
X13362361Y40394451D02*
X13210838Y40545974D01*
X13210838Y40545974D02*
X13059316Y40596481D01*
X13059316Y40596481D02*
X12958300Y40596481D01*
X12958300Y40596481D02*
X12806777Y40545974D01*
X12806777Y40545974D02*
X12503732Y40242928D01*
X12503732Y40242928D02*
X12453224Y40091405D01*
X12453224Y40091405D02*
X12453224Y39990390D01*
X12453224Y39990390D02*
X12503732Y39838867D01*
X12503732Y39838867D02*
X12655255Y39687344D01*
X11847132Y40495466D02*
X12554239Y41202573D01*
X12453224Y41101558D02*
X12453224Y41202573D01*
X12453224Y41202573D02*
X12402716Y41354096D01*
X12402716Y41354096D02*
X12251193Y41505619D01*
X12251193Y41505619D02*
X12099671Y41556126D01*
X12099671Y41556126D02*
X11948148Y41505619D01*
X11948148Y41505619D02*
X11392564Y40950035D01*
X11948148Y41505619D02*
X11998655Y41657142D01*
X11998655Y41657142D02*
X11948148Y41808664D01*
X11948148Y41808664D02*
X11796625Y41960187D01*
X11796625Y41960187D02*
X11645102Y42010695D01*
X11645102Y42010695D02*
X11493579Y41960187D01*
X11493579Y41960187D02*
X10937995Y41404603D01*
X55473528Y25813800D02*
X54330671Y25813800D01*
X54902099Y25242372D02*
X54902099Y26385229D01*
X54704200Y35940929D02*
X54704200Y34798071D01*
D11*
X54214300Y40143665D02*
X54250014Y40107950D01*
X54250014Y40107950D02*
X54357157Y40072236D01*
X54357157Y40072236D02*
X54428585Y40072236D01*
X54428585Y40072236D02*
X54535728Y40107950D01*
X54535728Y40107950D02*
X54607157Y40179379D01*
X54607157Y40179379D02*
X54642871Y40250808D01*
X54642871Y40250808D02*
X54678585Y40393665D01*
X54678585Y40393665D02*
X54678585Y40500808D01*
X54678585Y40500808D02*
X54642871Y40643665D01*
X54642871Y40643665D02*
X54607157Y40715093D01*
X54607157Y40715093D02*
X54535728Y40786522D01*
X54535728Y40786522D02*
X54428585Y40822236D01*
X54428585Y40822236D02*
X54357157Y40822236D01*
X54357157Y40822236D02*
X54250014Y40786522D01*
X54250014Y40786522D02*
X54214300Y40750808D01*
X53857157Y40072236D02*
X53714300Y40072236D01*
X53714300Y40072236D02*
X53642871Y40107950D01*
X53642871Y40107950D02*
X53607157Y40143665D01*
X53607157Y40143665D02*
X53535728Y40250808D01*
X53535728Y40250808D02*
X53500014Y40393665D01*
X53500014Y40393665D02*
X53500014Y40679379D01*
X53500014Y40679379D02*
X53535728Y40750808D01*
X53535728Y40750808D02*
X53571443Y40786522D01*
X53571443Y40786522D02*
X53642871Y40822236D01*
X53642871Y40822236D02*
X53785728Y40822236D01*
X53785728Y40822236D02*
X53857157Y40786522D01*
X53857157Y40786522D02*
X53892871Y40750808D01*
X53892871Y40750808D02*
X53928585Y40679379D01*
X53928585Y40679379D02*
X53928585Y40500808D01*
X53928585Y40500808D02*
X53892871Y40429379D01*
X53892871Y40429379D02*
X53857157Y40393665D01*
X53857157Y40393665D02*
X53785728Y40357950D01*
X53785728Y40357950D02*
X53642871Y40357950D01*
X53642871Y40357950D02*
X53571443Y40393665D01*
X53571443Y40393665D02*
X53535728Y40429379D01*
X53535728Y40429379D02*
X53500014Y40500808D01*
X52718735Y48321501D02*
X52754450Y48357215D01*
X52754450Y48357215D02*
X52790164Y48464358D01*
X52790164Y48464358D02*
X52790164Y48535786D01*
X52790164Y48535786D02*
X52754450Y48642929D01*
X52754450Y48642929D02*
X52683021Y48714358D01*
X52683021Y48714358D02*
X52611592Y48750072D01*
X52611592Y48750072D02*
X52468735Y48785786D01*
X52468735Y48785786D02*
X52361592Y48785786D01*
X52361592Y48785786D02*
X52218735Y48750072D01*
X52218735Y48750072D02*
X52147307Y48714358D01*
X52147307Y48714358D02*
X52075878Y48642929D01*
X52075878Y48642929D02*
X52040164Y48535786D01*
X52040164Y48535786D02*
X52040164Y48464358D01*
X52040164Y48464358D02*
X52075878Y48357215D01*
X52075878Y48357215D02*
X52111592Y48321501D01*
X52790164Y47607215D02*
X52790164Y48035786D01*
X52790164Y47821501D02*
X52040164Y47821501D01*
X52040164Y47821501D02*
X52147307Y47892929D01*
X52147307Y47892929D02*
X52218735Y47964358D01*
X52218735Y47964358D02*
X52254450Y48035786D01*
X52718735Y45400501D02*
X52754450Y45436215D01*
X52754450Y45436215D02*
X52790164Y45543358D01*
X52790164Y45543358D02*
X52790164Y45614786D01*
X52790164Y45614786D02*
X52754450Y45721929D01*
X52754450Y45721929D02*
X52683021Y45793358D01*
X52683021Y45793358D02*
X52611592Y45829072D01*
X52611592Y45829072D02*
X52468735Y45864786D01*
X52468735Y45864786D02*
X52361592Y45864786D01*
X52361592Y45864786D02*
X52218735Y45829072D01*
X52218735Y45829072D02*
X52147307Y45793358D01*
X52147307Y45793358D02*
X52075878Y45721929D01*
X52075878Y45721929D02*
X52040164Y45614786D01*
X52040164Y45614786D02*
X52040164Y45543358D01*
X52040164Y45543358D02*
X52075878Y45436215D01*
X52075878Y45436215D02*
X52111592Y45400501D01*
X52111592Y45114786D02*
X52075878Y45079072D01*
X52075878Y45079072D02*
X52040164Y45007643D01*
X52040164Y45007643D02*
X52040164Y44829072D01*
X52040164Y44829072D02*
X52075878Y44757643D01*
X52075878Y44757643D02*
X52111592Y44721929D01*
X52111592Y44721929D02*
X52183021Y44686215D01*
X52183021Y44686215D02*
X52254450Y44686215D01*
X52254450Y44686215D02*
X52361592Y44721929D01*
X52361592Y44721929D02*
X52790164Y45150501D01*
X52790164Y45150501D02*
X52790164Y44686215D01*
X42685735Y48258001D02*
X42721450Y48293715D01*
X42721450Y48293715D02*
X42757164Y48400858D01*
X42757164Y48400858D02*
X42757164Y48472286D01*
X42757164Y48472286D02*
X42721450Y48579429D01*
X42721450Y48579429D02*
X42650021Y48650858D01*
X42650021Y48650858D02*
X42578592Y48686572D01*
X42578592Y48686572D02*
X42435735Y48722286D01*
X42435735Y48722286D02*
X42328592Y48722286D01*
X42328592Y48722286D02*
X42185735Y48686572D01*
X42185735Y48686572D02*
X42114307Y48650858D01*
X42114307Y48650858D02*
X42042878Y48579429D01*
X42042878Y48579429D02*
X42007164Y48472286D01*
X42007164Y48472286D02*
X42007164Y48400858D01*
X42007164Y48400858D02*
X42042878Y48293715D01*
X42042878Y48293715D02*
X42078592Y48258001D01*
X42007164Y48008001D02*
X42007164Y47543715D01*
X42007164Y47543715D02*
X42292878Y47793715D01*
X42292878Y47793715D02*
X42292878Y47686572D01*
X42292878Y47686572D02*
X42328592Y47615143D01*
X42328592Y47615143D02*
X42364307Y47579429D01*
X42364307Y47579429D02*
X42435735Y47543715D01*
X42435735Y47543715D02*
X42614307Y47543715D01*
X42614307Y47543715D02*
X42685735Y47579429D01*
X42685735Y47579429D02*
X42721450Y47615143D01*
X42721450Y47615143D02*
X42757164Y47686572D01*
X42757164Y47686572D02*
X42757164Y47900858D01*
X42757164Y47900858D02*
X42721450Y47972286D01*
X42721450Y47972286D02*
X42685735Y48008001D01*
X42685735Y45337001D02*
X42721450Y45372715D01*
X42721450Y45372715D02*
X42757164Y45479858D01*
X42757164Y45479858D02*
X42757164Y45551286D01*
X42757164Y45551286D02*
X42721450Y45658429D01*
X42721450Y45658429D02*
X42650021Y45729858D01*
X42650021Y45729858D02*
X42578592Y45765572D01*
X42578592Y45765572D02*
X42435735Y45801286D01*
X42435735Y45801286D02*
X42328592Y45801286D01*
X42328592Y45801286D02*
X42185735Y45765572D01*
X42185735Y45765572D02*
X42114307Y45729858D01*
X42114307Y45729858D02*
X42042878Y45658429D01*
X42042878Y45658429D02*
X42007164Y45551286D01*
X42007164Y45551286D02*
X42007164Y45479858D01*
X42007164Y45479858D02*
X42042878Y45372715D01*
X42042878Y45372715D02*
X42078592Y45337001D01*
X42257164Y44694143D02*
X42757164Y44694143D01*
X41971450Y44872715D02*
X42507164Y45051286D01*
X42507164Y45051286D02*
X42507164Y44587001D01*
X33033735Y48258001D02*
X33069450Y48293715D01*
X33069450Y48293715D02*
X33105164Y48400858D01*
X33105164Y48400858D02*
X33105164Y48472286D01*
X33105164Y48472286D02*
X33069450Y48579429D01*
X33069450Y48579429D02*
X32998021Y48650858D01*
X32998021Y48650858D02*
X32926592Y48686572D01*
X32926592Y48686572D02*
X32783735Y48722286D01*
X32783735Y48722286D02*
X32676592Y48722286D01*
X32676592Y48722286D02*
X32533735Y48686572D01*
X32533735Y48686572D02*
X32462307Y48650858D01*
X32462307Y48650858D02*
X32390878Y48579429D01*
X32390878Y48579429D02*
X32355164Y48472286D01*
X32355164Y48472286D02*
X32355164Y48400858D01*
X32355164Y48400858D02*
X32390878Y48293715D01*
X32390878Y48293715D02*
X32426592Y48258001D01*
X32355164Y47579429D02*
X32355164Y47936572D01*
X32355164Y47936572D02*
X32712307Y47972286D01*
X32712307Y47972286D02*
X32676592Y47936572D01*
X32676592Y47936572D02*
X32640878Y47865143D01*
X32640878Y47865143D02*
X32640878Y47686572D01*
X32640878Y47686572D02*
X32676592Y47615143D01*
X32676592Y47615143D02*
X32712307Y47579429D01*
X32712307Y47579429D02*
X32783735Y47543715D01*
X32783735Y47543715D02*
X32962307Y47543715D01*
X32962307Y47543715D02*
X33033735Y47579429D01*
X33033735Y47579429D02*
X33069450Y47615143D01*
X33069450Y47615143D02*
X33105164Y47686572D01*
X33105164Y47686572D02*
X33105164Y47865143D01*
X33105164Y47865143D02*
X33069450Y47936572D01*
X33069450Y47936572D02*
X33033735Y47972286D01*
X33033735Y45337001D02*
X33069450Y45372715D01*
X33069450Y45372715D02*
X33105164Y45479858D01*
X33105164Y45479858D02*
X33105164Y45551286D01*
X33105164Y45551286D02*
X33069450Y45658429D01*
X33069450Y45658429D02*
X32998021Y45729858D01*
X32998021Y45729858D02*
X32926592Y45765572D01*
X32926592Y45765572D02*
X32783735Y45801286D01*
X32783735Y45801286D02*
X32676592Y45801286D01*
X32676592Y45801286D02*
X32533735Y45765572D01*
X32533735Y45765572D02*
X32462307Y45729858D01*
X32462307Y45729858D02*
X32390878Y45658429D01*
X32390878Y45658429D02*
X32355164Y45551286D01*
X32355164Y45551286D02*
X32355164Y45479858D01*
X32355164Y45479858D02*
X32390878Y45372715D01*
X32390878Y45372715D02*
X32426592Y45337001D01*
X32355164Y44694143D02*
X32355164Y44837001D01*
X32355164Y44837001D02*
X32390878Y44908429D01*
X32390878Y44908429D02*
X32426592Y44944143D01*
X32426592Y44944143D02*
X32533735Y45015572D01*
X32533735Y45015572D02*
X32676592Y45051286D01*
X32676592Y45051286D02*
X32962307Y45051286D01*
X32962307Y45051286D02*
X33033735Y45015572D01*
X33033735Y45015572D02*
X33069450Y44979858D01*
X33069450Y44979858D02*
X33105164Y44908429D01*
X33105164Y44908429D02*
X33105164Y44765572D01*
X33105164Y44765572D02*
X33069450Y44694143D01*
X33069450Y44694143D02*
X33033735Y44658429D01*
X33033735Y44658429D02*
X32962307Y44622715D01*
X32962307Y44622715D02*
X32783735Y44622715D01*
X32783735Y44622715D02*
X32712307Y44658429D01*
X32712307Y44658429D02*
X32676592Y44694143D01*
X32676592Y44694143D02*
X32640878Y44765572D01*
X32640878Y44765572D02*
X32640878Y44908429D01*
X32640878Y44908429D02*
X32676592Y44979858D01*
X32676592Y44979858D02*
X32712307Y45015572D01*
X32712307Y45015572D02*
X32783735Y45051286D01*
X23572235Y48893001D02*
X23607950Y48928715D01*
X23607950Y48928715D02*
X23643664Y49035858D01*
X23643664Y49035858D02*
X23643664Y49107286D01*
X23643664Y49107286D02*
X23607950Y49214429D01*
X23607950Y49214429D02*
X23536521Y49285858D01*
X23536521Y49285858D02*
X23465092Y49321572D01*
X23465092Y49321572D02*
X23322235Y49357286D01*
X23322235Y49357286D02*
X23215092Y49357286D01*
X23215092Y49357286D02*
X23072235Y49321572D01*
X23072235Y49321572D02*
X23000807Y49285858D01*
X23000807Y49285858D02*
X22929378Y49214429D01*
X22929378Y49214429D02*
X22893664Y49107286D01*
X22893664Y49107286D02*
X22893664Y49035858D01*
X22893664Y49035858D02*
X22929378Y48928715D01*
X22929378Y48928715D02*
X22965092Y48893001D01*
X22893664Y48643001D02*
X22893664Y48143001D01*
X22893664Y48143001D02*
X23643664Y48464429D01*
X22238735Y42822401D02*
X22274450Y42858115D01*
X22274450Y42858115D02*
X22310164Y42965258D01*
X22310164Y42965258D02*
X22310164Y43036686D01*
X22310164Y43036686D02*
X22274450Y43143829D01*
X22274450Y43143829D02*
X22203021Y43215258D01*
X22203021Y43215258D02*
X22131592Y43250972D01*
X22131592Y43250972D02*
X21988735Y43286686D01*
X21988735Y43286686D02*
X21881592Y43286686D01*
X21881592Y43286686D02*
X21738735Y43250972D01*
X21738735Y43250972D02*
X21667307Y43215258D01*
X21667307Y43215258D02*
X21595878Y43143829D01*
X21595878Y43143829D02*
X21560164Y43036686D01*
X21560164Y43036686D02*
X21560164Y42965258D01*
X21560164Y42965258D02*
X21595878Y42858115D01*
X21595878Y42858115D02*
X21631592Y42822401D01*
X21881592Y42393829D02*
X21845878Y42465258D01*
X21845878Y42465258D02*
X21810164Y42500972D01*
X21810164Y42500972D02*
X21738735Y42536686D01*
X21738735Y42536686D02*
X21703021Y42536686D01*
X21703021Y42536686D02*
X21631592Y42500972D01*
X21631592Y42500972D02*
X21595878Y42465258D01*
X21595878Y42465258D02*
X21560164Y42393829D01*
X21560164Y42393829D02*
X21560164Y42250972D01*
X21560164Y42250972D02*
X21595878Y42179543D01*
X21595878Y42179543D02*
X21631592Y42143829D01*
X21631592Y42143829D02*
X21703021Y42108115D01*
X21703021Y42108115D02*
X21738735Y42108115D01*
X21738735Y42108115D02*
X21810164Y42143829D01*
X21810164Y42143829D02*
X21845878Y42179543D01*
X21845878Y42179543D02*
X21881592Y42250972D01*
X21881592Y42250972D02*
X21881592Y42393829D01*
X21881592Y42393829D02*
X21917307Y42465258D01*
X21917307Y42465258D02*
X21953021Y42500972D01*
X21953021Y42500972D02*
X22024450Y42536686D01*
X22024450Y42536686D02*
X22167307Y42536686D01*
X22167307Y42536686D02*
X22238735Y42500972D01*
X22238735Y42500972D02*
X22274450Y42465258D01*
X22274450Y42465258D02*
X22310164Y42393829D01*
X22310164Y42393829D02*
X22310164Y42250972D01*
X22310164Y42250972D02*
X22274450Y42179543D01*
X22274450Y42179543D02*
X22238735Y42143829D01*
X22238735Y42143829D02*
X22167307Y42108115D01*
X22167307Y42108115D02*
X22024450Y42108115D01*
X22024450Y42108115D02*
X21953021Y42143829D01*
X21953021Y42143829D02*
X21917307Y42179543D01*
X21917307Y42179543D02*
X21881592Y42250972D01*
X45689211Y47127149D02*
X45724925Y47091434D01*
X45724925Y47091434D02*
X45832068Y47055720D01*
X45832068Y47055720D02*
X45903496Y47055720D01*
X45903496Y47055720D02*
X46010639Y47091434D01*
X46010639Y47091434D02*
X46082068Y47162863D01*
X46082068Y47162863D02*
X46117782Y47234292D01*
X46117782Y47234292D02*
X46153496Y47377149D01*
X46153496Y47377149D02*
X46153496Y47484292D01*
X46153496Y47484292D02*
X46117782Y47627149D01*
X46117782Y47627149D02*
X46082068Y47698577D01*
X46082068Y47698577D02*
X46010639Y47770006D01*
X46010639Y47770006D02*
X45903496Y47805720D01*
X45903496Y47805720D02*
X45832068Y47805720D01*
X45832068Y47805720D02*
X45724925Y47770006D01*
X45724925Y47770006D02*
X45689211Y47734292D01*
X44974925Y47055720D02*
X45403496Y47055720D01*
X45189211Y47055720D02*
X45189211Y47805720D01*
X45189211Y47805720D02*
X45260639Y47698577D01*
X45260639Y47698577D02*
X45332068Y47627149D01*
X45332068Y47627149D02*
X45403496Y47591434D01*
X44510639Y47805720D02*
X44439210Y47805720D01*
X44439210Y47805720D02*
X44367782Y47770006D01*
X44367782Y47770006D02*
X44332068Y47734292D01*
X44332068Y47734292D02*
X44296353Y47662863D01*
X44296353Y47662863D02*
X44260639Y47520006D01*
X44260639Y47520006D02*
X44260639Y47341434D01*
X44260639Y47341434D02*
X44296353Y47198577D01*
X44296353Y47198577D02*
X44332068Y47127149D01*
X44332068Y47127149D02*
X44367782Y47091434D01*
X44367782Y47091434D02*
X44439210Y47055720D01*
X44439210Y47055720D02*
X44510639Y47055720D01*
X44510639Y47055720D02*
X44582068Y47091434D01*
X44582068Y47091434D02*
X44617782Y47127149D01*
X44617782Y47127149D02*
X44653496Y47198577D01*
X44653496Y47198577D02*
X44689210Y47341434D01*
X44689210Y47341434D02*
X44689210Y47520006D01*
X44689210Y47520006D02*
X44653496Y47662863D01*
X44653496Y47662863D02*
X44617782Y47734292D01*
X44617782Y47734292D02*
X44582068Y47770006D01*
X44582068Y47770006D02*
X44510639Y47805720D01*
X35661143Y47166765D02*
X35696857Y47131050D01*
X35696857Y47131050D02*
X35804000Y47095336D01*
X35804000Y47095336D02*
X35875428Y47095336D01*
X35875428Y47095336D02*
X35982571Y47131050D01*
X35982571Y47131050D02*
X36054000Y47202479D01*
X36054000Y47202479D02*
X36089714Y47273908D01*
X36089714Y47273908D02*
X36125428Y47416765D01*
X36125428Y47416765D02*
X36125428Y47523908D01*
X36125428Y47523908D02*
X36089714Y47666765D01*
X36089714Y47666765D02*
X36054000Y47738193D01*
X36054000Y47738193D02*
X35982571Y47809622D01*
X35982571Y47809622D02*
X35875428Y47845336D01*
X35875428Y47845336D02*
X35804000Y47845336D01*
X35804000Y47845336D02*
X35696857Y47809622D01*
X35696857Y47809622D02*
X35661143Y47773908D01*
X34946857Y47095336D02*
X35375428Y47095336D01*
X35161143Y47095336D02*
X35161143Y47845336D01*
X35161143Y47845336D02*
X35232571Y47738193D01*
X35232571Y47738193D02*
X35304000Y47666765D01*
X35304000Y47666765D02*
X35375428Y47631050D01*
X34232571Y47095336D02*
X34661142Y47095336D01*
X34446857Y47095336D02*
X34446857Y47845336D01*
X34446857Y47845336D02*
X34518285Y47738193D01*
X34518285Y47738193D02*
X34589714Y47666765D01*
X34589714Y47666765D02*
X34661142Y47631050D01*
X26009143Y46976265D02*
X26044857Y46940550D01*
X26044857Y46940550D02*
X26152000Y46904836D01*
X26152000Y46904836D02*
X26223428Y46904836D01*
X26223428Y46904836D02*
X26330571Y46940550D01*
X26330571Y46940550D02*
X26402000Y47011979D01*
X26402000Y47011979D02*
X26437714Y47083408D01*
X26437714Y47083408D02*
X26473428Y47226265D01*
X26473428Y47226265D02*
X26473428Y47333408D01*
X26473428Y47333408D02*
X26437714Y47476265D01*
X26437714Y47476265D02*
X26402000Y47547693D01*
X26402000Y47547693D02*
X26330571Y47619122D01*
X26330571Y47619122D02*
X26223428Y47654836D01*
X26223428Y47654836D02*
X26152000Y47654836D01*
X26152000Y47654836D02*
X26044857Y47619122D01*
X26044857Y47619122D02*
X26009143Y47583408D01*
X25294857Y46904836D02*
X25723428Y46904836D01*
X25509143Y46904836D02*
X25509143Y47654836D01*
X25509143Y47654836D02*
X25580571Y47547693D01*
X25580571Y47547693D02*
X25652000Y47476265D01*
X25652000Y47476265D02*
X25723428Y47440550D01*
X25009142Y47583408D02*
X24973428Y47619122D01*
X24973428Y47619122D02*
X24902000Y47654836D01*
X24902000Y47654836D02*
X24723428Y47654836D01*
X24723428Y47654836D02*
X24652000Y47619122D01*
X24652000Y47619122D02*
X24616285Y47583408D01*
X24616285Y47583408D02*
X24580571Y47511979D01*
X24580571Y47511979D02*
X24580571Y47440550D01*
X24580571Y47440550D02*
X24616285Y47333408D01*
X24616285Y47333408D02*
X25044857Y46904836D01*
X25044857Y46904836D02*
X24580571Y46904836D01*
X16319043Y47052465D02*
X16354757Y47016750D01*
X16354757Y47016750D02*
X16461900Y46981036D01*
X16461900Y46981036D02*
X16533328Y46981036D01*
X16533328Y46981036D02*
X16640471Y47016750D01*
X16640471Y47016750D02*
X16711900Y47088179D01*
X16711900Y47088179D02*
X16747614Y47159608D01*
X16747614Y47159608D02*
X16783328Y47302465D01*
X16783328Y47302465D02*
X16783328Y47409608D01*
X16783328Y47409608D02*
X16747614Y47552465D01*
X16747614Y47552465D02*
X16711900Y47623893D01*
X16711900Y47623893D02*
X16640471Y47695322D01*
X16640471Y47695322D02*
X16533328Y47731036D01*
X16533328Y47731036D02*
X16461900Y47731036D01*
X16461900Y47731036D02*
X16354757Y47695322D01*
X16354757Y47695322D02*
X16319043Y47659608D01*
X15604757Y46981036D02*
X16033328Y46981036D01*
X15819043Y46981036D02*
X15819043Y47731036D01*
X15819043Y47731036D02*
X15890471Y47623893D01*
X15890471Y47623893D02*
X15961900Y47552465D01*
X15961900Y47552465D02*
X16033328Y47516750D01*
X15354757Y47731036D02*
X14890471Y47731036D01*
X14890471Y47731036D02*
X15140471Y47445322D01*
X15140471Y47445322D02*
X15033328Y47445322D01*
X15033328Y47445322D02*
X14961900Y47409608D01*
X14961900Y47409608D02*
X14926185Y47373893D01*
X14926185Y47373893D02*
X14890471Y47302465D01*
X14890471Y47302465D02*
X14890471Y47123893D01*
X14890471Y47123893D02*
X14926185Y47052465D01*
X14926185Y47052465D02*
X14961900Y47016750D01*
X14961900Y47016750D02*
X15033328Y46981036D01*
X15033328Y46981036D02*
X15247614Y46981036D01*
X15247614Y46981036D02*
X15319042Y47016750D01*
X15319042Y47016750D02*
X15354757Y47052465D01*
X34341835Y29755644D02*
X34377550Y29791358D01*
X34377550Y29791358D02*
X34413264Y29898501D01*
X34413264Y29898501D02*
X34413264Y29969929D01*
X34413264Y29969929D02*
X34377550Y30077072D01*
X34377550Y30077072D02*
X34306121Y30148501D01*
X34306121Y30148501D02*
X34234692Y30184215D01*
X34234692Y30184215D02*
X34091835Y30219929D01*
X34091835Y30219929D02*
X33984692Y30219929D01*
X33984692Y30219929D02*
X33841835Y30184215D01*
X33841835Y30184215D02*
X33770407Y30148501D01*
X33770407Y30148501D02*
X33698978Y30077072D01*
X33698978Y30077072D02*
X33663264Y29969929D01*
X33663264Y29969929D02*
X33663264Y29898501D01*
X33663264Y29898501D02*
X33698978Y29791358D01*
X33698978Y29791358D02*
X33734692Y29755644D01*
X34413264Y29041358D02*
X34413264Y29469929D01*
X34413264Y29255644D02*
X33663264Y29255644D01*
X33663264Y29255644D02*
X33770407Y29327072D01*
X33770407Y29327072D02*
X33841835Y29398501D01*
X33841835Y29398501D02*
X33877550Y29469929D01*
X33663264Y28398500D02*
X33663264Y28541358D01*
X33663264Y28541358D02*
X33698978Y28612786D01*
X33698978Y28612786D02*
X33734692Y28648500D01*
X33734692Y28648500D02*
X33841835Y28719929D01*
X33841835Y28719929D02*
X33984692Y28755643D01*
X33984692Y28755643D02*
X34270407Y28755643D01*
X34270407Y28755643D02*
X34341835Y28719929D01*
X34341835Y28719929D02*
X34377550Y28684215D01*
X34377550Y28684215D02*
X34413264Y28612786D01*
X34413264Y28612786D02*
X34413264Y28469929D01*
X34413264Y28469929D02*
X34377550Y28398500D01*
X34377550Y28398500D02*
X34341835Y28362786D01*
X34341835Y28362786D02*
X34270407Y28327072D01*
X34270407Y28327072D02*
X34091835Y28327072D01*
X34091835Y28327072D02*
X34020407Y28362786D01*
X34020407Y28362786D02*
X33984692Y28398500D01*
X33984692Y28398500D02*
X33948978Y28469929D01*
X33948978Y28469929D02*
X33948978Y28612786D01*
X33948978Y28612786D02*
X33984692Y28684215D01*
X33984692Y28684215D02*
X34020407Y28719929D01*
X34020407Y28719929D02*
X34091835Y28755643D01*
X35827735Y29831844D02*
X35863450Y29867558D01*
X35863450Y29867558D02*
X35899164Y29974701D01*
X35899164Y29974701D02*
X35899164Y30046129D01*
X35899164Y30046129D02*
X35863450Y30153272D01*
X35863450Y30153272D02*
X35792021Y30224701D01*
X35792021Y30224701D02*
X35720592Y30260415D01*
X35720592Y30260415D02*
X35577735Y30296129D01*
X35577735Y30296129D02*
X35470592Y30296129D01*
X35470592Y30296129D02*
X35327735Y30260415D01*
X35327735Y30260415D02*
X35256307Y30224701D01*
X35256307Y30224701D02*
X35184878Y30153272D01*
X35184878Y30153272D02*
X35149164Y30046129D01*
X35149164Y30046129D02*
X35149164Y29974701D01*
X35149164Y29974701D02*
X35184878Y29867558D01*
X35184878Y29867558D02*
X35220592Y29831844D01*
X35899164Y29117558D02*
X35899164Y29546129D01*
X35899164Y29331844D02*
X35149164Y29331844D01*
X35149164Y29331844D02*
X35256307Y29403272D01*
X35256307Y29403272D02*
X35327735Y29474701D01*
X35327735Y29474701D02*
X35363450Y29546129D01*
X35149164Y28867558D02*
X35149164Y28367558D01*
X35149164Y28367558D02*
X35899164Y28688986D01*
X28614135Y6171744D02*
X28649850Y6207458D01*
X28649850Y6207458D02*
X28685564Y6314601D01*
X28685564Y6314601D02*
X28685564Y6386029D01*
X28685564Y6386029D02*
X28649850Y6493172D01*
X28649850Y6493172D02*
X28578421Y6564601D01*
X28578421Y6564601D02*
X28506992Y6600315D01*
X28506992Y6600315D02*
X28364135Y6636029D01*
X28364135Y6636029D02*
X28256992Y6636029D01*
X28256992Y6636029D02*
X28114135Y6600315D01*
X28114135Y6600315D02*
X28042707Y6564601D01*
X28042707Y6564601D02*
X27971278Y6493172D01*
X27971278Y6493172D02*
X27935564Y6386029D01*
X27935564Y6386029D02*
X27935564Y6314601D01*
X27935564Y6314601D02*
X27971278Y6207458D01*
X27971278Y6207458D02*
X28006992Y6171744D01*
X28685564Y5457458D02*
X28685564Y5886029D01*
X28685564Y5671744D02*
X27935564Y5671744D01*
X27935564Y5671744D02*
X28042707Y5743172D01*
X28042707Y5743172D02*
X28114135Y5814601D01*
X28114135Y5814601D02*
X28149850Y5886029D01*
X28256992Y5028886D02*
X28221278Y5100315D01*
X28221278Y5100315D02*
X28185564Y5136029D01*
X28185564Y5136029D02*
X28114135Y5171743D01*
X28114135Y5171743D02*
X28078421Y5171743D01*
X28078421Y5171743D02*
X28006992Y5136029D01*
X28006992Y5136029D02*
X27971278Y5100315D01*
X27971278Y5100315D02*
X27935564Y5028886D01*
X27935564Y5028886D02*
X27935564Y4886029D01*
X27935564Y4886029D02*
X27971278Y4814600D01*
X27971278Y4814600D02*
X28006992Y4778886D01*
X28006992Y4778886D02*
X28078421Y4743172D01*
X28078421Y4743172D02*
X28114135Y4743172D01*
X28114135Y4743172D02*
X28185564Y4778886D01*
X28185564Y4778886D02*
X28221278Y4814600D01*
X28221278Y4814600D02*
X28256992Y4886029D01*
X28256992Y4886029D02*
X28256992Y5028886D01*
X28256992Y5028886D02*
X28292707Y5100315D01*
X28292707Y5100315D02*
X28328421Y5136029D01*
X28328421Y5136029D02*
X28399850Y5171743D01*
X28399850Y5171743D02*
X28542707Y5171743D01*
X28542707Y5171743D02*
X28614135Y5136029D01*
X28614135Y5136029D02*
X28649850Y5100315D01*
X28649850Y5100315D02*
X28685564Y5028886D01*
X28685564Y5028886D02*
X28685564Y4886029D01*
X28685564Y4886029D02*
X28649850Y4814600D01*
X28649850Y4814600D02*
X28614135Y4778886D01*
X28614135Y4778886D02*
X28542707Y4743172D01*
X28542707Y4743172D02*
X28399850Y4743172D01*
X28399850Y4743172D02*
X28328421Y4778886D01*
X28328421Y4778886D02*
X28292707Y4814600D01*
X28292707Y4814600D02*
X28256992Y4886029D01*
X41885635Y12801144D02*
X41921350Y12836858D01*
X41921350Y12836858D02*
X41957064Y12944001D01*
X41957064Y12944001D02*
X41957064Y13015429D01*
X41957064Y13015429D02*
X41921350Y13122572D01*
X41921350Y13122572D02*
X41849921Y13194001D01*
X41849921Y13194001D02*
X41778492Y13229715D01*
X41778492Y13229715D02*
X41635635Y13265429D01*
X41635635Y13265429D02*
X41528492Y13265429D01*
X41528492Y13265429D02*
X41385635Y13229715D01*
X41385635Y13229715D02*
X41314207Y13194001D01*
X41314207Y13194001D02*
X41242778Y13122572D01*
X41242778Y13122572D02*
X41207064Y13015429D01*
X41207064Y13015429D02*
X41207064Y12944001D01*
X41207064Y12944001D02*
X41242778Y12836858D01*
X41242778Y12836858D02*
X41278492Y12801144D01*
X41957064Y12086858D02*
X41957064Y12515429D01*
X41957064Y12301144D02*
X41207064Y12301144D01*
X41207064Y12301144D02*
X41314207Y12372572D01*
X41314207Y12372572D02*
X41385635Y12444001D01*
X41385635Y12444001D02*
X41421350Y12515429D01*
X41957064Y11729715D02*
X41957064Y11586858D01*
X41957064Y11586858D02*
X41921350Y11515429D01*
X41921350Y11515429D02*
X41885635Y11479715D01*
X41885635Y11479715D02*
X41778492Y11408286D01*
X41778492Y11408286D02*
X41635635Y11372572D01*
X41635635Y11372572D02*
X41349921Y11372572D01*
X41349921Y11372572D02*
X41278492Y11408286D01*
X41278492Y11408286D02*
X41242778Y11444000D01*
X41242778Y11444000D02*
X41207064Y11515429D01*
X41207064Y11515429D02*
X41207064Y11658286D01*
X41207064Y11658286D02*
X41242778Y11729715D01*
X41242778Y11729715D02*
X41278492Y11765429D01*
X41278492Y11765429D02*
X41349921Y11801143D01*
X41349921Y11801143D02*
X41528492Y11801143D01*
X41528492Y11801143D02*
X41599921Y11765429D01*
X41599921Y11765429D02*
X41635635Y11729715D01*
X41635635Y11729715D02*
X41671350Y11658286D01*
X41671350Y11658286D02*
X41671350Y11515429D01*
X41671350Y11515429D02*
X41635635Y11444000D01*
X41635635Y11444000D02*
X41599921Y11408286D01*
X41599921Y11408286D02*
X41528492Y11372572D01*
X30163535Y6247944D02*
X30199250Y6283658D01*
X30199250Y6283658D02*
X30234964Y6390801D01*
X30234964Y6390801D02*
X30234964Y6462229D01*
X30234964Y6462229D02*
X30199250Y6569372D01*
X30199250Y6569372D02*
X30127821Y6640801D01*
X30127821Y6640801D02*
X30056392Y6676515D01*
X30056392Y6676515D02*
X29913535Y6712229D01*
X29913535Y6712229D02*
X29806392Y6712229D01*
X29806392Y6712229D02*
X29663535Y6676515D01*
X29663535Y6676515D02*
X29592107Y6640801D01*
X29592107Y6640801D02*
X29520678Y6569372D01*
X29520678Y6569372D02*
X29484964Y6462229D01*
X29484964Y6462229D02*
X29484964Y6390801D01*
X29484964Y6390801D02*
X29520678Y6283658D01*
X29520678Y6283658D02*
X29556392Y6247944D01*
X29556392Y5962229D02*
X29520678Y5926515D01*
X29520678Y5926515D02*
X29484964Y5855086D01*
X29484964Y5855086D02*
X29484964Y5676515D01*
X29484964Y5676515D02*
X29520678Y5605086D01*
X29520678Y5605086D02*
X29556392Y5569372D01*
X29556392Y5569372D02*
X29627821Y5533658D01*
X29627821Y5533658D02*
X29699250Y5533658D01*
X29699250Y5533658D02*
X29806392Y5569372D01*
X29806392Y5569372D02*
X30234964Y5997944D01*
X30234964Y5997944D02*
X30234964Y5533658D01*
X29484964Y5069372D02*
X29484964Y4997943D01*
X29484964Y4997943D02*
X29520678Y4926515D01*
X29520678Y4926515D02*
X29556392Y4890800D01*
X29556392Y4890800D02*
X29627821Y4855086D01*
X29627821Y4855086D02*
X29770678Y4819372D01*
X29770678Y4819372D02*
X29949250Y4819372D01*
X29949250Y4819372D02*
X30092107Y4855086D01*
X30092107Y4855086D02*
X30163535Y4890800D01*
X30163535Y4890800D02*
X30199250Y4926515D01*
X30199250Y4926515D02*
X30234964Y4997943D01*
X30234964Y4997943D02*
X30234964Y5069372D01*
X30234964Y5069372D02*
X30199250Y5140800D01*
X30199250Y5140800D02*
X30163535Y5176515D01*
X30163535Y5176515D02*
X30092107Y5212229D01*
X30092107Y5212229D02*
X29949250Y5247943D01*
X29949250Y5247943D02*
X29770678Y5247943D01*
X29770678Y5247943D02*
X29627821Y5212229D01*
X29627821Y5212229D02*
X29556392Y5176515D01*
X29556392Y5176515D02*
X29520678Y5140800D01*
X29520678Y5140800D02*
X29484964Y5069372D01*
X24370843Y4621765D02*
X24406557Y4586050D01*
X24406557Y4586050D02*
X24513700Y4550336D01*
X24513700Y4550336D02*
X24585128Y4550336D01*
X24585128Y4550336D02*
X24692271Y4586050D01*
X24692271Y4586050D02*
X24763700Y4657479D01*
X24763700Y4657479D02*
X24799414Y4728908D01*
X24799414Y4728908D02*
X24835128Y4871765D01*
X24835128Y4871765D02*
X24835128Y4978908D01*
X24835128Y4978908D02*
X24799414Y5121765D01*
X24799414Y5121765D02*
X24763700Y5193193D01*
X24763700Y5193193D02*
X24692271Y5264622D01*
X24692271Y5264622D02*
X24585128Y5300336D01*
X24585128Y5300336D02*
X24513700Y5300336D01*
X24513700Y5300336D02*
X24406557Y5264622D01*
X24406557Y5264622D02*
X24370843Y5228908D01*
X24085128Y5228908D02*
X24049414Y5264622D01*
X24049414Y5264622D02*
X23977986Y5300336D01*
X23977986Y5300336D02*
X23799414Y5300336D01*
X23799414Y5300336D02*
X23727986Y5264622D01*
X23727986Y5264622D02*
X23692271Y5228908D01*
X23692271Y5228908D02*
X23656557Y5157479D01*
X23656557Y5157479D02*
X23656557Y5086050D01*
X23656557Y5086050D02*
X23692271Y4978908D01*
X23692271Y4978908D02*
X24120843Y4550336D01*
X24120843Y4550336D02*
X23656557Y4550336D01*
X23406557Y5300336D02*
X22942271Y5300336D01*
X22942271Y5300336D02*
X23192271Y5014622D01*
X23192271Y5014622D02*
X23085128Y5014622D01*
X23085128Y5014622D02*
X23013700Y4978908D01*
X23013700Y4978908D02*
X22977985Y4943193D01*
X22977985Y4943193D02*
X22942271Y4871765D01*
X22942271Y4871765D02*
X22942271Y4693193D01*
X22942271Y4693193D02*
X22977985Y4621765D01*
X22977985Y4621765D02*
X23013700Y4586050D01*
X23013700Y4586050D02*
X23085128Y4550336D01*
X23085128Y4550336D02*
X23299414Y4550336D01*
X23299414Y4550336D02*
X23370842Y4586050D01*
X23370842Y4586050D02*
X23406557Y4621765D01*
X48349935Y23050044D02*
X48385650Y23085758D01*
X48385650Y23085758D02*
X48421364Y23192901D01*
X48421364Y23192901D02*
X48421364Y23264329D01*
X48421364Y23264329D02*
X48385650Y23371472D01*
X48385650Y23371472D02*
X48314221Y23442901D01*
X48314221Y23442901D02*
X48242792Y23478615D01*
X48242792Y23478615D02*
X48099935Y23514329D01*
X48099935Y23514329D02*
X47992792Y23514329D01*
X47992792Y23514329D02*
X47849935Y23478615D01*
X47849935Y23478615D02*
X47778507Y23442901D01*
X47778507Y23442901D02*
X47707078Y23371472D01*
X47707078Y23371472D02*
X47671364Y23264329D01*
X47671364Y23264329D02*
X47671364Y23192901D01*
X47671364Y23192901D02*
X47707078Y23085758D01*
X47707078Y23085758D02*
X47742792Y23050044D01*
X47671364Y22800044D02*
X47671364Y22335758D01*
X47671364Y22335758D02*
X47957078Y22585758D01*
X47957078Y22585758D02*
X47957078Y22478615D01*
X47957078Y22478615D02*
X47992792Y22407186D01*
X47992792Y22407186D02*
X48028507Y22371472D01*
X48028507Y22371472D02*
X48099935Y22335758D01*
X48099935Y22335758D02*
X48278507Y22335758D01*
X48278507Y22335758D02*
X48349935Y22371472D01*
X48349935Y22371472D02*
X48385650Y22407186D01*
X48385650Y22407186D02*
X48421364Y22478615D01*
X48421364Y22478615D02*
X48421364Y22692901D01*
X48421364Y22692901D02*
X48385650Y22764329D01*
X48385650Y22764329D02*
X48349935Y22800044D01*
X47671364Y21871472D02*
X47671364Y21800043D01*
X47671364Y21800043D02*
X47707078Y21728615D01*
X47707078Y21728615D02*
X47742792Y21692900D01*
X47742792Y21692900D02*
X47814221Y21657186D01*
X47814221Y21657186D02*
X47957078Y21621472D01*
X47957078Y21621472D02*
X48135650Y21621472D01*
X48135650Y21621472D02*
X48278507Y21657186D01*
X48278507Y21657186D02*
X48349935Y21692900D01*
X48349935Y21692900D02*
X48385650Y21728615D01*
X48385650Y21728615D02*
X48421364Y21800043D01*
X48421364Y21800043D02*
X48421364Y21871472D01*
X48421364Y21871472D02*
X48385650Y21942900D01*
X48385650Y21942900D02*
X48349935Y21978615D01*
X48349935Y21978615D02*
X48278507Y22014329D01*
X48278507Y22014329D02*
X48135650Y22050043D01*
X48135650Y22050043D02*
X47957078Y22050043D01*
X47957078Y22050043D02*
X47814221Y22014329D01*
X47814221Y22014329D02*
X47742792Y21978615D01*
X47742792Y21978615D02*
X47707078Y21942900D01*
X47707078Y21942900D02*
X47671364Y21871472D01*
X46698935Y23050044D02*
X46734650Y23085758D01*
X46734650Y23085758D02*
X46770364Y23192901D01*
X46770364Y23192901D02*
X46770364Y23264329D01*
X46770364Y23264329D02*
X46734650Y23371472D01*
X46734650Y23371472D02*
X46663221Y23442901D01*
X46663221Y23442901D02*
X46591792Y23478615D01*
X46591792Y23478615D02*
X46448935Y23514329D01*
X46448935Y23514329D02*
X46341792Y23514329D01*
X46341792Y23514329D02*
X46198935Y23478615D01*
X46198935Y23478615D02*
X46127507Y23442901D01*
X46127507Y23442901D02*
X46056078Y23371472D01*
X46056078Y23371472D02*
X46020364Y23264329D01*
X46020364Y23264329D02*
X46020364Y23192901D01*
X46020364Y23192901D02*
X46056078Y23085758D01*
X46056078Y23085758D02*
X46091792Y23050044D01*
X46020364Y22800044D02*
X46020364Y22335758D01*
X46020364Y22335758D02*
X46306078Y22585758D01*
X46306078Y22585758D02*
X46306078Y22478615D01*
X46306078Y22478615D02*
X46341792Y22407186D01*
X46341792Y22407186D02*
X46377507Y22371472D01*
X46377507Y22371472D02*
X46448935Y22335758D01*
X46448935Y22335758D02*
X46627507Y22335758D01*
X46627507Y22335758D02*
X46698935Y22371472D01*
X46698935Y22371472D02*
X46734650Y22407186D01*
X46734650Y22407186D02*
X46770364Y22478615D01*
X46770364Y22478615D02*
X46770364Y22692901D01*
X46770364Y22692901D02*
X46734650Y22764329D01*
X46734650Y22764329D02*
X46698935Y22800044D01*
X46770364Y21621472D02*
X46770364Y22050043D01*
X46770364Y21835758D02*
X46020364Y21835758D01*
X46020364Y21835758D02*
X46127507Y21907186D01*
X46127507Y21907186D02*
X46198935Y21978615D01*
X46198935Y21978615D02*
X46234650Y22050043D01*
X38469335Y29730244D02*
X38505050Y29765958D01*
X38505050Y29765958D02*
X38540764Y29873101D01*
X38540764Y29873101D02*
X38540764Y29944529D01*
X38540764Y29944529D02*
X38505050Y30051672D01*
X38505050Y30051672D02*
X38433621Y30123101D01*
X38433621Y30123101D02*
X38362192Y30158815D01*
X38362192Y30158815D02*
X38219335Y30194529D01*
X38219335Y30194529D02*
X38112192Y30194529D01*
X38112192Y30194529D02*
X37969335Y30158815D01*
X37969335Y30158815D02*
X37897907Y30123101D01*
X37897907Y30123101D02*
X37826478Y30051672D01*
X37826478Y30051672D02*
X37790764Y29944529D01*
X37790764Y29944529D02*
X37790764Y29873101D01*
X37790764Y29873101D02*
X37826478Y29765958D01*
X37826478Y29765958D02*
X37862192Y29730244D01*
X37790764Y29480244D02*
X37790764Y29015958D01*
X37790764Y29015958D02*
X38076478Y29265958D01*
X38076478Y29265958D02*
X38076478Y29158815D01*
X38076478Y29158815D02*
X38112192Y29087386D01*
X38112192Y29087386D02*
X38147907Y29051672D01*
X38147907Y29051672D02*
X38219335Y29015958D01*
X38219335Y29015958D02*
X38397907Y29015958D01*
X38397907Y29015958D02*
X38469335Y29051672D01*
X38469335Y29051672D02*
X38505050Y29087386D01*
X38505050Y29087386D02*
X38540764Y29158815D01*
X38540764Y29158815D02*
X38540764Y29373101D01*
X38540764Y29373101D02*
X38505050Y29444529D01*
X38505050Y29444529D02*
X38469335Y29480244D01*
X37862192Y28730243D02*
X37826478Y28694529D01*
X37826478Y28694529D02*
X37790764Y28623100D01*
X37790764Y28623100D02*
X37790764Y28444529D01*
X37790764Y28444529D02*
X37826478Y28373100D01*
X37826478Y28373100D02*
X37862192Y28337386D01*
X37862192Y28337386D02*
X37933621Y28301672D01*
X37933621Y28301672D02*
X38005050Y28301672D01*
X38005050Y28301672D02*
X38112192Y28337386D01*
X38112192Y28337386D02*
X38540764Y28765958D01*
X38540764Y28765958D02*
X38540764Y28301672D01*
X39993335Y29692144D02*
X40029050Y29727858D01*
X40029050Y29727858D02*
X40064764Y29835001D01*
X40064764Y29835001D02*
X40064764Y29906429D01*
X40064764Y29906429D02*
X40029050Y30013572D01*
X40029050Y30013572D02*
X39957621Y30085001D01*
X39957621Y30085001D02*
X39886192Y30120715D01*
X39886192Y30120715D02*
X39743335Y30156429D01*
X39743335Y30156429D02*
X39636192Y30156429D01*
X39636192Y30156429D02*
X39493335Y30120715D01*
X39493335Y30120715D02*
X39421907Y30085001D01*
X39421907Y30085001D02*
X39350478Y30013572D01*
X39350478Y30013572D02*
X39314764Y29906429D01*
X39314764Y29906429D02*
X39314764Y29835001D01*
X39314764Y29835001D02*
X39350478Y29727858D01*
X39350478Y29727858D02*
X39386192Y29692144D01*
X39314764Y29442144D02*
X39314764Y28977858D01*
X39314764Y28977858D02*
X39600478Y29227858D01*
X39600478Y29227858D02*
X39600478Y29120715D01*
X39600478Y29120715D02*
X39636192Y29049286D01*
X39636192Y29049286D02*
X39671907Y29013572D01*
X39671907Y29013572D02*
X39743335Y28977858D01*
X39743335Y28977858D02*
X39921907Y28977858D01*
X39921907Y28977858D02*
X39993335Y29013572D01*
X39993335Y29013572D02*
X40029050Y29049286D01*
X40029050Y29049286D02*
X40064764Y29120715D01*
X40064764Y29120715D02*
X40064764Y29335001D01*
X40064764Y29335001D02*
X40029050Y29406429D01*
X40029050Y29406429D02*
X39993335Y29442144D01*
X39314764Y28727858D02*
X39314764Y28263572D01*
X39314764Y28263572D02*
X39600478Y28513572D01*
X39600478Y28513572D02*
X39600478Y28406429D01*
X39600478Y28406429D02*
X39636192Y28335000D01*
X39636192Y28335000D02*
X39671907Y28299286D01*
X39671907Y28299286D02*
X39743335Y28263572D01*
X39743335Y28263572D02*
X39921907Y28263572D01*
X39921907Y28263572D02*
X39993335Y28299286D01*
X39993335Y28299286D02*
X40029050Y28335000D01*
X40029050Y28335000D02*
X40064764Y28406429D01*
X40064764Y28406429D02*
X40064764Y28620715D01*
X40064764Y28620715D02*
X40029050Y28692143D01*
X40029050Y28692143D02*
X39993335Y28727858D01*
X41479235Y29666744D02*
X41514950Y29702458D01*
X41514950Y29702458D02*
X41550664Y29809601D01*
X41550664Y29809601D02*
X41550664Y29881029D01*
X41550664Y29881029D02*
X41514950Y29988172D01*
X41514950Y29988172D02*
X41443521Y30059601D01*
X41443521Y30059601D02*
X41372092Y30095315D01*
X41372092Y30095315D02*
X41229235Y30131029D01*
X41229235Y30131029D02*
X41122092Y30131029D01*
X41122092Y30131029D02*
X40979235Y30095315D01*
X40979235Y30095315D02*
X40907807Y30059601D01*
X40907807Y30059601D02*
X40836378Y29988172D01*
X40836378Y29988172D02*
X40800664Y29881029D01*
X40800664Y29881029D02*
X40800664Y29809601D01*
X40800664Y29809601D02*
X40836378Y29702458D01*
X40836378Y29702458D02*
X40872092Y29666744D01*
X40800664Y29416744D02*
X40800664Y28952458D01*
X40800664Y28952458D02*
X41086378Y29202458D01*
X41086378Y29202458D02*
X41086378Y29095315D01*
X41086378Y29095315D02*
X41122092Y29023886D01*
X41122092Y29023886D02*
X41157807Y28988172D01*
X41157807Y28988172D02*
X41229235Y28952458D01*
X41229235Y28952458D02*
X41407807Y28952458D01*
X41407807Y28952458D02*
X41479235Y28988172D01*
X41479235Y28988172D02*
X41514950Y29023886D01*
X41514950Y29023886D02*
X41550664Y29095315D01*
X41550664Y29095315D02*
X41550664Y29309601D01*
X41550664Y29309601D02*
X41514950Y29381029D01*
X41514950Y29381029D02*
X41479235Y29416744D01*
X41050664Y28309600D02*
X41550664Y28309600D01*
X40764950Y28488172D02*
X41300664Y28666743D01*
X41300664Y28666743D02*
X41300664Y28202458D01*
X5409743Y33196765D02*
X5445457Y33161050D01*
X5445457Y33161050D02*
X5552600Y33125336D01*
X5552600Y33125336D02*
X5624028Y33125336D01*
X5624028Y33125336D02*
X5731171Y33161050D01*
X5731171Y33161050D02*
X5802600Y33232479D01*
X5802600Y33232479D02*
X5838314Y33303908D01*
X5838314Y33303908D02*
X5874028Y33446765D01*
X5874028Y33446765D02*
X5874028Y33553908D01*
X5874028Y33553908D02*
X5838314Y33696765D01*
X5838314Y33696765D02*
X5802600Y33768193D01*
X5802600Y33768193D02*
X5731171Y33839622D01*
X5731171Y33839622D02*
X5624028Y33875336D01*
X5624028Y33875336D02*
X5552600Y33875336D01*
X5552600Y33875336D02*
X5445457Y33839622D01*
X5445457Y33839622D02*
X5409743Y33803908D01*
X4766886Y33625336D02*
X4766886Y33125336D01*
X4945457Y33911050D02*
X5124028Y33375336D01*
X5124028Y33375336D02*
X4659743Y33375336D01*
X4231171Y33875336D02*
X4159742Y33875336D01*
X4159742Y33875336D02*
X4088314Y33839622D01*
X4088314Y33839622D02*
X4052600Y33803908D01*
X4052600Y33803908D02*
X4016885Y33732479D01*
X4016885Y33732479D02*
X3981171Y33589622D01*
X3981171Y33589622D02*
X3981171Y33411050D01*
X3981171Y33411050D02*
X4016885Y33268193D01*
X4016885Y33268193D02*
X4052600Y33196765D01*
X4052600Y33196765D02*
X4088314Y33161050D01*
X4088314Y33161050D02*
X4159742Y33125336D01*
X4159742Y33125336D02*
X4231171Y33125336D01*
X4231171Y33125336D02*
X4302600Y33161050D01*
X4302600Y33161050D02*
X4338314Y33196765D01*
X4338314Y33196765D02*
X4374028Y33268193D01*
X4374028Y33268193D02*
X4409742Y33411050D01*
X4409742Y33411050D02*
X4409742Y33589622D01*
X4409742Y33589622D02*
X4374028Y33732479D01*
X4374028Y33732479D02*
X4338314Y33803908D01*
X4338314Y33803908D02*
X4302600Y33839622D01*
X4302600Y33839622D02*
X4231171Y33875336D01*
X42569943Y19010865D02*
X42605657Y18975150D01*
X42605657Y18975150D02*
X42712800Y18939436D01*
X42712800Y18939436D02*
X42784228Y18939436D01*
X42784228Y18939436D02*
X42891371Y18975150D01*
X42891371Y18975150D02*
X42962800Y19046579D01*
X42962800Y19046579D02*
X42998514Y19118008D01*
X42998514Y19118008D02*
X43034228Y19260865D01*
X43034228Y19260865D02*
X43034228Y19368008D01*
X43034228Y19368008D02*
X42998514Y19510865D01*
X42998514Y19510865D02*
X42962800Y19582293D01*
X42962800Y19582293D02*
X42891371Y19653722D01*
X42891371Y19653722D02*
X42784228Y19689436D01*
X42784228Y19689436D02*
X42712800Y19689436D01*
X42712800Y19689436D02*
X42605657Y19653722D01*
X42605657Y19653722D02*
X42569943Y19618008D01*
X41927086Y19439436D02*
X41927086Y18939436D01*
X42105657Y19725150D02*
X42284228Y19189436D01*
X42284228Y19189436D02*
X41819943Y19189436D01*
X41141371Y18939436D02*
X41569942Y18939436D01*
X41355657Y18939436D02*
X41355657Y19689436D01*
X41355657Y19689436D02*
X41427085Y19582293D01*
X41427085Y19582293D02*
X41498514Y19510865D01*
X41498514Y19510865D02*
X41569942Y19475150D01*
X42569943Y20471365D02*
X42605657Y20435650D01*
X42605657Y20435650D02*
X42712800Y20399936D01*
X42712800Y20399936D02*
X42784228Y20399936D01*
X42784228Y20399936D02*
X42891371Y20435650D01*
X42891371Y20435650D02*
X42962800Y20507079D01*
X42962800Y20507079D02*
X42998514Y20578508D01*
X42998514Y20578508D02*
X43034228Y20721365D01*
X43034228Y20721365D02*
X43034228Y20828508D01*
X43034228Y20828508D02*
X42998514Y20971365D01*
X42998514Y20971365D02*
X42962800Y21042793D01*
X42962800Y21042793D02*
X42891371Y21114222D01*
X42891371Y21114222D02*
X42784228Y21149936D01*
X42784228Y21149936D02*
X42712800Y21149936D01*
X42712800Y21149936D02*
X42605657Y21114222D01*
X42605657Y21114222D02*
X42569943Y21078508D01*
X41927086Y20899936D02*
X41927086Y20399936D01*
X42105657Y21185650D02*
X42284228Y20649936D01*
X42284228Y20649936D02*
X41819943Y20649936D01*
X41569942Y21078508D02*
X41534228Y21114222D01*
X41534228Y21114222D02*
X41462800Y21149936D01*
X41462800Y21149936D02*
X41284228Y21149936D01*
X41284228Y21149936D02*
X41212800Y21114222D01*
X41212800Y21114222D02*
X41177085Y21078508D01*
X41177085Y21078508D02*
X41141371Y21007079D01*
X41141371Y21007079D02*
X41141371Y20935650D01*
X41141371Y20935650D02*
X41177085Y20828508D01*
X41177085Y20828508D02*
X41605657Y20399936D01*
X41605657Y20399936D02*
X41141371Y20399936D01*
X39812500Y59731836D02*
X40062500Y60088979D01*
X40241071Y59731836D02*
X40241071Y60481836D01*
X40241071Y60481836D02*
X39955357Y60481836D01*
X39955357Y60481836D02*
X39883928Y60446122D01*
X39883928Y60446122D02*
X39848214Y60410408D01*
X39848214Y60410408D02*
X39812500Y60338979D01*
X39812500Y60338979D02*
X39812500Y60231836D01*
X39812500Y60231836D02*
X39848214Y60160408D01*
X39848214Y60160408D02*
X39883928Y60124693D01*
X39883928Y60124693D02*
X39955357Y60088979D01*
X39955357Y60088979D02*
X40241071Y60088979D01*
X39526785Y60410408D02*
X39491071Y60446122D01*
X39491071Y60446122D02*
X39419643Y60481836D01*
X39419643Y60481836D02*
X39241071Y60481836D01*
X39241071Y60481836D02*
X39169643Y60446122D01*
X39169643Y60446122D02*
X39133928Y60410408D01*
X39133928Y60410408D02*
X39098214Y60338979D01*
X39098214Y60338979D02*
X39098214Y60267550D01*
X39098214Y60267550D02*
X39133928Y60160408D01*
X39133928Y60160408D02*
X39562500Y59731836D01*
X39562500Y59731836D02*
X39098214Y59731836D01*
X37717000Y59757236D02*
X37967000Y60114379D01*
X38145571Y59757236D02*
X38145571Y60507236D01*
X38145571Y60507236D02*
X37859857Y60507236D01*
X37859857Y60507236D02*
X37788428Y60471522D01*
X37788428Y60471522D02*
X37752714Y60435808D01*
X37752714Y60435808D02*
X37717000Y60364379D01*
X37717000Y60364379D02*
X37717000Y60257236D01*
X37717000Y60257236D02*
X37752714Y60185808D01*
X37752714Y60185808D02*
X37788428Y60150093D01*
X37788428Y60150093D02*
X37859857Y60114379D01*
X37859857Y60114379D02*
X38145571Y60114379D01*
X37467000Y60507236D02*
X37002714Y60507236D01*
X37002714Y60507236D02*
X37252714Y60221522D01*
X37252714Y60221522D02*
X37145571Y60221522D01*
X37145571Y60221522D02*
X37074143Y60185808D01*
X37074143Y60185808D02*
X37038428Y60150093D01*
X37038428Y60150093D02*
X37002714Y60078665D01*
X37002714Y60078665D02*
X37002714Y59900093D01*
X37002714Y59900093D02*
X37038428Y59828665D01*
X37038428Y59828665D02*
X37074143Y59792950D01*
X37074143Y59792950D02*
X37145571Y59757236D01*
X37145571Y59757236D02*
X37359857Y59757236D01*
X37359857Y59757236D02*
X37431285Y59792950D01*
X37431285Y59792950D02*
X37467000Y59828665D01*
X33780000Y59808036D02*
X34030000Y60165179D01*
X34208571Y59808036D02*
X34208571Y60558036D01*
X34208571Y60558036D02*
X33922857Y60558036D01*
X33922857Y60558036D02*
X33851428Y60522322D01*
X33851428Y60522322D02*
X33815714Y60486608D01*
X33815714Y60486608D02*
X33780000Y60415179D01*
X33780000Y60415179D02*
X33780000Y60308036D01*
X33780000Y60308036D02*
X33815714Y60236608D01*
X33815714Y60236608D02*
X33851428Y60200893D01*
X33851428Y60200893D02*
X33922857Y60165179D01*
X33922857Y60165179D02*
X34208571Y60165179D01*
X33137143Y60308036D02*
X33137143Y59808036D01*
X33315714Y60593750D02*
X33494285Y60058036D01*
X33494285Y60058036D02*
X33030000Y60058036D01*
X35761200Y59757236D02*
X36011200Y60114379D01*
X36189771Y59757236D02*
X36189771Y60507236D01*
X36189771Y60507236D02*
X35904057Y60507236D01*
X35904057Y60507236D02*
X35832628Y60471522D01*
X35832628Y60471522D02*
X35796914Y60435808D01*
X35796914Y60435808D02*
X35761200Y60364379D01*
X35761200Y60364379D02*
X35761200Y60257236D01*
X35761200Y60257236D02*
X35796914Y60185808D01*
X35796914Y60185808D02*
X35832628Y60150093D01*
X35832628Y60150093D02*
X35904057Y60114379D01*
X35904057Y60114379D02*
X36189771Y60114379D01*
X35082628Y60507236D02*
X35439771Y60507236D01*
X35439771Y60507236D02*
X35475485Y60150093D01*
X35475485Y60150093D02*
X35439771Y60185808D01*
X35439771Y60185808D02*
X35368343Y60221522D01*
X35368343Y60221522D02*
X35189771Y60221522D01*
X35189771Y60221522D02*
X35118343Y60185808D01*
X35118343Y60185808D02*
X35082628Y60150093D01*
X35082628Y60150093D02*
X35046914Y60078665D01*
X35046914Y60078665D02*
X35046914Y59900093D01*
X35046914Y59900093D02*
X35082628Y59828665D01*
X35082628Y59828665D02*
X35118343Y59792950D01*
X35118343Y59792950D02*
X35189771Y59757236D01*
X35189771Y59757236D02*
X35368343Y59757236D01*
X35368343Y59757236D02*
X35439771Y59792950D01*
X35439771Y59792950D02*
X35475485Y59828665D01*
X29779500Y59808036D02*
X30029500Y60165179D01*
X30208071Y59808036D02*
X30208071Y60558036D01*
X30208071Y60558036D02*
X29922357Y60558036D01*
X29922357Y60558036D02*
X29850928Y60522322D01*
X29850928Y60522322D02*
X29815214Y60486608D01*
X29815214Y60486608D02*
X29779500Y60415179D01*
X29779500Y60415179D02*
X29779500Y60308036D01*
X29779500Y60308036D02*
X29815214Y60236608D01*
X29815214Y60236608D02*
X29850928Y60200893D01*
X29850928Y60200893D02*
X29922357Y60165179D01*
X29922357Y60165179D02*
X30208071Y60165179D01*
X29136643Y60558036D02*
X29279500Y60558036D01*
X29279500Y60558036D02*
X29350928Y60522322D01*
X29350928Y60522322D02*
X29386643Y60486608D01*
X29386643Y60486608D02*
X29458071Y60379465D01*
X29458071Y60379465D02*
X29493785Y60236608D01*
X29493785Y60236608D02*
X29493785Y59950893D01*
X29493785Y59950893D02*
X29458071Y59879465D01*
X29458071Y59879465D02*
X29422357Y59843750D01*
X29422357Y59843750D02*
X29350928Y59808036D01*
X29350928Y59808036D02*
X29208071Y59808036D01*
X29208071Y59808036D02*
X29136643Y59843750D01*
X29136643Y59843750D02*
X29100928Y59879465D01*
X29100928Y59879465D02*
X29065214Y59950893D01*
X29065214Y59950893D02*
X29065214Y60129465D01*
X29065214Y60129465D02*
X29100928Y60200893D01*
X29100928Y60200893D02*
X29136643Y60236608D01*
X29136643Y60236608D02*
X29208071Y60272322D01*
X29208071Y60272322D02*
X29350928Y60272322D01*
X29350928Y60272322D02*
X29422357Y60236608D01*
X29422357Y60236608D02*
X29458071Y60200893D01*
X29458071Y60200893D02*
X29493785Y60129465D01*
X31798800Y59808036D02*
X32048800Y60165179D01*
X32227371Y59808036D02*
X32227371Y60558036D01*
X32227371Y60558036D02*
X31941657Y60558036D01*
X31941657Y60558036D02*
X31870228Y60522322D01*
X31870228Y60522322D02*
X31834514Y60486608D01*
X31834514Y60486608D02*
X31798800Y60415179D01*
X31798800Y60415179D02*
X31798800Y60308036D01*
X31798800Y60308036D02*
X31834514Y60236608D01*
X31834514Y60236608D02*
X31870228Y60200893D01*
X31870228Y60200893D02*
X31941657Y60165179D01*
X31941657Y60165179D02*
X32227371Y60165179D01*
X31548800Y60558036D02*
X31048800Y60558036D01*
X31048800Y60558036D02*
X31370228Y59808036D01*
X25626600Y59757236D02*
X25876600Y60114379D01*
X26055171Y59757236D02*
X26055171Y60507236D01*
X26055171Y60507236D02*
X25769457Y60507236D01*
X25769457Y60507236D02*
X25698028Y60471522D01*
X25698028Y60471522D02*
X25662314Y60435808D01*
X25662314Y60435808D02*
X25626600Y60364379D01*
X25626600Y60364379D02*
X25626600Y60257236D01*
X25626600Y60257236D02*
X25662314Y60185808D01*
X25662314Y60185808D02*
X25698028Y60150093D01*
X25698028Y60150093D02*
X25769457Y60114379D01*
X25769457Y60114379D02*
X26055171Y60114379D01*
X25198028Y60185808D02*
X25269457Y60221522D01*
X25269457Y60221522D02*
X25305171Y60257236D01*
X25305171Y60257236D02*
X25340885Y60328665D01*
X25340885Y60328665D02*
X25340885Y60364379D01*
X25340885Y60364379D02*
X25305171Y60435808D01*
X25305171Y60435808D02*
X25269457Y60471522D01*
X25269457Y60471522D02*
X25198028Y60507236D01*
X25198028Y60507236D02*
X25055171Y60507236D01*
X25055171Y60507236D02*
X24983743Y60471522D01*
X24983743Y60471522D02*
X24948028Y60435808D01*
X24948028Y60435808D02*
X24912314Y60364379D01*
X24912314Y60364379D02*
X24912314Y60328665D01*
X24912314Y60328665D02*
X24948028Y60257236D01*
X24948028Y60257236D02*
X24983743Y60221522D01*
X24983743Y60221522D02*
X25055171Y60185808D01*
X25055171Y60185808D02*
X25198028Y60185808D01*
X25198028Y60185808D02*
X25269457Y60150093D01*
X25269457Y60150093D02*
X25305171Y60114379D01*
X25305171Y60114379D02*
X25340885Y60042950D01*
X25340885Y60042950D02*
X25340885Y59900093D01*
X25340885Y59900093D02*
X25305171Y59828665D01*
X25305171Y59828665D02*
X25269457Y59792950D01*
X25269457Y59792950D02*
X25198028Y59757236D01*
X25198028Y59757236D02*
X25055171Y59757236D01*
X25055171Y59757236D02*
X24983743Y59792950D01*
X24983743Y59792950D02*
X24948028Y59828665D01*
X24948028Y59828665D02*
X24912314Y59900093D01*
X24912314Y59900093D02*
X24912314Y60042950D01*
X24912314Y60042950D02*
X24948028Y60114379D01*
X24948028Y60114379D02*
X24983743Y60150093D01*
X24983743Y60150093D02*
X25055171Y60185808D01*
X27798300Y59782636D02*
X28048300Y60139779D01*
X28226871Y59782636D02*
X28226871Y60532636D01*
X28226871Y60532636D02*
X27941157Y60532636D01*
X27941157Y60532636D02*
X27869728Y60496922D01*
X27869728Y60496922D02*
X27834014Y60461208D01*
X27834014Y60461208D02*
X27798300Y60389779D01*
X27798300Y60389779D02*
X27798300Y60282636D01*
X27798300Y60282636D02*
X27834014Y60211208D01*
X27834014Y60211208D02*
X27869728Y60175493D01*
X27869728Y60175493D02*
X27941157Y60139779D01*
X27941157Y60139779D02*
X28226871Y60139779D01*
X27441157Y59782636D02*
X27298300Y59782636D01*
X27298300Y59782636D02*
X27226871Y59818350D01*
X27226871Y59818350D02*
X27191157Y59854065D01*
X27191157Y59854065D02*
X27119728Y59961208D01*
X27119728Y59961208D02*
X27084014Y60104065D01*
X27084014Y60104065D02*
X27084014Y60389779D01*
X27084014Y60389779D02*
X27119728Y60461208D01*
X27119728Y60461208D02*
X27155443Y60496922D01*
X27155443Y60496922D02*
X27226871Y60532636D01*
X27226871Y60532636D02*
X27369728Y60532636D01*
X27369728Y60532636D02*
X27441157Y60496922D01*
X27441157Y60496922D02*
X27476871Y60461208D01*
X27476871Y60461208D02*
X27512585Y60389779D01*
X27512585Y60389779D02*
X27512585Y60211208D01*
X27512585Y60211208D02*
X27476871Y60139779D01*
X27476871Y60139779D02*
X27441157Y60104065D01*
X27441157Y60104065D02*
X27369728Y60068350D01*
X27369728Y60068350D02*
X27226871Y60068350D01*
X27226871Y60068350D02*
X27155443Y60104065D01*
X27155443Y60104065D02*
X27119728Y60139779D01*
X27119728Y60139779D02*
X27084014Y60211208D01*
X23621543Y59731836D02*
X23871543Y60088979D01*
X24050114Y59731836D02*
X24050114Y60481836D01*
X24050114Y60481836D02*
X23764400Y60481836D01*
X23764400Y60481836D02*
X23692971Y60446122D01*
X23692971Y60446122D02*
X23657257Y60410408D01*
X23657257Y60410408D02*
X23621543Y60338979D01*
X23621543Y60338979D02*
X23621543Y60231836D01*
X23621543Y60231836D02*
X23657257Y60160408D01*
X23657257Y60160408D02*
X23692971Y60124693D01*
X23692971Y60124693D02*
X23764400Y60088979D01*
X23764400Y60088979D02*
X24050114Y60088979D01*
X22907257Y59731836D02*
X23335828Y59731836D01*
X23121543Y59731836D02*
X23121543Y60481836D01*
X23121543Y60481836D02*
X23192971Y60374693D01*
X23192971Y60374693D02*
X23264400Y60303265D01*
X23264400Y60303265D02*
X23335828Y60267550D01*
X22192971Y59731836D02*
X22621542Y59731836D01*
X22407257Y59731836D02*
X22407257Y60481836D01*
X22407257Y60481836D02*
X22478685Y60374693D01*
X22478685Y60374693D02*
X22550114Y60303265D01*
X22550114Y60303265D02*
X22621542Y60267550D01*
X49631143Y42332836D02*
X49881143Y42689979D01*
X50059714Y42332836D02*
X50059714Y43082836D01*
X50059714Y43082836D02*
X49774000Y43082836D01*
X49774000Y43082836D02*
X49702571Y43047122D01*
X49702571Y43047122D02*
X49666857Y43011408D01*
X49666857Y43011408D02*
X49631143Y42939979D01*
X49631143Y42939979D02*
X49631143Y42832836D01*
X49631143Y42832836D02*
X49666857Y42761408D01*
X49666857Y42761408D02*
X49702571Y42725693D01*
X49702571Y42725693D02*
X49774000Y42689979D01*
X49774000Y42689979D02*
X50059714Y42689979D01*
X48916857Y42332836D02*
X49345428Y42332836D01*
X49131143Y42332836D02*
X49131143Y43082836D01*
X49131143Y43082836D02*
X49202571Y42975693D01*
X49202571Y42975693D02*
X49274000Y42904265D01*
X49274000Y42904265D02*
X49345428Y42868550D01*
X48238285Y43082836D02*
X48595428Y43082836D01*
X48595428Y43082836D02*
X48631142Y42725693D01*
X48631142Y42725693D02*
X48595428Y42761408D01*
X48595428Y42761408D02*
X48524000Y42797122D01*
X48524000Y42797122D02*
X48345428Y42797122D01*
X48345428Y42797122D02*
X48274000Y42761408D01*
X48274000Y42761408D02*
X48238285Y42725693D01*
X48238285Y42725693D02*
X48202571Y42654265D01*
X48202571Y42654265D02*
X48202571Y42475693D01*
X48202571Y42475693D02*
X48238285Y42404265D01*
X48238285Y42404265D02*
X48274000Y42368550D01*
X48274000Y42368550D02*
X48345428Y42332836D01*
X48345428Y42332836D02*
X48524000Y42332836D01*
X48524000Y42332836D02*
X48595428Y42368550D01*
X48595428Y42368550D02*
X48631142Y42404265D01*
X46430743Y40694536D02*
X46680743Y41051679D01*
X46859314Y40694536D02*
X46859314Y41444536D01*
X46859314Y41444536D02*
X46573600Y41444536D01*
X46573600Y41444536D02*
X46502171Y41408822D01*
X46502171Y41408822D02*
X46466457Y41373108D01*
X46466457Y41373108D02*
X46430743Y41301679D01*
X46430743Y41301679D02*
X46430743Y41194536D01*
X46430743Y41194536D02*
X46466457Y41123108D01*
X46466457Y41123108D02*
X46502171Y41087393D01*
X46502171Y41087393D02*
X46573600Y41051679D01*
X46573600Y41051679D02*
X46859314Y41051679D01*
X45716457Y40694536D02*
X46145028Y40694536D01*
X45930743Y40694536D02*
X45930743Y41444536D01*
X45930743Y41444536D02*
X46002171Y41337393D01*
X46002171Y41337393D02*
X46073600Y41265965D01*
X46073600Y41265965D02*
X46145028Y41230250D01*
X45073600Y41444536D02*
X45216457Y41444536D01*
X45216457Y41444536D02*
X45287885Y41408822D01*
X45287885Y41408822D02*
X45323600Y41373108D01*
X45323600Y41373108D02*
X45395028Y41265965D01*
X45395028Y41265965D02*
X45430742Y41123108D01*
X45430742Y41123108D02*
X45430742Y40837393D01*
X45430742Y40837393D02*
X45395028Y40765965D01*
X45395028Y40765965D02*
X45359314Y40730250D01*
X45359314Y40730250D02*
X45287885Y40694536D01*
X45287885Y40694536D02*
X45145028Y40694536D01*
X45145028Y40694536D02*
X45073600Y40730250D01*
X45073600Y40730250D02*
X45037885Y40765965D01*
X45037885Y40765965D02*
X45002171Y40837393D01*
X45002171Y40837393D02*
X45002171Y41015965D01*
X45002171Y41015965D02*
X45037885Y41087393D01*
X45037885Y41087393D02*
X45073600Y41123108D01*
X45073600Y41123108D02*
X45145028Y41158822D01*
X45145028Y41158822D02*
X45287885Y41158822D01*
X45287885Y41158822D02*
X45359314Y41123108D01*
X45359314Y41123108D02*
X45395028Y41087393D01*
X45395028Y41087393D02*
X45430742Y41015965D01*
X39598143Y42205836D02*
X39848143Y42562979D01*
X40026714Y42205836D02*
X40026714Y42955836D01*
X40026714Y42955836D02*
X39741000Y42955836D01*
X39741000Y42955836D02*
X39669571Y42920122D01*
X39669571Y42920122D02*
X39633857Y42884408D01*
X39633857Y42884408D02*
X39598143Y42812979D01*
X39598143Y42812979D02*
X39598143Y42705836D01*
X39598143Y42705836D02*
X39633857Y42634408D01*
X39633857Y42634408D02*
X39669571Y42598693D01*
X39669571Y42598693D02*
X39741000Y42562979D01*
X39741000Y42562979D02*
X40026714Y42562979D01*
X38883857Y42205836D02*
X39312428Y42205836D01*
X39098143Y42205836D02*
X39098143Y42955836D01*
X39098143Y42955836D02*
X39169571Y42848693D01*
X39169571Y42848693D02*
X39241000Y42777265D01*
X39241000Y42777265D02*
X39312428Y42741550D01*
X38633857Y42955836D02*
X38133857Y42955836D01*
X38133857Y42955836D02*
X38455285Y42205836D01*
X38582143Y39284836D02*
X38832143Y39641979D01*
X39010714Y39284836D02*
X39010714Y40034836D01*
X39010714Y40034836D02*
X38725000Y40034836D01*
X38725000Y40034836D02*
X38653571Y39999122D01*
X38653571Y39999122D02*
X38617857Y39963408D01*
X38617857Y39963408D02*
X38582143Y39891979D01*
X38582143Y39891979D02*
X38582143Y39784836D01*
X38582143Y39784836D02*
X38617857Y39713408D01*
X38617857Y39713408D02*
X38653571Y39677693D01*
X38653571Y39677693D02*
X38725000Y39641979D01*
X38725000Y39641979D02*
X39010714Y39641979D01*
X37867857Y39284836D02*
X38296428Y39284836D01*
X38082143Y39284836D02*
X38082143Y40034836D01*
X38082143Y40034836D02*
X38153571Y39927693D01*
X38153571Y39927693D02*
X38225000Y39856265D01*
X38225000Y39856265D02*
X38296428Y39820550D01*
X37439285Y39713408D02*
X37510714Y39749122D01*
X37510714Y39749122D02*
X37546428Y39784836D01*
X37546428Y39784836D02*
X37582142Y39856265D01*
X37582142Y39856265D02*
X37582142Y39891979D01*
X37582142Y39891979D02*
X37546428Y39963408D01*
X37546428Y39963408D02*
X37510714Y39999122D01*
X37510714Y39999122D02*
X37439285Y40034836D01*
X37439285Y40034836D02*
X37296428Y40034836D01*
X37296428Y40034836D02*
X37225000Y39999122D01*
X37225000Y39999122D02*
X37189285Y39963408D01*
X37189285Y39963408D02*
X37153571Y39891979D01*
X37153571Y39891979D02*
X37153571Y39856265D01*
X37153571Y39856265D02*
X37189285Y39784836D01*
X37189285Y39784836D02*
X37225000Y39749122D01*
X37225000Y39749122D02*
X37296428Y39713408D01*
X37296428Y39713408D02*
X37439285Y39713408D01*
X37439285Y39713408D02*
X37510714Y39677693D01*
X37510714Y39677693D02*
X37546428Y39641979D01*
X37546428Y39641979D02*
X37582142Y39570550D01*
X37582142Y39570550D02*
X37582142Y39427693D01*
X37582142Y39427693D02*
X37546428Y39356265D01*
X37546428Y39356265D02*
X37510714Y39320550D01*
X37510714Y39320550D02*
X37439285Y39284836D01*
X37439285Y39284836D02*
X37296428Y39284836D01*
X37296428Y39284836D02*
X37225000Y39320550D01*
X37225000Y39320550D02*
X37189285Y39356265D01*
X37189285Y39356265D02*
X37153571Y39427693D01*
X37153571Y39427693D02*
X37153571Y39570550D01*
X37153571Y39570550D02*
X37189285Y39641979D01*
X37189285Y39641979D02*
X37225000Y39677693D01*
X37225000Y39677693D02*
X37296428Y39713408D01*
X30301743Y42332836D02*
X30551743Y42689979D01*
X30730314Y42332836D02*
X30730314Y43082836D01*
X30730314Y43082836D02*
X30444600Y43082836D01*
X30444600Y43082836D02*
X30373171Y43047122D01*
X30373171Y43047122D02*
X30337457Y43011408D01*
X30337457Y43011408D02*
X30301743Y42939979D01*
X30301743Y42939979D02*
X30301743Y42832836D01*
X30301743Y42832836D02*
X30337457Y42761408D01*
X30337457Y42761408D02*
X30373171Y42725693D01*
X30373171Y42725693D02*
X30444600Y42689979D01*
X30444600Y42689979D02*
X30730314Y42689979D01*
X29587457Y42332836D02*
X30016028Y42332836D01*
X29801743Y42332836D02*
X29801743Y43082836D01*
X29801743Y43082836D02*
X29873171Y42975693D01*
X29873171Y42975693D02*
X29944600Y42904265D01*
X29944600Y42904265D02*
X30016028Y42868550D01*
X29230314Y42332836D02*
X29087457Y42332836D01*
X29087457Y42332836D02*
X29016028Y42368550D01*
X29016028Y42368550D02*
X28980314Y42404265D01*
X28980314Y42404265D02*
X28908885Y42511408D01*
X28908885Y42511408D02*
X28873171Y42654265D01*
X28873171Y42654265D02*
X28873171Y42939979D01*
X28873171Y42939979D02*
X28908885Y43011408D01*
X28908885Y43011408D02*
X28944600Y43047122D01*
X28944600Y43047122D02*
X29016028Y43082836D01*
X29016028Y43082836D02*
X29158885Y43082836D01*
X29158885Y43082836D02*
X29230314Y43047122D01*
X29230314Y43047122D02*
X29266028Y43011408D01*
X29266028Y43011408D02*
X29301742Y42939979D01*
X29301742Y42939979D02*
X29301742Y42761408D01*
X29301742Y42761408D02*
X29266028Y42689979D01*
X29266028Y42689979D02*
X29230314Y42654265D01*
X29230314Y42654265D02*
X29158885Y42618550D01*
X29158885Y42618550D02*
X29016028Y42618550D01*
X29016028Y42618550D02*
X28944600Y42654265D01*
X28944600Y42654265D02*
X28908885Y42689979D01*
X28908885Y42689979D02*
X28873171Y42761408D01*
X29057143Y39411836D02*
X29307143Y39768979D01*
X29485714Y39411836D02*
X29485714Y40161836D01*
X29485714Y40161836D02*
X29200000Y40161836D01*
X29200000Y40161836D02*
X29128571Y40126122D01*
X29128571Y40126122D02*
X29092857Y40090408D01*
X29092857Y40090408D02*
X29057143Y40018979D01*
X29057143Y40018979D02*
X29057143Y39911836D01*
X29057143Y39911836D02*
X29092857Y39840408D01*
X29092857Y39840408D02*
X29128571Y39804693D01*
X29128571Y39804693D02*
X29200000Y39768979D01*
X29200000Y39768979D02*
X29485714Y39768979D01*
X28771428Y40090408D02*
X28735714Y40126122D01*
X28735714Y40126122D02*
X28664286Y40161836D01*
X28664286Y40161836D02*
X28485714Y40161836D01*
X28485714Y40161836D02*
X28414286Y40126122D01*
X28414286Y40126122D02*
X28378571Y40090408D01*
X28378571Y40090408D02*
X28342857Y40018979D01*
X28342857Y40018979D02*
X28342857Y39947550D01*
X28342857Y39947550D02*
X28378571Y39840408D01*
X28378571Y39840408D02*
X28807143Y39411836D01*
X28807143Y39411836D02*
X28342857Y39411836D01*
X27878571Y40161836D02*
X27807142Y40161836D01*
X27807142Y40161836D02*
X27735714Y40126122D01*
X27735714Y40126122D02*
X27700000Y40090408D01*
X27700000Y40090408D02*
X27664285Y40018979D01*
X27664285Y40018979D02*
X27628571Y39876122D01*
X27628571Y39876122D02*
X27628571Y39697550D01*
X27628571Y39697550D02*
X27664285Y39554693D01*
X27664285Y39554693D02*
X27700000Y39483265D01*
X27700000Y39483265D02*
X27735714Y39447550D01*
X27735714Y39447550D02*
X27807142Y39411836D01*
X27807142Y39411836D02*
X27878571Y39411836D01*
X27878571Y39411836D02*
X27950000Y39447550D01*
X27950000Y39447550D02*
X27985714Y39483265D01*
X27985714Y39483265D02*
X28021428Y39554693D01*
X28021428Y39554693D02*
X28057142Y39697550D01*
X28057142Y39697550D02*
X28057142Y39876122D01*
X28057142Y39876122D02*
X28021428Y40018979D01*
X28021428Y40018979D02*
X27985714Y40090408D01*
X27985714Y40090408D02*
X27950000Y40126122D01*
X27950000Y40126122D02*
X27878571Y40161836D01*
X15404643Y42269336D02*
X15654643Y42626479D01*
X15833214Y42269336D02*
X15833214Y43019336D01*
X15833214Y43019336D02*
X15547500Y43019336D01*
X15547500Y43019336D02*
X15476071Y42983622D01*
X15476071Y42983622D02*
X15440357Y42947908D01*
X15440357Y42947908D02*
X15404643Y42876479D01*
X15404643Y42876479D02*
X15404643Y42769336D01*
X15404643Y42769336D02*
X15440357Y42697908D01*
X15440357Y42697908D02*
X15476071Y42662193D01*
X15476071Y42662193D02*
X15547500Y42626479D01*
X15547500Y42626479D02*
X15833214Y42626479D01*
X15118928Y42947908D02*
X15083214Y42983622D01*
X15083214Y42983622D02*
X15011786Y43019336D01*
X15011786Y43019336D02*
X14833214Y43019336D01*
X14833214Y43019336D02*
X14761786Y42983622D01*
X14761786Y42983622D02*
X14726071Y42947908D01*
X14726071Y42947908D02*
X14690357Y42876479D01*
X14690357Y42876479D02*
X14690357Y42805050D01*
X14690357Y42805050D02*
X14726071Y42697908D01*
X14726071Y42697908D02*
X15154643Y42269336D01*
X15154643Y42269336D02*
X14690357Y42269336D01*
X13976071Y42269336D02*
X14404642Y42269336D01*
X14190357Y42269336D02*
X14190357Y43019336D01*
X14190357Y43019336D02*
X14261785Y42912193D01*
X14261785Y42912193D02*
X14333214Y42840765D01*
X14333214Y42840765D02*
X14404642Y42805050D01*
X18360464Y40995144D02*
X18003321Y41245144D01*
X18360464Y41423715D02*
X17610464Y41423715D01*
X17610464Y41423715D02*
X17610464Y41138001D01*
X17610464Y41138001D02*
X17646178Y41066572D01*
X17646178Y41066572D02*
X17681892Y41030858D01*
X17681892Y41030858D02*
X17753321Y40995144D01*
X17753321Y40995144D02*
X17860464Y40995144D01*
X17860464Y40995144D02*
X17931892Y41030858D01*
X17931892Y41030858D02*
X17967607Y41066572D01*
X17967607Y41066572D02*
X18003321Y41138001D01*
X18003321Y41138001D02*
X18003321Y41423715D01*
X17681892Y40709429D02*
X17646178Y40673715D01*
X17646178Y40673715D02*
X17610464Y40602286D01*
X17610464Y40602286D02*
X17610464Y40423715D01*
X17610464Y40423715D02*
X17646178Y40352286D01*
X17646178Y40352286D02*
X17681892Y40316572D01*
X17681892Y40316572D02*
X17753321Y40280858D01*
X17753321Y40280858D02*
X17824750Y40280858D01*
X17824750Y40280858D02*
X17931892Y40316572D01*
X17931892Y40316572D02*
X18360464Y40745144D01*
X18360464Y40745144D02*
X18360464Y40280858D01*
X17681892Y39995143D02*
X17646178Y39959429D01*
X17646178Y39959429D02*
X17610464Y39888000D01*
X17610464Y39888000D02*
X17610464Y39709429D01*
X17610464Y39709429D02*
X17646178Y39638000D01*
X17646178Y39638000D02*
X17681892Y39602286D01*
X17681892Y39602286D02*
X17753321Y39566572D01*
X17753321Y39566572D02*
X17824750Y39566572D01*
X17824750Y39566572D02*
X17931892Y39602286D01*
X17931892Y39602286D02*
X18360464Y40030858D01*
X18360464Y40030858D02*
X18360464Y39566572D01*
X44678143Y42713836D02*
X44928143Y43070979D01*
X45106714Y42713836D02*
X45106714Y43463836D01*
X45106714Y43463836D02*
X44821000Y43463836D01*
X44821000Y43463836D02*
X44749571Y43428122D01*
X44749571Y43428122D02*
X44713857Y43392408D01*
X44713857Y43392408D02*
X44678143Y43320979D01*
X44678143Y43320979D02*
X44678143Y43213836D01*
X44678143Y43213836D02*
X44713857Y43142408D01*
X44713857Y43142408D02*
X44749571Y43106693D01*
X44749571Y43106693D02*
X44821000Y43070979D01*
X44821000Y43070979D02*
X45106714Y43070979D01*
X44392428Y43392408D02*
X44356714Y43428122D01*
X44356714Y43428122D02*
X44285286Y43463836D01*
X44285286Y43463836D02*
X44106714Y43463836D01*
X44106714Y43463836D02*
X44035286Y43428122D01*
X44035286Y43428122D02*
X43999571Y43392408D01*
X43999571Y43392408D02*
X43963857Y43320979D01*
X43963857Y43320979D02*
X43963857Y43249550D01*
X43963857Y43249550D02*
X43999571Y43142408D01*
X43999571Y43142408D02*
X44428143Y42713836D01*
X44428143Y42713836D02*
X43963857Y42713836D01*
X43713857Y43463836D02*
X43249571Y43463836D01*
X43249571Y43463836D02*
X43499571Y43178122D01*
X43499571Y43178122D02*
X43392428Y43178122D01*
X43392428Y43178122D02*
X43321000Y43142408D01*
X43321000Y43142408D02*
X43285285Y43106693D01*
X43285285Y43106693D02*
X43249571Y43035265D01*
X43249571Y43035265D02*
X43249571Y42856693D01*
X43249571Y42856693D02*
X43285285Y42785265D01*
X43285285Y42785265D02*
X43321000Y42749550D01*
X43321000Y42749550D02*
X43392428Y42713836D01*
X43392428Y42713836D02*
X43606714Y42713836D01*
X43606714Y42713836D02*
X43678142Y42749550D01*
X43678142Y42749550D02*
X43713857Y42785265D01*
X34645143Y42586836D02*
X34895143Y42943979D01*
X35073714Y42586836D02*
X35073714Y43336836D01*
X35073714Y43336836D02*
X34788000Y43336836D01*
X34788000Y43336836D02*
X34716571Y43301122D01*
X34716571Y43301122D02*
X34680857Y43265408D01*
X34680857Y43265408D02*
X34645143Y43193979D01*
X34645143Y43193979D02*
X34645143Y43086836D01*
X34645143Y43086836D02*
X34680857Y43015408D01*
X34680857Y43015408D02*
X34716571Y42979693D01*
X34716571Y42979693D02*
X34788000Y42943979D01*
X34788000Y42943979D02*
X35073714Y42943979D01*
X34359428Y43265408D02*
X34323714Y43301122D01*
X34323714Y43301122D02*
X34252286Y43336836D01*
X34252286Y43336836D02*
X34073714Y43336836D01*
X34073714Y43336836D02*
X34002286Y43301122D01*
X34002286Y43301122D02*
X33966571Y43265408D01*
X33966571Y43265408D02*
X33930857Y43193979D01*
X33930857Y43193979D02*
X33930857Y43122550D01*
X33930857Y43122550D02*
X33966571Y43015408D01*
X33966571Y43015408D02*
X34395143Y42586836D01*
X34395143Y42586836D02*
X33930857Y42586836D01*
X33288000Y43086836D02*
X33288000Y42586836D01*
X33466571Y43372550D02*
X33645142Y42836836D01*
X33645142Y42836836D02*
X33180857Y42836836D01*
X25247143Y42586836D02*
X25497143Y42943979D01*
X25675714Y42586836D02*
X25675714Y43336836D01*
X25675714Y43336836D02*
X25390000Y43336836D01*
X25390000Y43336836D02*
X25318571Y43301122D01*
X25318571Y43301122D02*
X25282857Y43265408D01*
X25282857Y43265408D02*
X25247143Y43193979D01*
X25247143Y43193979D02*
X25247143Y43086836D01*
X25247143Y43086836D02*
X25282857Y43015408D01*
X25282857Y43015408D02*
X25318571Y42979693D01*
X25318571Y42979693D02*
X25390000Y42943979D01*
X25390000Y42943979D02*
X25675714Y42943979D01*
X24961428Y43265408D02*
X24925714Y43301122D01*
X24925714Y43301122D02*
X24854286Y43336836D01*
X24854286Y43336836D02*
X24675714Y43336836D01*
X24675714Y43336836D02*
X24604286Y43301122D01*
X24604286Y43301122D02*
X24568571Y43265408D01*
X24568571Y43265408D02*
X24532857Y43193979D01*
X24532857Y43193979D02*
X24532857Y43122550D01*
X24532857Y43122550D02*
X24568571Y43015408D01*
X24568571Y43015408D02*
X24997143Y42586836D01*
X24997143Y42586836D02*
X24532857Y42586836D01*
X23854285Y43336836D02*
X24211428Y43336836D01*
X24211428Y43336836D02*
X24247142Y42979693D01*
X24247142Y42979693D02*
X24211428Y43015408D01*
X24211428Y43015408D02*
X24140000Y43051122D01*
X24140000Y43051122D02*
X23961428Y43051122D01*
X23961428Y43051122D02*
X23890000Y43015408D01*
X23890000Y43015408D02*
X23854285Y42979693D01*
X23854285Y42979693D02*
X23818571Y42908265D01*
X23818571Y42908265D02*
X23818571Y42729693D01*
X23818571Y42729693D02*
X23854285Y42658265D01*
X23854285Y42658265D02*
X23890000Y42622550D01*
X23890000Y42622550D02*
X23961428Y42586836D01*
X23961428Y42586836D02*
X24140000Y42586836D01*
X24140000Y42586836D02*
X24211428Y42622550D01*
X24211428Y42622550D02*
X24247142Y42658265D01*
X13690143Y43856836D02*
X13940143Y44213979D01*
X14118714Y43856836D02*
X14118714Y44606836D01*
X14118714Y44606836D02*
X13833000Y44606836D01*
X13833000Y44606836D02*
X13761571Y44571122D01*
X13761571Y44571122D02*
X13725857Y44535408D01*
X13725857Y44535408D02*
X13690143Y44463979D01*
X13690143Y44463979D02*
X13690143Y44356836D01*
X13690143Y44356836D02*
X13725857Y44285408D01*
X13725857Y44285408D02*
X13761571Y44249693D01*
X13761571Y44249693D02*
X13833000Y44213979D01*
X13833000Y44213979D02*
X14118714Y44213979D01*
X13404428Y44535408D02*
X13368714Y44571122D01*
X13368714Y44571122D02*
X13297286Y44606836D01*
X13297286Y44606836D02*
X13118714Y44606836D01*
X13118714Y44606836D02*
X13047286Y44571122D01*
X13047286Y44571122D02*
X13011571Y44535408D01*
X13011571Y44535408D02*
X12975857Y44463979D01*
X12975857Y44463979D02*
X12975857Y44392550D01*
X12975857Y44392550D02*
X13011571Y44285408D01*
X13011571Y44285408D02*
X13440143Y43856836D01*
X13440143Y43856836D02*
X12975857Y43856836D01*
X12333000Y44606836D02*
X12475857Y44606836D01*
X12475857Y44606836D02*
X12547285Y44571122D01*
X12547285Y44571122D02*
X12583000Y44535408D01*
X12583000Y44535408D02*
X12654428Y44428265D01*
X12654428Y44428265D02*
X12690142Y44285408D01*
X12690142Y44285408D02*
X12690142Y43999693D01*
X12690142Y43999693D02*
X12654428Y43928265D01*
X12654428Y43928265D02*
X12618714Y43892550D01*
X12618714Y43892550D02*
X12547285Y43856836D01*
X12547285Y43856836D02*
X12404428Y43856836D01*
X12404428Y43856836D02*
X12333000Y43892550D01*
X12333000Y43892550D02*
X12297285Y43928265D01*
X12297285Y43928265D02*
X12261571Y43999693D01*
X12261571Y43999693D02*
X12261571Y44178265D01*
X12261571Y44178265D02*
X12297285Y44249693D01*
X12297285Y44249693D02*
X12333000Y44285408D01*
X12333000Y44285408D02*
X12404428Y44321122D01*
X12404428Y44321122D02*
X12547285Y44321122D01*
X12547285Y44321122D02*
X12618714Y44285408D01*
X12618714Y44285408D02*
X12654428Y44249693D01*
X12654428Y44249693D02*
X12690142Y44178265D01*
X50329643Y18748936D02*
X50579643Y19106079D01*
X50758214Y18748936D02*
X50758214Y19498936D01*
X50758214Y19498936D02*
X50472500Y19498936D01*
X50472500Y19498936D02*
X50401071Y19463222D01*
X50401071Y19463222D02*
X50365357Y19427508D01*
X50365357Y19427508D02*
X50329643Y19356079D01*
X50329643Y19356079D02*
X50329643Y19248936D01*
X50329643Y19248936D02*
X50365357Y19177508D01*
X50365357Y19177508D02*
X50401071Y19141793D01*
X50401071Y19141793D02*
X50472500Y19106079D01*
X50472500Y19106079D02*
X50758214Y19106079D01*
X50079643Y19498936D02*
X49615357Y19498936D01*
X49615357Y19498936D02*
X49865357Y19213222D01*
X49865357Y19213222D02*
X49758214Y19213222D01*
X49758214Y19213222D02*
X49686786Y19177508D01*
X49686786Y19177508D02*
X49651071Y19141793D01*
X49651071Y19141793D02*
X49615357Y19070365D01*
X49615357Y19070365D02*
X49615357Y18891793D01*
X49615357Y18891793D02*
X49651071Y18820365D01*
X49651071Y18820365D02*
X49686786Y18784650D01*
X49686786Y18784650D02*
X49758214Y18748936D01*
X49758214Y18748936D02*
X49972500Y18748936D01*
X49972500Y18748936D02*
X50043928Y18784650D01*
X50043928Y18784650D02*
X50079643Y18820365D01*
X49186785Y19177508D02*
X49258214Y19213222D01*
X49258214Y19213222D02*
X49293928Y19248936D01*
X49293928Y19248936D02*
X49329642Y19320365D01*
X49329642Y19320365D02*
X49329642Y19356079D01*
X49329642Y19356079D02*
X49293928Y19427508D01*
X49293928Y19427508D02*
X49258214Y19463222D01*
X49258214Y19463222D02*
X49186785Y19498936D01*
X49186785Y19498936D02*
X49043928Y19498936D01*
X49043928Y19498936D02*
X48972500Y19463222D01*
X48972500Y19463222D02*
X48936785Y19427508D01*
X48936785Y19427508D02*
X48901071Y19356079D01*
X48901071Y19356079D02*
X48901071Y19320365D01*
X48901071Y19320365D02*
X48936785Y19248936D01*
X48936785Y19248936D02*
X48972500Y19213222D01*
X48972500Y19213222D02*
X49043928Y19177508D01*
X49043928Y19177508D02*
X49186785Y19177508D01*
X49186785Y19177508D02*
X49258214Y19141793D01*
X49258214Y19141793D02*
X49293928Y19106079D01*
X49293928Y19106079D02*
X49329642Y19034650D01*
X49329642Y19034650D02*
X49329642Y18891793D01*
X49329642Y18891793D02*
X49293928Y18820365D01*
X49293928Y18820365D02*
X49258214Y18784650D01*
X49258214Y18784650D02*
X49186785Y18748936D01*
X49186785Y18748936D02*
X49043928Y18748936D01*
X49043928Y18748936D02*
X48972500Y18784650D01*
X48972500Y18784650D02*
X48936785Y18820365D01*
X48936785Y18820365D02*
X48901071Y18891793D01*
X48901071Y18891793D02*
X48901071Y19034650D01*
X48901071Y19034650D02*
X48936785Y19106079D01*
X48936785Y19106079D02*
X48972500Y19141793D01*
X48972500Y19141793D02*
X49043928Y19177508D01*
X9122212Y31871129D02*
X8765069Y32121129D01*
X9122212Y32299700D02*
X8372212Y32299700D01*
X8372212Y32299700D02*
X8372212Y32013986D01*
X8372212Y32013986D02*
X8407926Y31942557D01*
X8407926Y31942557D02*
X8443640Y31906843D01*
X8443640Y31906843D02*
X8515069Y31871129D01*
X8515069Y31871129D02*
X8622212Y31871129D01*
X8622212Y31871129D02*
X8693640Y31906843D01*
X8693640Y31906843D02*
X8729355Y31942557D01*
X8729355Y31942557D02*
X8765069Y32013986D01*
X8765069Y32013986D02*
X8765069Y32299700D01*
X8622212Y31228271D02*
X9122212Y31228271D01*
X8336498Y31406843D02*
X8872212Y31585414D01*
X8872212Y31585414D02*
X8872212Y31121129D01*
X8622212Y30513985D02*
X9122212Y30513985D01*
X8336498Y30692557D02*
X8872212Y30871128D01*
X8872212Y30871128D02*
X8872212Y30406843D01*
X2971343Y30191636D02*
X3221343Y30548779D01*
X3399914Y30191636D02*
X3399914Y30941636D01*
X3399914Y30941636D02*
X3114200Y30941636D01*
X3114200Y30941636D02*
X3042771Y30905922D01*
X3042771Y30905922D02*
X3007057Y30870208D01*
X3007057Y30870208D02*
X2971343Y30798779D01*
X2971343Y30798779D02*
X2971343Y30691636D01*
X2971343Y30691636D02*
X3007057Y30620208D01*
X3007057Y30620208D02*
X3042771Y30584493D01*
X3042771Y30584493D02*
X3114200Y30548779D01*
X3114200Y30548779D02*
X3399914Y30548779D01*
X2328486Y30691636D02*
X2328486Y30191636D01*
X2507057Y30977350D02*
X2685628Y30441636D01*
X2685628Y30441636D02*
X2221343Y30441636D01*
X1578485Y30941636D02*
X1935628Y30941636D01*
X1935628Y30941636D02*
X1971342Y30584493D01*
X1971342Y30584493D02*
X1935628Y30620208D01*
X1935628Y30620208D02*
X1864200Y30655922D01*
X1864200Y30655922D02*
X1685628Y30655922D01*
X1685628Y30655922D02*
X1614200Y30620208D01*
X1614200Y30620208D02*
X1578485Y30584493D01*
X1578485Y30584493D02*
X1542771Y30513065D01*
X1542771Y30513065D02*
X1542771Y30334493D01*
X1542771Y30334493D02*
X1578485Y30263065D01*
X1578485Y30263065D02*
X1614200Y30227350D01*
X1614200Y30227350D02*
X1685628Y30191636D01*
X1685628Y30191636D02*
X1864200Y30191636D01*
X1864200Y30191636D02*
X1935628Y30227350D01*
X1935628Y30227350D02*
X1971342Y30263065D01*
X45512364Y49974429D02*
X46119507Y49974429D01*
X46119507Y49974429D02*
X46190935Y49938715D01*
X46190935Y49938715D02*
X46226650Y49903000D01*
X46226650Y49903000D02*
X46262364Y49831572D01*
X46262364Y49831572D02*
X46262364Y49688715D01*
X46262364Y49688715D02*
X46226650Y49617286D01*
X46226650Y49617286D02*
X46190935Y49581572D01*
X46190935Y49581572D02*
X46119507Y49545858D01*
X46119507Y49545858D02*
X45512364Y49545858D01*
X45583792Y49224429D02*
X45548078Y49188715D01*
X45548078Y49188715D02*
X45512364Y49117286D01*
X45512364Y49117286D02*
X45512364Y48938715D01*
X45512364Y48938715D02*
X45548078Y48867286D01*
X45548078Y48867286D02*
X45583792Y48831572D01*
X45583792Y48831572D02*
X45655221Y48795858D01*
X45655221Y48795858D02*
X45726650Y48795858D01*
X45726650Y48795858D02*
X45833792Y48831572D01*
X45833792Y48831572D02*
X46262364Y49260144D01*
X46262364Y49260144D02*
X46262364Y48795858D01*
X35580964Y49568029D02*
X36188107Y49568029D01*
X36188107Y49568029D02*
X36259535Y49532315D01*
X36259535Y49532315D02*
X36295250Y49496600D01*
X36295250Y49496600D02*
X36330964Y49425172D01*
X36330964Y49425172D02*
X36330964Y49282315D01*
X36330964Y49282315D02*
X36295250Y49210886D01*
X36295250Y49210886D02*
X36259535Y49175172D01*
X36259535Y49175172D02*
X36188107Y49139458D01*
X36188107Y49139458D02*
X35580964Y49139458D01*
X35580964Y48853744D02*
X35580964Y48389458D01*
X35580964Y48389458D02*
X35866678Y48639458D01*
X35866678Y48639458D02*
X35866678Y48532315D01*
X35866678Y48532315D02*
X35902392Y48460886D01*
X35902392Y48460886D02*
X35938107Y48425172D01*
X35938107Y48425172D02*
X36009535Y48389458D01*
X36009535Y48389458D02*
X36188107Y48389458D01*
X36188107Y48389458D02*
X36259535Y48425172D01*
X36259535Y48425172D02*
X36295250Y48460886D01*
X36295250Y48460886D02*
X36330964Y48532315D01*
X36330964Y48532315D02*
X36330964Y48746601D01*
X36330964Y48746601D02*
X36295250Y48818029D01*
X36295250Y48818029D02*
X36259535Y48853744D01*
X25954364Y49517229D02*
X26561507Y49517229D01*
X26561507Y49517229D02*
X26632935Y49481515D01*
X26632935Y49481515D02*
X26668650Y49445800D01*
X26668650Y49445800D02*
X26704364Y49374372D01*
X26704364Y49374372D02*
X26704364Y49231515D01*
X26704364Y49231515D02*
X26668650Y49160086D01*
X26668650Y49160086D02*
X26632935Y49124372D01*
X26632935Y49124372D02*
X26561507Y49088658D01*
X26561507Y49088658D02*
X25954364Y49088658D01*
X26204364Y48410086D02*
X26704364Y48410086D01*
X25918650Y48588658D02*
X26454364Y48767229D01*
X26454364Y48767229D02*
X26454364Y48302944D01*
X16251564Y49529929D02*
X16858707Y49529929D01*
X16858707Y49529929D02*
X16930135Y49494215D01*
X16930135Y49494215D02*
X16965850Y49458500D01*
X16965850Y49458500D02*
X17001564Y49387072D01*
X17001564Y49387072D02*
X17001564Y49244215D01*
X17001564Y49244215D02*
X16965850Y49172786D01*
X16965850Y49172786D02*
X16930135Y49137072D01*
X16930135Y49137072D02*
X16858707Y49101358D01*
X16858707Y49101358D02*
X16251564Y49101358D01*
X16251564Y48387072D02*
X16251564Y48744215D01*
X16251564Y48744215D02*
X16608707Y48779929D01*
X16608707Y48779929D02*
X16572992Y48744215D01*
X16572992Y48744215D02*
X16537278Y48672786D01*
X16537278Y48672786D02*
X16537278Y48494215D01*
X16537278Y48494215D02*
X16572992Y48422786D01*
X16572992Y48422786D02*
X16608707Y48387072D01*
X16608707Y48387072D02*
X16680135Y48351358D01*
X16680135Y48351358D02*
X16858707Y48351358D01*
X16858707Y48351358D02*
X16930135Y48387072D01*
X16930135Y48387072D02*
X16965850Y48422786D01*
X16965850Y48422786D02*
X17001564Y48494215D01*
X17001564Y48494215D02*
X17001564Y48672786D01*
X17001564Y48672786D02*
X16965850Y48744215D01*
X16965850Y48744215D02*
X16930135Y48779929D01*
X30289428Y1376036D02*
X30289428Y768893D01*
X30289428Y768893D02*
X30253714Y697465D01*
X30253714Y697465D02*
X30218000Y661750D01*
X30218000Y661750D02*
X30146571Y626036D01*
X30146571Y626036D02*
X30003714Y626036D01*
X30003714Y626036D02*
X29932285Y661750D01*
X29932285Y661750D02*
X29896571Y697465D01*
X29896571Y697465D02*
X29860857Y768893D01*
X29860857Y768893D02*
X29860857Y1376036D01*
X29396571Y1054608D02*
X29468000Y1090322D01*
X29468000Y1090322D02*
X29503714Y1126036D01*
X29503714Y1126036D02*
X29539428Y1197465D01*
X29539428Y1197465D02*
X29539428Y1233179D01*
X29539428Y1233179D02*
X29503714Y1304608D01*
X29503714Y1304608D02*
X29468000Y1340322D01*
X29468000Y1340322D02*
X29396571Y1376036D01*
X29396571Y1376036D02*
X29253714Y1376036D01*
X29253714Y1376036D02*
X29182286Y1340322D01*
X29182286Y1340322D02*
X29146571Y1304608D01*
X29146571Y1304608D02*
X29110857Y1233179D01*
X29110857Y1233179D02*
X29110857Y1197465D01*
X29110857Y1197465D02*
X29146571Y1126036D01*
X29146571Y1126036D02*
X29182286Y1090322D01*
X29182286Y1090322D02*
X29253714Y1054608D01*
X29253714Y1054608D02*
X29396571Y1054608D01*
X29396571Y1054608D02*
X29468000Y1018893D01*
X29468000Y1018893D02*
X29503714Y983179D01*
X29503714Y983179D02*
X29539428Y911750D01*
X29539428Y911750D02*
X29539428Y768893D01*
X29539428Y768893D02*
X29503714Y697465D01*
X29503714Y697465D02*
X29468000Y661750D01*
X29468000Y661750D02*
X29396571Y626036D01*
X29396571Y626036D02*
X29253714Y626036D01*
X29253714Y626036D02*
X29182286Y661750D01*
X29182286Y661750D02*
X29146571Y697465D01*
X29146571Y697465D02*
X29110857Y768893D01*
X29110857Y768893D02*
X29110857Y911750D01*
X29110857Y911750D02*
X29146571Y983179D01*
X29146571Y983179D02*
X29182286Y1018893D01*
X29182286Y1018893D02*
X29253714Y1054608D01*
X44921371Y27931736D02*
X44921371Y27324593D01*
X44921371Y27324593D02*
X44885657Y27253165D01*
X44885657Y27253165D02*
X44849943Y27217450D01*
X44849943Y27217450D02*
X44778514Y27181736D01*
X44778514Y27181736D02*
X44635657Y27181736D01*
X44635657Y27181736D02*
X44564228Y27217450D01*
X44564228Y27217450D02*
X44528514Y27253165D01*
X44528514Y27253165D02*
X44492800Y27324593D01*
X44492800Y27324593D02*
X44492800Y27931736D01*
X43742800Y27181736D02*
X44171371Y27181736D01*
X43957086Y27181736D02*
X43957086Y27931736D01*
X43957086Y27931736D02*
X44028514Y27824593D01*
X44028514Y27824593D02*
X44099943Y27753165D01*
X44099943Y27753165D02*
X44171371Y27717450D01*
X43028514Y27181736D02*
X43457085Y27181736D01*
X43242800Y27181736D02*
X43242800Y27931736D01*
X43242800Y27931736D02*
X43314228Y27824593D01*
X43314228Y27824593D02*
X43385657Y27753165D01*
X43385657Y27753165D02*
X43457085Y27717450D01*
X6523364Y28284372D02*
X7130507Y28284372D01*
X7130507Y28284372D02*
X7201935Y28248658D01*
X7201935Y28248658D02*
X7237650Y28212943D01*
X7237650Y28212943D02*
X7273364Y28141515D01*
X7273364Y28141515D02*
X7273364Y27998658D01*
X7273364Y27998658D02*
X7237650Y27927229D01*
X7237650Y27927229D02*
X7201935Y27891515D01*
X7201935Y27891515D02*
X7130507Y27855801D01*
X7130507Y27855801D02*
X6523364Y27855801D01*
X7273364Y27105801D02*
X7273364Y27534372D01*
X7273364Y27320087D02*
X6523364Y27320087D01*
X6523364Y27320087D02*
X6630507Y27391515D01*
X6630507Y27391515D02*
X6701935Y27462944D01*
X6701935Y27462944D02*
X6737650Y27534372D01*
X6594792Y26820086D02*
X6559078Y26784372D01*
X6559078Y26784372D02*
X6523364Y26712943D01*
X6523364Y26712943D02*
X6523364Y26534372D01*
X6523364Y26534372D02*
X6559078Y26462943D01*
X6559078Y26462943D02*
X6594792Y26427229D01*
X6594792Y26427229D02*
X6666221Y26391515D01*
X6666221Y26391515D02*
X6737650Y26391515D01*
X6737650Y26391515D02*
X6844792Y26427229D01*
X6844792Y26427229D02*
X7273364Y26855801D01*
X7273364Y26855801D02*
X7273364Y26391515D01*
X41530471Y15701636D02*
X41530471Y15094493D01*
X41530471Y15094493D02*
X41494757Y15023065D01*
X41494757Y15023065D02*
X41459043Y14987350D01*
X41459043Y14987350D02*
X41387614Y14951636D01*
X41387614Y14951636D02*
X41244757Y14951636D01*
X41244757Y14951636D02*
X41173328Y14987350D01*
X41173328Y14987350D02*
X41137614Y15023065D01*
X41137614Y15023065D02*
X41101900Y15094493D01*
X41101900Y15094493D02*
X41101900Y15701636D01*
X40351900Y14951636D02*
X40780471Y14951636D01*
X40566186Y14951636D02*
X40566186Y15701636D01*
X40566186Y15701636D02*
X40637614Y15594493D01*
X40637614Y15594493D02*
X40709043Y15523065D01*
X40709043Y15523065D02*
X40780471Y15487350D01*
X39709043Y15701636D02*
X39851900Y15701636D01*
X39851900Y15701636D02*
X39923328Y15665922D01*
X39923328Y15665922D02*
X39959043Y15630208D01*
X39959043Y15630208D02*
X40030471Y15523065D01*
X40030471Y15523065D02*
X40066185Y15380208D01*
X40066185Y15380208D02*
X40066185Y15094493D01*
X40066185Y15094493D02*
X40030471Y15023065D01*
X40030471Y15023065D02*
X39994757Y14987350D01*
X39994757Y14987350D02*
X39923328Y14951636D01*
X39923328Y14951636D02*
X39780471Y14951636D01*
X39780471Y14951636D02*
X39709043Y14987350D01*
X39709043Y14987350D02*
X39673328Y15023065D01*
X39673328Y15023065D02*
X39637614Y15094493D01*
X39637614Y15094493D02*
X39637614Y15273065D01*
X39637614Y15273065D02*
X39673328Y15344493D01*
X39673328Y15344493D02*
X39709043Y15380208D01*
X39709043Y15380208D02*
X39780471Y15415922D01*
X39780471Y15415922D02*
X39923328Y15415922D01*
X39923328Y15415922D02*
X39994757Y15380208D01*
X39994757Y15380208D02*
X40030471Y15344493D01*
X40030471Y15344493D02*
X40066185Y15273065D01*
X59536250Y36420300D02*
X59571964Y36313157D01*
X59571964Y36313157D02*
X59571964Y36134586D01*
X59571964Y36134586D02*
X59536250Y36063157D01*
X59536250Y36063157D02*
X59500535Y36027443D01*
X59500535Y36027443D02*
X59429107Y35991729D01*
X59429107Y35991729D02*
X59357678Y35991729D01*
X59357678Y35991729D02*
X59286250Y36027443D01*
X59286250Y36027443D02*
X59250535Y36063157D01*
X59250535Y36063157D02*
X59214821Y36134586D01*
X59214821Y36134586D02*
X59179107Y36277443D01*
X59179107Y36277443D02*
X59143392Y36348872D01*
X59143392Y36348872D02*
X59107678Y36384586D01*
X59107678Y36384586D02*
X59036250Y36420300D01*
X59036250Y36420300D02*
X58964821Y36420300D01*
X58964821Y36420300D02*
X58893392Y36384586D01*
X58893392Y36384586D02*
X58857678Y36348872D01*
X58857678Y36348872D02*
X58821964Y36277443D01*
X58821964Y36277443D02*
X58821964Y36098872D01*
X58821964Y36098872D02*
X58857678Y35991729D01*
X58821964Y35741729D02*
X59571964Y35563157D01*
X59571964Y35563157D02*
X59036250Y35420300D01*
X59036250Y35420300D02*
X59571964Y35277443D01*
X59571964Y35277443D02*
X58821964Y35098871D01*
X58821964Y34456014D02*
X58821964Y34813157D01*
X58821964Y34813157D02*
X59179107Y34848871D01*
X59179107Y34848871D02*
X59143392Y34813157D01*
X59143392Y34813157D02*
X59107678Y34741728D01*
X59107678Y34741728D02*
X59107678Y34563157D01*
X59107678Y34563157D02*
X59143392Y34491728D01*
X59143392Y34491728D02*
X59179107Y34456014D01*
X59179107Y34456014D02*
X59250535Y34420300D01*
X59250535Y34420300D02*
X59429107Y34420300D01*
X59429107Y34420300D02*
X59500535Y34456014D01*
X59500535Y34456014D02*
X59536250Y34491728D01*
X59536250Y34491728D02*
X59571964Y34563157D01*
X59571964Y34563157D02*
X59571964Y34741728D01*
X59571964Y34741728D02*
X59536250Y34813157D01*
X59536250Y34813157D02*
X59500535Y34848871D01*
X17403013Y23645103D02*
X16973699Y23215788D01*
X16973699Y23215788D02*
X16897937Y23190534D01*
X16897937Y23190534D02*
X16847430Y23190534D01*
X16847430Y23190534D02*
X16771668Y23215788D01*
X16771668Y23215788D02*
X16670653Y23316803D01*
X16670653Y23316803D02*
X16645399Y23392565D01*
X16645399Y23392565D02*
X16645399Y23443072D01*
X16645399Y23443072D02*
X16670653Y23518834D01*
X16670653Y23518834D02*
X17099968Y23948149D01*
X16039308Y23948149D02*
X16342354Y23645103D01*
X16190831Y23796626D02*
X16721161Y24326956D01*
X16721161Y24326956D02*
X16695907Y24200687D01*
X16695907Y24200687D02*
X16695907Y24099671D01*
X16695907Y24099671D02*
X16721161Y24023910D01*
X16392861Y24655256D02*
X16064561Y24983555D01*
X16064561Y24983555D02*
X16039308Y24604748D01*
X16039308Y24604748D02*
X15963546Y24680509D01*
X15963546Y24680509D02*
X15887785Y24705763D01*
X15887785Y24705763D02*
X15837277Y24705763D01*
X15837277Y24705763D02*
X15761516Y24680509D01*
X15761516Y24680509D02*
X15635247Y24554240D01*
X15635247Y24554240D02*
X15609993Y24478479D01*
X15609993Y24478479D02*
X15609993Y24427971D01*
X15609993Y24427971D02*
X15635247Y24352210D01*
X15635247Y24352210D02*
X15786769Y24200687D01*
X15786769Y24200687D02*
X15862531Y24175433D01*
X15862531Y24175433D02*
X15913038Y24175433D01*
X37638887Y19998379D02*
X37281744Y20248379D01*
X37638887Y20426950D02*
X36888887Y20426950D01*
X36888887Y20426950D02*
X36888887Y20141236D01*
X36888887Y20141236D02*
X36924601Y20069807D01*
X36924601Y20069807D02*
X36960315Y20034093D01*
X36960315Y20034093D02*
X37031744Y19998379D01*
X37031744Y19998379D02*
X37138887Y19998379D01*
X37138887Y19998379D02*
X37210315Y20034093D01*
X37210315Y20034093D02*
X37246030Y20069807D01*
X37246030Y20069807D02*
X37281744Y20141236D01*
X37281744Y20141236D02*
X37281744Y20426950D01*
X37138887Y19355521D02*
X37638887Y19355521D01*
X36853173Y19534093D02*
X37388887Y19712664D01*
X37388887Y19712664D02*
X37388887Y19248379D01*
X36888887Y18641235D02*
X36888887Y18784093D01*
X36888887Y18784093D02*
X36924601Y18855521D01*
X36924601Y18855521D02*
X36960315Y18891235D01*
X36960315Y18891235D02*
X37067458Y18962664D01*
X37067458Y18962664D02*
X37210315Y18998378D01*
X37210315Y18998378D02*
X37496030Y18998378D01*
X37496030Y18998378D02*
X37567458Y18962664D01*
X37567458Y18962664D02*
X37603173Y18926950D01*
X37603173Y18926950D02*
X37638887Y18855521D01*
X37638887Y18855521D02*
X37638887Y18712664D01*
X37638887Y18712664D02*
X37603173Y18641235D01*
X37603173Y18641235D02*
X37567458Y18605521D01*
X37567458Y18605521D02*
X37496030Y18569807D01*
X37496030Y18569807D02*
X37317458Y18569807D01*
X37317458Y18569807D02*
X37246030Y18605521D01*
X37246030Y18605521D02*
X37210315Y18641235D01*
X37210315Y18641235D02*
X37174601Y18712664D01*
X37174601Y18712664D02*
X37174601Y18855521D01*
X37174601Y18855521D02*
X37210315Y18926950D01*
X37210315Y18926950D02*
X37246030Y18962664D01*
X37246030Y18962664D02*
X37317458Y18998378D01*
X58059171Y23765436D02*
X58059171Y24515436D01*
X58059171Y24515436D02*
X57880600Y24515436D01*
X57880600Y24515436D02*
X57773457Y24479722D01*
X57773457Y24479722D02*
X57702028Y24408293D01*
X57702028Y24408293D02*
X57666314Y24336865D01*
X57666314Y24336865D02*
X57630600Y24194008D01*
X57630600Y24194008D02*
X57630600Y24086865D01*
X57630600Y24086865D02*
X57666314Y23944008D01*
X57666314Y23944008D02*
X57702028Y23872579D01*
X57702028Y23872579D02*
X57773457Y23801150D01*
X57773457Y23801150D02*
X57880600Y23765436D01*
X57880600Y23765436D02*
X58059171Y23765436D01*
X56916314Y23765436D02*
X57344885Y23765436D01*
X57130600Y23765436D02*
X57130600Y24515436D01*
X57130600Y24515436D02*
X57202028Y24408293D01*
X57202028Y24408293D02*
X57273457Y24336865D01*
X57273457Y24336865D02*
X57344885Y24301150D01*
X24459408Y21199456D02*
X24459408Y21148948D01*
X24459408Y21148948D02*
X24509916Y21047933D01*
X24509916Y21047933D02*
X24560424Y20997426D01*
X24560424Y20997426D02*
X24661439Y20946918D01*
X24661439Y20946918D02*
X24762454Y20946918D01*
X24762454Y20946918D02*
X24838216Y20972172D01*
X24838216Y20972172D02*
X24964485Y21047933D01*
X24964485Y21047933D02*
X25040246Y21123695D01*
X25040246Y21123695D02*
X25116008Y21249964D01*
X25116008Y21249964D02*
X25141261Y21325725D01*
X25141261Y21325725D02*
X25141261Y21426740D01*
X25141261Y21426740D02*
X25090754Y21527756D01*
X25090754Y21527756D02*
X25040246Y21578263D01*
X25040246Y21578263D02*
X24939231Y21628771D01*
X24939231Y21628771D02*
X24888723Y21628771D01*
X24762454Y21856055D02*
X24434155Y22184355D01*
X24434155Y22184355D02*
X24408901Y21805548D01*
X24408901Y21805548D02*
X24333139Y21881309D01*
X24333139Y21881309D02*
X24257378Y21906563D01*
X24257378Y21906563D02*
X24206870Y21906563D01*
X24206870Y21906563D02*
X24131109Y21881309D01*
X24131109Y21881309D02*
X24004840Y21755040D01*
X24004840Y21755040D02*
X23979586Y21679279D01*
X23979586Y21679279D02*
X23979586Y21628771D01*
X23979586Y21628771D02*
X24004840Y21553009D01*
X24004840Y21553009D02*
X24156363Y21401487D01*
X24156363Y21401487D02*
X24232124Y21376233D01*
X24232124Y21376233D02*
X24282632Y21376233D01*
X23954332Y22664177D02*
X24206870Y22411639D01*
X24206870Y22411639D02*
X23979586Y22133847D01*
X23979586Y22133847D02*
X23979586Y22184355D01*
X23979586Y22184355D02*
X23954332Y22260116D01*
X23954332Y22260116D02*
X23828063Y22386386D01*
X23828063Y22386386D02*
X23752301Y22411639D01*
X23752301Y22411639D02*
X23701794Y22411639D01*
X23701794Y22411639D02*
X23626032Y22386386D01*
X23626032Y22386386D02*
X23499763Y22260116D01*
X23499763Y22260116D02*
X23474510Y22184355D01*
X23474510Y22184355D02*
X23474510Y22133847D01*
X23474510Y22133847D02*
X23499763Y22058086D01*
X23499763Y22058086D02*
X23626032Y21931817D01*
X23626032Y21931817D02*
X23701794Y21906563D01*
X23701794Y21906563D02*
X23752301Y21906563D01*
X34848343Y15124665D02*
X34884057Y15088950D01*
X34884057Y15088950D02*
X34991200Y15053236D01*
X34991200Y15053236D02*
X35062628Y15053236D01*
X35062628Y15053236D02*
X35169771Y15088950D01*
X35169771Y15088950D02*
X35241200Y15160379D01*
X35241200Y15160379D02*
X35276914Y15231808D01*
X35276914Y15231808D02*
X35312628Y15374665D01*
X35312628Y15374665D02*
X35312628Y15481808D01*
X35312628Y15481808D02*
X35276914Y15624665D01*
X35276914Y15624665D02*
X35241200Y15696093D01*
X35241200Y15696093D02*
X35169771Y15767522D01*
X35169771Y15767522D02*
X35062628Y15803236D01*
X35062628Y15803236D02*
X34991200Y15803236D01*
X34991200Y15803236D02*
X34884057Y15767522D01*
X34884057Y15767522D02*
X34848343Y15731808D01*
X34598343Y15803236D02*
X34134057Y15803236D01*
X34134057Y15803236D02*
X34384057Y15517522D01*
X34384057Y15517522D02*
X34276914Y15517522D01*
X34276914Y15517522D02*
X34205486Y15481808D01*
X34205486Y15481808D02*
X34169771Y15446093D01*
X34169771Y15446093D02*
X34134057Y15374665D01*
X34134057Y15374665D02*
X34134057Y15196093D01*
X34134057Y15196093D02*
X34169771Y15124665D01*
X34169771Y15124665D02*
X34205486Y15088950D01*
X34205486Y15088950D02*
X34276914Y15053236D01*
X34276914Y15053236D02*
X34491200Y15053236D01*
X34491200Y15053236D02*
X34562628Y15088950D01*
X34562628Y15088950D02*
X34598343Y15124665D01*
X33491200Y15803236D02*
X33634057Y15803236D01*
X33634057Y15803236D02*
X33705485Y15767522D01*
X33705485Y15767522D02*
X33741200Y15731808D01*
X33741200Y15731808D02*
X33812628Y15624665D01*
X33812628Y15624665D02*
X33848342Y15481808D01*
X33848342Y15481808D02*
X33848342Y15196093D01*
X33848342Y15196093D02*
X33812628Y15124665D01*
X33812628Y15124665D02*
X33776914Y15088950D01*
X33776914Y15088950D02*
X33705485Y15053236D01*
X33705485Y15053236D02*
X33562628Y15053236D01*
X33562628Y15053236D02*
X33491200Y15088950D01*
X33491200Y15088950D02*
X33455485Y15124665D01*
X33455485Y15124665D02*
X33419771Y15196093D01*
X33419771Y15196093D02*
X33419771Y15374665D01*
X33419771Y15374665D02*
X33455485Y15446093D01*
X33455485Y15446093D02*
X33491200Y15481808D01*
X33491200Y15481808D02*
X33562628Y15517522D01*
X33562628Y15517522D02*
X33705485Y15517522D01*
X33705485Y15517522D02*
X33776914Y15481808D01*
X33776914Y15481808D02*
X33812628Y15446093D01*
X33812628Y15446093D02*
X33848342Y15374665D01*
X31834464Y20384972D02*
X32441607Y20384972D01*
X32441607Y20384972D02*
X32513035Y20349258D01*
X32513035Y20349258D02*
X32548750Y20313543D01*
X32548750Y20313543D02*
X32584464Y20242115D01*
X32584464Y20242115D02*
X32584464Y20099258D01*
X32584464Y20099258D02*
X32548750Y20027829D01*
X32548750Y20027829D02*
X32513035Y19992115D01*
X32513035Y19992115D02*
X32441607Y19956401D01*
X32441607Y19956401D02*
X31834464Y19956401D01*
X31905892Y19634972D02*
X31870178Y19599258D01*
X31870178Y19599258D02*
X31834464Y19527829D01*
X31834464Y19527829D02*
X31834464Y19349258D01*
X31834464Y19349258D02*
X31870178Y19277829D01*
X31870178Y19277829D02*
X31905892Y19242115D01*
X31905892Y19242115D02*
X31977321Y19206401D01*
X31977321Y19206401D02*
X32048750Y19206401D01*
X32048750Y19206401D02*
X32155892Y19242115D01*
X32155892Y19242115D02*
X32584464Y19670687D01*
X32584464Y19670687D02*
X32584464Y19206401D01*
X31834464Y18956401D02*
X31834464Y18492115D01*
X31834464Y18492115D02*
X32120178Y18742115D01*
X32120178Y18742115D02*
X32120178Y18634972D01*
X32120178Y18634972D02*
X32155892Y18563543D01*
X32155892Y18563543D02*
X32191607Y18527829D01*
X32191607Y18527829D02*
X32263035Y18492115D01*
X32263035Y18492115D02*
X32441607Y18492115D01*
X32441607Y18492115D02*
X32513035Y18527829D01*
X32513035Y18527829D02*
X32548750Y18563543D01*
X32548750Y18563543D02*
X32584464Y18634972D01*
X32584464Y18634972D02*
X32584464Y18849258D01*
X32584464Y18849258D02*
X32548750Y18920686D01*
X32548750Y18920686D02*
X32513035Y18956401D01*
X44946771Y15638136D02*
X44946771Y15030993D01*
X44946771Y15030993D02*
X44911057Y14959565D01*
X44911057Y14959565D02*
X44875343Y14923850D01*
X44875343Y14923850D02*
X44803914Y14888136D01*
X44803914Y14888136D02*
X44661057Y14888136D01*
X44661057Y14888136D02*
X44589628Y14923850D01*
X44589628Y14923850D02*
X44553914Y14959565D01*
X44553914Y14959565D02*
X44518200Y15030993D01*
X44518200Y15030993D02*
X44518200Y15638136D01*
X43768200Y14888136D02*
X44196771Y14888136D01*
X43982486Y14888136D02*
X43982486Y15638136D01*
X43982486Y15638136D02*
X44053914Y15530993D01*
X44053914Y15530993D02*
X44125343Y15459565D01*
X44125343Y15459565D02*
X44196771Y15423850D01*
X43518200Y15638136D02*
X43018200Y15638136D01*
X43018200Y15638136D02*
X43339628Y14888136D01*
X2421264Y28843172D02*
X3028407Y28843172D01*
X3028407Y28843172D02*
X3099835Y28807458D01*
X3099835Y28807458D02*
X3135550Y28771743D01*
X3135550Y28771743D02*
X3171264Y28700315D01*
X3171264Y28700315D02*
X3171264Y28557458D01*
X3171264Y28557458D02*
X3135550Y28486029D01*
X3135550Y28486029D02*
X3099835Y28450315D01*
X3099835Y28450315D02*
X3028407Y28414601D01*
X3028407Y28414601D02*
X2421264Y28414601D01*
X3171264Y27664601D02*
X3171264Y28093172D01*
X3171264Y27878887D02*
X2421264Y27878887D01*
X2421264Y27878887D02*
X2528407Y27950315D01*
X2528407Y27950315D02*
X2599835Y28021744D01*
X2599835Y28021744D02*
X2635550Y28093172D01*
X2421264Y26986029D02*
X2421264Y27343172D01*
X2421264Y27343172D02*
X2778407Y27378886D01*
X2778407Y27378886D02*
X2742692Y27343172D01*
X2742692Y27343172D02*
X2706978Y27271743D01*
X2706978Y27271743D02*
X2706978Y27093172D01*
X2706978Y27093172D02*
X2742692Y27021743D01*
X2742692Y27021743D02*
X2778407Y26986029D01*
X2778407Y26986029D02*
X2849835Y26950315D01*
X2849835Y26950315D02*
X3028407Y26950315D01*
X3028407Y26950315D02*
X3099835Y26986029D01*
X3099835Y26986029D02*
X3135550Y27021743D01*
X3135550Y27021743D02*
X3171264Y27093172D01*
X3171264Y27093172D02*
X3171264Y27271743D01*
X3171264Y27271743D02*
X3135550Y27343172D01*
X3135550Y27343172D02*
X3099835Y27378886D01*
X33629143Y41261265D02*
X33664857Y41225550D01*
X33664857Y41225550D02*
X33772000Y41189836D01*
X33772000Y41189836D02*
X33843428Y41189836D01*
X33843428Y41189836D02*
X33950571Y41225550D01*
X33950571Y41225550D02*
X34022000Y41296979D01*
X34022000Y41296979D02*
X34057714Y41368408D01*
X34057714Y41368408D02*
X34093428Y41511265D01*
X34093428Y41511265D02*
X34093428Y41618408D01*
X34093428Y41618408D02*
X34057714Y41761265D01*
X34057714Y41761265D02*
X34022000Y41832693D01*
X34022000Y41832693D02*
X33950571Y41904122D01*
X33950571Y41904122D02*
X33843428Y41939836D01*
X33843428Y41939836D02*
X33772000Y41939836D01*
X33772000Y41939836D02*
X33664857Y41904122D01*
X33664857Y41904122D02*
X33629143Y41868408D01*
X33379143Y41939836D02*
X32914857Y41939836D01*
X32914857Y41939836D02*
X33164857Y41654122D01*
X33164857Y41654122D02*
X33057714Y41654122D01*
X33057714Y41654122D02*
X32986286Y41618408D01*
X32986286Y41618408D02*
X32950571Y41582693D01*
X32950571Y41582693D02*
X32914857Y41511265D01*
X32914857Y41511265D02*
X32914857Y41332693D01*
X32914857Y41332693D02*
X32950571Y41261265D01*
X32950571Y41261265D02*
X32986286Y41225550D01*
X32986286Y41225550D02*
X33057714Y41189836D01*
X33057714Y41189836D02*
X33272000Y41189836D01*
X33272000Y41189836D02*
X33343428Y41225550D01*
X33343428Y41225550D02*
X33379143Y41261265D01*
X32664857Y41939836D02*
X32164857Y41939836D01*
X32164857Y41939836D02*
X32486285Y41189836D01*
X43281143Y41261265D02*
X43316857Y41225550D01*
X43316857Y41225550D02*
X43424000Y41189836D01*
X43424000Y41189836D02*
X43495428Y41189836D01*
X43495428Y41189836D02*
X43602571Y41225550D01*
X43602571Y41225550D02*
X43674000Y41296979D01*
X43674000Y41296979D02*
X43709714Y41368408D01*
X43709714Y41368408D02*
X43745428Y41511265D01*
X43745428Y41511265D02*
X43745428Y41618408D01*
X43745428Y41618408D02*
X43709714Y41761265D01*
X43709714Y41761265D02*
X43674000Y41832693D01*
X43674000Y41832693D02*
X43602571Y41904122D01*
X43602571Y41904122D02*
X43495428Y41939836D01*
X43495428Y41939836D02*
X43424000Y41939836D01*
X43424000Y41939836D02*
X43316857Y41904122D01*
X43316857Y41904122D02*
X43281143Y41868408D01*
X43031143Y41939836D02*
X42566857Y41939836D01*
X42566857Y41939836D02*
X42816857Y41654122D01*
X42816857Y41654122D02*
X42709714Y41654122D01*
X42709714Y41654122D02*
X42638286Y41618408D01*
X42638286Y41618408D02*
X42602571Y41582693D01*
X42602571Y41582693D02*
X42566857Y41511265D01*
X42566857Y41511265D02*
X42566857Y41332693D01*
X42566857Y41332693D02*
X42602571Y41261265D01*
X42602571Y41261265D02*
X42638286Y41225550D01*
X42638286Y41225550D02*
X42709714Y41189836D01*
X42709714Y41189836D02*
X42924000Y41189836D01*
X42924000Y41189836D02*
X42995428Y41225550D01*
X42995428Y41225550D02*
X43031143Y41261265D01*
X42209714Y41189836D02*
X42066857Y41189836D01*
X42066857Y41189836D02*
X41995428Y41225550D01*
X41995428Y41225550D02*
X41959714Y41261265D01*
X41959714Y41261265D02*
X41888285Y41368408D01*
X41888285Y41368408D02*
X41852571Y41511265D01*
X41852571Y41511265D02*
X41852571Y41796979D01*
X41852571Y41796979D02*
X41888285Y41868408D01*
X41888285Y41868408D02*
X41924000Y41904122D01*
X41924000Y41904122D02*
X41995428Y41939836D01*
X41995428Y41939836D02*
X42138285Y41939836D01*
X42138285Y41939836D02*
X42209714Y41904122D01*
X42209714Y41904122D02*
X42245428Y41868408D01*
X42245428Y41868408D02*
X42281142Y41796979D01*
X42281142Y41796979D02*
X42281142Y41618408D01*
X42281142Y41618408D02*
X42245428Y41546979D01*
X42245428Y41546979D02*
X42209714Y41511265D01*
X42209714Y41511265D02*
X42138285Y41475550D01*
X42138285Y41475550D02*
X41995428Y41475550D01*
X41995428Y41475550D02*
X41924000Y41511265D01*
X41924000Y41511265D02*
X41888285Y41546979D01*
X41888285Y41546979D02*
X41852571Y41618408D01*
X23977143Y41134265D02*
X24012857Y41098550D01*
X24012857Y41098550D02*
X24120000Y41062836D01*
X24120000Y41062836D02*
X24191428Y41062836D01*
X24191428Y41062836D02*
X24298571Y41098550D01*
X24298571Y41098550D02*
X24370000Y41169979D01*
X24370000Y41169979D02*
X24405714Y41241408D01*
X24405714Y41241408D02*
X24441428Y41384265D01*
X24441428Y41384265D02*
X24441428Y41491408D01*
X24441428Y41491408D02*
X24405714Y41634265D01*
X24405714Y41634265D02*
X24370000Y41705693D01*
X24370000Y41705693D02*
X24298571Y41777122D01*
X24298571Y41777122D02*
X24191428Y41812836D01*
X24191428Y41812836D02*
X24120000Y41812836D01*
X24120000Y41812836D02*
X24012857Y41777122D01*
X24012857Y41777122D02*
X23977143Y41741408D01*
X23334286Y41562836D02*
X23334286Y41062836D01*
X23512857Y41848550D02*
X23691428Y41312836D01*
X23691428Y41312836D02*
X23227143Y41312836D01*
X22620000Y41562836D02*
X22620000Y41062836D01*
X22798571Y41848550D02*
X22977142Y41312836D01*
X22977142Y41312836D02*
X22512857Y41312836D01*
X51911506Y42850409D02*
X52161506Y43207552D01*
X52340077Y42850409D02*
X52340077Y43600409D01*
X52340077Y43600409D02*
X52054363Y43600409D01*
X52054363Y43600409D02*
X51982934Y43564695D01*
X51982934Y43564695D02*
X51947220Y43528981D01*
X51947220Y43528981D02*
X51911506Y43457552D01*
X51911506Y43457552D02*
X51911506Y43350409D01*
X51911506Y43350409D02*
X51947220Y43278981D01*
X51947220Y43278981D02*
X51982934Y43243266D01*
X51982934Y43243266D02*
X52054363Y43207552D01*
X52054363Y43207552D02*
X52340077Y43207552D01*
X51197220Y42850409D02*
X51625791Y42850409D01*
X51411506Y42850409D02*
X51411506Y43600409D01*
X51411506Y43600409D02*
X51482934Y43493266D01*
X51482934Y43493266D02*
X51554363Y43421838D01*
X51554363Y43421838D02*
X51625791Y43386123D01*
X35739164Y36044144D02*
X35382021Y36294144D01*
X35739164Y36472715D02*
X34989164Y36472715D01*
X34989164Y36472715D02*
X34989164Y36187001D01*
X34989164Y36187001D02*
X35024878Y36115572D01*
X35024878Y36115572D02*
X35060592Y36079858D01*
X35060592Y36079858D02*
X35132021Y36044144D01*
X35132021Y36044144D02*
X35239164Y36044144D01*
X35239164Y36044144D02*
X35310592Y36079858D01*
X35310592Y36079858D02*
X35346307Y36115572D01*
X35346307Y36115572D02*
X35382021Y36187001D01*
X35382021Y36187001D02*
X35382021Y36472715D01*
X35739164Y35329858D02*
X35739164Y35758429D01*
X35739164Y35544144D02*
X34989164Y35544144D01*
X34989164Y35544144D02*
X35096307Y35615572D01*
X35096307Y35615572D02*
X35167735Y35687001D01*
X35167735Y35687001D02*
X35203450Y35758429D01*
X34989164Y34865572D02*
X34989164Y34794143D01*
X34989164Y34794143D02*
X35024878Y34722715D01*
X35024878Y34722715D02*
X35060592Y34687000D01*
X35060592Y34687000D02*
X35132021Y34651286D01*
X35132021Y34651286D02*
X35274878Y34615572D01*
X35274878Y34615572D02*
X35453450Y34615572D01*
X35453450Y34615572D02*
X35596307Y34651286D01*
X35596307Y34651286D02*
X35667735Y34687000D01*
X35667735Y34687000D02*
X35703450Y34722715D01*
X35703450Y34722715D02*
X35739164Y34794143D01*
X35739164Y34794143D02*
X35739164Y34865572D01*
X35739164Y34865572D02*
X35703450Y34937000D01*
X35703450Y34937000D02*
X35667735Y34972715D01*
X35667735Y34972715D02*
X35596307Y35008429D01*
X35596307Y35008429D02*
X35453450Y35044143D01*
X35453450Y35044143D02*
X35274878Y35044143D01*
X35274878Y35044143D02*
X35132021Y35008429D01*
X35132021Y35008429D02*
X35060592Y34972715D01*
X35060592Y34972715D02*
X35024878Y34937000D01*
X35024878Y34937000D02*
X34989164Y34865572D01*
X49021543Y35982836D02*
X49271543Y36339979D01*
X49450114Y35982836D02*
X49450114Y36732836D01*
X49450114Y36732836D02*
X49164400Y36732836D01*
X49164400Y36732836D02*
X49092971Y36697122D01*
X49092971Y36697122D02*
X49057257Y36661408D01*
X49057257Y36661408D02*
X49021543Y36589979D01*
X49021543Y36589979D02*
X49021543Y36482836D01*
X49021543Y36482836D02*
X49057257Y36411408D01*
X49057257Y36411408D02*
X49092971Y36375693D01*
X49092971Y36375693D02*
X49164400Y36339979D01*
X49164400Y36339979D02*
X49450114Y36339979D01*
X48307257Y35982836D02*
X48735828Y35982836D01*
X48521543Y35982836D02*
X48521543Y36732836D01*
X48521543Y36732836D02*
X48592971Y36625693D01*
X48592971Y36625693D02*
X48664400Y36554265D01*
X48664400Y36554265D02*
X48735828Y36518550D01*
X48021542Y36661408D02*
X47985828Y36697122D01*
X47985828Y36697122D02*
X47914400Y36732836D01*
X47914400Y36732836D02*
X47735828Y36732836D01*
X47735828Y36732836D02*
X47664400Y36697122D01*
X47664400Y36697122D02*
X47628685Y36661408D01*
X47628685Y36661408D02*
X47592971Y36589979D01*
X47592971Y36589979D02*
X47592971Y36518550D01*
X47592971Y36518550D02*
X47628685Y36411408D01*
X47628685Y36411408D02*
X48057257Y35982836D01*
X48057257Y35982836D02*
X47592971Y35982836D01*
X29184143Y38129136D02*
X29434143Y38486279D01*
X29612714Y38129136D02*
X29612714Y38879136D01*
X29612714Y38879136D02*
X29327000Y38879136D01*
X29327000Y38879136D02*
X29255571Y38843422D01*
X29255571Y38843422D02*
X29219857Y38807708D01*
X29219857Y38807708D02*
X29184143Y38736279D01*
X29184143Y38736279D02*
X29184143Y38629136D01*
X29184143Y38629136D02*
X29219857Y38557708D01*
X29219857Y38557708D02*
X29255571Y38521993D01*
X29255571Y38521993D02*
X29327000Y38486279D01*
X29327000Y38486279D02*
X29612714Y38486279D01*
X28469857Y38129136D02*
X28898428Y38129136D01*
X28684143Y38129136D02*
X28684143Y38879136D01*
X28684143Y38879136D02*
X28755571Y38771993D01*
X28755571Y38771993D02*
X28827000Y38700565D01*
X28827000Y38700565D02*
X28898428Y38664850D01*
X28219857Y38879136D02*
X27755571Y38879136D01*
X27755571Y38879136D02*
X28005571Y38593422D01*
X28005571Y38593422D02*
X27898428Y38593422D01*
X27898428Y38593422D02*
X27827000Y38557708D01*
X27827000Y38557708D02*
X27791285Y38521993D01*
X27791285Y38521993D02*
X27755571Y38450565D01*
X27755571Y38450565D02*
X27755571Y38271993D01*
X27755571Y38271993D02*
X27791285Y38200565D01*
X27791285Y38200565D02*
X27827000Y38164850D01*
X27827000Y38164850D02*
X27898428Y38129136D01*
X27898428Y38129136D02*
X28112714Y38129136D01*
X28112714Y38129136D02*
X28184142Y38164850D01*
X28184142Y38164850D02*
X28219857Y38200565D01*
X46948164Y39090144D02*
X46591021Y39340144D01*
X46948164Y39518715D02*
X46198164Y39518715D01*
X46198164Y39518715D02*
X46198164Y39233001D01*
X46198164Y39233001D02*
X46233878Y39161572D01*
X46233878Y39161572D02*
X46269592Y39125858D01*
X46269592Y39125858D02*
X46341021Y39090144D01*
X46341021Y39090144D02*
X46448164Y39090144D01*
X46448164Y39090144D02*
X46519592Y39125858D01*
X46519592Y39125858D02*
X46555307Y39161572D01*
X46555307Y39161572D02*
X46591021Y39233001D01*
X46591021Y39233001D02*
X46591021Y39518715D01*
X46948164Y38375858D02*
X46948164Y38804429D01*
X46948164Y38590144D02*
X46198164Y38590144D01*
X46198164Y38590144D02*
X46305307Y38661572D01*
X46305307Y38661572D02*
X46376735Y38733001D01*
X46376735Y38733001D02*
X46412450Y38804429D01*
X46448164Y37733000D02*
X46948164Y37733000D01*
X46162450Y37911572D02*
X46698164Y38090143D01*
X46698164Y38090143D02*
X46698164Y37625858D01*
X26247164Y36359644D02*
X25890021Y36609644D01*
X26247164Y36788215D02*
X25497164Y36788215D01*
X25497164Y36788215D02*
X25497164Y36502501D01*
X25497164Y36502501D02*
X25532878Y36431072D01*
X25532878Y36431072D02*
X25568592Y36395358D01*
X25568592Y36395358D02*
X25640021Y36359644D01*
X25640021Y36359644D02*
X25747164Y36359644D01*
X25747164Y36359644D02*
X25818592Y36395358D01*
X25818592Y36395358D02*
X25854307Y36431072D01*
X25854307Y36431072D02*
X25890021Y36502501D01*
X25890021Y36502501D02*
X25890021Y36788215D01*
X25568592Y36073929D02*
X25532878Y36038215D01*
X25532878Y36038215D02*
X25497164Y35966786D01*
X25497164Y35966786D02*
X25497164Y35788215D01*
X25497164Y35788215D02*
X25532878Y35716786D01*
X25532878Y35716786D02*
X25568592Y35681072D01*
X25568592Y35681072D02*
X25640021Y35645358D01*
X25640021Y35645358D02*
X25711450Y35645358D01*
X25711450Y35645358D02*
X25818592Y35681072D01*
X25818592Y35681072D02*
X26247164Y36109644D01*
X26247164Y36109644D02*
X26247164Y35645358D01*
X26247164Y35288215D02*
X26247164Y35145358D01*
X26247164Y35145358D02*
X26211450Y35073929D01*
X26211450Y35073929D02*
X26175735Y35038215D01*
X26175735Y35038215D02*
X26068592Y34966786D01*
X26068592Y34966786D02*
X25925735Y34931072D01*
X25925735Y34931072D02*
X25640021Y34931072D01*
X25640021Y34931072D02*
X25568592Y34966786D01*
X25568592Y34966786D02*
X25532878Y35002500D01*
X25532878Y35002500D02*
X25497164Y35073929D01*
X25497164Y35073929D02*
X25497164Y35216786D01*
X25497164Y35216786D02*
X25532878Y35288215D01*
X25532878Y35288215D02*
X25568592Y35323929D01*
X25568592Y35323929D02*
X25640021Y35359643D01*
X25640021Y35359643D02*
X25818592Y35359643D01*
X25818592Y35359643D02*
X25890021Y35323929D01*
X25890021Y35323929D02*
X25925735Y35288215D01*
X25925735Y35288215D02*
X25961450Y35216786D01*
X25961450Y35216786D02*
X25961450Y35073929D01*
X25961450Y35073929D02*
X25925735Y35002500D01*
X25925735Y35002500D02*
X25890021Y34966786D01*
X25890021Y34966786D02*
X25818592Y34931072D01*
X38963143Y38141836D02*
X39213143Y38498979D01*
X39391714Y38141836D02*
X39391714Y38891836D01*
X39391714Y38891836D02*
X39106000Y38891836D01*
X39106000Y38891836D02*
X39034571Y38856122D01*
X39034571Y38856122D02*
X38998857Y38820408D01*
X38998857Y38820408D02*
X38963143Y38748979D01*
X38963143Y38748979D02*
X38963143Y38641836D01*
X38963143Y38641836D02*
X38998857Y38570408D01*
X38998857Y38570408D02*
X39034571Y38534693D01*
X39034571Y38534693D02*
X39106000Y38498979D01*
X39106000Y38498979D02*
X39391714Y38498979D01*
X38713143Y38891836D02*
X38248857Y38891836D01*
X38248857Y38891836D02*
X38498857Y38606122D01*
X38498857Y38606122D02*
X38391714Y38606122D01*
X38391714Y38606122D02*
X38320286Y38570408D01*
X38320286Y38570408D02*
X38284571Y38534693D01*
X38284571Y38534693D02*
X38248857Y38463265D01*
X38248857Y38463265D02*
X38248857Y38284693D01*
X38248857Y38284693D02*
X38284571Y38213265D01*
X38284571Y38213265D02*
X38320286Y38177550D01*
X38320286Y38177550D02*
X38391714Y38141836D01*
X38391714Y38141836D02*
X38606000Y38141836D01*
X38606000Y38141836D02*
X38677428Y38177550D01*
X38677428Y38177550D02*
X38713143Y38213265D01*
X37784571Y38891836D02*
X37713142Y38891836D01*
X37713142Y38891836D02*
X37641714Y38856122D01*
X37641714Y38856122D02*
X37606000Y38820408D01*
X37606000Y38820408D02*
X37570285Y38748979D01*
X37570285Y38748979D02*
X37534571Y38606122D01*
X37534571Y38606122D02*
X37534571Y38427550D01*
X37534571Y38427550D02*
X37570285Y38284693D01*
X37570285Y38284693D02*
X37606000Y38213265D01*
X37606000Y38213265D02*
X37641714Y38177550D01*
X37641714Y38177550D02*
X37713142Y38141836D01*
X37713142Y38141836D02*
X37784571Y38141836D01*
X37784571Y38141836D02*
X37856000Y38177550D01*
X37856000Y38177550D02*
X37891714Y38213265D01*
X37891714Y38213265D02*
X37927428Y38284693D01*
X37927428Y38284693D02*
X37963142Y38427550D01*
X37963142Y38427550D02*
X37963142Y38606122D01*
X37963142Y38606122D02*
X37927428Y38748979D01*
X37927428Y38748979D02*
X37891714Y38820408D01*
X37891714Y38820408D02*
X37856000Y38856122D01*
X37856000Y38856122D02*
X37784571Y38891836D01*
X20151164Y39471144D02*
X19794021Y39721144D01*
X20151164Y39899715D02*
X19401164Y39899715D01*
X19401164Y39899715D02*
X19401164Y39614001D01*
X19401164Y39614001D02*
X19436878Y39542572D01*
X19436878Y39542572D02*
X19472592Y39506858D01*
X19472592Y39506858D02*
X19544021Y39471144D01*
X19544021Y39471144D02*
X19651164Y39471144D01*
X19651164Y39471144D02*
X19722592Y39506858D01*
X19722592Y39506858D02*
X19758307Y39542572D01*
X19758307Y39542572D02*
X19794021Y39614001D01*
X19794021Y39614001D02*
X19794021Y39899715D01*
X19401164Y39221144D02*
X19401164Y38756858D01*
X19401164Y38756858D02*
X19686878Y39006858D01*
X19686878Y39006858D02*
X19686878Y38899715D01*
X19686878Y38899715D02*
X19722592Y38828286D01*
X19722592Y38828286D02*
X19758307Y38792572D01*
X19758307Y38792572D02*
X19829735Y38756858D01*
X19829735Y38756858D02*
X20008307Y38756858D01*
X20008307Y38756858D02*
X20079735Y38792572D01*
X20079735Y38792572D02*
X20115450Y38828286D01*
X20115450Y38828286D02*
X20151164Y38899715D01*
X20151164Y38899715D02*
X20151164Y39114001D01*
X20151164Y39114001D02*
X20115450Y39185429D01*
X20115450Y39185429D02*
X20079735Y39221144D01*
X20151164Y38042572D02*
X20151164Y38471143D01*
X20151164Y38256858D02*
X19401164Y38256858D01*
X19401164Y38256858D02*
X19508307Y38328286D01*
X19508307Y38328286D02*
X19579735Y38399715D01*
X19579735Y38399715D02*
X19615450Y38471143D01*
X52270002Y36889330D02*
X52270002Y36282187D01*
X52270002Y36282187D02*
X52234288Y36210759D01*
X52234288Y36210759D02*
X52198574Y36175044D01*
X52198574Y36175044D02*
X52127145Y36139330D01*
X52127145Y36139330D02*
X51984288Y36139330D01*
X51984288Y36139330D02*
X51912859Y36175044D01*
X51912859Y36175044D02*
X51877145Y36210759D01*
X51877145Y36210759D02*
X51841431Y36282187D01*
X51841431Y36282187D02*
X51841431Y36889330D01*
X51091431Y36139330D02*
X51520002Y36139330D01*
X51305717Y36139330D02*
X51305717Y36889330D01*
X51305717Y36889330D02*
X51377145Y36782187D01*
X51377145Y36782187D02*
X51448574Y36710759D01*
X51448574Y36710759D02*
X51520002Y36675044D01*
X31078371Y37596436D02*
X31078371Y36989293D01*
X31078371Y36989293D02*
X31042657Y36917865D01*
X31042657Y36917865D02*
X31006943Y36882150D01*
X31006943Y36882150D02*
X30935514Y36846436D01*
X30935514Y36846436D02*
X30792657Y36846436D01*
X30792657Y36846436D02*
X30721228Y36882150D01*
X30721228Y36882150D02*
X30685514Y36917865D01*
X30685514Y36917865D02*
X30649800Y36989293D01*
X30649800Y36989293D02*
X30649800Y37596436D01*
X30328371Y37525008D02*
X30292657Y37560722D01*
X30292657Y37560722D02*
X30221229Y37596436D01*
X30221229Y37596436D02*
X30042657Y37596436D01*
X30042657Y37596436D02*
X29971229Y37560722D01*
X29971229Y37560722D02*
X29935514Y37525008D01*
X29935514Y37525008D02*
X29899800Y37453579D01*
X29899800Y37453579D02*
X29899800Y37382150D01*
X29899800Y37382150D02*
X29935514Y37275008D01*
X29935514Y37275008D02*
X30364086Y36846436D01*
X30364086Y36846436D02*
X29899800Y36846436D01*
X29256943Y37346436D02*
X29256943Y36846436D01*
X29435514Y37632150D02*
X29614085Y37096436D01*
X29614085Y37096436D02*
X29149800Y37096436D01*
X49008843Y34941436D02*
X49258843Y35298579D01*
X49437414Y34941436D02*
X49437414Y35691436D01*
X49437414Y35691436D02*
X49151700Y35691436D01*
X49151700Y35691436D02*
X49080271Y35655722D01*
X49080271Y35655722D02*
X49044557Y35620008D01*
X49044557Y35620008D02*
X49008843Y35548579D01*
X49008843Y35548579D02*
X49008843Y35441436D01*
X49008843Y35441436D02*
X49044557Y35370008D01*
X49044557Y35370008D02*
X49080271Y35334293D01*
X49080271Y35334293D02*
X49151700Y35298579D01*
X49151700Y35298579D02*
X49437414Y35298579D01*
X48758843Y35691436D02*
X48294557Y35691436D01*
X48294557Y35691436D02*
X48544557Y35405722D01*
X48544557Y35405722D02*
X48437414Y35405722D01*
X48437414Y35405722D02*
X48365986Y35370008D01*
X48365986Y35370008D02*
X48330271Y35334293D01*
X48330271Y35334293D02*
X48294557Y35262865D01*
X48294557Y35262865D02*
X48294557Y35084293D01*
X48294557Y35084293D02*
X48330271Y35012865D01*
X48330271Y35012865D02*
X48365986Y34977150D01*
X48365986Y34977150D02*
X48437414Y34941436D01*
X48437414Y34941436D02*
X48651700Y34941436D01*
X48651700Y34941436D02*
X48723128Y34977150D01*
X48723128Y34977150D02*
X48758843Y35012865D01*
X47651700Y35441436D02*
X47651700Y34941436D01*
X47830271Y35727150D02*
X48008842Y35191436D01*
X48008842Y35191436D02*
X47544557Y35191436D01*
X31724143Y34204836D02*
X31974143Y34561979D01*
X32152714Y34204836D02*
X32152714Y34954836D01*
X32152714Y34954836D02*
X31867000Y34954836D01*
X31867000Y34954836D02*
X31795571Y34919122D01*
X31795571Y34919122D02*
X31759857Y34883408D01*
X31759857Y34883408D02*
X31724143Y34811979D01*
X31724143Y34811979D02*
X31724143Y34704836D01*
X31724143Y34704836D02*
X31759857Y34633408D01*
X31759857Y34633408D02*
X31795571Y34597693D01*
X31795571Y34597693D02*
X31867000Y34561979D01*
X31867000Y34561979D02*
X32152714Y34561979D01*
X31474143Y34954836D02*
X31009857Y34954836D01*
X31009857Y34954836D02*
X31259857Y34669122D01*
X31259857Y34669122D02*
X31152714Y34669122D01*
X31152714Y34669122D02*
X31081286Y34633408D01*
X31081286Y34633408D02*
X31045571Y34597693D01*
X31045571Y34597693D02*
X31009857Y34526265D01*
X31009857Y34526265D02*
X31009857Y34347693D01*
X31009857Y34347693D02*
X31045571Y34276265D01*
X31045571Y34276265D02*
X31081286Y34240550D01*
X31081286Y34240550D02*
X31152714Y34204836D01*
X31152714Y34204836D02*
X31367000Y34204836D01*
X31367000Y34204836D02*
X31438428Y34240550D01*
X31438428Y34240550D02*
X31474143Y34276265D01*
X30331285Y34954836D02*
X30688428Y34954836D01*
X30688428Y34954836D02*
X30724142Y34597693D01*
X30724142Y34597693D02*
X30688428Y34633408D01*
X30688428Y34633408D02*
X30617000Y34669122D01*
X30617000Y34669122D02*
X30438428Y34669122D01*
X30438428Y34669122D02*
X30367000Y34633408D01*
X30367000Y34633408D02*
X30331285Y34597693D01*
X30331285Y34597693D02*
X30295571Y34526265D01*
X30295571Y34526265D02*
X30295571Y34347693D01*
X30295571Y34347693D02*
X30331285Y34276265D01*
X30331285Y34276265D02*
X30367000Y34240550D01*
X30367000Y34240550D02*
X30438428Y34204836D01*
X30438428Y34204836D02*
X30617000Y34204836D01*
X30617000Y34204836D02*
X30688428Y34240550D01*
X30688428Y34240550D02*
X30724142Y34276265D01*
X40157143Y35090836D02*
X40407143Y35447979D01*
X40585714Y35090836D02*
X40585714Y35840836D01*
X40585714Y35840836D02*
X40300000Y35840836D01*
X40300000Y35840836D02*
X40228571Y35805122D01*
X40228571Y35805122D02*
X40192857Y35769408D01*
X40192857Y35769408D02*
X40157143Y35697979D01*
X40157143Y35697979D02*
X40157143Y35590836D01*
X40157143Y35590836D02*
X40192857Y35519408D01*
X40192857Y35519408D02*
X40228571Y35483693D01*
X40228571Y35483693D02*
X40300000Y35447979D01*
X40300000Y35447979D02*
X40585714Y35447979D01*
X39907143Y35840836D02*
X39442857Y35840836D01*
X39442857Y35840836D02*
X39692857Y35555122D01*
X39692857Y35555122D02*
X39585714Y35555122D01*
X39585714Y35555122D02*
X39514286Y35519408D01*
X39514286Y35519408D02*
X39478571Y35483693D01*
X39478571Y35483693D02*
X39442857Y35412265D01*
X39442857Y35412265D02*
X39442857Y35233693D01*
X39442857Y35233693D02*
X39478571Y35162265D01*
X39478571Y35162265D02*
X39514286Y35126550D01*
X39514286Y35126550D02*
X39585714Y35090836D01*
X39585714Y35090836D02*
X39800000Y35090836D01*
X39800000Y35090836D02*
X39871428Y35126550D01*
X39871428Y35126550D02*
X39907143Y35162265D01*
X38800000Y35840836D02*
X38942857Y35840836D01*
X38942857Y35840836D02*
X39014285Y35805122D01*
X39014285Y35805122D02*
X39050000Y35769408D01*
X39050000Y35769408D02*
X39121428Y35662265D01*
X39121428Y35662265D02*
X39157142Y35519408D01*
X39157142Y35519408D02*
X39157142Y35233693D01*
X39157142Y35233693D02*
X39121428Y35162265D01*
X39121428Y35162265D02*
X39085714Y35126550D01*
X39085714Y35126550D02*
X39014285Y35090836D01*
X39014285Y35090836D02*
X38871428Y35090836D01*
X38871428Y35090836D02*
X38800000Y35126550D01*
X38800000Y35126550D02*
X38764285Y35162265D01*
X38764285Y35162265D02*
X38728571Y35233693D01*
X38728571Y35233693D02*
X38728571Y35412265D01*
X38728571Y35412265D02*
X38764285Y35483693D01*
X38764285Y35483693D02*
X38800000Y35519408D01*
X38800000Y35519408D02*
X38871428Y35555122D01*
X38871428Y35555122D02*
X39014285Y35555122D01*
X39014285Y35555122D02*
X39085714Y35519408D01*
X39085714Y35519408D02*
X39121428Y35483693D01*
X39121428Y35483693D02*
X39157142Y35412265D01*
X24407143Y33938836D02*
X24657143Y34295979D01*
X24835714Y33938836D02*
X24835714Y34688836D01*
X24835714Y34688836D02*
X24550000Y34688836D01*
X24550000Y34688836D02*
X24478571Y34653122D01*
X24478571Y34653122D02*
X24442857Y34617408D01*
X24442857Y34617408D02*
X24407143Y34545979D01*
X24407143Y34545979D02*
X24407143Y34438836D01*
X24407143Y34438836D02*
X24442857Y34367408D01*
X24442857Y34367408D02*
X24478571Y34331693D01*
X24478571Y34331693D02*
X24550000Y34295979D01*
X24550000Y34295979D02*
X24835714Y34295979D01*
X23764286Y34438836D02*
X23764286Y33938836D01*
X23942857Y34724550D02*
X24121428Y34188836D01*
X24121428Y34188836D02*
X23657143Y34188836D01*
X23264285Y34367408D02*
X23335714Y34403122D01*
X23335714Y34403122D02*
X23371428Y34438836D01*
X23371428Y34438836D02*
X23407142Y34510265D01*
X23407142Y34510265D02*
X23407142Y34545979D01*
X23407142Y34545979D02*
X23371428Y34617408D01*
X23371428Y34617408D02*
X23335714Y34653122D01*
X23335714Y34653122D02*
X23264285Y34688836D01*
X23264285Y34688836D02*
X23121428Y34688836D01*
X23121428Y34688836D02*
X23050000Y34653122D01*
X23050000Y34653122D02*
X23014285Y34617408D01*
X23014285Y34617408D02*
X22978571Y34545979D01*
X22978571Y34545979D02*
X22978571Y34510265D01*
X22978571Y34510265D02*
X23014285Y34438836D01*
X23014285Y34438836D02*
X23050000Y34403122D01*
X23050000Y34403122D02*
X23121428Y34367408D01*
X23121428Y34367408D02*
X23264285Y34367408D01*
X23264285Y34367408D02*
X23335714Y34331693D01*
X23335714Y34331693D02*
X23371428Y34295979D01*
X23371428Y34295979D02*
X23407142Y34224550D01*
X23407142Y34224550D02*
X23407142Y34081693D01*
X23407142Y34081693D02*
X23371428Y34010265D01*
X23371428Y34010265D02*
X23335714Y33974550D01*
X23335714Y33974550D02*
X23264285Y33938836D01*
X23264285Y33938836D02*
X23121428Y33938836D01*
X23121428Y33938836D02*
X23050000Y33974550D01*
X23050000Y33974550D02*
X23014285Y34010265D01*
X23014285Y34010265D02*
X22978571Y34081693D01*
X22978571Y34081693D02*
X22978571Y34224550D01*
X22978571Y34224550D02*
X23014285Y34295979D01*
X23014285Y34295979D02*
X23050000Y34331693D01*
X23050000Y34331693D02*
X23121428Y34367408D01*
X43854571Y36478836D02*
X43854571Y35871693D01*
X43854571Y35871693D02*
X43818857Y35800265D01*
X43818857Y35800265D02*
X43783143Y35764550D01*
X43783143Y35764550D02*
X43711714Y35728836D01*
X43711714Y35728836D02*
X43568857Y35728836D01*
X43568857Y35728836D02*
X43497428Y35764550D01*
X43497428Y35764550D02*
X43461714Y35800265D01*
X43461714Y35800265D02*
X43426000Y35871693D01*
X43426000Y35871693D02*
X43426000Y36478836D01*
X43104571Y36407408D02*
X43068857Y36443122D01*
X43068857Y36443122D02*
X42997429Y36478836D01*
X42997429Y36478836D02*
X42818857Y36478836D01*
X42818857Y36478836D02*
X42747429Y36443122D01*
X42747429Y36443122D02*
X42711714Y36407408D01*
X42711714Y36407408D02*
X42676000Y36335979D01*
X42676000Y36335979D02*
X42676000Y36264550D01*
X42676000Y36264550D02*
X42711714Y36157408D01*
X42711714Y36157408D02*
X43140286Y35728836D01*
X43140286Y35728836D02*
X42676000Y35728836D01*
X42033143Y36478836D02*
X42176000Y36478836D01*
X42176000Y36478836D02*
X42247428Y36443122D01*
X42247428Y36443122D02*
X42283143Y36407408D01*
X42283143Y36407408D02*
X42354571Y36300265D01*
X42354571Y36300265D02*
X42390285Y36157408D01*
X42390285Y36157408D02*
X42390285Y35871693D01*
X42390285Y35871693D02*
X42354571Y35800265D01*
X42354571Y35800265D02*
X42318857Y35764550D01*
X42318857Y35764550D02*
X42247428Y35728836D01*
X42247428Y35728836D02*
X42104571Y35728836D01*
X42104571Y35728836D02*
X42033143Y35764550D01*
X42033143Y35764550D02*
X41997428Y35800265D01*
X41997428Y35800265D02*
X41961714Y35871693D01*
X41961714Y35871693D02*
X41961714Y36050265D01*
X41961714Y36050265D02*
X41997428Y36121693D01*
X41997428Y36121693D02*
X42033143Y36157408D01*
X42033143Y36157408D02*
X42104571Y36193122D01*
X42104571Y36193122D02*
X42247428Y36193122D01*
X42247428Y36193122D02*
X42318857Y36157408D01*
X42318857Y36157408D02*
X42354571Y36121693D01*
X42354571Y36121693D02*
X42390285Y36050265D01*
X21629571Y37367836D02*
X21629571Y36760693D01*
X21629571Y36760693D02*
X21593857Y36689265D01*
X21593857Y36689265D02*
X21558143Y36653550D01*
X21558143Y36653550D02*
X21486714Y36617836D01*
X21486714Y36617836D02*
X21343857Y36617836D01*
X21343857Y36617836D02*
X21272428Y36653550D01*
X21272428Y36653550D02*
X21236714Y36689265D01*
X21236714Y36689265D02*
X21201000Y36760693D01*
X21201000Y36760693D02*
X21201000Y37367836D01*
X20879571Y37296408D02*
X20843857Y37332122D01*
X20843857Y37332122D02*
X20772429Y37367836D01*
X20772429Y37367836D02*
X20593857Y37367836D01*
X20593857Y37367836D02*
X20522429Y37332122D01*
X20522429Y37332122D02*
X20486714Y37296408D01*
X20486714Y37296408D02*
X20451000Y37224979D01*
X20451000Y37224979D02*
X20451000Y37153550D01*
X20451000Y37153550D02*
X20486714Y37046408D01*
X20486714Y37046408D02*
X20915286Y36617836D01*
X20915286Y36617836D02*
X20451000Y36617836D01*
X20201000Y37367836D02*
X19701000Y37367836D01*
X19701000Y37367836D02*
X20022428Y36617836D01*
X55978707Y27989572D02*
X56014421Y27882429D01*
X56014421Y27882429D02*
X56050135Y27846715D01*
X56050135Y27846715D02*
X56121564Y27811001D01*
X56121564Y27811001D02*
X56228707Y27811001D01*
X56228707Y27811001D02*
X56300135Y27846715D01*
X56300135Y27846715D02*
X56335850Y27882429D01*
X56335850Y27882429D02*
X56371564Y27953858D01*
X56371564Y27953858D02*
X56371564Y28239572D01*
X56371564Y28239572D02*
X55621564Y28239572D01*
X55621564Y28239572D02*
X55621564Y27989572D01*
X55621564Y27989572D02*
X55657278Y27918143D01*
X55657278Y27918143D02*
X55692992Y27882429D01*
X55692992Y27882429D02*
X55764421Y27846715D01*
X55764421Y27846715D02*
X55835850Y27846715D01*
X55835850Y27846715D02*
X55907278Y27882429D01*
X55907278Y27882429D02*
X55942992Y27918143D01*
X55942992Y27918143D02*
X55978707Y27989572D01*
X55978707Y27989572D02*
X55978707Y28239572D01*
X56371564Y27096715D02*
X56371564Y27525286D01*
X56371564Y27311001D02*
X55621564Y27311001D01*
X55621564Y27311001D02*
X55728707Y27382429D01*
X55728707Y27382429D02*
X55800135Y27453858D01*
X55800135Y27453858D02*
X55835850Y27525286D01*
%TO.C,C9*%
X51466000Y39786000D02*
X52166000Y39786000D01*
X52166000Y40986000D02*
X51466000Y40986000D01*
%TO.C,C1*%
X50454000Y48546500D02*
X50454000Y47846500D01*
X51654000Y47846500D02*
X51654000Y48546500D01*
%TO.C,C2*%
X51654000Y44925500D02*
X51654000Y45625500D01*
X50454000Y45625500D02*
X50454000Y44925500D01*
%TO.C,C3*%
X40497200Y48483000D02*
X40497200Y47783000D01*
X41697200Y47783000D02*
X41697200Y48483000D01*
%TO.C,C4*%
X41722600Y44862000D02*
X41722600Y45562000D01*
X40522600Y45562000D02*
X40522600Y44862000D01*
%TO.C,C5*%
X30870600Y48508400D02*
X30870600Y47808400D01*
X32070600Y47808400D02*
X32070600Y48508400D01*
%TO.C,C6*%
X32121400Y44862000D02*
X32121400Y45562000D01*
X30921400Y45562000D02*
X30921400Y44862000D01*
%TO.C,C7*%
X21167800Y48508400D02*
X21167800Y47808400D01*
X22367800Y47808400D02*
X22367800Y48508400D01*
%TO.C,C8*%
X22342400Y44874700D02*
X22342400Y45574700D01*
X21142400Y45574700D02*
X21142400Y44874700D01*
%TO.C,C10*%
X45562000Y46574000D02*
X44862000Y46574000D01*
X44862000Y45374000D02*
X45562000Y45374000D01*
%TO.C,C11*%
X34829000Y45374000D02*
X35529000Y45374000D01*
X35529000Y46574000D02*
X34829000Y46574000D01*
%TO.C,C12*%
X25177000Y45247000D02*
X25877000Y45247000D01*
X25877000Y46447000D02*
X25177000Y46447000D01*
%TO.C,C13*%
X15423400Y45323200D02*
X16123400Y45323200D01*
X16123400Y46523200D02*
X15423400Y46523200D01*
%TO.C,C16*%
X33397900Y27007300D02*
X33397900Y26307300D01*
X34597900Y26307300D02*
X34597900Y27007300D01*
%TO.C,C17*%
X34947300Y27007300D02*
X34947300Y26307300D01*
X36147300Y26307300D02*
X36147300Y27007300D01*
%TO.C,C18*%
X27721000Y3499600D02*
X27721000Y2799600D01*
X28921000Y2799600D02*
X28921000Y3499600D01*
%TO.C,C19*%
X39633600Y12669000D02*
X39633600Y11969000D01*
X40833600Y11969000D02*
X40833600Y12669000D01*
%TO.C,C20*%
X29219600Y3499600D02*
X29219600Y2799600D01*
X30419600Y2799600D02*
X30419600Y3499600D01*
%TO.C,C23*%
X23500600Y2905200D02*
X24200600Y2905200D01*
X24200600Y4105200D02*
X23500600Y4105200D01*
%TO.C,C30*%
X48555200Y24821400D02*
X48555200Y25521400D01*
X47355200Y25521400D02*
X47355200Y24821400D01*
%TO.C,C31*%
X47018500Y24846800D02*
X47018500Y25546800D01*
X45818500Y25546800D02*
X45818500Y24846800D01*
%TO.C,C32*%
X38827000Y26269200D02*
X38827000Y26969200D01*
X37627000Y26969200D02*
X37627000Y26269200D01*
%TO.C,C33*%
X40325600Y26269200D02*
X40325600Y26969200D01*
X39125600Y26969200D02*
X39125600Y26269200D01*
%TO.C,C34*%
X41811500Y26269200D02*
X41811500Y26969200D01*
X40611500Y26969200D02*
X40611500Y26269200D01*
%TO.C,C40*%
X5252200Y32807200D02*
X4552200Y32807200D01*
X4552200Y31607200D02*
X5252200Y31607200D01*
%TO.C,C41*%
X45028600Y19891300D02*
X44328600Y19891300D01*
X44328600Y18691300D02*
X45028600Y18691300D01*
%TO.C,C42*%
X45028600Y21389900D02*
X44328600Y21389900D01*
X44328600Y20189900D02*
X45028600Y20189900D01*
%TO.C,R2*%
X37348800Y58640600D02*
X37348800Y57640600D01*
X38698800Y57640600D02*
X38698800Y58640600D01*
%TO.C,R3*%
X35723200Y58640600D02*
X35723200Y57640600D01*
X37073200Y57640600D02*
X37073200Y58640600D01*
%TO.C,R4*%
X32548200Y58640600D02*
X32548200Y57640600D01*
X33898200Y57640600D02*
X33898200Y58640600D01*
%TO.C,R5*%
X34097600Y58640600D02*
X34097600Y57640600D01*
X35447600Y57640600D02*
X35447600Y58640600D01*
%TO.C,R6*%
X29424000Y58640600D02*
X29424000Y57640600D01*
X30774000Y57640600D02*
X30774000Y58640600D01*
%TO.C,R7*%
X30998800Y58640600D02*
X30998800Y57640600D01*
X32348800Y57640600D02*
X32348800Y58640600D01*
%TO.C,R8*%
X26299800Y58640600D02*
X26299800Y57640600D01*
X27649800Y57640600D02*
X27649800Y58640600D01*
%TO.C,R9*%
X27849200Y58640600D02*
X27849200Y57640600D01*
X29199200Y57640600D02*
X29199200Y58640600D01*
%TO.C,R11*%
X26100400Y57640600D02*
X26100400Y58640600D01*
X24750400Y58640600D02*
X24750400Y57640600D01*
%TO.C,R15*%
X46363000Y41997000D02*
X47363000Y41997000D01*
X47363000Y43347000D02*
X46363000Y43347000D01*
%TO.C,R16*%
X48887000Y41696000D02*
X47887000Y41696000D01*
X47887000Y40346000D02*
X48887000Y40346000D01*
%TO.C,R17*%
X36076000Y41997000D02*
X37076000Y41997000D01*
X37076000Y43347000D02*
X36076000Y43347000D01*
%TO.C,R18*%
X38600000Y41696000D02*
X37600000Y41696000D01*
X37600000Y40346000D02*
X38600000Y40346000D01*
%TO.C,R19*%
X26678000Y41997000D02*
X27678000Y41997000D01*
X27678000Y43347000D02*
X26678000Y43347000D01*
%TO.C,R20*%
X28075000Y40346000D02*
X29075000Y40346000D01*
X29075000Y41696000D02*
X28075000Y41696000D01*
%TO.C,R21*%
X16899000Y41870000D02*
X17899000Y41870000D01*
X17899000Y43220000D02*
X16899000Y43220000D01*
%TO.C,R22*%
X18819500Y41711500D02*
X18819500Y40711500D01*
X20169500Y40711500D02*
X20169500Y41711500D01*
%TO.C,R23*%
X45793132Y45228113D02*
X44793132Y45228113D01*
X44793132Y43878113D02*
X45793132Y43878113D01*
%TO.C,R24*%
X35742500Y45061500D02*
X34742500Y45061500D01*
X34742500Y43711500D02*
X35742500Y43711500D01*
%TO.C,R25*%
X26230200Y44998000D02*
X25230200Y44998000D01*
X25230200Y43648000D02*
X26230200Y43648000D01*
%TO.C,R26*%
X16463900Y44947200D02*
X15463900Y44947200D01*
X15463900Y43597200D02*
X16463900Y43597200D01*
%TO.C,R38*%
X49334800Y19848200D02*
X50334800Y19848200D01*
X50334800Y21198200D02*
X49334800Y21198200D01*
%TO.C,R44*%
X7837800Y30907100D02*
X7837800Y31907100D01*
X6487800Y31907100D02*
X6487800Y30907100D01*
%TO.C,R45*%
X4364100Y29957400D02*
X5364100Y29957400D01*
X5364100Y31307400D02*
X4364100Y31307400D01*
%TO.C,U2*%
X46793132Y48387115D02*
X47043132Y48387115D01*
X46793132Y45037115D02*
X47043132Y45037115D01*
X50143132Y45037115D02*
X49893132Y45037115D01*
X50143132Y48387115D02*
X49893132Y48387115D01*
X46793132Y48387115D02*
X46793132Y45037115D01*
X50143132Y48387115D02*
X50143132Y45037115D01*
X47043132Y48387115D02*
X47043132Y49637115D01*
%TO.C,U3*%
X36806000Y48411000D02*
X37056000Y48411000D01*
X36806000Y45061000D02*
X37056000Y45061000D01*
X40156000Y45061000D02*
X39906000Y45061000D01*
X40156000Y48411000D02*
X39906000Y48411000D01*
X36806000Y48411000D02*
X36806000Y45061000D01*
X40156000Y48411000D02*
X40156000Y45061000D01*
X37056000Y48411000D02*
X37056000Y49661000D01*
%TO.C,U4*%
X27179400Y48411000D02*
X27429400Y48411000D01*
X27179400Y45061000D02*
X27429400Y45061000D01*
X30529400Y45061000D02*
X30279400Y45061000D01*
X30529400Y48411000D02*
X30279400Y48411000D01*
X27179400Y48411000D02*
X27179400Y45061000D01*
X30529400Y48411000D02*
X30529400Y45061000D01*
X27429400Y48411000D02*
X27429400Y49661000D01*
%TO.C,U5*%
X17463900Y48360200D02*
X17713900Y48360200D01*
X17463900Y45010200D02*
X17713900Y45010200D01*
X20813900Y45010200D02*
X20563900Y45010200D01*
X20813900Y48360200D02*
X20563900Y48360200D01*
X17463900Y48360200D02*
X17463900Y45010200D01*
X20813900Y48360200D02*
X20813900Y45010200D01*
X17713900Y48360200D02*
X17713900Y49610200D01*
%TO.C,U8*%
X30798000Y10969000D02*
X30798000Y11469000D01*
X30798000Y11469000D02*
X38798000Y11469000D01*
X38798000Y11469000D02*
X38798000Y469000D01*
X30798000Y10969000D02*
X30798000Y469000D01*
X30798000Y469000D02*
X38798000Y469000D01*
%TO.C,U11*%
X44202300Y26744400D02*
G75*
G02*
X44002300Y26744400I-100000J0D01*
G01*
X44002300Y26744400D02*
G75*
G02*
X44202300Y26744400I100000J0D01*
G01*
X43552300Y26494400D02*
X44052300Y26494400D01*
X43552300Y23594400D02*
X43552300Y26494400D01*
X44052300Y23594400D02*
X43552300Y23594400D01*
X44052300Y26494400D02*
X44052300Y23594400D01*
%TO.C,U12*%
X7508240Y28364180D02*
X7508240Y28973780D01*
X7508240Y28973780D02*
X7940040Y28983940D01*
%TO.C,U16*%
X40225700Y16095800D02*
X40225700Y16395800D01*
X40225700Y16395800D02*
X39925700Y16395800D01*
X41125700Y18295800D02*
X41125700Y16095800D01*
X41125700Y16095800D02*
X39925700Y16095800D01*
X39925700Y16095800D02*
X39925700Y18295800D01*
X39925700Y18295800D02*
X41125700Y18295800D01*
%TO.C,SW5*%
X60604000Y30413600D02*
X62204000Y30413600D01*
X62204000Y30413600D02*
X62204000Y29013600D01*
X62204000Y29013600D02*
X60604000Y29013600D01*
X60604000Y31813600D02*
X60604000Y33613600D01*
X60604000Y33613600D02*
X57804000Y33613600D01*
X57804000Y33613600D02*
X57804000Y27013600D01*
X57804000Y27013600D02*
X60604000Y27013600D01*
X60604000Y27013600D02*
X60604000Y31813600D01*
%TO.C,U13*%
X12815371Y16096905D02*
X12815371Y16591880D01*
X13451767Y15460509D02*
X13769965Y17546474D01*
X14123518Y14859468D02*
X14406361Y17334342D01*
X14830625Y14081650D02*
X15113468Y16627235D01*
X15537732Y13374544D02*
X15820575Y15920128D01*
X16209483Y12702792D02*
X16350905Y15319087D01*
X16845880Y12066396D02*
X16951946Y14718047D01*
X17482276Y11430000D02*
X17588342Y14152361D01*
X18154027Y10758249D02*
X18189382Y13480610D01*
X18755068Y10157208D02*
X18755068Y12914924D01*
X19320753Y10440051D02*
X19320753Y12419949D01*
X19886439Y11005736D02*
X19851083Y11889619D01*
X20310703Y11430000D02*
X13946742Y17793961D01*
X13946742Y17793961D02*
X12532528Y16379747D01*
X12532528Y16379747D02*
X18896489Y10015786D01*
X18896489Y10015786D02*
X20310703Y11430000D01*
X25012963Y13657386D02*
X14595866Y3240289D01*
X14416261Y24254089D02*
X4178769Y14016597D01*
X25073774Y13607889D02*
X14467172Y24214491D01*
X4034519Y13781837D02*
X14641121Y3175235D01*
%TO.C,R46*%
X35153922Y20006835D02*
X35153922Y19006835D01*
X36503922Y19006835D02*
X36503922Y20006835D01*
%TO.C,D1*%
X57855600Y26152400D02*
X57155600Y26152400D01*
X57155600Y24952400D02*
X57855600Y24952400D01*
%TO.C,C35*%
X23094276Y21943089D02*
X24508489Y20528876D01*
X22422524Y18442911D02*
X21008311Y19857124D01*
%TO.C,C36*%
X34018418Y16125536D02*
X34718418Y16125536D01*
X34718418Y17325536D02*
X34018418Y17325536D01*
D12*
%TO.C,U23*%
X32848420Y19365737D02*
X33098420Y19365737D01*
X33098420Y19365737D02*
X33098420Y19615737D01*
X33098420Y19615737D02*
X32848420Y19615737D01*
X32848420Y18615737D02*
X34848420Y18615737D01*
X34848420Y18615737D02*
X34848420Y20365737D01*
X34848420Y20365737D02*
X32848420Y20365737D01*
X32848420Y20365737D02*
X32848420Y18615737D01*
D11*
%TO.C,U15*%
X3726000Y28316200D02*
X4026000Y28316200D01*
X4026000Y28316200D02*
X4026000Y28616200D01*
X5926000Y27416200D02*
X3726000Y27416200D01*
X3726000Y27416200D02*
X3726000Y28616200D01*
X3726000Y28616200D02*
X5926000Y28616200D01*
X5926000Y28616200D02*
X5926000Y27416200D01*
%TO.C,C37*%
X32797000Y39659000D02*
X33497000Y39659000D01*
X33497000Y40859000D02*
X32797000Y40859000D01*
%TO.C,C39*%
X42530552Y39682658D02*
X43230552Y39682658D01*
X43230552Y40882658D02*
X42530552Y40882658D01*
%TO.C,C44*%
X23145000Y39532000D02*
X23845000Y39532000D01*
X23845000Y40732000D02*
X23145000Y40732000D01*
%TO.C,R1*%
X51466000Y41310000D02*
X52166000Y41310000D01*
X52166000Y42510000D02*
X51466000Y42510000D01*
%TO.C,R10*%
X34800000Y38325000D02*
X34800000Y37625000D01*
X36000000Y37625000D02*
X36000000Y38325000D01*
%TO.C,R12*%
X48291000Y38643000D02*
X48991000Y38643000D01*
X48991000Y39843000D02*
X48291000Y39843000D01*
%TO.C,R13*%
X30007000Y39720000D02*
X30007000Y39020000D01*
X31207000Y39020000D02*
X31207000Y39720000D01*
%TO.C,R14*%
X44612000Y38958000D02*
X44612000Y38258000D01*
X45812000Y38258000D02*
X45812000Y38958000D01*
%TO.C,R29*%
X25308000Y38767500D02*
X25308000Y38067500D01*
X26508000Y38067500D02*
X26508000Y38767500D01*
%TO.C,R30*%
X39740551Y39870658D02*
X39740551Y39170658D01*
X40940551Y39170658D02*
X40940551Y39870658D01*
%TO.C,R31*%
X20545500Y39593000D02*
X20545500Y38893000D01*
X21745500Y38893000D02*
X21745500Y39593000D01*
%TO.C,U1*%
X51389000Y37254000D02*
X51389000Y37554000D01*
X51389000Y37554000D02*
X51089000Y37554000D01*
X52289000Y39454000D02*
X52289000Y37254000D01*
X52289000Y37254000D02*
X51089000Y37254000D01*
X51089000Y37254000D02*
X51089000Y39454000D01*
X51089000Y39454000D02*
X52289000Y39454000D01*
%TO.C,U24*%
X32720000Y36746000D02*
X32720000Y37046000D01*
X32720000Y37046000D02*
X32420000Y37046000D01*
X33620000Y38946000D02*
X33620000Y36746000D01*
X33620000Y36746000D02*
X32420000Y36746000D01*
X32420000Y36746000D02*
X32420000Y38946000D01*
X32420000Y38946000D02*
X33620000Y38946000D01*
%TO.C,R34*%
X48291000Y37119000D02*
X48991000Y37119000D01*
X48991000Y38319000D02*
X48291000Y38319000D01*
%TO.C,R35*%
X30892000Y35214000D02*
X31592000Y35214000D01*
X31592000Y36414000D02*
X30892000Y36414000D01*
%TO.C,R36*%
X39325000Y36100000D02*
X40025000Y36100000D01*
X40025000Y37300000D02*
X39325000Y37300000D01*
%TO.C,R48*%
X24275000Y36275000D02*
X23575000Y36275000D01*
X23575000Y35075000D02*
X24275000Y35075000D01*
%TO.C,U26*%
X42580552Y36769659D02*
X42580552Y37069659D01*
X42580552Y37069659D02*
X42280552Y37069659D01*
X43480552Y38969659D02*
X43480552Y36769659D01*
X43480552Y36769659D02*
X42280552Y36769659D01*
X42280552Y36769659D02*
X42280552Y38969659D01*
X42280552Y38969659D02*
X43480552Y38969659D01*
%TO.C,U27*%
X23195000Y36619000D02*
X23195000Y36919000D01*
X23195000Y36919000D02*
X22895000Y36919000D01*
X24095000Y38819000D02*
X24095000Y36619000D01*
X24095000Y36619000D02*
X22895000Y36619000D01*
X22895000Y36619000D02*
X22895000Y38819000D01*
X22895000Y38819000D02*
X24095000Y38819000D01*
D12*
%TO.C,B1*%
X47142400Y26924000D02*
X55524400Y26924000D01*
X55524400Y26924000D02*
X55524400Y34290000D01*
X55524400Y34290000D02*
X47142400Y34290000D01*
X47142400Y34290000D02*
X47142400Y26924000D01*
%TD*%
D13*
%TO.C,SW5*%
X59154000Y28863600D03*
X59154000Y31863600D03*
%TD*%
%TO.C,U13*%
X9517425Y13607889D03*
X15174279Y7951035D03*
%TD*%
M02*
